<?xml version="1.0" standalone="no"?>
<!DOCTYPE svg PUBLIC "-//W3C//DTD SVG 20010904//EN"
 "http://www.w3.org/TR/2001/REC-SVG-20010904/DTD/svg10.dtd">
<svg version="1.0" xmlns="http://www.w3.org/2000/svg"
 width="192.000000pt" height="192.000000pt" viewBox="0 0 192.000000 192.000000"
 preserveAspectRatio="xMidYMid meet">
<metadata>
Created by potrace 1.15, written by Peter Selinger 2001-2017
</metadata>
<g transform="translate(0.000000,192.000000) scale(0.100000,-0.100000)"
fill="#000000" stroke="none">
<path d="M827 1780 c-422 -71 -719 -422 -720 -850 0 -143 31 -268 100 -403 39
-77 64 -109 152 -198 95 -94 117 -111 211 -157 228 -114 448 -129 683 -47 452
157 682 670 505 1128 -60 157 -206 327 -357 417 -81 48 -209 94 -303 110 -73
11 -201 11 -271 0z m268 -14 c280 -61 474 -207 595 -447 57 -111 75 -198 75
-354 -1 -161 -14 -224 -75 -350 -84 -172 -204 -292 -375 -375 -126 -61 -228
-85 -360 -84 -493 5 -872 456 -790 939 61 361 334 621 710 679 32 5 187 -1
220 -8z"/>
</g>
</svg>
