<?xml version="1.0" encoding="utf-8"?>
<!-- Generator: Adobe Illustrator 22.0.1, SVG Export Plug-In . SVG Version: 6.00 Build 0)  -->
<svg version="1.1" id="svg" xmlns="http://www.w3.org/2000/svg" xmlns:xlink="http://www.w3.org/1999/xlink" x="0px" y="0px"
	 viewBox="0 0 400 300" style="enable-background:new 0 0 400 300;" xml:space="preserve">
<style type="text/css">
	.st0{fill:#E51837;}
	.st1{fill:#A8A9AD;}
</style>
<g id="svgg">
	<path id="path1" class="st0" d="M192,48.9c-2.7,0.3-6.4,0.9-9.3,1.6l-3.2,0.8v16.3V84l1.2-0.8c13.5-9.5,33.8-5.3,43.2,9
		c14.6,22.2-3.2,51.2-29.9,48.6c-14.5-1.5-24.3-10.3-27.3-24.9l-0.6-2.7l-0.1-27.7c0-15.2-0.2-27.7-0.3-27.7
		c-1.7,0-11.5,8.5-15.4,13.4c-28.7,35.6-9.5,88.9,35.2,97.9c32.5,6.5,65-14.9,71.3-47c1.1-5.4,1.2-6.5,1.2-12.7
		C258.1,73.6,227.3,45.5,192,48.9 M193.7,91.4c-14.2,2.8-19.4,20.9-9.1,31.3c10.1,10.1,27.6,5,30.5-8.9
		C218,100.5,206.8,88.8,193.7,91.4 M18.8,215.7c0,14,0.1,15.6,1.5,18.8c5.6,13.2,25.8,10.8,28.9-3.4c3.1-13.8-13.5-24.1-24.3-15.1
		c-0.8,0.7-1.6,1.5-1.8,1.9c-0.7,1.3-0.8,0.3-0.8-7.2V203h-1.8h-1.8V215.7 M121.6,203.3c-0.4,1,0,32.8,0.4,34
		c1.2,3.4,4.2,5.5,8.4,5.8l1.8,0.1v-1.7V240l-1.1,0c-2.4,0-4.3-1-5.3-2.8c-0.5-1-0.6-1.2-0.6-10.9l-0.1-9.8h3.5h3.5v-1.6v-1.6h-3.5
		h-3.5l-0.1-5.1l-0.1-5.1l-1.7-0.1C122.2,203,121.7,203.1,121.6,203.3 M65.6,212.8c-10.2,1.5-16.1,12.7-11.6,21.9
		c5.5,11.1,21.4,11.3,27,0.3c1-2,1-2-1.1-2h-1.8l-0.5,1.1c-1.5,3.4-7,6.3-10.9,5.8c-5.1-0.7-9.8-4.9-10.4-9.5l-0.2-1.2h13.3h13.3
		v-1.5C82.8,218.8,74.3,211.5,65.6,212.8 M143.5,212.8c-4.3,0.7-7.1,3.9-7.1,8c0,3.9,1.9,5.8,7.9,7.9c5.7,2,6.9,3.1,6.9,6.1
		c0,6.2-10.1,7.2-11.5,1.1c-0.2-0.7-0.3-1.4-0.4-1.6c-0.1-0.4-4.1-0.5-4.1-0.1c0,10.9,18.4,12.3,20,1.5c0.7-5.1-2.1-8.4-9-10.4
		c-4.6-1.4-6.5-3.3-5.8-6c1.3-4.8,8.5-4.4,9.6,0.5c0.2,0.7,0.2,0.7,2.2,0.7h2l-0.2-1.1C153.3,214.7,148.8,211.9,143.5,212.8
		 M97.5,213.2c-11.4,3.1-15.2,17.1-6.9,25.4c5.9,5.9,15.4,6.1,21,0.4l1.6-1.6v2.7v2.7h1.9h1.9l-0.1-8.4c-0.1-10.8-0.6-12.8-3.6-16.5
		C109.8,213.5,103.4,211.6,97.5,213.2 M37.9,216.5c10.6,3.5,10.7,19,0.1,22.7c-5.8,2-12-0.6-14.6-6.1
		C18.8,223.6,27.9,213.2,37.9,216.5 M70.6,216.3c3.8,1,7.7,5.1,8.3,8.8l0.2,0.9H67.6H56.2l0.2-0.9C57.5,218.9,64.3,214.7,70.6,216.3
		 M105.3,216.5c8.5,2.9,11,13.6,4.6,20c-6.6,6.6-18.2,3-19.9-6.1C88.3,221.1,96.7,213.6,105.3,216.5 M156.2,239.6
		c0.8,0.3,0.8,0.3,0.9,2l0,1.8l0.1-1.9c0.1-1.7,0.2-1.9,0.7-1.9c1.4-0.1,0.7-0.4-0.8-0.3C155.5,239.3,155.4,239.3,156.2,239.6
		 M159.3,241.3c0,1.4,0.1,2,0.3,1.8c0.2-0.1,0.2-0.7,0.2-1.5c-0.1-1.8,0.1-1.7,0.7,0.2c0.6,1.8,0.7,1.9,1.3,0.2
		c0.6-1.9,0.9-2,0.9-0.2c0,0.9,0.1,1.5,0.2,1.4c0.1-0.1,0.2-1,0.2-2c0-2.4-0.5-2.4-1.3-0.1c-0.6,1.8-0.6,1.8-1.4-0.7
		C159.7,238.5,159.3,239,159.3,241.3"/>
	<path id="path2" class="st1" d="M125.4,208c0,2.8,0,4,0.1,2.6c0-1.4,0-3.7,0-5.1C125.4,204,125.4,205.2,125.4,208 M173.6,216.7
		c0.1,14.7,0.1,15.1,1.7,18.5c5.5,12,24.1,10.5,28.3-2.2c4.3-12.8-9-24.6-21-18.7c-1.9,0.9-4.8,3.3-4.8,4c0,0.1-0.1,0.2-0.3,0.2
		c-0.2,0-0.3-2.7-0.3-7.6v-7.6h-1.9h-1.9L173.6,216.7 M267,210.9v7.6l-1.7-1.7c-9.3-9.2-25.3-2-25.3,11.4c0,16.5,24,21.1,29.6,5.6
		c1-2.9,1.2-5.1,1.2-18.3v-12.3h-1.9H267V210.9 M326.3,210.7c0,4.1-0.1,7.5-0.1,7.6c-0.1,0.1-0.9-0.6-1.8-1.5
		c-9-8.7-24.5-2.4-25.2,10.4c-1.1,17.8,24.3,22.6,30,5.7c0.6-1.7,0.6-1.9,0.7-15.7l0.1-13.9H328h-1.8V210.7 M132.3,214.8
		c0,0.9,0,1.3,0.1,0.8c0.1-0.4,0.1-1.2,0-1.6C132.4,213.5,132.3,213.9,132.3,214.8 M284.7,213.7c-1.9,0.5-3.2,1.4-4.3,3l-0.8,1.1
		l-0.1-1.9l-0.1-1.9h-1.7H276l0,14.1v14.1l1.8-0.1l1.8-0.1l0-8.8c0-12.4,0.8-14.5,6.3-15.8l1.7-0.4v-1.8
		C287.5,213,287.5,213,284.7,213.7 M343.6,213.5c-2.3,0.5-3.9,1.5-5.4,3.7c-0.4,0.6-0.4,0.6-0.4-1.3l0-1.9H336h-1.8l0,14.1v14.1
		l1.7-0.1l1.7-0.1l0.1-9.4l0.1-9.4l0.7-1.4c1.2-2.5,3-3.9,5.9-4.5l1.3-0.3v-1.9C345.8,213,345.8,213.1,343.6,213.5 M358.9,213.5
		c-8.4,1.7-13.9,11.2-11.1,19.2c4.4,12.4,20.8,13.6,26.9,2.1c1-1.8,1-1.7-1.1-1.7h-1.9l-0.7,1.3c-4.8,8.5-18.9,5.8-20.2-3.9
		l-0.2-1.2h12.8h12.8l-0.1-2.3C375.7,218.3,367.3,211.8,358.9,213.5 M205.6,214.3c0.1,0.2,2.6,6.3,5.5,13.6l5.4,13.3l-2.4,5.3
		l-2.4,5.3l1.7,0.1c2.2,0.1,1.6,1,5.4-7.9c1.8-4.2,5.4-12.6,8-18.7c2.6-6.1,4.8-11.1,4.8-11.2s-0.8-0.1-1.8-0.1h-1.8l-2.8,6.6
		c-1.5,3.6-3.7,8.6-4.7,11.1c-1.1,2.5-2,4.6-2.1,4.6c-0.1,0-2.1-5-4.5-11.1l-4.4-11.1l-1.9-0.1C205.9,214,205.5,214,205.6,214.3
		 M193.1,216.9c10.9,4.1,9.9,20.3-1.4,22.9c-5.3,1.2-11-1.4-13.4-6.2C173.6,223.7,183,213,193.1,216.9 M259.3,216.7
		c8.4,2.9,10.7,14.2,4.1,20.2c-5.7,5.2-15.1,3.5-18.5-3.3C240.1,223.9,249.2,213.2,259.3,216.7 M317.2,216.4
		c9.6,2.2,12.3,15.4,4.3,21.3c-5.2,3.9-13.2,2.6-16.8-2.7C298.6,225.8,306.6,214,317.2,216.4 M364.2,216.8c2.6,0.6,5.1,2.4,6.6,4.6
		c0.8,1.3,2,4.3,1.8,4.5c-0.1,0.1-5,0.1-10.9,0.1l-10.8,0l0.1-0.8C351.4,219.8,358.4,215.4,364.2,216.8 M125.4,225.5
		c0,4.9,0,6.9,0.1,4.4c0-2.4,0-6.4,0-8.9C125.4,218.6,125.4,220.6,125.4,225.5 M113.3,227.8c0,0.5,0.1,0.7,0.1,0.4
		c0.1-0.2,0.1-0.6,0-0.9C113.4,227.1,113.3,227.3,113.3,227.8 M286.3,238.9v3.1h1.9h1.9v-3.1v-3.1h-1.9h-1.9V238.9 M373.9,239.5
		c0.1,0.1,0.4,0.2,0.6,0.1c0.4-0.1,0.5,0,0.5,1.6c0,1,0.1,1.8,0.3,1.8c0.1,0,0.3-0.7,0.3-1.6c0-1.6,0.1-1.8,0.9-1.6
		c0.2,0,0.4-0.1,0.5-0.2c0.1-0.2-0.4-0.3-1.5-0.3C374.3,239.3,373.8,239.3,373.9,239.5 M377.5,240.5c0,0.7,0,1.5,0.1,1.9
		c0.1,0.6,0.2,0.4,0.2-0.6c0-1.6,0.3-1.7,0.8-0.1c0.2,0.7,0.5,1.2,0.7,1.2s0.5-0.5,0.7-1.2c0.5-1.5,0.7-1.5,0.6,0
		c-0.1,0.7,0,1.3,0.2,1.4c0.2,0.1,0.3-0.4,0.3-1.8c0-2.5-0.5-2.7-1.1-0.5c-0.3,0.8-0.5,1.5-0.6,1.5s-0.4-0.7-0.6-1.5
		C378.1,238.9,377.6,238.8,377.5,240.5"/>
</g>
</svg>
