<svg xmlns="http://www.w3.org/2000/svg" xmlns:xlink="http://www.w3.org/1999/xlink" id="Layer_1" x="0" y="0" enable-background="new 0 0 841.9 595.3" version="1.1" viewBox="0 0 841.9 595.3" xml:space="preserve"><style type="text/css">.st0{fill:#16b14b}.st1{fill:#272626}.st2{fill:#757576}</style><g><path d="M201.9,300.4c0,15.7-12.7,28.4-28.4,28.4c-15.7,0-28.4-12.7-28.4-28.4c0-15.7,12.7-28.4,28.4-28.4 C189.2,272,201.9,284.7,201.9,300.4" class="st0"/><path d="M415.9,268.2l26.3-22.1l6.1-37.1l-20.1-25.2h-65.4l-30.4,25.6l-15.1,91.4l19.9,26.5l73.1,0l22.7-26.5l3.6-22 H436h-30h-6.7l-1.1,7.1l-6.4,4.7l-32.8-0.1L355,286l2.8-17.9L415.9,268.2z M368.7,218.1l5.4-4.7h33l3.9,4.7l-3.2,15.9l-3.9,3.4H365 L368.7,218.1z" class="st1"/><polygon points="562.9 278.8 524.1 278.9 522.7 287.7 516.3 292.4 484 292.4 479.9 287.8 490.4 222.8 496.8 218.1 529.7 218.1 532.7 222.8 531.9 231.3 571.1 231.4 574.8 209 557.4 183.8 487 183.8 458.2 209 443 300.8 463.5 327.3 536.7 327.3 559.7 300.8 563.6 278.8 562.9 278.8" class="st1"/><polygon points="274 286.1 268.6 290.8 254.1 290.8 250.2 286.1 252.7 269.6 261.5 218 296.6 218 302.1 184 269.6 184 276.1 145.9 238 145.9 231.4 184 213.5 184 208 218 226.6 218 212.9 300.7 232.1 326.4 240.2 326.4 286.5 326.4 285.8 326.4 307.1 300.8 310.7 279 275.1 279" class="st1"/><polygon points="677.8 183.8 636.7 183.8 628.4 190.6 623.1 194.5 625.8 177.3 630.9 145.9 595.2 145.9 565.1 327.3 601.6 327.3 617.1 231.4 629.4 222.8 653.3 222.8 658.5 232.9 643.3 327.3 677.9 327.3 696.9 209" class="st1"/><path d="M339,410.5v-56.7h11.7c9.2,0,16.8,2.4,22.8,7.3c6,4.8,9,11.8,9,20.8c0,9.3-3,16.4-9,21.3 c-6,4.9-13.7,7.4-23.1,7.4H339z M346.1,360.3V404h2.5c3.8,0,7.3-0.4,10.4-1.1c3.1-0.8,5.9-2,8.5-3.6c2.5-1.7,4.5-3.9,5.9-6.8 c1.4-2.9,2.1-6.3,2.1-10.3c0-4-0.7-7.5-2.1-10.4c-1.4-2.9-3.4-5.2-6-6.8c-2.6-1.6-5.4-2.8-8.5-3.6c-3.1-0.8-6.5-1.1-10.3-1.1H346.1 z" class="st2"/><path d="M394.4,361.3c5.8-5.8,12.8-8.7,20.9-8.7c8.1,0,15.1,2.9,20.9,8.7c5.8,5.8,8.8,12.7,8.8,20.9 c0,8.4-2.9,15.4-8.6,21.1c-5.8,5.7-12.8,8.5-21.1,8.5c-8.3,0-15.3-2.8-21.1-8.5c-5.8-5.7-8.6-12.7-8.6-21.1 C385.7,374,388.6,367.1,394.4,361.3 M399.4,398.4c4.5,4.4,9.8,6.7,15.9,6.7c6.2,0,11.5-2.2,15.9-6.7c4.5-4.4,6.7-9.9,6.7-16.3 c0-6.4-2.1-11.8-6.4-16.2c-4.3-4.5-9.7-6.7-16.2-6.7c-6.5,0-11.9,2.2-16.2,6.7c-4.3,4.5-6.4,9.9-6.4,16.2 C392.7,388.6,395,394,399.4,398.4" class="st2"/><polygon points="478.6 411.7 461.6 373.1 461.4 373.1 454.8 410.5 447.5 410.5 459.1 351.4 478.6 396.1 498 351.4 509.6 410.5 502.3 410.5 495.7 373.1 495.6 373.1" class="st2"/><path d="M550,396.3h-26l-6.5,14.2h-7.6l27.1-59.1l27.1,59.1h-7.6L550,396.3z M547.1,389.8L537,366.9l-10.1,22.9H547.1z" class="st2"/><rect width="7.1" height="56.7" x="568.6" y="353.8" class="st2"/><polygon points="585.6 410.5 585.6 351.1 628.2 395.7 628.2 353.8 635.2 353.8 635.2 412.8 592.7 368.2 592.7 410.5" class="st2"/><path d="M676.1,361.2l-5.6,3.4c-2.1-3.6-5.1-5.3-9.1-5.3c-2.4,0-4.6,0.8-6.5,2.3c-2,1.5-2.9,3.4-2.9,5.8 c0,3.4,2.6,6.1,7.9,8.1l4.1,1.6c4.5,1.8,8,3.9,10.4,6.5c2.4,2.6,3.6,6.1,3.6,10.5c0,5.1-1.7,9.3-5.2,12.7c-3.5,3.3-7.8,5-12.9,5 c-4.6,0-8.5-1.5-11.7-4.5c-3.3-3-5.2-6.8-5.8-11.4l7.1-1.5c-0.1,3.1,1,5.6,3.1,7.7c2.1,2.1,4.8,3.1,7.9,3.1c3,0,5.5-1.1,7.5-3.3 c2-2.2,3-4.8,3-7.8c0-2.8-0.9-4.9-2.6-6.5c-1.7-1.6-4.1-3-7.2-4.2l-3.9-1.7c-3.9-1.7-6.9-3.6-9.1-5.7c-2.2-2.2-3.3-5-3.3-8.6 c0-4.4,1.7-8,5-10.6c3.3-2.7,7.2-4,11.7-4C668.1,352.6,672.9,355.5,676.1,361.2" class="st2"/></g></svg>