<?xml version="1.0" encoding="utf-8"?>
<!-- Generator: Adobe Illustrator 21.0.0, SVG Export Plug-In . SVG Version: 6.00 Build 0)  -->
<svg version="1.1" id="Layer_1" xmlns="http://www.w3.org/2000/svg" xmlns:xlink="http://www.w3.org/1999/xlink" x="0px" y="0px"
	 viewBox="0 0 1200 1200" style="enable-background:new 0 0 1200 1200;" xml:space="preserve">
<style type="text/css">
	.st0{display:none;}
	.st1{display:inline;fill:none;stroke:#000000;stroke-width:5;stroke-linecap:round;stroke-miterlimit:10;}
	
		.st2{display:inline;opacity:0.35;fill:none;stroke:#66C9D1;stroke-width:5;stroke-linecap:round;stroke-miterlimit:10;enable-background:new    ;}
	
		.st3{display:inline;opacity:0.3;fill:none;stroke:#008799;stroke-width:5;stroke-linecap:round;stroke-miterlimit:10;enable-background:new    ;}
	
		.st4{display:inline;opacity:0.3;fill:none;stroke:#005B87;stroke-width:5;stroke-linecap:round;stroke-miterlimit:10;enable-background:new    ;}
	
		.st5{display:inline;opacity:0.35;fill:none;stroke:#8C2245;stroke-width:5;stroke-linecap:round;stroke-miterlimit:10;enable-background:new    ;}
	
		.st6{display:inline;opacity:0.3;fill:none;stroke:#EC535E;stroke-width:5;stroke-linecap:round;stroke-miterlimit:10;enable-background:new    ;}
	.st7{opacity:0.3;fill:none;stroke:#F78E37;stroke-width:5;stroke-linecap:round;stroke-miterlimit:10;enable-background:new    ;}
</style>
<g id="Layer_1_1_" class="st0">
	<line class="st1" x1="49" y1="54.1" x2="49" y2="1155.1"/>
	<line class="st1" x1="99" y1="114" x2="99" y2="1155.1"/>
	<line class="st1" x1="149" y1="164.5" x2="149" y2="1156.1"/>
	<line class="st1" x1="199" y1="214" x2="199" y2="1153.1"/>
	<line class="st1" x1="249" y1="265.5" x2="249" y2="1155.1"/>
	<line class="st1" x1="299" y1="315" x2="299" y2="1155.1"/>
	<line class="st1" x1="349" y1="365" x2="349" y2="1155.1"/>
	<line class="st1" x1="398.9" y1="414.9" x2="398.9" y2="1156.1"/>
	<line class="st1" x1="449.4" y1="465.3" x2="449.4" y2="1155.1"/>
	<line class="st1" x1="498.7" y1="514.7" x2="498.7" y2="1156.1"/>
	<line class="st1" x1="548.8" y1="1153.1" x2="548.8" y2="564.8"/>
	<line class="st1" x1="598.5" y1="1153.1" x2="598.5" y2="614.4"/>
	<line class="st1" x1="648.5" y1="1153.1" x2="648.5" y2="664.5"/>
	<line class="st1" x1="699" y1="1153.1" x2="699" y2="715"/>
	<line class="st1" x1="748.5" y1="1153.1" x2="748.5" y2="764.5"/>
	<line class="st1" x1="798.8" y1="1153.1" x2="798.8" y2="814.7"/>
	<line class="st1" x1="849.1" y1="1153.1" x2="849.1" y2="865"/>
	<line class="st1" x1="898.9" y1="1153.1" x2="898.9" y2="915.4"/>
	<line class="st1" x1="949.4" y1="1153.1" x2="949.4" y2="965.9"/>
	<line class="st1" x1="998.8" y1="1153.1" x2="998.8" y2="1015.4"/>
	<line class="st1" x1="1049.6" y1="1153.1" x2="1049.6" y2="1066.2"/>
	<line class="st1" x1="1099.3" y1="1153.1" x2="1099.3" y2="1115.9"/>
	<line class="st1" x1="1149" y1="54.1" x2="1149" y2="1155.1"/>
	<line class="st1" x1="99" y1="54.6" x2="99" y2="93.9"/>
	<line class="st1" x1="149" y1="53.6" x2="149" y2="144"/>
	<line class="st1" x1="199" y1="52.6" x2="199" y2="194.5"/>
	<line class="st1" x1="249" y1="52.6" x2="249" y2="244"/>
	<line class="st1" x1="299" y1="51.6" x2="299" y2="294.5"/>
	<line class="st1" x1="348.9" y1="54.6" x2="348.9" y2="344.3"/>
	<line class="st1" x1="398.9" y1="54.6" x2="398.9" y2="394.3"/>
	<line class="st1" x1="448.7" y1="54.6" x2="448.7" y2="444.1"/>
	<line class="st1" x1="498.9" y1="54.6" x2="498.9" y2="494.3"/>
	<line class="st1" x1="548.9" y1="51.6" x2="548.9" y2="544.3"/>
	<line class="st1" x1="598.9" y1="52.6" x2="598.9" y2="594.3"/>
	<line class="st1" x1="648.9" y1="54.6" x2="648.9" y2="644.3"/>
	<line class="st1" x1="698.8" y1="54.6" x2="698.8" y2="694.3"/>
	<line class="st1" x1="748.9" y1="52.6" x2="748.9" y2="744.3"/>
	<line class="st1" x1="799" y1="54.6" x2="799" y2="794.4"/>
	<line class="st1" x1="848.8" y1="54.6" x2="848.8" y2="844.3"/>
	<line class="st1" x1="898.9" y1="54.6" x2="898.9" y2="894.3"/>
	<line class="st1" x1="950" y1="52.6" x2="950" y2="945.5"/>
	<line class="st1" x1="998.6" y1="54.6" x2="998.6" y2="994.1"/>
	<line class="st1" x1="1049.6" y1="51.6" x2="1049.6" y2="1045.1"/>
	<line class="st1" x1="1099.6" y1="52.6" x2="1099.6" y2="1095"/>
</g>
<g id="Layer_2" class="st0">
	<line class="st1" x1="48" y1="1153.6" x2="1148.9" y2="1153.6"/>
	<line class="st1" x1="107.9" y1="1103.6" x2="1148.9" y2="1103.6"/>
	<line class="st1" x1="158.4" y1="1053.6" x2="1149.9" y2="1053.6"/>
	<line class="st1" x1="207.9" y1="1003.6" x2="1146.9" y2="1003.6"/>
	<line class="st1" x1="259.4" y1="953.6" x2="1148.9" y2="953.6"/>
	<line class="st1" x1="308.9" y1="903.6" x2="1148.9" y2="903.6"/>
	<line class="st1" x1="358.9" y1="853.6" x2="1148.9" y2="853.6"/>
	<line class="st1" x1="408.7" y1="803.7" x2="1149.9" y2="803.7"/>
	<line class="st1" x1="459.2" y1="753.3" x2="1148.9" y2="753.3"/>
	<line class="st1" x1="508.6" y1="703.9" x2="1149.9" y2="703.9"/>
	<line class="st1" x1="1146.9" y1="653.8" x2="558.7" y2="653.8"/>
	<line class="st1" x1="1146.9" y1="604.1" x2="608.3" y2="604.1"/>
	<line class="st1" x1="1146.9" y1="554.1" x2="658.4" y2="554.1"/>
	<line class="st1" x1="1146.9" y1="503.6" x2="708.9" y2="503.6"/>
	<line class="st1" x1="1146.9" y1="454.1" x2="758.4" y2="454.1"/>
	<line class="st1" x1="1146.9" y1="403.8" x2="808.6" y2="403.8"/>
	<line class="st1" x1="1146.9" y1="353.5" x2="858.9" y2="353.5"/>
	<line class="st1" x1="1146.9" y1="303.7" x2="909.3" y2="303.7"/>
	<line class="st1" x1="1146.9" y1="253.3" x2="959.7" y2="253.3"/>
	<line class="st1" x1="1146.9" y1="203.8" x2="1009.2" y2="203.8"/>
	<line class="st1" x1="1146.9" y1="153" x2="1060.1" y2="153"/>
	<line class="st1" x1="1146.9" y1="103.3" x2="1109.8" y2="103.3"/>
	<line class="st1" x1="48" y1="53.6" x2="1148.9" y2="53.6"/>
	<line class="st1" x1="48.5" y1="1103.6" x2="87.7" y2="1103.6"/>
	<line class="st1" x1="47.5" y1="1053.6" x2="137.9" y2="1053.6"/>
	<line class="st1" x1="46.5" y1="1003.6" x2="188.4" y2="1003.6"/>
	<line class="st1" x1="46.5" y1="953.6" x2="237.9" y2="953.6"/>
	<line class="st1" x1="45.5" y1="903.6" x2="288.4" y2="903.6"/>
	<line class="st1" x1="48.5" y1="853.8" x2="338.2" y2="853.8"/>
	<line class="st1" x1="48.5" y1="803.8" x2="388.2" y2="803.8"/>
	<line class="st1" x1="48.5" y1="754" x2="438" y2="754"/>
	<line class="st1" x1="48.5" y1="703.8" x2="488.2" y2="703.8"/>
	<line class="st1" x1="45.5" y1="653.8" x2="538.2" y2="653.8"/>
	<line class="st1" x1="46.5" y1="603.8" x2="588.2" y2="603.8"/>
	<line class="st1" x1="48.5" y1="553.8" x2="638.2" y2="553.8"/>
	<line class="st1" x1="48.5" y1="503.8" x2="688.2" y2="503.8"/>
	<line class="st1" x1="46.5" y1="453.8" x2="738.2" y2="453.8"/>
	<line class="st1" x1="48.5" y1="403.7" x2="788.3" y2="403.7"/>
	<line class="st1" x1="48.5" y1="353.8" x2="838.2" y2="353.8"/>
	<line class="st1" x1="48.5" y1="303.8" x2="888.2" y2="303.8"/>
	<line class="st1" x1="46.5" y1="252.6" x2="939.4" y2="252.6"/>
	<line class="st1" x1="48.5" y1="204" x2="987.9" y2="204"/>
	<line class="st1" x1="45.5" y1="153" x2="1039" y2="153"/>
	<line class="st1" x1="46.5" y1="103" x2="1088.9" y2="103"/>
</g>
<g id="Layer_1_copy" class="st0">
	<line class="st1" x1="49" y1="54.1" x2="49" y2="1155.1"/>
	<line class="st1" x1="398.9" y1="414.9" x2="398.9" y2="494.3"/>
	<line class="st1" x1="348.9" y1="362.7" x2="348.9" y2="442.2"/>
	<line class="st1" x1="449.4" y1="465.3" x2="449.4" y2="544.3"/>
	<line class="st1" x1="498.7" y1="514.7" x2="498.7" y2="644.3"/>
	<line class="st1" x1="348.9" y1="465.3" x2="348.9" y2="544.3"/>
	<line class="st1" x1="498.7" y1="665.7" x2="498.7" y2="1156.1"/>
	<line class="st1" x1="448.9" y1="564.5" x2="448.9" y2="694.2"/>
	<polyline class="st1" points="448.9,1153.6 448.9,1153.1 448.9,715.5 	"/>
	<line class="st1" x1="399.6" y1="613.7" x2="399.6" y2="743.4"/>
	<polyline class="st1" points="399.7,1153.6 399.7,1153.1 399.7,764.8 	"/>
	<line class="st1" x1="347.9" y1="665.4" x2="347.9" y2="795.1"/>
	<polyline class="st1" points="347.9,1153.6 347.9,1153.1 347.9,816.5 	"/>
	<line class="st1" x1="299.8" y1="713.5" x2="299.8" y2="843.2"/>
	<polyline class="st1" points="299.8,1153.6 299.8,1153.1 299.8,864.6 	"/>
	<line class="st1" x1="248.9" y1="764.4" x2="248.9" y2="894.1"/>
	<polyline class="st1" points="248.9,1153.6 248.9,1153.1 248.9,915.5 	"/>
	<line class="st1" x1="199.8" y1="813.5" x2="199.8" y2="943.2"/>
	<polyline class="st1" points="199.9,1153.6 199.9,1153.1 199.9,964.5 	"/>
	<line class="st1" x1="149" y1="864.3" x2="149" y2="994"/>
	<polyline class="st1" points="149.1,1153.6 149.1,1153.1 149.1,1015.4 	"/>
	<line class="st1" x1="100" y1="913.4" x2="100" y2="1043.1"/>
	<polyline class="st1" points="100,1153.6 100,1153.1 100,1064.4 	"/>
	<line class="st1" x1="299.1" y1="312.8" x2="299.1" y2="392.3"/>
	<line class="st1" x1="248.9" y1="262.7" x2="248.9" y2="342.1"/>
	<line class="st1" x1="199.3" y1="213.1" x2="199.3" y2="292.6"/>
	<line class="st1" x1="148.5" y1="162.3" x2="148.5" y2="241.8"/>
	<line class="st1" x1="98.7" y1="112.4" x2="98.7" y2="191.9"/>
	<line class="st1" x1="548.8" y1="1153.1" x2="548.8" y2="564.8"/>
	<line class="st1" x1="399.3" y1="515.4" x2="399.3" y2="594.4"/>
	<line class="st1" x1="299.2" y1="414.9" x2="299.2" y2="494.3"/>
	<line class="st1" x1="299.6" y1="515.4" x2="299.6" y2="594.4"/>
	<line class="st1" x1="349.4" y1="565.3" x2="349.4" y2="644.3"/>
	<line class="st1" x1="299.4" y1="615.3" x2="299.4" y2="694.3"/>
	<line class="st1" x1="248.6" y1="363.2" x2="248.6" y2="442.7"/>
	<line class="st1" x1="248.8" y1="465.3" x2="248.8" y2="544.8"/>
	<line class="st1" x1="249.2" y1="565.9" x2="249.2" y2="644.9"/>
	<line class="st1" x1="249" y1="665.7" x2="249" y2="744.7"/>
	<line class="st1" x1="198.9" y1="312.6" x2="198.9" y2="392.1"/>
	<line class="st1" x1="198.7" y1="413.2" x2="198.7" y2="492.7"/>
	<line class="st1" x1="198.9" y1="515.3" x2="198.9" y2="594.7"/>
	<line class="st1" x1="199.2" y1="615.8" x2="199.2" y2="694.8"/>
	<line class="st1" x1="199" y1="715.7" x2="199" y2="794.7"/>
	<line class="st1" x1="148.8" y1="263.7" x2="148.8" y2="343.1"/>
	<line class="st1" x1="148.4" y1="363.2" x2="148.4" y2="442.7"/>
	<line class="st1" x1="148.1" y1="463.8" x2="148.1" y2="543.3"/>
	<line class="st1" x1="148.3" y1="565.8" x2="148.3" y2="645.3"/>
	<line class="st1" x1="148.6" y1="666.4" x2="148.6" y2="745.4"/>
	<line class="st1" x1="148.5" y1="766.2" x2="148.5" y2="845.2"/>
	<line class="st1" x1="98.4" y1="212.4" x2="98.4" y2="291.9"/>
	<line class="st1" x1="98.7" y1="313.8" x2="98.7" y2="393.2"/>
	<line class="st1" x1="98.3" y1="413.3" x2="98.3" y2="492.8"/>
	<line class="st1" x1="98" y1="513.9" x2="98" y2="593.4"/>
	<line class="st1" x1="98.2" y1="615.9" x2="98.2" y2="695.4"/>
	<line class="st1" x1="98.5" y1="716.5" x2="98.5" y2="795.5"/>
	<line class="st1" x1="98.4" y1="816.3" x2="98.4" y2="895.3"/>
	<line class="st1" x1="598.5" y1="1153.1" x2="598.5" y2="614.4"/>
	<line class="st1" x1="648.5" y1="1153.1" x2="648.5" y2="664.5"/>
	<line class="st1" x1="699" y1="1153.1" x2="699" y2="715"/>
	<line class="st1" x1="748.5" y1="1153.1" x2="748.5" y2="764.5"/>
	<line class="st1" x1="798.8" y1="1153.1" x2="798.8" y2="814.7"/>
	<line class="st1" x1="849.1" y1="1153.1" x2="849.1" y2="865"/>
	<line class="st1" x1="898.9" y1="1153.1" x2="898.9" y2="915.4"/>
	<line class="st1" x1="949.4" y1="1153.1" x2="949.4" y2="965.9"/>
	<line class="st1" x1="998.8" y1="1153.1" x2="998.8" y2="1015.4"/>
	<line class="st1" x1="1049.6" y1="1153.1" x2="1049.6" y2="1066.2"/>
	<line class="st1" x1="1099.3" y1="1153.1" x2="1099.3" y2="1115.9"/>
	<line class="st1" x1="1149" y1="54.1" x2="1149" y2="1155.1"/>
	<line class="st1" x1="99" y1="54.6" x2="99" y2="93.9"/>
	<line class="st1" x1="149" y1="53.6" x2="149" y2="144"/>
	<line class="st1" x1="199" y1="52.6" x2="199" y2="194.5"/>
	<line class="st1" x1="249" y1="52.6" x2="249" y2="244"/>
	<line class="st1" x1="299" y1="51.6" x2="299" y2="294.5"/>
	<line class="st1" x1="348.9" y1="54.6" x2="348.9" y2="344.3"/>
	<line class="st1" x1="398.9" y1="54.6" x2="398.9" y2="394.3"/>
	<line class="st1" x1="448.7" y1="54.6" x2="448.7" y2="444.1"/>
	<line class="st1" x1="498.9" y1="54.6" x2="498.9" y2="494.3"/>
	<line class="st1" x1="548.9" y1="51.6" x2="548.9" y2="544.3"/>
	<line class="st1" x1="598.9" y1="52.6" x2="598.9" y2="594.3"/>
	<line class="st1" x1="648.9" y1="54.6" x2="648.9" y2="644.3"/>
	<line class="st1" x1="698.8" y1="54.6" x2="698.8" y2="694.3"/>
	<line class="st1" x1="748.9" y1="52.6" x2="748.9" y2="744.3"/>
	<line class="st1" x1="799" y1="54.6" x2="799" y2="794.4"/>
	<line class="st1" x1="848.8" y1="54.6" x2="848.8" y2="844.3"/>
	<line class="st1" x1="898.9" y1="54.6" x2="898.9" y2="894.3"/>
	<line class="st1" x1="950" y1="52.6" x2="950" y2="945.5"/>
	<line class="st1" x1="998.6" y1="54.6" x2="998.6" y2="994.1"/>
	<line class="st1" x1="1049.6" y1="51.6" x2="1049.6" y2="1045.1"/>
	<line class="st1" x1="1099.6" y1="52.6" x2="1099.6" y2="1095"/>
</g>
<g id="Layer_2_copy" class="st0">
	<line class="st1" x1="48" y1="1153.6" x2="1148.9" y2="1153.6"/>
	<line class="st1" x1="107.9" y1="1103.6" x2="1148.9" y2="1103.6"/>
	<line class="st1" x1="158.4" y1="1053.6" x2="1149.9" y2="1053.6"/>
	<line class="st1" x1="207.9" y1="1003.6" x2="1146.9" y2="1003.6"/>
	<line class="st1" x1="259.4" y1="953.6" x2="1148.9" y2="953.6"/>
	<line class="st1" x1="308.9" y1="903.6" x2="1148.9" y2="903.6"/>
	<line class="st1" x1="358.9" y1="853.6" x2="1148.9" y2="853.6"/>
	<line class="st1" x1="408.7" y1="803.7" x2="1149.9" y2="803.7"/>
	<line class="st1" x1="459.2" y1="753.3" x2="1148.9" y2="753.3"/>
	<line class="st1" x1="508.6" y1="703.9" x2="1149.9" y2="703.9"/>
	<line class="st1" x1="1146.9" y1="653.8" x2="558.7" y2="653.8"/>
	<line class="st1" x1="1146.9" y1="604.1" x2="608.3" y2="604.1"/>
	<line class="st1" x1="1146.9" y1="554.1" x2="658.4" y2="554.1"/>
	<line class="st1" x1="1146.9" y1="503.6" x2="708.9" y2="503.6"/>
	<line class="st1" x1="1146.9" y1="454.1" x2="758.4" y2="454.1"/>
	<line class="st1" x1="1146.9" y1="403.8" x2="808.6" y2="403.8"/>
	<line class="st1" x1="1146.9" y1="353.5" x2="858.9" y2="353.5"/>
	<line class="st1" x1="1146.9" y1="303.7" x2="909.3" y2="303.7"/>
	<line class="st1" x1="1146.9" y1="253.3" x2="959.7" y2="253.3"/>
	<line class="st1" x1="1146.9" y1="203.8" x2="1009.2" y2="203.8"/>
	<line class="st1" x1="1146.9" y1="153" x2="1060.1" y2="153"/>
	<line class="st1" x1="1146.9" y1="103.3" x2="1109.8" y2="103.3"/>
	<line class="st1" x1="48" y1="53.6" x2="1148.9" y2="53.6"/>
	<line class="st1" x1="48.5" y1="1103.6" x2="87.7" y2="1103.6"/>
	<line class="st1" x1="47.5" y1="1053.6" x2="137.9" y2="1053.6"/>
	<line class="st1" x1="46.5" y1="1003.6" x2="188.4" y2="1003.6"/>
	<line class="st1" x1="46.5" y1="953.6" x2="237.9" y2="953.6"/>
	<line class="st1" x1="45.5" y1="903.6" x2="288.4" y2="903.6"/>
	<line class="st1" x1="48.5" y1="853.8" x2="338.2" y2="853.8"/>
	<line class="st1" x1="48.5" y1="803.8" x2="388.2" y2="803.8"/>
	<line class="st1" x1="48.5" y1="754" x2="438" y2="754"/>
	<line class="st1" x1="48.5" y1="703.8" x2="488.2" y2="703.8"/>
	<line class="st1" x1="45.5" y1="653.8" x2="538.2" y2="653.8"/>
	<line class="st1" x1="46.5" y1="603.8" x2="588.2" y2="603.8"/>
	<line class="st1" x1="48.5" y1="553.8" x2="638.2" y2="553.8"/>
	<line class="st1" x1="48.5" y1="503.8" x2="688.2" y2="503.8"/>
	<line class="st1" x1="46.5" y1="453.8" x2="738.2" y2="453.8"/>
	<line class="st1" x1="48.5" y1="403.7" x2="788.3" y2="403.7"/>
	<line class="st1" x1="48.5" y1="353.8" x2="838.2" y2="353.8"/>
	<line class="st1" x1="48.5" y1="303.8" x2="888.2" y2="303.8"/>
	<line class="st1" x1="46.5" y1="252.6" x2="939.4" y2="252.6"/>
	<line class="st1" x1="48.5" y1="204" x2="987.9" y2="204"/>
	<line class="st1" x1="45.5" y1="153" x2="1039" y2="153"/>
	<line class="st1" x1="46.5" y1="103" x2="1088.9" y2="103"/>
</g>
<g id="Creatives1" class="st0">
	<polyline class="st2" points="1125.2,896.3 1125,896.3 76.8,896.8 	"/>
	<line class="st2" x1="486.5" y1="546.4" x2="566" y2="546.4"/>
	<line class="st2" x1="434.3" y1="596.3" x2="513.8" y2="596.3"/>
	<line class="st2" x1="536.9" y1="495.9" x2="616" y2="495.9"/>
	<line class="st2" x1="586.3" y1="446.6" x2="666.1" y2="446.6"/>
	<line class="st2" x1="536.9" y1="596.4" x2="616" y2="596.4"/>
	<line class="st2" x1="1123" y1="447.1" x2="685.3" y2="447.1"/>
	<line class="st2" x1="636.1" y1="496.4" x2="716.5" y2="496.4"/>
	<polyline class="st2" points="737.3,496.4 1125.1,496.4 1125.2,496.4 	"/>
	<line class="st2" x1="685.3" y1="545.6" x2="765.8" y2="545.6"/>
	<line class="st2" x1="1125.9" y1="545.6" x2="787.3" y2="545.6"/>
	<line class="st2" x1="737.1" y1="597.4" x2="815" y2="597.4"/>
	<line class="st2" x1="1124.5" y1="597.3" x2="837.6" y2="597.3"/>
	<line class="st2" x1="785.2" y1="645.5" x2="866.3" y2="645.5"/>
	<line class="st2" x1="1125" y1="645.5" x2="886.3" y2="645.5"/>
	<line class="st2" x1="836.1" y1="696.4" x2="916.9" y2="696.4"/>
	<line class="st2" x1="1125.5" y1="696.3" x2="937.6" y2="696.3"/>
	<line class="st2" x1="885.1" y1="745.4" x2="967" y2="745.4"/>
	<line class="st2" x1="1125" y1="745.4" x2="986.2" y2="745.4"/>
	<line class="st2" x1="935.9" y1="796.3" x2="1014.8" y2="796.3"/>
	<polyline class="st2" points="1036.9,796.2 1124.9,796.2 1125.1,796.2 	"/>
	<line class="st2" x1="985" y1="845.3" x2="1065.6" y2="845.3"/>
	<line class="st2" x1="1125" y1="845.3" x2="1086.1" y2="845.3"/>
	<line class="st2" x1="384.4" y1="646.2" x2="463.9" y2="646.2"/>
	<line class="st2" x1="334.3" y1="696.4" x2="413.7" y2="696.4"/>
	<line class="st2" x1="284.7" y1="745.9" x2="364.2" y2="745.9"/>
	<line class="st2" x1="233.9" y1="796.7" x2="313.4" y2="796.7"/>
	<line class="st2" x1="184" y1="846.6" x2="263.5" y2="846.6"/>
	<polyline class="st2" points="636.4,396.5 1122.3,396.5 1123,396.5 	"/>
	<line class="st2" x1="587" y1="546" x2="666.1" y2="546"/>
	<line class="st2" x1="486.5" y1="646" x2="566" y2="646"/>
	<line class="st2" x1="587" y1="645.7" x2="666.1" y2="645.7"/>
	<line class="st2" x1="636.9" y1="595.9" x2="715.9" y2="595.9"/>
	<line class="st2" x1="686.9" y1="645.9" x2="765.9" y2="645.9"/>
	<line class="st2" x1="434.9" y1="696.6" x2="514.3" y2="696.6"/>
	<line class="st2" x1="536.9" y1="696.5" x2="616.4" y2="696.5"/>
	<line class="st2" x1="637.5" y1="696.1" x2="716.5" y2="696.1"/>
	<line class="st2" x1="737.3" y1="696.3" x2="816.3" y2="696.3"/>
	<line class="st2" x1="384.2" y1="746.3" x2="463.7" y2="746.3"/>
	<line class="st2" x1="484.8" y1="746.6" x2="564.3" y2="746.6"/>
	<line class="st2" x1="586.9" y1="746.4" x2="666.3" y2="746.4"/>
	<line class="st2" x1="687.4" y1="746.1" x2="766.4" y2="746.1"/>
	<line class="st2" x1="787.3" y1="746.2" x2="866.3" y2="746.2"/>
	<line class="st2" x1="335.3" y1="796.5" x2="414.7" y2="796.5"/>
	<line class="st2" x1="434.8" y1="796.9" x2="514.3" y2="796.9"/>
	<line class="st2" x1="535.4" y1="797.2" x2="614.9" y2="797.2"/>
	<line class="st2" x1="637.4" y1="797" x2="716.9" y2="797"/>
	<line class="st2" x1="738" y1="796.6" x2="817" y2="796.6"/>
	<line class="st2" x1="837.9" y1="796.8" x2="916.9" y2="796.8"/>
	<line class="st2" x1="284" y1="846.8" x2="363.5" y2="846.8"/>
	<line class="st2" x1="385.4" y1="846.6" x2="464.8" y2="846.6"/>
	<line class="st2" x1="484.9" y1="847" x2="564.4" y2="847"/>
	<line class="st2" x1="585.5" y1="847.3" x2="665" y2="847.3"/>
	<line class="st2" x1="687.6" y1="847.1" x2="767" y2="847.1"/>
	<line class="st2" x1="788.1" y1="846.7" x2="867.1" y2="846.7"/>
	<line class="st2" x1="888" y1="846.9" x2="967" y2="846.9"/>
	<polyline class="st2" points="77.8,346.8 126.5,346.8 176.3,346.8 227.2,346.8 275.6,346.8 326.6,346.8 376.5,346.8 426.2,346.8 
		476.2,346.8 526.1,346.8 575.9,346.8 675.6,346.8 725.5,346.8 774.8,346.8 824.2,346.8 825.1,346.8 844,346.8 874.8,346.8 
		924.6,346.8 974.7,346.8 1023.9,346.8 1073.7,346.8 1123.1,346.8 1125.2,346.8 1125.9,346.8 	"/>
	<line class="st2" x1="76.8" y1="846.2" x2="165.5" y2="846.2"/>
	<line class="st2" x1="76.8" y1="796.2" x2="215.6" y2="796.2"/>
	<line class="st2" x1="76.8" y1="746.2" x2="266.1" y2="746.2"/>
	<line class="st2" x1="77.1" y1="696.5" x2="315.6" y2="696.3"/>
	<line class="st2" x1="77.8" y1="646.2" x2="366.1" y2="646.2"/>
	<line class="st2" x1="77.1" y1="596.7" x2="416" y2="596.4"/>
	<line class="st2" x1="77.8" y1="546.4" x2="466" y2="546.4"/>
	<line class="st2" x1="77" y1="497.9" x2="515.8" y2="496.6"/>
	<line class="st2" x1="76.8" y1="446.4" x2="566" y2="446.4"/>
	<line class="st2" x1="77.8" y1="397.2" x2="616" y2="396.4"/>
</g>
<g id="Creatives2" class="st0">
	<polyline class="st2" points="1125.2,706.9 1125.2,715.1 1125.2,723.3 1125.2,731.4 1125.2,739.5 1125.2,748 1125.2,755.9 
		1125.2,764.3 1125.2,772.3 1125.2,780.7 1125.2,787.4 	"/>
	<polyline class="st2" points="1074.8,656.5 1074.8,664.6 1074.8,672.9 1074.8,681 1074.8,689.1 1074.8,697.6 1074.8,705.5 
		1074.8,713.9 1074.8,721.9 1074.8,730.2 1074.8,737 	"/>
	<polyline class="st2" points="1125,603.5 1125,614.2 1125,624.9 1125,631.5 1125,635.4 1125,646.5 1125,656.8 1125,667.8 
		1125,678.3 1125,687.2 	"/>
	<polyline class="st2" points="1075.1,553.6 1075.1,564.4 1075.1,575 1075.1,581.7 1075.1,585.6 1075.1,596.7 1075.1,607 
		1075.1,617.9 1075.1,628.4 1075.1,637.4 	"/>
	<polyline class="st2" points="1125.6,504.3 1125.6,515 1125.6,525.7 1125.6,532.3 1125.6,536.2 1125.6,547.3 1125.6,557.6 
		1125.6,568.6 1125.6,579.1 1125.6,588 	"/>
	<polyline class="st2" points="1124.7,346.8 1124.7,347.7 1124.7,389.2 	"/>
	<polyline class="st2" points="1125.4,405.3 1125.4,416 1125.4,426.7 1125.4,433.3 1125.4,437.2 1125.4,448.3 1125.4,458.7 
		1125.4,469.6 1125.4,480.1 1125.4,489 	"/>
	<polyline class="st2" points="1074.7,346.8 1074.7,395.8 1074.7,437.4 	"/>
	<polyline class="st2" points="1075.1,453.8 1075.1,464.5 1075.1,475.2 1075.1,481.8 1075.1,485.8 1075.1,496.8 1075.1,507.2 
		1075.1,518.1 1075.1,528.6 1075.1,537.5 	"/>
	<line class="st2" x1="1025.4" y1="388" x2="1025.4" y2="346.8"/>
	<polyline class="st2" points="1025.7,404.4 1025.7,415.1 1025.7,425.8 1025.7,432.5 1025.7,436.4 1025.7,447.5 1025.7,457.8 
		1025.7,468.7 1025.7,479.2 1025.7,488.1 	"/>
	<polyline class="st2" points="1025.2,503.7 1025.2,514.4 1025.2,525.1 1025.2,531.7 1025.2,535.6 1025.2,546.7 1025.2,557 
		1025.2,568 1025.2,578.5 1025.2,587.4 	"/>
	<polyline class="st2" points="975.1,453.6 975.1,464.4 975.1,475 975.1,481.7 975.1,485.6 975.1,496.7 975.1,507 975.1,517.9 
		975.1,528.4 975.1,537.4 	"/>
	<polyline class="st2" points="975.1,346.8 975.1,395.4 975.1,436.9 	"/>
	<polyline class="st2" points="925.2,403.7 925.2,414.4 925.2,425.1 925.2,431.7 925.2,435.6 925.2,446.7 925.2,457 925.2,468 
		925.2,478.5 925.2,487.4 	"/>
	<line class="st2" x1="925.2" y1="387" x2="925.2" y2="346.8"/>
	<polyline class="st2" points="1024.8,606.5 1024.8,614.6 1024.8,622.9 1024.8,631 1024.8,639.1 1024.8,647.6 1024.8,655.5 
		1024.8,663.9 1024.8,671.9 1024.8,680.2 1024.8,687 	"/>
	<polyline class="st2" points="975.1,556.8 975.1,565 975.1,573.2 975.1,581.4 975.1,589.4 975.1,597.9 975.1,605.8 975.1,614.2 
		975.1,622.2 975.1,630.6 975.1,637.3 	"/>
	<polyline class="st2" points="924.7,506.4 924.7,514.6 924.7,522.8 924.7,531 924.7,539 924.7,547.5 924.7,555.4 924.7,563.8 
		924.7,571.8 924.7,580.2 924.7,586.9 	"/>
	<polyline class="st2" points="874.7,456.4 874.7,464.6 874.7,472.8 874.7,481 874.7,489 874.7,497.5 874.7,505.4 874.7,513.8 
		874.7,521.8 874.7,530.2 874.7,536.9 	"/>
	<polyline class="st2" points="874.5,346.8 874.5,395.1 874.5,436.7 	"/>
	<polyline class="st2" points="824.9,346.8 824.9,396.5 824.9,446.5 824.9,486.1 	"/>
	<polyline class="st2" points="775.5,346.8 775.5,396.5 775.5,436.7 	"/>
	<line class="st2" x1="725.4" y1="346.8" x2="725.4" y2="386.6"/>
	<line class="st2" x1="1125.2" y1="897.8" x2="1125.2" y2="807.4"/>
	<line class="st2" x1="1075.2" y1="898.8" x2="1075.2" y2="756.9"/>
	<line class="st2" x1="1025.2" y1="898.8" x2="1025.2" y2="707.4"/>
	<line class="st2" x1="975.2" y1="899.8" x2="975.2" y2="656.9"/>
	<line class="st2" x1="925.4" y1="896.8" x2="925.4" y2="607.1"/>
	<line class="st2" x1="875.4" y1="896.8" x2="875.4" y2="557.1"/>
	<line class="st2" x1="825.6" y1="896.8" x2="825.6" y2="507.3"/>
	<line class="st2" x1="775.4" y1="896.8" x2="775.4" y2="457.1"/>
	<line class="st2" x1="725.4" y1="899.8" x2="725.4" y2="407.1"/>
	<line class="st2" x1="675.4" y1="898.8" x2="675.4" y2="357.1"/>
	<polyline class="st2" points="76.8,837.4 76.8,830.6 76.8,822.3 76.8,814.3 76.8,805.9 76.8,798 76.8,789.5 76.8,781.4 76.8,773.3 
		76.8,765 76.8,756.9 	"/>
	<polyline class="st2" points="77.1,737.2 77.1,728.3 77.1,717.7 77.1,706.8 77.1,696.5 77.1,685.4 77.1,681.5 77.1,674.8 
		77.1,664.2 77.1,653.4 	"/>
	<polyline class="st2" points="126.8,787.4 126.8,780.7 126.8,772.3 126.8,764.3 126.8,755.9 126.8,748 126.8,739.5 126.8,731.4 
		126.8,723.3 126.8,715.1 126.8,706.9 	"/>
	<polyline class="st2" points="177.2,737 177.2,730.2 177.2,721.9 177.2,713.9 177.2,705.5 177.2,697.6 177.2,689.1 177.2,681 
		177.2,672.9 177.2,664.6 177.2,656.5 	"/>
	<polyline class="st2" points="127,687.2 127,678.3 127,667.8 127,656.8 127,646.5 127,635.4 127,631.5 127,624.9 127,614.2 
		127,603.5 	"/>
	<polyline class="st2" points="176.9,637.4 176.9,628.4 176.9,617.9 176.9,607 176.9,596.7 176.9,585.6 176.9,581.7 176.9,575 
		176.9,564.4 176.9,553.6 	"/>
	<polyline class="st2" points="77.1,637.4 77.1,628.4 77.1,617.9 77.1,607 77.1,596.7 77.1,585.6 77.1,581.7 77.1,575 77.1,564.4 
		77.1,553.6 	"/>
	<polyline class="st2" points="77.8,438.8 77.8,397.2 77.8,348.2 77.8,346.8 	"/>
	<polyline class="st2" points="126.4,588 126.4,579.1 126.4,568.6 126.4,557.6 126.4,547.3 126.4,536.2 126.4,532.3 126.4,525.7 
		126.4,515 126.4,504.3 	"/>
	<polyline class="st2" points="77,538.6 77,529.7 77,519.1 77,508.2 77,497.9 77,486.8 77,482.9 77,476.3 77,465.6 77,454.9 	"/>
	<polyline class="st2" points="127.3,389.2 127.3,347.7 127.3,346.8 	"/>
	<polyline class="st2" points="126.6,489 126.6,480.1 126.6,469.6 126.6,458.7 126.6,448.3 126.6,437.2 126.6,433.3 126.6,426.7 
		126.6,416 126.6,405.3 	"/>
	<polyline class="st2" points="177.3,437.4 177.3,395.8 177.3,346.8 	"/>
	<polyline class="st2" points="176.9,537.5 176.9,528.6 176.9,518.1 176.9,507.2 176.9,496.8 176.9,485.8 176.9,481.8 176.9,475.2 
		176.9,464.5 176.9,453.8 	"/>
	<line class="st2" x1="226.7" y1="346.8" x2="226.7" y2="388"/>
	<polyline class="st2" points="226.3,488.1 226.3,479.2 226.3,468.7 226.3,457.8 226.3,447.5 226.3,436.4 226.3,432.5 226.3,425.8 
		226.3,415.1 226.3,404.4 	"/>
	<polyline class="st2" points="226.8,587.4 226.8,578.5 226.8,568 226.8,557 226.8,546.7 226.8,535.6 226.8,531.7 226.8,525.1 
		226.8,514.4 226.8,503.7 	"/>
	<polyline class="st2" points="276.9,537.4 276.9,528.4 276.9,517.9 276.9,507 276.9,496.7 276.9,485.6 276.9,481.7 276.9,475 
		276.9,464.4 276.9,453.6 	"/>
	<polyline class="st2" points="276.9,436.9 276.9,395.4 276.9,346.8 	"/>
	<polyline class="st2" points="326.8,487.4 326.8,478.5 326.8,468 326.8,457 326.8,446.7 326.8,435.6 326.8,431.7 326.8,425.1 
		326.8,414.4 326.8,403.7 	"/>
	<line class="st2" x1="326.8" y1="346.8" x2="326.8" y2="387"/>
	<polyline class="st2" points="227.2,687 227.2,680.2 227.2,671.9 227.2,663.9 227.2,655.5 227.2,647.6 227.2,639.1 227.2,631 
		227.2,622.9 227.2,614.6 227.2,606.5 	"/>
	<polyline class="st2" points="276.9,637.3 276.9,630.6 276.9,622.2 276.9,614.2 276.9,605.8 276.9,597.9 276.9,589.4 276.9,581.4 
		276.9,573.2 276.9,565 276.9,556.8 	"/>
	<polyline class="st2" points="327.3,586.9 327.3,580.2 327.3,571.8 327.3,563.8 327.3,555.4 327.3,547.5 327.3,539 327.3,531 
		327.3,522.8 327.3,514.6 327.3,506.4 	"/>
	<polyline class="st2" points="377.3,536.9 377.3,530.2 377.3,521.8 377.3,513.8 377.3,505.4 377.3,497.5 377.3,489 377.3,481 
		377.3,472.8 377.3,464.6 377.3,456.4 	"/>
	<polyline class="st2" points="377.5,436.7 377.5,395.1 377.5,346.8 	"/>
	<polyline class="st2" points="427.1,486.1 427.1,446.5 427.1,396.5 427.1,346.8 	"/>
	<polyline class="st2" points="476.5,436.7 476.5,396.5 476.5,346.8 	"/>
	<line class="st2" x1="526.6" y1="386.6" x2="526.6" y2="346.8"/>
	<line class="st2" x1="76.8" y1="896.8" x2="76.8" y2="857.5"/>
	<line class="st2" x1="126.8" y1="897.8" x2="126.8" y2="807.4"/>
	<line class="st2" x1="176.8" y1="898.8" x2="176.8" y2="756.9"/>
	<line class="st2" x1="226.8" y1="898.8" x2="226.8" y2="707.4"/>
	<line class="st2" x1="276.8" y1="899.8" x2="276.8" y2="656.9"/>
	<line class="st2" x1="326.7" y1="896.8" x2="326.7" y2="607.1"/>
	<line class="st2" x1="376.7" y1="896.8" x2="376.7" y2="557.1"/>
	<line class="st2" x1="426.5" y1="896.8" x2="426.5" y2="507.3"/>
	<line class="st2" x1="476.7" y1="896.8" x2="476.7" y2="457.1"/>
	<line class="st2" x1="526.7" y1="899.8" x2="526.7" y2="407.1"/>
	<line class="st2" x1="576.7" y1="898.8" x2="576.7" y2="357.1"/>
	<line class="st2" x1="625.4" y1="896.8" x2="625.4" y2="346.8"/>
</g>
<g id="Marketing1" class="st0">
	<polyline class="st3" points="1125.2,896.3 1125,896.3 76.8,896.8 	"/>
	<line class="st3" x1="486.5" y1="546.4" x2="566" y2="546.4"/>
	<line class="st3" x1="434.3" y1="596.3" x2="513.8" y2="596.3"/>
	<line class="st3" x1="536.9" y1="495.9" x2="616" y2="495.9"/>
	<line class="st3" x1="586.3" y1="446.6" x2="666.1" y2="446.6"/>
	<line class="st3" x1="536.9" y1="596.4" x2="616" y2="596.4"/>
	<line class="st3" x1="1123" y1="447.1" x2="685.3" y2="447.1"/>
	<line class="st3" x1="636.1" y1="496.4" x2="716.5" y2="496.4"/>
	<polyline class="st3" points="737.3,496.4 1125.1,496.4 1125.2,496.4 	"/>
	<line class="st3" x1="685.3" y1="545.6" x2="765.8" y2="545.6"/>
	<line class="st3" x1="1125.9" y1="545.6" x2="787.3" y2="545.6"/>
	<line class="st3" x1="737.1" y1="597.4" x2="815" y2="597.4"/>
	<line class="st3" x1="1124.5" y1="597.3" x2="837.6" y2="597.3"/>
	<line class="st3" x1="785.2" y1="645.5" x2="866.3" y2="645.5"/>
	<line class="st3" x1="1125" y1="645.5" x2="886.3" y2="645.5"/>
	<line class="st3" x1="836.1" y1="696.4" x2="916.9" y2="696.4"/>
	<line class="st3" x1="1125.5" y1="696.3" x2="937.6" y2="696.3"/>
	<line class="st3" x1="885.1" y1="745.4" x2="967" y2="745.4"/>
	<line class="st3" x1="1125" y1="745.4" x2="986.2" y2="745.4"/>
	<line class="st3" x1="935.9" y1="796.3" x2="1014.8" y2="796.3"/>
	<polyline class="st3" points="1036.9,796.2 1124.9,796.2 1125.1,796.2 	"/>
	<line class="st3" x1="985" y1="845.3" x2="1065.6" y2="845.3"/>
	<line class="st3" x1="1125" y1="845.3" x2="1086.1" y2="845.3"/>
	<line class="st3" x1="384.4" y1="646.2" x2="463.9" y2="646.2"/>
	<line class="st3" x1="334.3" y1="696.4" x2="413.7" y2="696.4"/>
	<line class="st3" x1="284.7" y1="745.9" x2="364.2" y2="745.9"/>
	<line class="st3" x1="233.9" y1="796.7" x2="313.4" y2="796.7"/>
	<line class="st3" x1="184" y1="846.6" x2="263.5" y2="846.6"/>
	<polyline class="st3" points="636.4,396.5 1122.3,396.5 1123,396.5 	"/>
	<line class="st3" x1="587" y1="546" x2="666.1" y2="546"/>
	<line class="st3" x1="486.5" y1="646" x2="566" y2="646"/>
	<line class="st3" x1="587" y1="645.7" x2="666.1" y2="645.7"/>
	<line class="st3" x1="636.9" y1="595.9" x2="715.9" y2="595.9"/>
	<line class="st3" x1="686.9" y1="645.9" x2="765.9" y2="645.9"/>
	<line class="st3" x1="434.9" y1="696.6" x2="514.3" y2="696.6"/>
	<line class="st3" x1="536.9" y1="696.5" x2="616.4" y2="696.5"/>
	<line class="st3" x1="637.5" y1="696.1" x2="716.5" y2="696.1"/>
	<line class="st3" x1="737.3" y1="696.3" x2="816.3" y2="696.3"/>
	<line class="st3" x1="384.2" y1="746.3" x2="463.7" y2="746.3"/>
	<line class="st3" x1="484.8" y1="746.6" x2="564.3" y2="746.6"/>
	<line class="st3" x1="586.9" y1="746.4" x2="666.3" y2="746.4"/>
	<line class="st3" x1="687.4" y1="746.1" x2="766.4" y2="746.1"/>
	<line class="st3" x1="787.3" y1="746.2" x2="866.3" y2="746.2"/>
	<line class="st3" x1="335.3" y1="796.5" x2="414.7" y2="796.5"/>
	<line class="st3" x1="434.8" y1="796.9" x2="514.3" y2="796.9"/>
	<line class="st3" x1="535.4" y1="797.2" x2="614.9" y2="797.2"/>
	<line class="st3" x1="637.4" y1="797" x2="716.9" y2="797"/>
	<line class="st3" x1="738" y1="796.6" x2="817" y2="796.6"/>
	<line class="st3" x1="837.9" y1="796.8" x2="916.9" y2="796.8"/>
	<line class="st3" x1="284" y1="846.8" x2="363.5" y2="846.8"/>
	<line class="st3" x1="385.4" y1="846.6" x2="464.8" y2="846.6"/>
	<line class="st3" x1="484.9" y1="847" x2="564.4" y2="847"/>
	<line class="st3" x1="585.5" y1="847.3" x2="665" y2="847.3"/>
	<line class="st3" x1="687.6" y1="847.1" x2="767" y2="847.1"/>
	<line class="st3" x1="788.1" y1="846.7" x2="867.1" y2="846.7"/>
	<line class="st3" x1="888" y1="846.9" x2="967" y2="846.9"/>
	<polyline class="st3" points="77.8,346.8 126.5,346.8 176.3,346.8 227.2,346.8 275.6,346.8 326.6,346.8 376.5,346.8 426.2,346.8 
		476.2,346.8 526.1,346.8 575.9,346.8 675.6,346.8 725.5,346.8 774.8,346.8 824.2,346.8 825.1,346.8 844,346.8 874.8,346.8 
		924.6,346.8 974.7,346.8 1023.9,346.8 1073.7,346.8 1123.1,346.8 1125.2,346.8 1125.9,346.8 	"/>
	<line class="st3" x1="76.8" y1="846.2" x2="165.5" y2="846.2"/>
	<line class="st3" x1="76.8" y1="796.2" x2="215.6" y2="796.2"/>
	<line class="st3" x1="76.8" y1="746.2" x2="266.1" y2="746.2"/>
	<line class="st3" x1="77.1" y1="696.5" x2="315.6" y2="696.3"/>
	<line class="st3" x1="77.8" y1="646.2" x2="366.1" y2="646.2"/>
	<line class="st3" x1="77.1" y1="596.7" x2="416" y2="596.4"/>
	<line class="st3" x1="77.8" y1="546.4" x2="466" y2="546.4"/>
	<line class="st3" x1="77" y1="497.9" x2="515.8" y2="496.6"/>
	<line class="st3" x1="76.8" y1="446.4" x2="566" y2="446.4"/>
	<line class="st3" x1="77.8" y1="397.2" x2="616" y2="396.4"/>
</g>
<g id="Marketing2" class="st0">
	<polyline class="st3" points="1125.2,706.9 1125.2,715.1 1125.2,723.3 1125.2,731.4 1125.2,739.5 1125.2,748 1125.2,755.9 
		1125.2,764.3 1125.2,772.3 1125.2,780.7 1125.2,787.4 	"/>
	<polyline class="st3" points="1074.8,656.5 1074.8,664.6 1074.8,672.9 1074.8,681 1074.8,689.1 1074.8,697.6 1074.8,705.5 
		1074.8,713.9 1074.8,721.9 1074.8,730.2 1074.8,737 	"/>
	<polyline class="st3" points="1125,603.5 1125,614.2 1125,624.9 1125,631.5 1125,635.4 1125,646.5 1125,656.8 1125,667.8 
		1125,678.3 1125,687.2 	"/>
	<polyline class="st3" points="1075.1,553.6 1075.1,564.4 1075.1,575 1075.1,581.7 1075.1,585.6 1075.1,596.7 1075.1,607 
		1075.1,617.9 1075.1,628.4 1075.1,637.4 	"/>
	<polyline class="st3" points="1125.6,504.3 1125.6,515 1125.6,525.7 1125.6,532.3 1125.6,536.2 1125.6,547.3 1125.6,557.6 
		1125.6,568.6 1125.6,579.1 1125.6,588 	"/>
	<polyline class="st3" points="1124.7,346.8 1124.7,347.7 1124.7,389.2 	"/>
	<polyline class="st3" points="1125.4,405.3 1125.4,416 1125.4,426.7 1125.4,433.3 1125.4,437.2 1125.4,448.3 1125.4,458.7 
		1125.4,469.6 1125.4,480.1 1125.4,489 	"/>
	<polyline class="st3" points="1074.7,346.8 1074.7,395.8 1074.7,437.4 	"/>
	<polyline class="st3" points="1075.1,453.8 1075.1,464.5 1075.1,475.2 1075.1,481.8 1075.1,485.8 1075.1,496.8 1075.1,507.2 
		1075.1,518.1 1075.1,528.6 1075.1,537.5 	"/>
	<line class="st3" x1="1025.4" y1="388" x2="1025.4" y2="346.8"/>
	<polyline class="st3" points="1025.7,404.4 1025.7,415.1 1025.7,425.8 1025.7,432.5 1025.7,436.4 1025.7,447.5 1025.7,457.8 
		1025.7,468.7 1025.7,479.2 1025.7,488.1 	"/>
	<polyline class="st3" points="1025.2,503.7 1025.2,514.4 1025.2,525.1 1025.2,531.7 1025.2,535.6 1025.2,546.7 1025.2,557 
		1025.2,568 1025.2,578.5 1025.2,587.4 	"/>
	<polyline class="st3" points="975.1,453.6 975.1,464.4 975.1,475 975.1,481.7 975.1,485.6 975.1,496.7 975.1,507 975.1,517.9 
		975.1,528.4 975.1,537.4 	"/>
	<polyline class="st3" points="975.1,346.8 975.1,395.4 975.1,436.9 	"/>
	<polyline class="st3" points="925.2,403.7 925.2,414.4 925.2,425.1 925.2,431.7 925.2,435.6 925.2,446.7 925.2,457 925.2,468 
		925.2,478.5 925.2,487.4 	"/>
	<line class="st3" x1="925.2" y1="387" x2="925.2" y2="346.8"/>
	<polyline class="st3" points="1024.8,606.5 1024.8,614.6 1024.8,622.9 1024.8,631 1024.8,639.1 1024.8,647.6 1024.8,655.5 
		1024.8,663.9 1024.8,671.9 1024.8,680.2 1024.8,687 	"/>
	<polyline class="st3" points="975.1,556.8 975.1,565 975.1,573.2 975.1,581.4 975.1,589.4 975.1,597.9 975.1,605.8 975.1,614.2 
		975.1,622.2 975.1,630.6 975.1,637.3 	"/>
	<polyline class="st3" points="924.7,506.4 924.7,514.6 924.7,522.8 924.7,531 924.7,539 924.7,547.5 924.7,555.4 924.7,563.8 
		924.7,571.8 924.7,580.2 924.7,586.9 	"/>
	<polyline class="st3" points="874.7,456.4 874.7,464.6 874.7,472.8 874.7,481 874.7,489 874.7,497.5 874.7,505.4 874.7,513.8 
		874.7,521.8 874.7,530.2 874.7,536.9 	"/>
	<polyline class="st3" points="874.5,346.8 874.5,395.1 874.5,436.7 	"/>
	<polyline class="st3" points="824.9,346.8 824.9,396.5 824.9,446.5 824.9,486.1 	"/>
	<polyline class="st3" points="775.5,346.8 775.5,396.5 775.5,436.7 	"/>
	<line class="st3" x1="725.4" y1="346.8" x2="725.4" y2="386.6"/>
	<line class="st3" x1="1125.2" y1="897.8" x2="1125.2" y2="807.4"/>
	<line class="st3" x1="1075.2" y1="898.8" x2="1075.2" y2="756.9"/>
	<line class="st3" x1="1025.2" y1="898.8" x2="1025.2" y2="707.4"/>
	<line class="st3" x1="975.2" y1="899.8" x2="975.2" y2="656.9"/>
	<line class="st3" x1="925.4" y1="896.8" x2="925.4" y2="607.1"/>
	<line class="st3" x1="875.4" y1="896.8" x2="875.4" y2="557.1"/>
	<line class="st3" x1="825.6" y1="896.8" x2="825.6" y2="507.3"/>
	<line class="st3" x1="775.4" y1="896.8" x2="775.4" y2="457.1"/>
	<line class="st3" x1="725.4" y1="899.8" x2="725.4" y2="407.1"/>
	<line class="st3" x1="675.4" y1="898.8" x2="675.4" y2="357.1"/>
	<polyline class="st3" points="76.8,837.4 76.8,830.6 76.8,822.3 76.8,814.3 76.8,805.9 76.8,798 76.8,789.5 76.8,781.4 76.8,773.3 
		76.8,765 76.8,756.9 	"/>
	<polyline class="st3" points="77.1,737.2 77.1,728.3 77.1,717.7 77.1,706.8 77.1,696.5 77.1,685.4 77.1,681.5 77.1,674.8 
		77.1,664.2 77.1,653.4 	"/>
	<polyline class="st3" points="126.8,787.4 126.8,780.7 126.8,772.3 126.8,764.3 126.8,755.9 126.8,748 126.8,739.5 126.8,731.4 
		126.8,723.3 126.8,715.1 126.8,706.9 	"/>
	<polyline class="st3" points="177.2,737 177.2,730.2 177.2,721.9 177.2,713.9 177.2,705.5 177.2,697.6 177.2,689.1 177.2,681 
		177.2,672.9 177.2,664.6 177.2,656.5 	"/>
	<polyline class="st3" points="127,687.2 127,678.3 127,667.8 127,656.8 127,646.5 127,635.4 127,631.5 127,624.9 127,614.2 
		127,603.5 	"/>
	<polyline class="st3" points="176.9,637.4 176.9,628.4 176.9,617.9 176.9,607 176.9,596.7 176.9,585.6 176.9,581.7 176.9,575 
		176.9,564.4 176.9,553.6 	"/>
	<polyline class="st3" points="77.1,637.4 77.1,628.4 77.1,617.9 77.1,607 77.1,596.7 77.1,585.6 77.1,581.7 77.1,575 77.1,564.4 
		77.1,553.6 	"/>
	<polyline class="st3" points="77.8,438.8 77.8,397.2 77.8,348.2 77.8,346.8 	"/>
	<polyline class="st3" points="126.4,588 126.4,579.1 126.4,568.6 126.4,557.6 126.4,547.3 126.4,536.2 126.4,532.3 126.4,525.7 
		126.4,515 126.4,504.3 	"/>
	<polyline class="st3" points="77,538.6 77,529.7 77,519.1 77,508.2 77,497.9 77,486.8 77,482.9 77,476.3 77,465.6 77,454.9 	"/>
	<polyline class="st3" points="127.3,389.2 127.3,347.7 127.3,346.8 	"/>
	<polyline class="st3" points="126.6,489 126.6,480.1 126.6,469.6 126.6,458.7 126.6,448.3 126.6,437.2 126.6,433.3 126.6,426.7 
		126.6,416 126.6,405.3 	"/>
	<polyline class="st3" points="177.3,437.4 177.3,395.8 177.3,346.8 	"/>
	<polyline class="st3" points="176.9,537.5 176.9,528.6 176.9,518.1 176.9,507.2 176.9,496.8 176.9,485.8 176.9,481.8 176.9,475.2 
		176.9,464.5 176.9,453.8 	"/>
	<line class="st3" x1="226.7" y1="346.8" x2="226.7" y2="388"/>
	<polyline class="st3" points="226.3,488.1 226.3,479.2 226.3,468.7 226.3,457.8 226.3,447.5 226.3,436.4 226.3,432.5 226.3,425.8 
		226.3,415.1 226.3,404.4 	"/>
	<polyline class="st3" points="226.8,587.4 226.8,578.5 226.8,568 226.8,557 226.8,546.7 226.8,535.6 226.8,531.7 226.8,525.1 
		226.8,514.4 226.8,503.7 	"/>
	<polyline class="st3" points="276.9,537.4 276.9,528.4 276.9,517.9 276.9,507 276.9,496.7 276.9,485.6 276.9,481.7 276.9,475 
		276.9,464.4 276.9,453.6 	"/>
	<polyline class="st3" points="276.9,436.9 276.9,395.4 276.9,346.8 	"/>
	<polyline class="st3" points="326.8,487.4 326.8,478.5 326.8,468 326.8,457 326.8,446.7 326.8,435.6 326.8,431.7 326.8,425.1 
		326.8,414.4 326.8,403.7 	"/>
	<line class="st3" x1="326.8" y1="346.8" x2="326.8" y2="387"/>
	<polyline class="st3" points="227.2,687 227.2,680.2 227.2,671.9 227.2,663.9 227.2,655.5 227.2,647.6 227.2,639.1 227.2,631 
		227.2,622.9 227.2,614.6 227.2,606.5 	"/>
	<polyline class="st3" points="276.9,637.3 276.9,630.6 276.9,622.2 276.9,614.2 276.9,605.8 276.9,597.9 276.9,589.4 276.9,581.4 
		276.9,573.2 276.9,565 276.9,556.8 	"/>
	<polyline class="st3" points="327.3,586.9 327.3,580.2 327.3,571.8 327.3,563.8 327.3,555.4 327.3,547.5 327.3,539 327.3,531 
		327.3,522.8 327.3,514.6 327.3,506.4 	"/>
	<polyline class="st3" points="377.3,536.9 377.3,530.2 377.3,521.8 377.3,513.8 377.3,505.4 377.3,497.5 377.3,489 377.3,481 
		377.3,472.8 377.3,464.6 377.3,456.4 	"/>
	<polyline class="st3" points="377.5,436.7 377.5,395.1 377.5,346.8 	"/>
	<polyline class="st3" points="427.1,486.1 427.1,446.5 427.1,396.5 427.1,346.8 	"/>
	<polyline class="st3" points="476.5,436.7 476.5,396.5 476.5,346.8 	"/>
	<line class="st3" x1="526.6" y1="386.6" x2="526.6" y2="346.8"/>
	<line class="st3" x1="76.8" y1="896.8" x2="76.8" y2="857.5"/>
	<line class="st3" x1="126.8" y1="897.8" x2="126.8" y2="807.4"/>
	<line class="st3" x1="176.8" y1="898.8" x2="176.8" y2="756.9"/>
	<line class="st3" x1="226.8" y1="898.8" x2="226.8" y2="707.4"/>
	<line class="st3" x1="276.8" y1="899.8" x2="276.8" y2="656.9"/>
	<line class="st3" x1="326.7" y1="896.8" x2="326.7" y2="607.1"/>
	<line class="st3" x1="376.7" y1="896.8" x2="376.7" y2="557.1"/>
	<line class="st3" x1="426.5" y1="896.8" x2="426.5" y2="507.3"/>
	<line class="st3" x1="476.7" y1="896.8" x2="476.7" y2="457.1"/>
	<line class="st3" x1="526.7" y1="899.8" x2="526.7" y2="407.1"/>
	<line class="st3" x1="576.7" y1="898.8" x2="576.7" y2="357.1"/>
	<line class="st3" x1="625.4" y1="896.8" x2="625.4" y2="346.8"/>
</g>
<g id="Technical1" class="st0">
	<polyline class="st4" points="1125.2,896.3 1125,896.3 76.8,896.8 	"/>
	<line class="st4" x1="486.5" y1="546.4" x2="566" y2="546.4"/>
	<line class="st4" x1="434.3" y1="596.3" x2="513.8" y2="596.3"/>
	<line class="st4" x1="536.9" y1="495.9" x2="616" y2="495.9"/>
	<line class="st4" x1="586.3" y1="446.6" x2="666.1" y2="446.6"/>
	<line class="st4" x1="536.9" y1="596.4" x2="616" y2="596.4"/>
	<line class="st4" x1="1123" y1="447.1" x2="685.3" y2="447.1"/>
	<line class="st4" x1="636.1" y1="496.4" x2="716.5" y2="496.4"/>
	<polyline class="st4" points="737.3,496.4 1125.1,496.4 1125.2,496.4 	"/>
	<line class="st4" x1="685.3" y1="545.6" x2="765.8" y2="545.6"/>
	<line class="st4" x1="1125.9" y1="545.6" x2="787.3" y2="545.6"/>
	<line class="st4" x1="737.1" y1="597.4" x2="815" y2="597.4"/>
	<line class="st4" x1="1124.5" y1="597.3" x2="837.6" y2="597.3"/>
	<line class="st4" x1="785.2" y1="645.5" x2="866.3" y2="645.5"/>
	<line class="st4" x1="1125" y1="645.5" x2="886.3" y2="645.5"/>
	<line class="st4" x1="836.1" y1="696.4" x2="916.9" y2="696.4"/>
	<line class="st4" x1="1125.5" y1="696.3" x2="937.6" y2="696.3"/>
	<line class="st4" x1="885.1" y1="745.4" x2="967" y2="745.4"/>
	<line class="st4" x1="1125" y1="745.4" x2="986.2" y2="745.4"/>
	<line class="st4" x1="935.9" y1="796.3" x2="1014.8" y2="796.3"/>
	<polyline class="st4" points="1036.9,796.2 1124.9,796.2 1125.1,796.2 	"/>
	<line class="st4" x1="985" y1="845.3" x2="1065.6" y2="845.3"/>
	<line class="st4" x1="1125" y1="845.3" x2="1086.1" y2="845.3"/>
	<line class="st4" x1="384.4" y1="646.2" x2="463.9" y2="646.2"/>
	<line class="st4" x1="334.3" y1="696.4" x2="413.7" y2="696.4"/>
	<line class="st4" x1="284.7" y1="745.9" x2="364.2" y2="745.9"/>
	<line class="st4" x1="233.9" y1="796.7" x2="313.4" y2="796.7"/>
	<line class="st4" x1="184" y1="846.6" x2="263.5" y2="846.6"/>
	<polyline class="st4" points="636.4,396.5 1122.3,396.5 1123,396.5 	"/>
	<line class="st4" x1="587" y1="546" x2="666.1" y2="546"/>
	<line class="st4" x1="486.5" y1="646" x2="566" y2="646"/>
	<line class="st4" x1="587" y1="645.7" x2="666.1" y2="645.7"/>
	<line class="st4" x1="636.9" y1="595.9" x2="715.9" y2="595.9"/>
	<line class="st4" x1="686.9" y1="645.9" x2="765.9" y2="645.9"/>
	<line class="st4" x1="434.9" y1="696.6" x2="514.3" y2="696.6"/>
	<line class="st4" x1="536.9" y1="696.5" x2="616.4" y2="696.5"/>
	<line class="st4" x1="637.5" y1="696.1" x2="716.5" y2="696.1"/>
	<line class="st4" x1="737.3" y1="696.3" x2="816.3" y2="696.3"/>
	<line class="st4" x1="384.2" y1="746.3" x2="463.7" y2="746.3"/>
	<line class="st4" x1="484.8" y1="746.6" x2="564.3" y2="746.6"/>
	<line class="st4" x1="586.9" y1="746.4" x2="666.3" y2="746.4"/>
	<line class="st4" x1="687.4" y1="746.1" x2="766.4" y2="746.1"/>
	<line class="st4" x1="787.3" y1="746.2" x2="866.3" y2="746.2"/>
	<line class="st4" x1="335.3" y1="796.5" x2="414.7" y2="796.5"/>
	<line class="st4" x1="434.8" y1="796.9" x2="514.3" y2="796.9"/>
	<line class="st4" x1="535.4" y1="797.2" x2="614.9" y2="797.2"/>
	<line class="st4" x1="637.4" y1="797" x2="716.9" y2="797"/>
	<line class="st4" x1="738" y1="796.6" x2="817" y2="796.6"/>
	<line class="st4" x1="837.9" y1="796.8" x2="916.9" y2="796.8"/>
	<line class="st4" x1="284" y1="846.8" x2="363.5" y2="846.8"/>
	<line class="st4" x1="385.4" y1="846.6" x2="464.8" y2="846.6"/>
	<line class="st4" x1="484.9" y1="847" x2="564.4" y2="847"/>
	<line class="st4" x1="585.5" y1="847.3" x2="665" y2="847.3"/>
	<line class="st4" x1="687.6" y1="847.1" x2="767" y2="847.1"/>
	<line class="st4" x1="788.1" y1="846.7" x2="867.1" y2="846.7"/>
	<line class="st4" x1="888" y1="846.9" x2="967" y2="846.9"/>
	<polyline class="st4" points="77.8,346.8 126.5,346.8 176.3,346.8 227.2,346.8 275.6,346.8 326.6,346.8 376.5,346.8 426.2,346.8 
		476.2,346.8 526.1,346.8 575.9,346.8 675.6,346.8 725.5,346.8 774.8,346.8 824.2,346.8 825.1,346.8 844,346.8 874.8,346.8 
		924.6,346.8 974.7,346.8 1023.9,346.8 1073.7,346.8 1123.1,346.8 1125.2,346.8 1125.9,346.8 	"/>
	<line class="st4" x1="76.8" y1="846.2" x2="165.5" y2="846.2"/>
	<line class="st4" x1="76.8" y1="796.2" x2="215.6" y2="796.2"/>
	<line class="st4" x1="76.8" y1="746.2" x2="266.1" y2="746.2"/>
	<line class="st4" x1="77.1" y1="696.5" x2="315.6" y2="696.3"/>
	<line class="st4" x1="77.8" y1="646.2" x2="366.1" y2="646.2"/>
	<line class="st4" x1="77.1" y1="596.7" x2="416" y2="596.4"/>
	<line class="st4" x1="77.8" y1="546.4" x2="466" y2="546.4"/>
	<line class="st4" x1="77" y1="497.9" x2="515.8" y2="496.6"/>
	<line class="st4" x1="76.8" y1="446.4" x2="566" y2="446.4"/>
	<line class="st4" x1="77.8" y1="397.2" x2="616" y2="396.4"/>
</g>
<g id="Technical2" class="st0">
	<polyline class="st4" points="1125.2,706.9 1125.2,715.1 1125.2,723.3 1125.2,731.4 1125.2,739.5 1125.2,748 1125.2,755.9 
		1125.2,764.3 1125.2,772.3 1125.2,780.7 1125.2,787.4 	"/>
	<polyline class="st4" points="1074.8,656.5 1074.8,664.6 1074.8,672.9 1074.8,681 1074.8,689.1 1074.8,697.6 1074.8,705.5 
		1074.8,713.9 1074.8,721.9 1074.8,730.2 1074.8,737 	"/>
	<polyline class="st4" points="1125,603.5 1125,614.2 1125,624.9 1125,631.5 1125,635.4 1125,646.5 1125,656.8 1125,667.8 
		1125,678.3 1125,687.2 	"/>
	<polyline class="st4" points="1075.1,553.6 1075.1,564.4 1075.1,575 1075.1,581.7 1075.1,585.6 1075.1,596.7 1075.1,607 
		1075.1,617.9 1075.1,628.4 1075.1,637.4 	"/>
	<polyline class="st4" points="1125.6,504.3 1125.6,515 1125.6,525.7 1125.6,532.3 1125.6,536.2 1125.6,547.3 1125.6,557.6 
		1125.6,568.6 1125.6,579.1 1125.6,588 	"/>
	<polyline class="st4" points="1124.7,346.8 1124.7,347.7 1124.7,389.2 	"/>
	<polyline class="st4" points="1125.4,405.3 1125.4,416 1125.4,426.7 1125.4,433.3 1125.4,437.2 1125.4,448.3 1125.4,458.7 
		1125.4,469.6 1125.4,480.1 1125.4,489 	"/>
	<polyline class="st4" points="1074.7,346.8 1074.7,395.8 1074.7,437.4 	"/>
	<polyline class="st4" points="1075.1,453.8 1075.1,464.5 1075.1,475.2 1075.1,481.8 1075.1,485.8 1075.1,496.8 1075.1,507.2 
		1075.1,518.1 1075.1,528.6 1075.1,537.5 	"/>
	<line class="st4" x1="1025.4" y1="388" x2="1025.4" y2="346.8"/>
	<polyline class="st4" points="1025.7,404.4 1025.7,415.1 1025.7,425.8 1025.7,432.5 1025.7,436.4 1025.7,447.5 1025.7,457.8 
		1025.7,468.7 1025.7,479.2 1025.7,488.1 	"/>
	<polyline class="st4" points="1025.2,503.7 1025.2,514.4 1025.2,525.1 1025.2,531.7 1025.2,535.6 1025.2,546.7 1025.2,557 
		1025.2,568 1025.2,578.5 1025.2,587.4 	"/>
	<polyline class="st4" points="975.1,453.6 975.1,464.4 975.1,475 975.1,481.7 975.1,485.6 975.1,496.7 975.1,507 975.1,517.9 
		975.1,528.4 975.1,537.4 	"/>
	<polyline class="st4" points="975.1,346.8 975.1,395.4 975.1,436.9 	"/>
	<polyline class="st4" points="925.2,403.7 925.2,414.4 925.2,425.1 925.2,431.7 925.2,435.6 925.2,446.7 925.2,457 925.2,468 
		925.2,478.5 925.2,487.4 	"/>
	<line class="st4" x1="925.2" y1="387" x2="925.2" y2="346.8"/>
	<polyline class="st4" points="1024.8,606.5 1024.8,614.6 1024.8,622.9 1024.8,631 1024.8,639.1 1024.8,647.6 1024.8,655.5 
		1024.8,663.9 1024.8,671.9 1024.8,680.2 1024.8,687 	"/>
	<polyline class="st4" points="975.1,556.8 975.1,565 975.1,573.2 975.1,581.4 975.1,589.4 975.1,597.9 975.1,605.8 975.1,614.2 
		975.1,622.2 975.1,630.6 975.1,637.3 	"/>
	<polyline class="st4" points="924.7,506.4 924.7,514.6 924.7,522.8 924.7,531 924.7,539 924.7,547.5 924.7,555.4 924.7,563.8 
		924.7,571.8 924.7,580.2 924.7,586.9 	"/>
	<polyline class="st4" points="874.7,456.4 874.7,464.6 874.7,472.8 874.7,481 874.7,489 874.7,497.5 874.7,505.4 874.7,513.8 
		874.7,521.8 874.7,530.2 874.7,536.9 	"/>
	<polyline class="st4" points="874.5,346.8 874.5,395.1 874.5,436.7 	"/>
	<polyline class="st4" points="824.9,346.8 824.9,396.5 824.9,446.5 824.9,486.1 	"/>
	<polyline class="st4" points="775.5,346.8 775.5,396.5 775.5,436.7 	"/>
	<line class="st4" x1="725.4" y1="346.8" x2="725.4" y2="386.6"/>
	<line class="st4" x1="1125.2" y1="897.8" x2="1125.2" y2="807.4"/>
	<line class="st4" x1="1075.2" y1="898.8" x2="1075.2" y2="756.9"/>
	<line class="st4" x1="1025.2" y1="898.8" x2="1025.2" y2="707.4"/>
	<line class="st4" x1="975.2" y1="899.8" x2="975.2" y2="656.9"/>
	<line class="st4" x1="925.4" y1="896.8" x2="925.4" y2="607.1"/>
	<line class="st4" x1="875.4" y1="896.8" x2="875.4" y2="557.1"/>
	<line class="st4" x1="825.6" y1="896.8" x2="825.6" y2="507.3"/>
	<line class="st4" x1="775.4" y1="896.8" x2="775.4" y2="457.1"/>
	<line class="st4" x1="725.4" y1="899.8" x2="725.4" y2="407.1"/>
	<line class="st4" x1="675.4" y1="898.8" x2="675.4" y2="357.1"/>
	<polyline class="st4" points="76.8,837.4 76.8,830.6 76.8,822.3 76.8,814.3 76.8,805.9 76.8,798 76.8,789.5 76.8,781.4 76.8,773.3 
		76.8,765 76.8,756.9 	"/>
	<polyline class="st4" points="77.1,737.2 77.1,728.3 77.1,717.7 77.1,706.8 77.1,696.5 77.1,685.4 77.1,681.5 77.1,674.8 
		77.1,664.2 77.1,653.4 	"/>
	<polyline class="st4" points="126.8,787.4 126.8,780.7 126.8,772.3 126.8,764.3 126.8,755.9 126.8,748 126.8,739.5 126.8,731.4 
		126.8,723.3 126.8,715.1 126.8,706.9 	"/>
	<polyline class="st4" points="177.2,737 177.2,730.2 177.2,721.9 177.2,713.9 177.2,705.5 177.2,697.6 177.2,689.1 177.2,681 
		177.2,672.9 177.2,664.6 177.2,656.5 	"/>
	<polyline class="st4" points="127,687.2 127,678.3 127,667.8 127,656.8 127,646.5 127,635.4 127,631.5 127,624.9 127,614.2 
		127,603.5 	"/>
	<polyline class="st4" points="176.9,637.4 176.9,628.4 176.9,617.9 176.9,607 176.9,596.7 176.9,585.6 176.9,581.7 176.9,575 
		176.9,564.4 176.9,553.6 	"/>
	<polyline class="st4" points="77.1,637.4 77.1,628.4 77.1,617.9 77.1,607 77.1,596.7 77.1,585.6 77.1,581.7 77.1,575 77.1,564.4 
		77.1,553.6 	"/>
	<polyline class="st4" points="77.8,438.8 77.8,397.2 77.8,348.2 77.8,346.8 	"/>
	<polyline class="st4" points="126.4,588 126.4,579.1 126.4,568.6 126.4,557.6 126.4,547.3 126.4,536.2 126.4,532.3 126.4,525.7 
		126.4,515 126.4,504.3 	"/>
	<polyline class="st4" points="77,538.6 77,529.7 77,519.1 77,508.2 77,497.9 77,486.8 77,482.9 77,476.3 77,465.6 77,454.9 	"/>
	<polyline class="st4" points="127.3,389.2 127.3,347.7 127.3,346.8 	"/>
	<polyline class="st4" points="126.6,489 126.6,480.1 126.6,469.6 126.6,458.7 126.6,448.3 126.6,437.2 126.6,433.3 126.6,426.7 
		126.6,416 126.6,405.3 	"/>
	<polyline class="st4" points="177.3,437.4 177.3,395.8 177.3,346.8 	"/>
	<polyline class="st4" points="176.9,537.5 176.9,528.6 176.9,518.1 176.9,507.2 176.9,496.8 176.9,485.8 176.9,481.8 176.9,475.2 
		176.9,464.5 176.9,453.8 	"/>
	<line class="st4" x1="226.7" y1="346.8" x2="226.7" y2="388"/>
	<polyline class="st4" points="226.3,488.1 226.3,479.2 226.3,468.7 226.3,457.8 226.3,447.5 226.3,436.4 226.3,432.5 226.3,425.8 
		226.3,415.1 226.3,404.4 	"/>
	<polyline class="st4" points="226.8,587.4 226.8,578.5 226.8,568 226.8,557 226.8,546.7 226.8,535.6 226.8,531.7 226.8,525.1 
		226.8,514.4 226.8,503.7 	"/>
	<polyline class="st4" points="276.9,537.4 276.9,528.4 276.9,517.9 276.9,507 276.9,496.7 276.9,485.6 276.9,481.7 276.9,475 
		276.9,464.4 276.9,453.6 	"/>
	<polyline class="st4" points="276.9,436.9 276.9,395.4 276.9,346.8 	"/>
	<polyline class="st4" points="326.8,487.4 326.8,478.5 326.8,468 326.8,457 326.8,446.7 326.8,435.6 326.8,431.7 326.8,425.1 
		326.8,414.4 326.8,403.7 	"/>
	<line class="st4" x1="326.8" y1="346.8" x2="326.8" y2="387"/>
	<polyline class="st4" points="227.2,687 227.2,680.2 227.2,671.9 227.2,663.9 227.2,655.5 227.2,647.6 227.2,639.1 227.2,631 
		227.2,622.9 227.2,614.6 227.2,606.5 	"/>
	<polyline class="st4" points="276.9,637.3 276.9,630.6 276.9,622.2 276.9,614.2 276.9,605.8 276.9,597.9 276.9,589.4 276.9,581.4 
		276.9,573.2 276.9,565 276.9,556.8 	"/>
	<polyline class="st4" points="327.3,586.9 327.3,580.2 327.3,571.8 327.3,563.8 327.3,555.4 327.3,547.5 327.3,539 327.3,531 
		327.3,522.8 327.3,514.6 327.3,506.4 	"/>
	<polyline class="st4" points="377.3,536.9 377.3,530.2 377.3,521.8 377.3,513.8 377.3,505.4 377.3,497.5 377.3,489 377.3,481 
		377.3,472.8 377.3,464.6 377.3,456.4 	"/>
	<polyline class="st4" points="377.5,436.7 377.5,395.1 377.5,346.8 	"/>
	<polyline class="st4" points="427.1,486.1 427.1,446.5 427.1,396.5 427.1,346.8 	"/>
	<polyline class="st4" points="476.5,436.7 476.5,396.5 476.5,346.8 	"/>
	<line class="st4" x1="526.6" y1="386.6" x2="526.6" y2="346.8"/>
	<line class="st4" x1="76.8" y1="896.8" x2="76.8" y2="857.5"/>
	<line class="st4" x1="126.8" y1="897.8" x2="126.8" y2="807.4"/>
	<line class="st4" x1="176.8" y1="898.8" x2="176.8" y2="756.9"/>
	<line class="st4" x1="226.8" y1="898.8" x2="226.8" y2="707.4"/>
	<line class="st4" x1="276.8" y1="899.8" x2="276.8" y2="656.9"/>
	<line class="st4" x1="326.7" y1="896.8" x2="326.7" y2="607.1"/>
	<line class="st4" x1="376.7" y1="896.8" x2="376.7" y2="557.1"/>
	<line class="st4" x1="426.5" y1="896.8" x2="426.5" y2="507.3"/>
	<line class="st4" x1="476.7" y1="896.8" x2="476.7" y2="457.1"/>
	<line class="st4" x1="526.7" y1="899.8" x2="526.7" y2="407.1"/>
	<line class="st4" x1="576.7" y1="898.8" x2="576.7" y2="357.1"/>
	<line class="st4" x1="625.4" y1="896.8" x2="625.4" y2="346.8"/>
</g>
<g id="Logistics1" class="st0">
	<polyline class="st5" points="1125.2,896.3 1125,896.3 76.8,896.8 	"/>
	<line class="st5" x1="486.5" y1="546.4" x2="566" y2="546.4"/>
	<line class="st5" x1="434.3" y1="596.3" x2="513.8" y2="596.3"/>
	<line class="st5" x1="536.9" y1="495.9" x2="616" y2="495.9"/>
	<line class="st5" x1="586.3" y1="446.6" x2="666.1" y2="446.6"/>
	<line class="st5" x1="536.9" y1="596.4" x2="616" y2="596.4"/>
	<line class="st5" x1="1123" y1="447.1" x2="685.3" y2="447.1"/>
	<line class="st5" x1="636.1" y1="496.4" x2="716.5" y2="496.4"/>
	<polyline class="st5" points="737.3,496.4 1125.1,496.4 1125.2,496.4 	"/>
	<line class="st5" x1="685.3" y1="545.6" x2="765.8" y2="545.6"/>
	<line class="st5" x1="1125.9" y1="545.6" x2="787.3" y2="545.6"/>
	<line class="st5" x1="737.1" y1="597.4" x2="815" y2="597.4"/>
	<line class="st5" x1="1124.5" y1="597.3" x2="837.6" y2="597.3"/>
	<line class="st5" x1="785.2" y1="645.5" x2="866.3" y2="645.5"/>
	<line class="st5" x1="1125" y1="645.5" x2="886.3" y2="645.5"/>
	<line class="st5" x1="836.1" y1="696.4" x2="916.9" y2="696.4"/>
	<line class="st5" x1="1125.5" y1="696.3" x2="937.6" y2="696.3"/>
	<line class="st5" x1="885.1" y1="745.4" x2="967" y2="745.4"/>
	<line class="st5" x1="1125" y1="745.4" x2="986.2" y2="745.4"/>
	<line class="st5" x1="935.9" y1="796.3" x2="1014.8" y2="796.3"/>
	<polyline class="st5" points="1036.9,796.2 1124.9,796.2 1125.1,796.2 	"/>
	<line class="st5" x1="985" y1="845.3" x2="1065.6" y2="845.3"/>
	<line class="st5" x1="1125" y1="845.3" x2="1086.1" y2="845.3"/>
	<line class="st5" x1="384.4" y1="646.2" x2="463.9" y2="646.2"/>
	<line class="st5" x1="334.3" y1="696.4" x2="413.7" y2="696.4"/>
	<line class="st5" x1="284.7" y1="745.9" x2="364.2" y2="745.9"/>
	<line class="st5" x1="233.9" y1="796.7" x2="313.4" y2="796.7"/>
	<line class="st5" x1="184" y1="846.6" x2="263.5" y2="846.6"/>
	<polyline class="st5" points="636.4,396.5 1122.3,396.5 1123,396.5 	"/>
	<line class="st5" x1="587" y1="546" x2="666.1" y2="546"/>
	<line class="st5" x1="486.5" y1="646" x2="566" y2="646"/>
	<line class="st5" x1="587" y1="645.7" x2="666.1" y2="645.7"/>
	<line class="st5" x1="636.9" y1="595.9" x2="715.9" y2="595.9"/>
	<line class="st5" x1="686.9" y1="645.9" x2="765.9" y2="645.9"/>
	<line class="st5" x1="434.9" y1="696.6" x2="514.3" y2="696.6"/>
	<line class="st5" x1="536.9" y1="696.5" x2="616.4" y2="696.5"/>
	<line class="st5" x1="637.5" y1="696.1" x2="716.5" y2="696.1"/>
	<line class="st5" x1="737.3" y1="696.3" x2="816.3" y2="696.3"/>
	<line class="st5" x1="384.2" y1="746.3" x2="463.7" y2="746.3"/>
	<line class="st5" x1="484.8" y1="746.6" x2="564.3" y2="746.6"/>
	<line class="st5" x1="586.9" y1="746.4" x2="666.3" y2="746.4"/>
	<line class="st5" x1="687.4" y1="746.1" x2="766.4" y2="746.1"/>
	<line class="st5" x1="787.3" y1="746.2" x2="866.3" y2="746.2"/>
	<line class="st5" x1="335.3" y1="796.5" x2="414.7" y2="796.5"/>
	<line class="st5" x1="434.8" y1="796.9" x2="514.3" y2="796.9"/>
	<line class="st5" x1="535.4" y1="797.2" x2="614.9" y2="797.2"/>
	<line class="st5" x1="637.4" y1="797" x2="716.9" y2="797"/>
	<line class="st5" x1="738" y1="796.6" x2="817" y2="796.6"/>
	<line class="st5" x1="837.9" y1="796.8" x2="916.9" y2="796.8"/>
	<line class="st5" x1="284" y1="846.8" x2="363.5" y2="846.8"/>
	<line class="st5" x1="385.4" y1="846.6" x2="464.8" y2="846.6"/>
	<line class="st5" x1="484.9" y1="847" x2="564.4" y2="847"/>
	<line class="st5" x1="585.5" y1="847.3" x2="665" y2="847.3"/>
	<line class="st5" x1="687.6" y1="847.1" x2="767" y2="847.1"/>
	<line class="st5" x1="788.1" y1="846.7" x2="867.1" y2="846.7"/>
	<line class="st5" x1="888" y1="846.9" x2="967" y2="846.9"/>
	<polyline class="st5" points="77.8,346.8 126.5,346.8 176.3,346.8 227.2,346.8 275.6,346.8 326.6,346.8 376.5,346.8 426.2,346.8 
		476.2,346.8 526.1,346.8 575.9,346.8 675.6,346.8 725.5,346.8 774.8,346.8 824.2,346.8 825.1,346.8 844,346.8 874.8,346.8 
		924.6,346.8 974.7,346.8 1023.9,346.8 1073.7,346.8 1123.1,346.8 1125.2,346.8 1125.9,346.8 	"/>
	<line class="st5" x1="76.8" y1="846.2" x2="165.5" y2="846.2"/>
	<line class="st5" x1="76.8" y1="796.2" x2="215.6" y2="796.2"/>
	<line class="st5" x1="76.8" y1="746.2" x2="266.1" y2="746.2"/>
	<line class="st5" x1="77.1" y1="696.5" x2="315.6" y2="696.3"/>
	<line class="st5" x1="77.8" y1="646.2" x2="366.1" y2="646.2"/>
	<line class="st5" x1="77.1" y1="596.7" x2="416" y2="596.4"/>
	<line class="st5" x1="77.8" y1="546.4" x2="466" y2="546.4"/>
	<line class="st5" x1="77" y1="497.9" x2="515.8" y2="496.6"/>
	<line class="st5" x1="76.8" y1="446.4" x2="566" y2="446.4"/>
	<line class="st5" x1="77.8" y1="397.2" x2="616" y2="396.4"/>
</g>
<g id="Logistics2" class="st0">
	<polyline class="st5" points="1125.2,706.9 1125.2,715.1 1125.2,723.3 1125.2,731.4 1125.2,739.5 1125.2,748 1125.2,755.9 
		1125.2,764.3 1125.2,772.3 1125.2,780.7 1125.2,787.4 	"/>
	<polyline class="st5" points="1074.8,656.5 1074.8,664.6 1074.8,672.9 1074.8,681 1074.8,689.1 1074.8,697.6 1074.8,705.5 
		1074.8,713.9 1074.8,721.9 1074.8,730.2 1074.8,737 	"/>
	<polyline class="st5" points="1125,603.5 1125,614.2 1125,624.9 1125,631.5 1125,635.4 1125,646.5 1125,656.8 1125,667.8 
		1125,678.3 1125,687.2 	"/>
	<polyline class="st5" points="1075.1,553.6 1075.1,564.4 1075.1,575 1075.1,581.7 1075.1,585.6 1075.1,596.7 1075.1,607 
		1075.1,617.9 1075.1,628.4 1075.1,637.4 	"/>
	<polyline class="st5" points="1125.6,504.3 1125.6,515 1125.6,525.7 1125.6,532.3 1125.6,536.2 1125.6,547.3 1125.6,557.6 
		1125.6,568.6 1125.6,579.1 1125.6,588 	"/>
	<polyline class="st5" points="1124.7,346.8 1124.7,347.7 1124.7,389.2 	"/>
	<polyline class="st5" points="1125.4,405.3 1125.4,416 1125.4,426.7 1125.4,433.3 1125.4,437.2 1125.4,448.3 1125.4,458.7 
		1125.4,469.6 1125.4,480.1 1125.4,489 	"/>
	<polyline class="st5" points="1074.7,346.8 1074.7,395.8 1074.7,437.4 	"/>
	<polyline class="st5" points="1075.1,453.8 1075.1,464.5 1075.1,475.2 1075.1,481.8 1075.1,485.8 1075.1,496.8 1075.1,507.2 
		1075.1,518.1 1075.1,528.6 1075.1,537.5 	"/>
	<line class="st5" x1="1025.4" y1="388" x2="1025.4" y2="346.8"/>
	<polyline class="st5" points="1025.7,404.4 1025.7,415.1 1025.7,425.8 1025.7,432.5 1025.7,436.4 1025.7,447.5 1025.7,457.8 
		1025.7,468.7 1025.7,479.2 1025.7,488.1 	"/>
	<polyline class="st5" points="1025.2,503.7 1025.2,514.4 1025.2,525.1 1025.2,531.7 1025.2,535.6 1025.2,546.7 1025.2,557 
		1025.2,568 1025.2,578.5 1025.2,587.4 	"/>
	<polyline class="st5" points="975.1,453.6 975.1,464.4 975.1,475 975.1,481.7 975.1,485.6 975.1,496.7 975.1,507 975.1,517.9 
		975.1,528.4 975.1,537.4 	"/>
	<polyline class="st5" points="975.1,346.8 975.1,395.4 975.1,436.9 	"/>
	<polyline class="st5" points="925.2,403.7 925.2,414.4 925.2,425.1 925.2,431.7 925.2,435.6 925.2,446.7 925.2,457 925.2,468 
		925.2,478.5 925.2,487.4 	"/>
	<line class="st5" x1="925.2" y1="387" x2="925.2" y2="346.8"/>
	<polyline class="st5" points="1024.8,606.5 1024.8,614.6 1024.8,622.9 1024.8,631 1024.8,639.1 1024.8,647.6 1024.8,655.5 
		1024.8,663.9 1024.8,671.9 1024.8,680.2 1024.8,687 	"/>
	<polyline class="st5" points="975.1,556.8 975.1,565 975.1,573.2 975.1,581.4 975.1,589.4 975.1,597.9 975.1,605.8 975.1,614.2 
		975.1,622.2 975.1,630.6 975.1,637.3 	"/>
	<polyline class="st5" points="924.7,506.4 924.7,514.6 924.7,522.8 924.7,531 924.7,539 924.7,547.5 924.7,555.4 924.7,563.8 
		924.7,571.8 924.7,580.2 924.7,586.9 	"/>
	<polyline class="st5" points="874.7,456.4 874.7,464.6 874.7,472.8 874.7,481 874.7,489 874.7,497.5 874.7,505.4 874.7,513.8 
		874.7,521.8 874.7,530.2 874.7,536.9 	"/>
	<polyline class="st5" points="874.5,346.8 874.5,395.1 874.5,436.7 	"/>
	<polyline class="st5" points="824.9,346.8 824.9,396.5 824.9,446.5 824.9,486.1 	"/>
	<polyline class="st5" points="775.5,346.8 775.5,396.5 775.5,436.7 	"/>
	<line class="st5" x1="725.4" y1="346.8" x2="725.4" y2="386.6"/>
	<line class="st5" x1="1125.2" y1="897.8" x2="1125.2" y2="807.4"/>
	<line class="st5" x1="1075.2" y1="898.8" x2="1075.2" y2="756.9"/>
	<line class="st5" x1="1025.2" y1="898.8" x2="1025.2" y2="707.4"/>
	<line class="st5" x1="975.2" y1="899.8" x2="975.2" y2="656.9"/>
	<line class="st5" x1="925.4" y1="896.8" x2="925.4" y2="607.1"/>
	<line class="st5" x1="875.4" y1="896.8" x2="875.4" y2="557.1"/>
	<line class="st5" x1="825.6" y1="896.8" x2="825.6" y2="507.3"/>
	<line class="st5" x1="775.4" y1="896.8" x2="775.4" y2="457.1"/>
	<line class="st5" x1="725.4" y1="899.8" x2="725.4" y2="407.1"/>
	<line class="st5" x1="675.4" y1="898.8" x2="675.4" y2="357.1"/>
	<polyline class="st5" points="76.8,837.4 76.8,830.6 76.8,822.3 76.8,814.3 76.8,805.9 76.8,798 76.8,789.5 76.8,781.4 76.8,773.3 
		76.8,765 76.8,756.9 	"/>
	<polyline class="st5" points="77.1,737.2 77.1,728.3 77.1,717.7 77.1,706.8 77.1,696.5 77.1,685.4 77.1,681.5 77.1,674.8 
		77.1,664.2 77.1,653.4 	"/>
	<polyline class="st5" points="126.8,787.4 126.8,780.7 126.8,772.3 126.8,764.3 126.8,755.9 126.8,748 126.8,739.5 126.8,731.4 
		126.8,723.3 126.8,715.1 126.8,706.9 	"/>
	<polyline class="st5" points="177.2,737 177.2,730.2 177.2,721.9 177.2,713.9 177.2,705.5 177.2,697.6 177.2,689.1 177.2,681 
		177.2,672.9 177.2,664.6 177.2,656.5 	"/>
	<polyline class="st5" points="127,687.2 127,678.3 127,667.8 127,656.8 127,646.5 127,635.4 127,631.5 127,624.9 127,614.2 
		127,603.5 	"/>
	<polyline class="st5" points="176.9,637.4 176.9,628.4 176.9,617.9 176.9,607 176.9,596.7 176.9,585.6 176.9,581.7 176.9,575 
		176.9,564.4 176.9,553.6 	"/>
	<polyline class="st5" points="77.1,637.4 77.1,628.4 77.1,617.9 77.1,607 77.1,596.7 77.1,585.6 77.1,581.7 77.1,575 77.1,564.4 
		77.1,553.6 	"/>
	<polyline class="st5" points="77.8,438.8 77.8,397.2 77.8,348.2 77.8,346.8 	"/>
	<polyline class="st5" points="126.4,588 126.4,579.1 126.4,568.6 126.4,557.6 126.4,547.3 126.4,536.2 126.4,532.3 126.4,525.7 
		126.4,515 126.4,504.3 	"/>
	<polyline class="st5" points="77,538.6 77,529.7 77,519.1 77,508.2 77,497.9 77,486.8 77,482.9 77,476.3 77,465.6 77,454.9 	"/>
	<polyline class="st5" points="127.3,389.2 127.3,347.7 127.3,346.8 	"/>
	<polyline class="st5" points="126.6,489 126.6,480.1 126.6,469.6 126.6,458.7 126.6,448.3 126.6,437.2 126.6,433.3 126.6,426.7 
		126.6,416 126.6,405.3 	"/>
	<polyline class="st5" points="177.3,437.4 177.3,395.8 177.3,346.8 	"/>
	<polyline class="st5" points="176.9,537.5 176.9,528.6 176.9,518.1 176.9,507.2 176.9,496.8 176.9,485.8 176.9,481.8 176.9,475.2 
		176.9,464.5 176.9,453.8 	"/>
	<line class="st5" x1="226.7" y1="346.8" x2="226.7" y2="388"/>
	<polyline class="st5" points="226.3,488.1 226.3,479.2 226.3,468.7 226.3,457.8 226.3,447.5 226.3,436.4 226.3,432.5 226.3,425.8 
		226.3,415.1 226.3,404.4 	"/>
	<polyline class="st5" points="226.8,587.4 226.8,578.5 226.8,568 226.8,557 226.8,546.7 226.8,535.6 226.8,531.7 226.8,525.1 
		226.8,514.4 226.8,503.7 	"/>
	<polyline class="st5" points="276.9,537.4 276.9,528.4 276.9,517.9 276.9,507 276.9,496.7 276.9,485.6 276.9,481.7 276.9,475 
		276.9,464.4 276.9,453.6 	"/>
	<polyline class="st5" points="276.9,436.9 276.9,395.4 276.9,346.8 	"/>
	<polyline class="st5" points="326.8,487.4 326.8,478.5 326.8,468 326.8,457 326.8,446.7 326.8,435.6 326.8,431.7 326.8,425.1 
		326.8,414.4 326.8,403.7 	"/>
	<line class="st5" x1="326.8" y1="346.8" x2="326.8" y2="387"/>
	<polyline class="st5" points="227.2,687 227.2,680.2 227.2,671.9 227.2,663.9 227.2,655.5 227.2,647.6 227.2,639.1 227.2,631 
		227.2,622.9 227.2,614.6 227.2,606.5 	"/>
	<polyline class="st5" points="276.9,637.3 276.9,630.6 276.9,622.2 276.9,614.2 276.9,605.8 276.9,597.9 276.9,589.4 276.9,581.4 
		276.9,573.2 276.9,565 276.9,556.8 	"/>
	<polyline class="st5" points="327.3,586.9 327.3,580.2 327.3,571.8 327.3,563.8 327.3,555.4 327.3,547.5 327.3,539 327.3,531 
		327.3,522.8 327.3,514.6 327.3,506.4 	"/>
	<polyline class="st5" points="377.3,536.9 377.3,530.2 377.3,521.8 377.3,513.8 377.3,505.4 377.3,497.5 377.3,489 377.3,481 
		377.3,472.8 377.3,464.6 377.3,456.4 	"/>
	<polyline class="st5" points="377.5,436.7 377.5,395.1 377.5,346.8 	"/>
	<polyline class="st5" points="427.1,486.1 427.1,446.5 427.1,396.5 427.1,346.8 	"/>
	<polyline class="st5" points="476.5,436.7 476.5,396.5 476.5,346.8 	"/>
	<line class="st5" x1="526.6" y1="386.6" x2="526.6" y2="346.8"/>
	<line class="st5" x1="76.8" y1="896.8" x2="76.8" y2="857.5"/>
	<line class="st5" x1="126.8" y1="897.8" x2="126.8" y2="807.4"/>
	<line class="st5" x1="176.8" y1="898.8" x2="176.8" y2="756.9"/>
	<line class="st5" x1="226.8" y1="898.8" x2="226.8" y2="707.4"/>
	<line class="st5" x1="276.8" y1="899.8" x2="276.8" y2="656.9"/>
	<line class="st5" x1="326.7" y1="896.8" x2="326.7" y2="607.1"/>
	<line class="st5" x1="376.7" y1="896.8" x2="376.7" y2="557.1"/>
	<line class="st5" x1="426.5" y1="896.8" x2="426.5" y2="507.3"/>
	<line class="st5" x1="476.7" y1="896.8" x2="476.7" y2="457.1"/>
	<line class="st5" x1="526.7" y1="899.8" x2="526.7" y2="407.1"/>
	<line class="st5" x1="576.7" y1="898.8" x2="576.7" y2="357.1"/>
	<line class="st5" x1="625.4" y1="896.8" x2="625.4" y2="346.8"/>
</g>
<g id="PR1" class="st0">
	<polyline class="st6" points="1125.2,896.3 1125,896.3 76.8,896.8 	"/>
	<line class="st6" x1="486.5" y1="546.4" x2="566" y2="546.4"/>
	<line class="st6" x1="434.3" y1="596.3" x2="513.8" y2="596.3"/>
	<line class="st6" x1="536.9" y1="495.9" x2="616" y2="495.9"/>
	<line class="st6" x1="586.3" y1="446.6" x2="666.1" y2="446.6"/>
	<line class="st6" x1="536.9" y1="596.4" x2="616" y2="596.4"/>
	<line class="st6" x1="1123" y1="447.1" x2="685.3" y2="447.1"/>
	<line class="st6" x1="636.1" y1="496.4" x2="716.5" y2="496.4"/>
	<polyline class="st6" points="737.3,496.4 1125.1,496.4 1125.2,496.4 	"/>
	<line class="st6" x1="685.3" y1="545.6" x2="765.8" y2="545.6"/>
	<line class="st6" x1="1125.9" y1="545.6" x2="787.3" y2="545.6"/>
	<line class="st6" x1="737.1" y1="597.4" x2="815" y2="597.4"/>
	<line class="st6" x1="1124.5" y1="597.3" x2="837.6" y2="597.3"/>
	<line class="st6" x1="785.2" y1="645.5" x2="866.3" y2="645.5"/>
	<line class="st6" x1="1125" y1="645.5" x2="886.3" y2="645.5"/>
	<line class="st6" x1="836.1" y1="696.4" x2="916.9" y2="696.4"/>
	<line class="st6" x1="1125.5" y1="696.3" x2="937.6" y2="696.3"/>
	<line class="st6" x1="885.1" y1="745.4" x2="967" y2="745.4"/>
	<line class="st6" x1="1125" y1="745.4" x2="986.2" y2="745.4"/>
	<line class="st6" x1="935.9" y1="796.3" x2="1014.8" y2="796.3"/>
	<polyline class="st6" points="1036.9,796.2 1124.9,796.2 1125.1,796.2 	"/>
	<line class="st6" x1="985" y1="845.3" x2="1065.6" y2="845.3"/>
	<line class="st6" x1="1125" y1="845.3" x2="1086.1" y2="845.3"/>
	<line class="st6" x1="384.4" y1="646.2" x2="463.9" y2="646.2"/>
	<line class="st6" x1="334.3" y1="696.4" x2="413.7" y2="696.4"/>
	<line class="st6" x1="284.7" y1="745.9" x2="364.2" y2="745.9"/>
	<line class="st6" x1="233.9" y1="796.7" x2="313.4" y2="796.7"/>
	<line class="st6" x1="184" y1="846.6" x2="263.5" y2="846.6"/>
	<polyline class="st6" points="636.4,396.5 1122.3,396.5 1123,396.5 	"/>
	<line class="st6" x1="587" y1="546" x2="666.1" y2="546"/>
	<line class="st6" x1="486.5" y1="646" x2="566" y2="646"/>
	<line class="st6" x1="587" y1="645.7" x2="666.1" y2="645.7"/>
	<line class="st6" x1="636.9" y1="595.9" x2="715.9" y2="595.9"/>
	<line class="st6" x1="686.9" y1="645.9" x2="765.9" y2="645.9"/>
	<line class="st6" x1="434.9" y1="696.6" x2="514.3" y2="696.6"/>
	<line class="st6" x1="536.9" y1="696.5" x2="616.4" y2="696.5"/>
	<line class="st6" x1="637.5" y1="696.1" x2="716.5" y2="696.1"/>
	<line class="st6" x1="737.3" y1="696.3" x2="816.3" y2="696.3"/>
	<line class="st6" x1="384.2" y1="746.3" x2="463.7" y2="746.3"/>
	<line class="st6" x1="484.8" y1="746.6" x2="564.3" y2="746.6"/>
	<line class="st6" x1="586.9" y1="746.4" x2="666.3" y2="746.4"/>
	<line class="st6" x1="687.4" y1="746.1" x2="766.4" y2="746.1"/>
	<line class="st6" x1="787.3" y1="746.2" x2="866.3" y2="746.2"/>
	<line class="st6" x1="335.3" y1="796.5" x2="414.7" y2="796.5"/>
	<line class="st6" x1="434.8" y1="796.9" x2="514.3" y2="796.9"/>
	<line class="st6" x1="535.4" y1="797.2" x2="614.9" y2="797.2"/>
	<line class="st6" x1="637.4" y1="797" x2="716.9" y2="797"/>
	<line class="st6" x1="738" y1="796.6" x2="817" y2="796.6"/>
	<line class="st6" x1="837.9" y1="796.8" x2="916.9" y2="796.8"/>
	<line class="st6" x1="284" y1="846.8" x2="363.5" y2="846.8"/>
	<line class="st6" x1="385.4" y1="846.6" x2="464.8" y2="846.6"/>
	<line class="st6" x1="484.9" y1="847" x2="564.4" y2="847"/>
	<line class="st6" x1="585.5" y1="847.3" x2="665" y2="847.3"/>
	<line class="st6" x1="687.6" y1="847.1" x2="767" y2="847.1"/>
	<line class="st6" x1="788.1" y1="846.7" x2="867.1" y2="846.7"/>
	<line class="st6" x1="888" y1="846.9" x2="967" y2="846.9"/>
	<polyline class="st6" points="77.8,346.8 126.5,346.8 176.3,346.8 227.2,346.8 275.6,346.8 326.6,346.8 376.5,346.8 426.2,346.8 
		476.2,346.8 526.1,346.8 575.9,346.8 675.6,346.8 725.5,346.8 774.8,346.8 824.2,346.8 825.1,346.8 844,346.8 874.8,346.8 
		924.6,346.8 974.7,346.8 1023.9,346.8 1073.7,346.8 1123.1,346.8 1125.2,346.8 1125.9,346.8 	"/>
	<line class="st6" x1="76.8" y1="846.2" x2="165.5" y2="846.2"/>
	<line class="st6" x1="76.8" y1="796.2" x2="215.6" y2="796.2"/>
	<line class="st6" x1="76.8" y1="746.2" x2="266.1" y2="746.2"/>
	<line class="st6" x1="77.1" y1="696.5" x2="315.6" y2="696.3"/>
	<line class="st6" x1="77.8" y1="646.2" x2="366.1" y2="646.2"/>
	<line class="st6" x1="77.1" y1="596.7" x2="416" y2="596.4"/>
	<line class="st6" x1="77.8" y1="546.4" x2="466" y2="546.4"/>
	<line class="st6" x1="77" y1="497.9" x2="515.8" y2="496.6"/>
	<line class="st6" x1="76.8" y1="446.4" x2="566" y2="446.4"/>
	<line class="st6" x1="77.8" y1="397.2" x2="616" y2="396.4"/>
</g>
<g id="PR2" class="st0">
	<polyline class="st6" points="1125.2,706.9 1125.2,715.1 1125.2,723.3 1125.2,731.4 1125.2,739.5 1125.2,748 1125.2,755.9 
		1125.2,764.3 1125.2,772.3 1125.2,780.7 1125.2,787.4 	"/>
	<polyline class="st6" points="1074.8,656.5 1074.8,664.6 1074.8,672.9 1074.8,681 1074.8,689.1 1074.8,697.6 1074.8,705.5 
		1074.8,713.9 1074.8,721.9 1074.8,730.2 1074.8,737 	"/>
	<polyline class="st6" points="1125,603.5 1125,614.2 1125,624.9 1125,631.5 1125,635.4 1125,646.5 1125,656.8 1125,667.8 
		1125,678.3 1125,687.2 	"/>
	<polyline class="st6" points="1075.1,553.6 1075.1,564.4 1075.1,575 1075.1,581.7 1075.1,585.6 1075.1,596.7 1075.1,607 
		1075.1,617.9 1075.1,628.4 1075.1,637.4 	"/>
	<polyline class="st6" points="1125.6,504.3 1125.6,515 1125.6,525.7 1125.6,532.3 1125.6,536.2 1125.6,547.3 1125.6,557.6 
		1125.6,568.6 1125.6,579.1 1125.6,588 	"/>
	<polyline class="st6" points="1124.7,346.8 1124.7,347.7 1124.7,389.2 	"/>
	<polyline class="st6" points="1125.4,405.3 1125.4,416 1125.4,426.7 1125.4,433.3 1125.4,437.2 1125.4,448.3 1125.4,458.7 
		1125.4,469.6 1125.4,480.1 1125.4,489 	"/>
	<polyline class="st6" points="1074.7,346.8 1074.7,395.8 1074.7,437.4 	"/>
	<polyline class="st6" points="1075.1,453.8 1075.1,464.5 1075.1,475.2 1075.1,481.8 1075.1,485.8 1075.1,496.8 1075.1,507.2 
		1075.1,518.1 1075.1,528.6 1075.1,537.5 	"/>
	<line class="st6" x1="1025.4" y1="388" x2="1025.4" y2="346.8"/>
	<polyline class="st6" points="1025.7,404.4 1025.7,415.1 1025.7,425.8 1025.7,432.5 1025.7,436.4 1025.7,447.5 1025.7,457.8 
		1025.7,468.7 1025.7,479.2 1025.7,488.1 	"/>
	<polyline class="st6" points="1025.2,503.7 1025.2,514.4 1025.2,525.1 1025.2,531.7 1025.2,535.6 1025.2,546.7 1025.2,557 
		1025.2,568 1025.2,578.5 1025.2,587.4 	"/>
	<polyline class="st6" points="975.1,453.6 975.1,464.4 975.1,475 975.1,481.7 975.1,485.6 975.1,496.7 975.1,507 975.1,517.9 
		975.1,528.4 975.1,537.4 	"/>
	<polyline class="st6" points="975.1,346.8 975.1,395.4 975.1,436.9 	"/>
	<polyline class="st6" points="925.2,403.7 925.2,414.4 925.2,425.1 925.2,431.7 925.2,435.6 925.2,446.7 925.2,457 925.2,468 
		925.2,478.5 925.2,487.4 	"/>
	<line class="st6" x1="925.2" y1="387" x2="925.2" y2="346.8"/>
	<polyline class="st6" points="1024.8,606.5 1024.8,614.6 1024.8,622.9 1024.8,631 1024.8,639.1 1024.8,647.6 1024.8,655.5 
		1024.8,663.9 1024.8,671.9 1024.8,680.2 1024.8,687 	"/>
	<polyline class="st6" points="975.1,556.8 975.1,565 975.1,573.2 975.1,581.4 975.1,589.4 975.1,597.9 975.1,605.8 975.1,614.2 
		975.1,622.2 975.1,630.6 975.1,637.3 	"/>
	<polyline class="st6" points="924.7,506.4 924.7,514.6 924.7,522.8 924.7,531 924.7,539 924.7,547.5 924.7,555.4 924.7,563.8 
		924.7,571.8 924.7,580.2 924.7,586.9 	"/>
	<polyline class="st6" points="874.7,456.4 874.7,464.6 874.7,472.8 874.7,481 874.7,489 874.7,497.5 874.7,505.4 874.7,513.8 
		874.7,521.8 874.7,530.2 874.7,536.9 	"/>
	<polyline class="st6" points="874.5,346.8 874.5,395.1 874.5,436.7 	"/>
	<polyline class="st6" points="824.9,346.8 824.9,396.5 824.9,446.5 824.9,486.1 	"/>
	<polyline class="st6" points="775.5,346.8 775.5,396.5 775.5,436.7 	"/>
	<line class="st6" x1="725.4" y1="346.8" x2="725.4" y2="386.6"/>
	<line class="st6" x1="1125.2" y1="897.8" x2="1125.2" y2="807.4"/>
	<line class="st6" x1="1075.2" y1="898.8" x2="1075.2" y2="756.9"/>
	<line class="st6" x1="1025.2" y1="898.8" x2="1025.2" y2="707.4"/>
	<line class="st6" x1="975.2" y1="899.8" x2="975.2" y2="656.9"/>
	<line class="st6" x1="925.4" y1="896.8" x2="925.4" y2="607.1"/>
	<line class="st6" x1="875.4" y1="896.8" x2="875.4" y2="557.1"/>
	<line class="st6" x1="825.6" y1="896.8" x2="825.6" y2="507.3"/>
	<line class="st6" x1="775.4" y1="896.8" x2="775.4" y2="457.1"/>
	<line class="st6" x1="725.4" y1="899.8" x2="725.4" y2="407.1"/>
	<line class="st6" x1="675.4" y1="898.8" x2="675.4" y2="357.1"/>
	<polyline class="st6" points="76.8,837.4 76.8,830.6 76.8,822.3 76.8,814.3 76.8,805.9 76.8,798 76.8,789.5 76.8,781.4 76.8,773.3 
		76.8,765 76.8,756.9 	"/>
	<polyline class="st6" points="77.1,737.2 77.1,728.3 77.1,717.7 77.1,706.8 77.1,696.5 77.1,685.4 77.1,681.5 77.1,674.8 
		77.1,664.2 77.1,653.4 	"/>
	<polyline class="st6" points="126.8,787.4 126.8,780.7 126.8,772.3 126.8,764.3 126.8,755.9 126.8,748 126.8,739.5 126.8,731.4 
		126.8,723.3 126.8,715.1 126.8,706.9 	"/>
	<polyline class="st6" points="177.2,737 177.2,730.2 177.2,721.9 177.2,713.9 177.2,705.5 177.2,697.6 177.2,689.1 177.2,681 
		177.2,672.9 177.2,664.6 177.2,656.5 	"/>
	<polyline class="st6" points="127,687.2 127,678.3 127,667.8 127,656.8 127,646.5 127,635.4 127,631.5 127,624.9 127,614.2 
		127,603.5 	"/>
	<polyline class="st6" points="176.9,637.4 176.9,628.4 176.9,617.9 176.9,607 176.9,596.7 176.9,585.6 176.9,581.7 176.9,575 
		176.9,564.4 176.9,553.6 	"/>
	<polyline class="st6" points="77.1,637.4 77.1,628.4 77.1,617.9 77.1,607 77.1,596.7 77.1,585.6 77.1,581.7 77.1,575 77.1,564.4 
		77.1,553.6 	"/>
	<polyline class="st6" points="77.8,438.8 77.8,397.2 77.8,348.2 77.8,346.8 	"/>
	<polyline class="st6" points="126.4,588 126.4,579.1 126.4,568.6 126.4,557.6 126.4,547.3 126.4,536.2 126.4,532.3 126.4,525.7 
		126.4,515 126.4,504.3 	"/>
	<polyline class="st6" points="77,538.6 77,529.7 77,519.1 77,508.2 77,497.9 77,486.8 77,482.9 77,476.3 77,465.6 77,454.9 	"/>
	<polyline class="st6" points="127.3,389.2 127.3,347.7 127.3,346.8 	"/>
	<polyline class="st6" points="126.6,489 126.6,480.1 126.6,469.6 126.6,458.7 126.6,448.3 126.6,437.2 126.6,433.3 126.6,426.7 
		126.6,416 126.6,405.3 	"/>
	<polyline class="st6" points="177.3,437.4 177.3,395.8 177.3,346.8 	"/>
	<polyline class="st6" points="176.9,537.5 176.9,528.6 176.9,518.1 176.9,507.2 176.9,496.8 176.9,485.8 176.9,481.8 176.9,475.2 
		176.9,464.5 176.9,453.8 	"/>
	<line class="st6" x1="226.7" y1="346.8" x2="226.7" y2="388"/>
	<polyline class="st6" points="226.3,488.1 226.3,479.2 226.3,468.7 226.3,457.8 226.3,447.5 226.3,436.4 226.3,432.5 226.3,425.8 
		226.3,415.1 226.3,404.4 	"/>
	<polyline class="st6" points="226.8,587.4 226.8,578.5 226.8,568 226.8,557 226.8,546.7 226.8,535.6 226.8,531.7 226.8,525.1 
		226.8,514.4 226.8,503.7 	"/>
	<polyline class="st6" points="276.9,537.4 276.9,528.4 276.9,517.9 276.9,507 276.9,496.7 276.9,485.6 276.9,481.7 276.9,475 
		276.9,464.4 276.9,453.6 	"/>
	<polyline class="st6" points="276.9,436.9 276.9,395.4 276.9,346.8 	"/>
	<polyline class="st6" points="326.8,487.4 326.8,478.5 326.8,468 326.8,457 326.8,446.7 326.8,435.6 326.8,431.7 326.8,425.1 
		326.8,414.4 326.8,403.7 	"/>
	<line class="st6" x1="326.8" y1="346.8" x2="326.8" y2="387"/>
	<polyline class="st6" points="227.2,687 227.2,680.2 227.2,671.9 227.2,663.9 227.2,655.5 227.2,647.6 227.2,639.1 227.2,631 
		227.2,622.9 227.2,614.6 227.2,606.5 	"/>
	<polyline class="st6" points="276.9,637.3 276.9,630.6 276.9,622.2 276.9,614.2 276.9,605.8 276.9,597.9 276.9,589.4 276.9,581.4 
		276.9,573.2 276.9,565 276.9,556.8 	"/>
	<polyline class="st6" points="327.3,586.9 327.3,580.2 327.3,571.8 327.3,563.8 327.3,555.4 327.3,547.5 327.3,539 327.3,531 
		327.3,522.8 327.3,514.6 327.3,506.4 	"/>
	<polyline class="st6" points="377.3,536.9 377.3,530.2 377.3,521.8 377.3,513.8 377.3,505.4 377.3,497.5 377.3,489 377.3,481 
		377.3,472.8 377.3,464.6 377.3,456.4 	"/>
	<polyline class="st6" points="377.5,436.7 377.5,395.1 377.5,346.8 	"/>
	<polyline class="st6" points="427.1,486.1 427.1,446.5 427.1,396.5 427.1,346.8 	"/>
	<polyline class="st6" points="476.5,436.7 476.5,396.5 476.5,346.8 	"/>
	<line class="st6" x1="526.6" y1="386.6" x2="526.6" y2="346.8"/>
	<line class="st6" x1="76.8" y1="896.8" x2="76.8" y2="857.5"/>
	<line class="st6" x1="126.8" y1="897.8" x2="126.8" y2="807.4"/>
	<line class="st6" x1="176.8" y1="898.8" x2="176.8" y2="756.9"/>
	<line class="st6" x1="226.8" y1="898.8" x2="226.8" y2="707.4"/>
	<line class="st6" x1="276.8" y1="899.8" x2="276.8" y2="656.9"/>
	<line class="st6" x1="326.7" y1="896.8" x2="326.7" y2="607.1"/>
	<line class="st6" x1="376.7" y1="896.8" x2="376.7" y2="557.1"/>
	<line class="st6" x1="426.5" y1="896.8" x2="426.5" y2="507.3"/>
	<line class="st6" x1="476.7" y1="896.8" x2="476.7" y2="457.1"/>
	<line class="st6" x1="526.7" y1="899.8" x2="526.7" y2="407.1"/>
	<line class="st6" x1="576.7" y1="898.8" x2="576.7" y2="357.1"/>
	<line class="st6" x1="625.4" y1="896.8" x2="625.4" y2="346.8"/>
</g>
<g id="Editorial1">
	<polyline class="st7" points="1063.9,881.1 1063.7,881.1 98.6,881.6 	"/>
	<line class="st7" x1="475.7" y1="473.7" x2="549" y2="473.7"/>
	<line class="st7" x1="427.7" y1="531.8" x2="500.9" y2="531.8"/>
	<line class="st7" x1="522.2" y1="414.8" x2="595" y2="414.8"/>
	<line class="st7" x1="567.6" y1="357.4" x2="641.2" y2="357.4"/>
	<line class="st7" x1="522.2" y1="531.9" x2="595" y2="531.9"/>
	<line class="st7" x1="1061.9" y1="358" x2="658.8" y2="358"/>
	<line class="st7" x1="613.5" y1="415.4" x2="687.6" y2="415.4"/>
	<polyline class="st7" points="706.7,415.4 1063.8,415.4 1063.9,415.4 	"/>
	<line class="st7" x1="658.8" y1="472.7" x2="733" y2="472.7"/>
	<line class="st7" x1="1064.6" y1="472.7" x2="752.7" y2="472.7"/>
	<line class="st7" x1="706.6" y1="533" x2="778.2" y2="533"/>
	<line class="st7" x1="1063.3" y1="532.9" x2="799.1" y2="532.9"/>
	<line class="st7" x1="750.8" y1="589.1" x2="825.5" y2="589.1"/>
	<line class="st7" x1="1063.7" y1="589.1" x2="843.9" y2="589.1"/>
	<line class="st7" x1="797.7" y1="648.3" x2="872.1" y2="648.3"/>
	<line class="st7" x1="1064.1" y1="648.2" x2="891.1" y2="648.2"/>
	<line class="st7" x1="842.9" y1="705.3" x2="918.2" y2="705.3"/>
	<line class="st7" x1="1063.7" y1="705.3" x2="935.9" y2="705.3"/>
	<line class="st7" x1="889.5" y1="764.7" x2="962.3" y2="764.7"/>
	<polyline class="st7" points="982.6,764.6 1063.6,764.6 1063.8,764.6 	"/>
	<line class="st7" x1="934.8" y1="821.7" x2="1009" y2="821.7"/>
	<line class="st7" x1="1063.7" y1="821.7" x2="1027.9" y2="821.7"/>
	<line class="st7" x1="381.7" y1="589.8" x2="455" y2="589.8"/>
	<line class="st7" x1="335.6" y1="648.3" x2="408.7" y2="648.3"/>
	<line class="st7" x1="289.9" y1="706" x2="363.2" y2="706"/>
	<line class="st7" x1="243.1" y1="765.1" x2="316.4" y2="765.1"/>
	<line class="st7" x1="197.2" y1="823.3" x2="270.4" y2="823.3"/>
	<polyline class="st7" points="613.8,299.1 1061.2,299.1 1061.9,299.1 	"/>
	<line class="st7" x1="568.3" y1="473.2" x2="641.2" y2="473.2"/>
	<line class="st7" x1="475.7" y1="589.6" x2="549" y2="589.6"/>
	<line class="st7" x1="568.3" y1="589.3" x2="641.2" y2="589.3"/>
	<line class="st7" x1="614.2" y1="531.2" x2="687" y2="531.2"/>
	<line class="st7" x1="660.3" y1="589.5" x2="733" y2="589.5"/>
	<line class="st7" x1="428.2" y1="648.5" x2="501.3" y2="648.5"/>
	<line class="st7" x1="522.2" y1="648.4" x2="595.3" y2="648.4"/>
	<line class="st7" x1="614.9" y1="648" x2="687.6" y2="648"/>
	<line class="st7" x1="706.7" y1="648.2" x2="779.5" y2="648.2"/>
	<line class="st7" x1="381.5" y1="706.4" x2="454.8" y2="706.4"/>
	<line class="st7" x1="474.2" y1="706.8" x2="547.4" y2="706.8"/>
	<line class="st7" x1="568.2" y1="706.5" x2="641.3" y2="706.5"/>
	<line class="st7" x1="660.7" y1="706.2" x2="733.5" y2="706.2"/>
	<line class="st7" x1="752.7" y1="706.3" x2="825.5" y2="706.3"/>
	<line class="st7" x1="336.5" y1="764.9" x2="409.6" y2="764.9"/>
	<line class="st7" x1="428.2" y1="765.4" x2="501.3" y2="765.4"/>
	<line class="st7" x1="520.7" y1="765.7" x2="594" y2="765.7"/>
	<line class="st7" x1="614.8" y1="765.5" x2="687.9" y2="765.5"/>
	<line class="st7" x1="707.4" y1="765" x2="780.1" y2="765"/>
	<line class="st7" x1="799.3" y1="765.2" x2="872.1" y2="765.2"/>
	<line class="st7" x1="289.3" y1="823.5" x2="362.5" y2="823.5"/>
	<line class="st7" x1="382.7" y1="823.3" x2="455.8" y2="823.3"/>
	<line class="st7" x1="474.3" y1="823.7" x2="547.5" y2="823.7"/>
	<line class="st7" x1="566.9" y1="824" x2="640.1" y2="824"/>
	<line class="st7" x1="660.9" y1="823.8" x2="734.1" y2="823.8"/>
	<line class="st7" x1="753.5" y1="823.4" x2="826.3" y2="823.4"/>
	<line class="st7" x1="845.5" y1="823.6" x2="918.2" y2="823.6"/>
	<polyline class="st7" points="99.4,241.2 144.3,241.2 190.1,241.2 236.9,241.2 281.5,241.2 328.5,241.2 374.5,241.2 420.2,241.2 
		466.3,241.2 512.3,241.2 558.1,241.2 649.9,241.2 695.9,241.2 741.3,241.2 786.7,241.2 787.6,241.2 805,241.2 833.3,241.2 
		879.2,241.2 925.3,241.2 970.6,241.2 1016.5,241.2 1061.9,241.2 1063.9,241.2 1064.6,241.2 	"/>
	<line class="st7" x1="98.6" y1="822.7" x2="180.2" y2="822.7"/>
	<line class="st7" x1="98.6" y1="764.6" x2="226.3" y2="764.6"/>
	<line class="st7" x1="98.6" y1="706.3" x2="272.8" y2="706.3"/>
	<line class="st7" x1="98.8" y1="648.4" x2="318.4" y2="648.2"/>
	<line class="st7" x1="99.4" y1="589.8" x2="364.9" y2="589.8"/>
	<line class="st7" x1="98.8" y1="532.2" x2="410.9" y2="531.9"/>
	<line class="st7" x1="99.4" y1="473.7" x2="456.9" y2="473.7"/>
	<line class="st7" x1="98.7" y1="417.2" x2="502.7" y2="415.6"/>
	<line class="st7" x1="98.6" y1="357.2" x2="549" y2="357.2"/>
	<line class="st7" x1="99.4" y1="299.9" x2="595" y2="299"/>
</g>
<g id="Editoral2">
	<polyline class="st7" points="1063.9,660.6 1063.9,670.1 1063.9,679.7 1063.9,689.1 1063.9,698.5 1063.9,708.4 1063.9,717.6 
		1063.9,727.3 1063.9,736.7 1063.9,746.5 1063.9,754.3 	"/>
	<polyline class="st7" points="1017.5,601.9 1017.5,611.3 1017.5,621 1017.5,630.4 1017.5,639.8 1017.5,649.7 1017.5,658.9 
		1017.5,668.6 1017.5,678 1017.5,687.7 1017.5,695.6 	"/>
	<polyline class="st7" points="1063.7,540.1 1063.7,552.6 1063.7,565.1 1063.7,572.7 1063.7,577.2 1063.7,590.2 1063.7,602.2 
		1063.7,615 1063.7,627.2 1063.7,637.6 	"/>
	<polyline class="st7" points="1017.8,482.1 1017.8,494.6 1017.8,506.9 1017.8,514.8 1017.8,519.3 1017.8,532.2 1017.8,544.2 
		1017.8,556.9 1017.8,569.2 1017.8,579.7 	"/>
	<polyline class="st7" points="1064.2,424.6 1064.2,437.1 1064.2,449.6 1064.2,457.2 1064.2,461.7 1064.2,474.7 1064.2,486.7 
		1064.2,499.5 1064.2,511.7 1064.2,522.1 	"/>
	<polyline class="st7" points="1063.4,241.2 1063.4,242.2 1063.4,290.6 	"/>
	<polyline class="st7" points="1064.1,309.3 1064.1,321.8 1064.1,334.3 1064.1,341.9 1064.1,346.4 1064.1,359.4 1064.1,371.5 
		1064.1,384.2 1064.1,396.4 1064.1,406.8 	"/>
	<polyline class="st7" points="1017.4,241.2 1017.4,298.2 1017.4,346.8 	"/>
	<polyline class="st7" points="1017.8,365.8 1017.8,378.3 1017.8,390.8 1017.8,398.4 1017.8,403 1017.8,415.8 1017.8,428 
		1017.8,440.7 1017.8,452.9 1017.8,463.3 	"/>
	<line class="st7" x1="972" y1="289.2" x2="972" y2="241.2"/>
	<polyline class="st7" points="972.3,308.3 972.3,320.8 972.3,333.2 972.3,341 972.3,345.5 972.3,358.5 972.3,370.4 972.3,383.1 
		972.3,395.4 972.3,405.8 	"/>
	<polyline class="st7" points="971.8,423.9 971.8,436.4 971.8,448.8 971.8,456.5 971.8,461.1 971.8,474 971.8,485.9 971.8,498.8 
		971.8,511 971.8,521.4 	"/>
	<polyline class="st7" points="925.6,365.6 925.6,378.2 925.6,390.5 925.6,398.3 925.6,402.8 925.6,415.7 925.6,427.8 925.6,440.5 
		925.6,452.7 925.6,463.2 	"/>
	<polyline class="st7" points="925.6,241.2 925.6,297.8 925.6,346.1 	"/>
	<polyline class="st7" points="879.8,307.4 879.8,319.9 879.8,332.4 879.8,340 879.8,344.7 879.8,357.5 879.8,369.5 879.8,382.4 
		879.8,394.5 879.8,404.9 	"/>
	<line class="st7" x1="879.8" y1="288.1" x2="879.8" y2="241.2"/>
	<polyline class="st7" points="971.5,543.6 971.5,553 971.5,562.7 971.5,572.1 971.5,581.5 971.5,591.5 971.5,600.7 971.5,610.5 
		971.5,619.8 971.5,629.4 971.5,637.4 	"/>
	<polyline class="st7" points="925.6,485.7 925.6,495.3 925.6,504.8 925.6,514.4 925.6,523.7 925.6,533.6 925.6,542.8 925.6,552.6 
		925.6,561.9 925.6,571.7 925.6,579.4 	"/>
	<polyline class="st7" points="879.3,427 879.3,436.6 879.3,446.1 879.3,455.7 879.3,465 879.3,474.9 879.3,484.2 879.3,493.9 
		879.3,503.2 879.3,513 879.3,520.7 	"/>
	<polyline class="st7" points="833.2,368.9 833.2,378.4 833.2,387.9 833.2,397.5 833.2,406.8 833.2,416.7 833.2,425.9 833.2,435.6 
		833.2,445 833.2,454.8 833.2,462.6 	"/>
	<polyline class="st7" points="833.1,241.2 833.1,297.5 833.1,345.9 	"/>
	<polyline class="st7" points="787.4,241.2 787.4,299.1 787.4,357.3 787.4,403.5 	"/>
	<polyline class="st7" points="741.9,241.2 741.9,299.1 741.9,345.9 	"/>
	<line class="st7" x1="695.8" y1="241.2" x2="695.8" y2="287.5"/>
	<line class="st7" x1="1063.9" y1="882.9" x2="1063.9" y2="777.6"/>
	<line class="st7" x1="1017.9" y1="884" x2="1017.9" y2="718.7"/>
	<line class="st7" x1="971.8" y1="884" x2="971.8" y2="661.1"/>
	<line class="st7" x1="925.7" y1="885.2" x2="925.7" y2="602.3"/>
	<line class="st7" x1="879.9" y1="881.6" x2="879.9" y2="544.3"/>
	<line class="st7" x1="833.8" y1="881.6" x2="833.8" y2="486.1"/>
	<line class="st7" x1="788" y1="881.6" x2="788" y2="428.1"/>
	<line class="st7" x1="741.8" y1="881.6" x2="741.8" y2="369.6"/>
	<line class="st7" x1="695.8" y1="885.2" x2="695.8" y2="311.4"/>
	<line class="st7" x1="649.7" y1="884" x2="649.7" y2="253.1"/>
	<polyline class="st7" points="98.6,812.5 98.6,804.6 98.6,795 98.6,785.6 98.6,775.9 98.6,766.7 98.6,756.7 98.6,747.3 98.6,737.8 
		98.6,728.2 98.6,718.7 	"/>
	<polyline class="st7" points="98.8,695.8 98.8,685.4 98.8,673.2 98.8,660.5 98.8,648.4 98.8,635.5 98.8,630.9 98.8,623.2 
		98.8,610.8 98.8,598.2 	"/>
	<polyline class="st7" points="144.5,754.3 144.5,746.5 144.5,736.7 144.5,727.3 144.5,717.6 144.5,708.4 144.5,698.5 144.5,689.1 
		144.5,679.7 144.5,670.1 144.5,660.6 	"/>
	<polyline class="st7" points="191,695.6 191,687.7 191,678 191,668.6 191,658.9 191,649.7 191,639.8 191,630.4 191,621 191,611.3 
		191,601.9 	"/>
	<polyline class="st7" points="144.7,637.6 144.7,627.2 144.7,615 144.7,602.2 144.7,590.2 144.7,577.2 144.7,572.7 144.7,565.1 
		144.7,552.6 144.7,540.1 	"/>
	<polyline class="st7" points="190.7,579.7 190.7,569.2 190.7,556.9 190.7,544.2 190.7,532.2 190.7,519.3 190.7,514.8 190.7,506.9 
		190.7,494.6 190.7,482.1 	"/>
	<polyline class="st7" points="98.8,579.7 98.8,569.2 98.8,556.9 98.8,544.2 98.8,532.2 98.8,519.3 98.8,514.8 98.8,506.9 
		98.8,494.6 98.8,482.1 	"/>
	<polyline class="st7" points="99.4,348.3 99.4,299.9 99.4,242.9 99.4,241.2 	"/>
	<polyline class="st7" points="144.2,522.1 144.2,511.7 144.2,499.5 144.2,486.7 144.2,474.7 144.2,461.7 144.2,457.2 144.2,449.6 
		144.2,437.1 144.2,424.6 	"/>
	<polyline class="st7" points="98.7,464.6 98.7,454.2 98.7,441.8 98.7,429.1 98.7,417.2 98.7,404.2 98.7,399.7 98.7,392 98.7,379.6 
		98.7,367.1 	"/>
	<polyline class="st7" points="145,290.6 145,242.2 145,241.2 	"/>
	<polyline class="st7" points="144.4,406.8 144.4,396.4 144.4,384.2 144.4,371.5 144.4,359.4 144.4,346.4 144.4,341.9 144.4,334.3 
		144.4,321.8 144.4,309.3 	"/>
	<polyline class="st7" points="191.1,346.8 191.1,298.2 191.1,241.2 	"/>
	<polyline class="st7" points="190.7,463.3 190.7,452.9 190.7,440.7 190.7,428 190.7,415.8 190.7,403 190.7,398.4 190.7,390.8 
		190.7,378.3 190.7,365.8 	"/>
	<line class="st7" x1="236.5" y1="241.2" x2="236.5" y2="289.2"/>
	<polyline class="st7" points="236.2,405.8 236.2,395.4 236.2,383.1 236.2,370.4 236.2,358.5 236.2,345.5 236.2,341 236.2,333.2 
		236.2,320.8 236.2,308.3 	"/>
	<polyline class="st7" points="236.6,521.4 236.6,511 236.6,498.8 236.6,485.9 236.6,474 236.6,461.1 236.6,456.5 236.6,448.8 
		236.6,436.4 236.6,423.9 	"/>
	<polyline class="st7" points="282.8,463.2 282.8,452.7 282.8,440.5 282.8,427.8 282.8,415.7 282.8,402.8 282.8,398.3 282.8,390.5 
		282.8,378.2 282.8,365.6 	"/>
	<polyline class="st7" points="282.8,346.1 282.8,297.8 282.8,241.2 	"/>
	<polyline class="st7" points="328.7,404.9 328.7,394.5 328.7,382.4 328.7,369.5 328.7,357.5 328.7,344.7 328.7,340 328.7,332.4 
		328.7,319.9 328.7,307.4 	"/>
	<line class="st7" x1="328.7" y1="241.2" x2="328.7" y2="288.1"/>
	<polyline class="st7" points="236.9,637.4 236.9,629.4 236.9,619.8 236.9,610.5 236.9,600.7 236.9,591.5 236.9,581.5 236.9,572.1 
		236.9,562.7 236.9,553 236.9,543.6 	"/>
	<polyline class="st7" points="282.8,579.4 282.8,571.7 282.8,561.9 282.8,552.6 282.8,542.8 282.8,533.6 282.8,523.7 282.8,514.4 
		282.8,504.8 282.8,495.3 282.8,485.7 	"/>
	<polyline class="st7" points="329.2,520.7 329.2,513 329.2,503.2 329.2,493.9 329.2,484.2 329.2,474.9 329.2,465 329.2,455.7 
		329.2,446.1 329.2,436.6 329.2,427 	"/>
	<polyline class="st7" points="375.2,462.6 375.2,454.8 375.2,445 375.2,435.6 375.2,425.9 375.2,416.7 375.2,406.8 375.2,397.5 
		375.2,387.9 375.2,378.4 375.2,368.9 	"/>
	<polyline class="st7" points="375.4,345.9 375.4,297.5 375.4,241.2 	"/>
	<polyline class="st7" points="421.1,403.5 421.1,357.3 421.1,299.1 421.1,241.2 	"/>
	<polyline class="st7" points="466.5,345.9 466.5,299.1 466.5,241.2 	"/>
	<line class="st7" x1="512.7" y1="287.5" x2="512.7" y2="241.2"/>
	<line class="st7" x1="98.6" y1="881.6" x2="98.6" y2="835.9"/>
	<line class="st7" x1="144.5" y1="882.9" x2="144.5" y2="777.6"/>
	<line class="st7" x1="190.6" y1="884" x2="190.6" y2="718.7"/>
	<line class="st7" x1="236.6" y1="884" x2="236.6" y2="661.1"/>
	<line class="st7" x1="282.7" y1="885.2" x2="282.7" y2="602.3"/>
	<line class="st7" x1="328.6" y1="881.6" x2="328.6" y2="544.3"/>
	<line class="st7" x1="374.7" y1="881.6" x2="374.7" y2="486.1"/>
	<line class="st7" x1="420.6" y1="881.6" x2="420.6" y2="428.1"/>
	<line class="st7" x1="466.7" y1="881.6" x2="466.7" y2="369.6"/>
	<line class="st7" x1="512.8" y1="885.2" x2="512.8" y2="311.4"/>
	<line class="st7" x1="558.8" y1="884" x2="558.8" y2="253.1"/>
	<line class="st7" x1="603.6" y1="881.6" x2="603.6" y2="241.2"/>
</g>
</svg>
