<?xml version="1.0" encoding="utf-8"?>
<!-- Generator: Adobe Illustrator 21.0.0, SVG Export Plug-In . SVG Version: 6.00 Build 0)  -->
<svg version="1.1" id="Layer_1" xmlns="http://www.w3.org/2000/svg" xmlns:xlink="http://www.w3.org/1999/xlink" x="0px" y="0px"
	 viewBox="0 0 1200 1200" style="enable-background:new 0 0 1200 1200;" xml:space="preserve">
<style type="text/css">
	.st0{display:none;}
	.st1{display:inline;fill:none;stroke:#000000;stroke-width:5;stroke-linecap:round;stroke-miterlimit:10;}
	
		.st2{display:inline;opacity:0.35;fill:none;stroke:#66C9D1;stroke-width:5;stroke-linecap:round;stroke-miterlimit:10;enable-background:new    ;}
	
		.st3{display:inline;opacity:0.3;fill:none;stroke:#008799;stroke-width:5;stroke-linecap:round;stroke-miterlimit:10;enable-background:new    ;}
	
		.st4{display:inline;opacity:0.3;fill:none;stroke:#005B87;stroke-width:5;stroke-linecap:round;stroke-miterlimit:10;enable-background:new    ;}
	.st5{opacity:0.3;fill:none;stroke:#8C2245;stroke-width:5;stroke-linecap:round;stroke-miterlimit:10;enable-background:new    ;}
	
		.st6{display:inline;opacity:0.3;fill:none;stroke:#EC535E;stroke-width:5;stroke-linecap:round;stroke-miterlimit:10;enable-background:new    ;}
	
		.st7{display:inline;opacity:0.3;fill:none;stroke:#F78E37;stroke-width:5;stroke-linecap:round;stroke-miterlimit:10;enable-background:new    ;}
</style>
<g id="Layer_1_1_" class="st0">
	<line class="st1" x1="49" y1="54.1" x2="49" y2="1155.1"/>
	<line class="st1" x1="99" y1="114" x2="99" y2="1155.1"/>
	<line class="st1" x1="149" y1="164.5" x2="149" y2="1156.1"/>
	<line class="st1" x1="199" y1="214" x2="199" y2="1153.1"/>
	<line class="st1" x1="249" y1="265.5" x2="249" y2="1155.1"/>
	<line class="st1" x1="299" y1="315" x2="299" y2="1155.1"/>
	<line class="st1" x1="349" y1="365" x2="349" y2="1155.1"/>
	<line class="st1" x1="398.9" y1="414.9" x2="398.9" y2="1156.1"/>
	<line class="st1" x1="449.4" y1="465.3" x2="449.4" y2="1155.1"/>
	<line class="st1" x1="498.7" y1="514.7" x2="498.7" y2="1156.1"/>
	<line class="st1" x1="548.8" y1="1153.1" x2="548.8" y2="564.8"/>
	<line class="st1" x1="598.5" y1="1153.1" x2="598.5" y2="614.4"/>
	<line class="st1" x1="648.5" y1="1153.1" x2="648.5" y2="664.5"/>
	<line class="st1" x1="699" y1="1153.1" x2="699" y2="715"/>
	<line class="st1" x1="748.5" y1="1153.1" x2="748.5" y2="764.5"/>
	<line class="st1" x1="798.8" y1="1153.1" x2="798.8" y2="814.7"/>
	<line class="st1" x1="849.1" y1="1153.1" x2="849.1" y2="865"/>
	<line class="st1" x1="898.9" y1="1153.1" x2="898.9" y2="915.4"/>
	<line class="st1" x1="949.4" y1="1153.1" x2="949.4" y2="965.9"/>
	<line class="st1" x1="998.8" y1="1153.1" x2="998.8" y2="1015.4"/>
	<line class="st1" x1="1049.6" y1="1153.1" x2="1049.6" y2="1066.2"/>
	<line class="st1" x1="1099.3" y1="1153.1" x2="1099.3" y2="1115.9"/>
	<line class="st1" x1="1149" y1="54.1" x2="1149" y2="1155.1"/>
	<line class="st1" x1="99" y1="54.6" x2="99" y2="93.9"/>
	<line class="st1" x1="149" y1="53.6" x2="149" y2="144"/>
	<line class="st1" x1="199" y1="52.6" x2="199" y2="194.5"/>
	<line class="st1" x1="249" y1="52.6" x2="249" y2="244"/>
	<line class="st1" x1="299" y1="51.6" x2="299" y2="294.5"/>
	<line class="st1" x1="348.9" y1="54.6" x2="348.9" y2="344.3"/>
	<line class="st1" x1="398.9" y1="54.6" x2="398.9" y2="394.3"/>
	<line class="st1" x1="448.7" y1="54.6" x2="448.7" y2="444.1"/>
	<line class="st1" x1="498.9" y1="54.6" x2="498.9" y2="494.3"/>
	<line class="st1" x1="548.9" y1="51.6" x2="548.9" y2="544.3"/>
	<line class="st1" x1="598.9" y1="52.6" x2="598.9" y2="594.3"/>
	<line class="st1" x1="648.9" y1="54.6" x2="648.9" y2="644.3"/>
	<line class="st1" x1="698.8" y1="54.6" x2="698.8" y2="694.3"/>
	<line class="st1" x1="748.9" y1="52.6" x2="748.9" y2="744.3"/>
	<line class="st1" x1="799" y1="54.6" x2="799" y2="794.4"/>
	<line class="st1" x1="848.8" y1="54.6" x2="848.8" y2="844.3"/>
	<line class="st1" x1="898.9" y1="54.6" x2="898.9" y2="894.3"/>
	<line class="st1" x1="950" y1="52.6" x2="950" y2="945.5"/>
	<line class="st1" x1="998.6" y1="54.6" x2="998.6" y2="994.1"/>
	<line class="st1" x1="1049.6" y1="51.6" x2="1049.6" y2="1045.1"/>
	<line class="st1" x1="1099.6" y1="52.6" x2="1099.6" y2="1095"/>
</g>
<g id="Layer_2" class="st0">
	<line class="st1" x1="48" y1="1153.6" x2="1148.9" y2="1153.6"/>
	<line class="st1" x1="107.9" y1="1103.6" x2="1148.9" y2="1103.6"/>
	<line class="st1" x1="158.4" y1="1053.6" x2="1149.9" y2="1053.6"/>
	<line class="st1" x1="207.9" y1="1003.6" x2="1146.9" y2="1003.6"/>
	<line class="st1" x1="259.4" y1="953.6" x2="1148.9" y2="953.6"/>
	<line class="st1" x1="308.9" y1="903.6" x2="1148.9" y2="903.6"/>
	<line class="st1" x1="358.9" y1="853.6" x2="1148.9" y2="853.6"/>
	<line class="st1" x1="408.7" y1="803.7" x2="1149.9" y2="803.7"/>
	<line class="st1" x1="459.2" y1="753.3" x2="1148.9" y2="753.3"/>
	<line class="st1" x1="508.6" y1="703.9" x2="1149.9" y2="703.9"/>
	<line class="st1" x1="1146.9" y1="653.8" x2="558.7" y2="653.8"/>
	<line class="st1" x1="1146.9" y1="604.1" x2="608.3" y2="604.1"/>
	<line class="st1" x1="1146.9" y1="554.1" x2="658.4" y2="554.1"/>
	<line class="st1" x1="1146.9" y1="503.6" x2="708.9" y2="503.6"/>
	<line class="st1" x1="1146.9" y1="454.1" x2="758.4" y2="454.1"/>
	<line class="st1" x1="1146.9" y1="403.8" x2="808.6" y2="403.8"/>
	<line class="st1" x1="1146.9" y1="353.5" x2="858.9" y2="353.5"/>
	<line class="st1" x1="1146.9" y1="303.7" x2="909.3" y2="303.7"/>
	<line class="st1" x1="1146.9" y1="253.3" x2="959.7" y2="253.3"/>
	<line class="st1" x1="1146.9" y1="203.8" x2="1009.2" y2="203.8"/>
	<line class="st1" x1="1146.9" y1="153" x2="1060.1" y2="153"/>
	<line class="st1" x1="1146.9" y1="103.3" x2="1109.8" y2="103.3"/>
	<line class="st1" x1="48" y1="53.6" x2="1148.9" y2="53.6"/>
	<line class="st1" x1="48.5" y1="1103.6" x2="87.7" y2="1103.6"/>
	<line class="st1" x1="47.5" y1="1053.6" x2="137.9" y2="1053.6"/>
	<line class="st1" x1="46.5" y1="1003.6" x2="188.4" y2="1003.6"/>
	<line class="st1" x1="46.5" y1="953.6" x2="237.9" y2="953.6"/>
	<line class="st1" x1="45.5" y1="903.6" x2="288.4" y2="903.6"/>
	<line class="st1" x1="48.5" y1="853.8" x2="338.2" y2="853.8"/>
	<line class="st1" x1="48.5" y1="803.8" x2="388.2" y2="803.8"/>
	<line class="st1" x1="48.5" y1="754" x2="438" y2="754"/>
	<line class="st1" x1="48.5" y1="703.8" x2="488.2" y2="703.8"/>
	<line class="st1" x1="45.5" y1="653.8" x2="538.2" y2="653.8"/>
	<line class="st1" x1="46.5" y1="603.8" x2="588.2" y2="603.8"/>
	<line class="st1" x1="48.5" y1="553.8" x2="638.2" y2="553.8"/>
	<line class="st1" x1="48.5" y1="503.8" x2="688.2" y2="503.8"/>
	<line class="st1" x1="46.5" y1="453.8" x2="738.2" y2="453.8"/>
	<line class="st1" x1="48.5" y1="403.7" x2="788.3" y2="403.7"/>
	<line class="st1" x1="48.5" y1="353.8" x2="838.2" y2="353.8"/>
	<line class="st1" x1="48.5" y1="303.8" x2="888.2" y2="303.8"/>
	<line class="st1" x1="46.5" y1="252.6" x2="939.4" y2="252.6"/>
	<line class="st1" x1="48.5" y1="204" x2="987.9" y2="204"/>
	<line class="st1" x1="45.5" y1="153" x2="1039" y2="153"/>
	<line class="st1" x1="46.5" y1="103" x2="1088.9" y2="103"/>
</g>
<g id="Layer_1_copy" class="st0">
	<line class="st1" x1="49" y1="54.1" x2="49" y2="1155.1"/>
	<line class="st1" x1="398.9" y1="414.9" x2="398.9" y2="494.3"/>
	<line class="st1" x1="348.9" y1="362.7" x2="348.9" y2="442.2"/>
	<line class="st1" x1="449.4" y1="465.3" x2="449.4" y2="544.3"/>
	<line class="st1" x1="498.7" y1="514.7" x2="498.7" y2="644.3"/>
	<line class="st1" x1="348.9" y1="465.3" x2="348.9" y2="544.3"/>
	<line class="st1" x1="498.7" y1="665.7" x2="498.7" y2="1156.1"/>
	<line class="st1" x1="448.9" y1="564.5" x2="448.9" y2="694.2"/>
	<polyline class="st1" points="448.9,1153.6 448.9,1153.1 448.9,715.5 	"/>
	<line class="st1" x1="399.6" y1="613.7" x2="399.6" y2="743.4"/>
	<polyline class="st1" points="399.7,1153.6 399.7,1153.1 399.7,764.8 	"/>
	<line class="st1" x1="347.9" y1="665.4" x2="347.9" y2="795.1"/>
	<polyline class="st1" points="347.9,1153.6 347.9,1153.1 347.9,816.5 	"/>
	<line class="st1" x1="299.8" y1="713.5" x2="299.8" y2="843.2"/>
	<polyline class="st1" points="299.8,1153.6 299.8,1153.1 299.8,864.6 	"/>
	<line class="st1" x1="248.9" y1="764.4" x2="248.9" y2="894.1"/>
	<polyline class="st1" points="248.9,1153.6 248.9,1153.1 248.9,915.5 	"/>
	<line class="st1" x1="199.8" y1="813.5" x2="199.8" y2="943.2"/>
	<polyline class="st1" points="199.9,1153.6 199.9,1153.1 199.9,964.5 	"/>
	<line class="st1" x1="149" y1="864.3" x2="149" y2="994"/>
	<polyline class="st1" points="149.1,1153.6 149.1,1153.1 149.1,1015.4 	"/>
	<line class="st1" x1="100" y1="913.4" x2="100" y2="1043.1"/>
	<polyline class="st1" points="100,1153.6 100,1153.1 100,1064.4 	"/>
	<line class="st1" x1="299.1" y1="312.8" x2="299.1" y2="392.3"/>
	<line class="st1" x1="248.9" y1="262.7" x2="248.9" y2="342.1"/>
	<line class="st1" x1="199.3" y1="213.1" x2="199.3" y2="292.6"/>
	<line class="st1" x1="148.5" y1="162.3" x2="148.5" y2="241.8"/>
	<line class="st1" x1="98.7" y1="112.4" x2="98.7" y2="191.9"/>
	<line class="st1" x1="548.8" y1="1153.1" x2="548.8" y2="564.8"/>
	<line class="st1" x1="399.3" y1="515.4" x2="399.3" y2="594.4"/>
	<line class="st1" x1="299.2" y1="414.9" x2="299.2" y2="494.3"/>
	<line class="st1" x1="299.6" y1="515.4" x2="299.6" y2="594.4"/>
	<line class="st1" x1="349.4" y1="565.3" x2="349.4" y2="644.3"/>
	<line class="st1" x1="299.4" y1="615.3" x2="299.4" y2="694.3"/>
	<line class="st1" x1="248.6" y1="363.2" x2="248.6" y2="442.7"/>
	<line class="st1" x1="248.8" y1="465.3" x2="248.8" y2="544.8"/>
	<line class="st1" x1="249.2" y1="565.9" x2="249.2" y2="644.9"/>
	<line class="st1" x1="249" y1="665.7" x2="249" y2="744.7"/>
	<line class="st1" x1="198.9" y1="312.6" x2="198.9" y2="392.1"/>
	<line class="st1" x1="198.7" y1="413.2" x2="198.7" y2="492.7"/>
	<line class="st1" x1="198.9" y1="515.3" x2="198.9" y2="594.7"/>
	<line class="st1" x1="199.2" y1="615.8" x2="199.2" y2="694.8"/>
	<line class="st1" x1="199" y1="715.7" x2="199" y2="794.7"/>
	<line class="st1" x1="148.8" y1="263.7" x2="148.8" y2="343.1"/>
	<line class="st1" x1="148.4" y1="363.2" x2="148.4" y2="442.7"/>
	<line class="st1" x1="148.1" y1="463.8" x2="148.1" y2="543.3"/>
	<line class="st1" x1="148.3" y1="565.8" x2="148.3" y2="645.3"/>
	<line class="st1" x1="148.6" y1="666.4" x2="148.6" y2="745.4"/>
	<line class="st1" x1="148.5" y1="766.2" x2="148.5" y2="845.2"/>
	<line class="st1" x1="98.4" y1="212.4" x2="98.4" y2="291.9"/>
	<line class="st1" x1="98.7" y1="313.8" x2="98.7" y2="393.2"/>
	<line class="st1" x1="98.3" y1="413.3" x2="98.3" y2="492.8"/>
	<line class="st1" x1="98" y1="513.9" x2="98" y2="593.4"/>
	<line class="st1" x1="98.2" y1="615.9" x2="98.2" y2="695.4"/>
	<line class="st1" x1="98.5" y1="716.5" x2="98.5" y2="795.5"/>
	<line class="st1" x1="98.4" y1="816.3" x2="98.4" y2="895.3"/>
	<line class="st1" x1="598.5" y1="1153.1" x2="598.5" y2="614.4"/>
	<line class="st1" x1="648.5" y1="1153.1" x2="648.5" y2="664.5"/>
	<line class="st1" x1="699" y1="1153.1" x2="699" y2="715"/>
	<line class="st1" x1="748.5" y1="1153.1" x2="748.5" y2="764.5"/>
	<line class="st1" x1="798.8" y1="1153.1" x2="798.8" y2="814.7"/>
	<line class="st1" x1="849.1" y1="1153.1" x2="849.1" y2="865"/>
	<line class="st1" x1="898.9" y1="1153.1" x2="898.9" y2="915.4"/>
	<line class="st1" x1="949.4" y1="1153.1" x2="949.4" y2="965.9"/>
	<line class="st1" x1="998.8" y1="1153.1" x2="998.8" y2="1015.4"/>
	<line class="st1" x1="1049.6" y1="1153.1" x2="1049.6" y2="1066.2"/>
	<line class="st1" x1="1099.3" y1="1153.1" x2="1099.3" y2="1115.9"/>
	<line class="st1" x1="1149" y1="54.1" x2="1149" y2="1155.1"/>
	<line class="st1" x1="99" y1="54.6" x2="99" y2="93.9"/>
	<line class="st1" x1="149" y1="53.6" x2="149" y2="144"/>
	<line class="st1" x1="199" y1="52.6" x2="199" y2="194.5"/>
	<line class="st1" x1="249" y1="52.6" x2="249" y2="244"/>
	<line class="st1" x1="299" y1="51.6" x2="299" y2="294.5"/>
	<line class="st1" x1="348.9" y1="54.6" x2="348.9" y2="344.3"/>
	<line class="st1" x1="398.9" y1="54.6" x2="398.9" y2="394.3"/>
	<line class="st1" x1="448.7" y1="54.6" x2="448.7" y2="444.1"/>
	<line class="st1" x1="498.9" y1="54.6" x2="498.9" y2="494.3"/>
	<line class="st1" x1="548.9" y1="51.6" x2="548.9" y2="544.3"/>
	<line class="st1" x1="598.9" y1="52.6" x2="598.9" y2="594.3"/>
	<line class="st1" x1="648.9" y1="54.6" x2="648.9" y2="644.3"/>
	<line class="st1" x1="698.8" y1="54.6" x2="698.8" y2="694.3"/>
	<line class="st1" x1="748.9" y1="52.6" x2="748.9" y2="744.3"/>
	<line class="st1" x1="799" y1="54.6" x2="799" y2="794.4"/>
	<line class="st1" x1="848.8" y1="54.6" x2="848.8" y2="844.3"/>
	<line class="st1" x1="898.9" y1="54.6" x2="898.9" y2="894.3"/>
	<line class="st1" x1="950" y1="52.6" x2="950" y2="945.5"/>
	<line class="st1" x1="998.6" y1="54.6" x2="998.6" y2="994.1"/>
	<line class="st1" x1="1049.6" y1="51.6" x2="1049.6" y2="1045.1"/>
	<line class="st1" x1="1099.6" y1="52.6" x2="1099.6" y2="1095"/>
</g>
<g id="Layer_2_copy" class="st0">
	<line class="st1" x1="48" y1="1153.6" x2="1148.9" y2="1153.6"/>
	<line class="st1" x1="107.9" y1="1103.6" x2="1148.9" y2="1103.6"/>
	<line class="st1" x1="158.4" y1="1053.6" x2="1149.9" y2="1053.6"/>
	<line class="st1" x1="207.9" y1="1003.6" x2="1146.9" y2="1003.6"/>
	<line class="st1" x1="259.4" y1="953.6" x2="1148.9" y2="953.6"/>
	<line class="st1" x1="308.9" y1="903.6" x2="1148.9" y2="903.6"/>
	<line class="st1" x1="358.9" y1="853.6" x2="1148.9" y2="853.6"/>
	<line class="st1" x1="408.7" y1="803.7" x2="1149.9" y2="803.7"/>
	<line class="st1" x1="459.2" y1="753.3" x2="1148.9" y2="753.3"/>
	<line class="st1" x1="508.6" y1="703.9" x2="1149.9" y2="703.9"/>
	<line class="st1" x1="1146.9" y1="653.8" x2="558.7" y2="653.8"/>
	<line class="st1" x1="1146.9" y1="604.1" x2="608.3" y2="604.1"/>
	<line class="st1" x1="1146.9" y1="554.1" x2="658.4" y2="554.1"/>
	<line class="st1" x1="1146.9" y1="503.6" x2="708.9" y2="503.6"/>
	<line class="st1" x1="1146.9" y1="454.1" x2="758.4" y2="454.1"/>
	<line class="st1" x1="1146.9" y1="403.8" x2="808.6" y2="403.8"/>
	<line class="st1" x1="1146.9" y1="353.5" x2="858.9" y2="353.5"/>
	<line class="st1" x1="1146.9" y1="303.7" x2="909.3" y2="303.7"/>
	<line class="st1" x1="1146.9" y1="253.3" x2="959.7" y2="253.3"/>
	<line class="st1" x1="1146.9" y1="203.8" x2="1009.2" y2="203.8"/>
	<line class="st1" x1="1146.9" y1="153" x2="1060.1" y2="153"/>
	<line class="st1" x1="1146.9" y1="103.3" x2="1109.8" y2="103.3"/>
	<line class="st1" x1="48" y1="53.6" x2="1148.9" y2="53.6"/>
	<line class="st1" x1="48.5" y1="1103.6" x2="87.7" y2="1103.6"/>
	<line class="st1" x1="47.5" y1="1053.6" x2="137.9" y2="1053.6"/>
	<line class="st1" x1="46.5" y1="1003.6" x2="188.4" y2="1003.6"/>
	<line class="st1" x1="46.5" y1="953.6" x2="237.9" y2="953.6"/>
	<line class="st1" x1="45.5" y1="903.6" x2="288.4" y2="903.6"/>
	<line class="st1" x1="48.5" y1="853.8" x2="338.2" y2="853.8"/>
	<line class="st1" x1="48.5" y1="803.8" x2="388.2" y2="803.8"/>
	<line class="st1" x1="48.5" y1="754" x2="438" y2="754"/>
	<line class="st1" x1="48.5" y1="703.8" x2="488.2" y2="703.8"/>
	<line class="st1" x1="45.5" y1="653.8" x2="538.2" y2="653.8"/>
	<line class="st1" x1="46.5" y1="603.8" x2="588.2" y2="603.8"/>
	<line class="st1" x1="48.5" y1="553.8" x2="638.2" y2="553.8"/>
	<line class="st1" x1="48.5" y1="503.8" x2="688.2" y2="503.8"/>
	<line class="st1" x1="46.5" y1="453.8" x2="738.2" y2="453.8"/>
	<line class="st1" x1="48.5" y1="403.7" x2="788.3" y2="403.7"/>
	<line class="st1" x1="48.5" y1="353.8" x2="838.2" y2="353.8"/>
	<line class="st1" x1="48.5" y1="303.8" x2="888.2" y2="303.8"/>
	<line class="st1" x1="46.5" y1="252.6" x2="939.4" y2="252.6"/>
	<line class="st1" x1="48.5" y1="204" x2="987.9" y2="204"/>
	<line class="st1" x1="45.5" y1="153" x2="1039" y2="153"/>
	<line class="st1" x1="46.5" y1="103" x2="1088.9" y2="103"/>
</g>
<g id="Creatives1" class="st0">
	<polyline class="st2" points="1125.2,896.3 1125,896.3 76.8,896.8 	"/>
	<line class="st2" x1="486.5" y1="546.4" x2="566" y2="546.4"/>
	<line class="st2" x1="434.3" y1="596.3" x2="513.8" y2="596.3"/>
	<line class="st2" x1="536.9" y1="495.9" x2="616" y2="495.9"/>
	<line class="st2" x1="586.3" y1="446.6" x2="666.1" y2="446.6"/>
	<line class="st2" x1="536.9" y1="596.4" x2="616" y2="596.4"/>
	<line class="st2" x1="1123" y1="447.1" x2="685.3" y2="447.1"/>
	<line class="st2" x1="636.1" y1="496.4" x2="716.5" y2="496.4"/>
	<polyline class="st2" points="737.3,496.4 1125.1,496.4 1125.2,496.4 	"/>
	<line class="st2" x1="685.3" y1="545.6" x2="765.8" y2="545.6"/>
	<line class="st2" x1="1125.9" y1="545.6" x2="787.3" y2="545.6"/>
	<line class="st2" x1="737.1" y1="597.4" x2="815" y2="597.4"/>
	<line class="st2" x1="1124.5" y1="597.3" x2="837.6" y2="597.3"/>
	<line class="st2" x1="785.2" y1="645.5" x2="866.3" y2="645.5"/>
	<line class="st2" x1="1125" y1="645.5" x2="886.3" y2="645.5"/>
	<line class="st2" x1="836.1" y1="696.4" x2="916.9" y2="696.4"/>
	<line class="st2" x1="1125.5" y1="696.3" x2="937.6" y2="696.3"/>
	<line class="st2" x1="885.1" y1="745.4" x2="967" y2="745.4"/>
	<line class="st2" x1="1125" y1="745.4" x2="986.2" y2="745.4"/>
	<line class="st2" x1="935.9" y1="796.3" x2="1014.8" y2="796.3"/>
	<polyline class="st2" points="1036.9,796.2 1124.9,796.2 1125.1,796.2 	"/>
	<line class="st2" x1="985" y1="845.3" x2="1065.6" y2="845.3"/>
	<line class="st2" x1="1125" y1="845.3" x2="1086.1" y2="845.3"/>
	<line class="st2" x1="384.4" y1="646.2" x2="463.9" y2="646.2"/>
	<line class="st2" x1="334.3" y1="696.4" x2="413.7" y2="696.4"/>
	<line class="st2" x1="284.7" y1="745.9" x2="364.2" y2="745.9"/>
	<line class="st2" x1="233.9" y1="796.7" x2="313.4" y2="796.7"/>
	<line class="st2" x1="184" y1="846.6" x2="263.5" y2="846.6"/>
	<polyline class="st2" points="636.4,396.5 1122.3,396.5 1123,396.5 	"/>
	<line class="st2" x1="587" y1="546" x2="666.1" y2="546"/>
	<line class="st2" x1="486.5" y1="646" x2="566" y2="646"/>
	<line class="st2" x1="587" y1="645.7" x2="666.1" y2="645.7"/>
	<line class="st2" x1="636.9" y1="595.9" x2="715.9" y2="595.9"/>
	<line class="st2" x1="686.9" y1="645.9" x2="765.9" y2="645.9"/>
	<line class="st2" x1="434.9" y1="696.6" x2="514.3" y2="696.6"/>
	<line class="st2" x1="536.9" y1="696.5" x2="616.4" y2="696.5"/>
	<line class="st2" x1="637.5" y1="696.1" x2="716.5" y2="696.1"/>
	<line class="st2" x1="737.3" y1="696.3" x2="816.3" y2="696.3"/>
	<line class="st2" x1="384.2" y1="746.3" x2="463.7" y2="746.3"/>
	<line class="st2" x1="484.8" y1="746.6" x2="564.3" y2="746.6"/>
	<line class="st2" x1="586.9" y1="746.4" x2="666.3" y2="746.4"/>
	<line class="st2" x1="687.4" y1="746.1" x2="766.4" y2="746.1"/>
	<line class="st2" x1="787.3" y1="746.2" x2="866.3" y2="746.2"/>
	<line class="st2" x1="335.3" y1="796.5" x2="414.7" y2="796.5"/>
	<line class="st2" x1="434.8" y1="796.9" x2="514.3" y2="796.9"/>
	<line class="st2" x1="535.4" y1="797.2" x2="614.9" y2="797.2"/>
	<line class="st2" x1="637.4" y1="797" x2="716.9" y2="797"/>
	<line class="st2" x1="738" y1="796.6" x2="817" y2="796.6"/>
	<line class="st2" x1="837.9" y1="796.8" x2="916.9" y2="796.8"/>
	<line class="st2" x1="284" y1="846.8" x2="363.5" y2="846.8"/>
	<line class="st2" x1="385.4" y1="846.6" x2="464.8" y2="846.6"/>
	<line class="st2" x1="484.9" y1="847" x2="564.4" y2="847"/>
	<line class="st2" x1="585.5" y1="847.3" x2="665" y2="847.3"/>
	<line class="st2" x1="687.6" y1="847.1" x2="767" y2="847.1"/>
	<line class="st2" x1="788.1" y1="846.7" x2="867.1" y2="846.7"/>
	<line class="st2" x1="888" y1="846.9" x2="967" y2="846.9"/>
	<polyline class="st2" points="77.8,346.8 126.5,346.8 176.3,346.8 227.2,346.8 275.6,346.8 326.6,346.8 376.5,346.8 426.2,346.8 
		476.2,346.8 526.1,346.8 575.9,346.8 675.6,346.8 725.5,346.8 774.8,346.8 824.2,346.8 825.1,346.8 844,346.8 874.8,346.8 
		924.6,346.8 974.7,346.8 1023.9,346.8 1073.7,346.8 1123.1,346.8 1125.2,346.8 1125.9,346.8 	"/>
	<line class="st2" x1="76.8" y1="846.2" x2="165.5" y2="846.2"/>
	<line class="st2" x1="76.8" y1="796.2" x2="215.6" y2="796.2"/>
	<line class="st2" x1="76.8" y1="746.2" x2="266.1" y2="746.2"/>
	<line class="st2" x1="77.1" y1="696.5" x2="315.6" y2="696.3"/>
	<line class="st2" x1="77.8" y1="646.2" x2="366.1" y2="646.2"/>
	<line class="st2" x1="77.1" y1="596.7" x2="416" y2="596.4"/>
	<line class="st2" x1="77.8" y1="546.4" x2="466" y2="546.4"/>
	<line class="st2" x1="77" y1="497.9" x2="515.8" y2="496.6"/>
	<line class="st2" x1="76.8" y1="446.4" x2="566" y2="446.4"/>
	<line class="st2" x1="77.8" y1="397.2" x2="616" y2="396.4"/>
</g>
<g id="Creatives2" class="st0">
	<polyline class="st2" points="1125.2,706.9 1125.2,715.1 1125.2,723.3 1125.2,731.4 1125.2,739.5 1125.2,748 1125.2,755.9 
		1125.2,764.3 1125.2,772.3 1125.2,780.7 1125.2,787.4 	"/>
	<polyline class="st2" points="1074.8,656.5 1074.8,664.6 1074.8,672.9 1074.8,681 1074.8,689.1 1074.8,697.6 1074.8,705.5 
		1074.8,713.9 1074.8,721.9 1074.8,730.2 1074.8,737 	"/>
	<polyline class="st2" points="1125,603.5 1125,614.2 1125,624.9 1125,631.5 1125,635.4 1125,646.5 1125,656.8 1125,667.8 
		1125,678.3 1125,687.2 	"/>
	<polyline class="st2" points="1075.1,553.6 1075.1,564.4 1075.1,575 1075.1,581.7 1075.1,585.6 1075.1,596.7 1075.1,607 
		1075.1,617.9 1075.1,628.4 1075.1,637.4 	"/>
	<polyline class="st2" points="1125.6,504.3 1125.6,515 1125.6,525.7 1125.6,532.3 1125.6,536.2 1125.6,547.3 1125.6,557.6 
		1125.6,568.6 1125.6,579.1 1125.6,588 	"/>
	<polyline class="st2" points="1124.7,346.8 1124.7,347.7 1124.7,389.2 	"/>
	<polyline class="st2" points="1125.4,405.3 1125.4,416 1125.4,426.7 1125.4,433.3 1125.4,437.2 1125.4,448.3 1125.4,458.7 
		1125.4,469.6 1125.4,480.1 1125.4,489 	"/>
	<polyline class="st2" points="1074.7,346.8 1074.7,395.8 1074.7,437.4 	"/>
	<polyline class="st2" points="1075.1,453.8 1075.1,464.5 1075.1,475.2 1075.1,481.8 1075.1,485.8 1075.1,496.8 1075.1,507.2 
		1075.1,518.1 1075.1,528.6 1075.1,537.5 	"/>
	<line class="st2" x1="1025.4" y1="388" x2="1025.4" y2="346.8"/>
	<polyline class="st2" points="1025.7,404.4 1025.7,415.1 1025.7,425.8 1025.7,432.5 1025.7,436.4 1025.7,447.5 1025.7,457.8 
		1025.7,468.7 1025.7,479.2 1025.7,488.1 	"/>
	<polyline class="st2" points="1025.2,503.7 1025.2,514.4 1025.2,525.1 1025.2,531.7 1025.2,535.6 1025.2,546.7 1025.2,557 
		1025.2,568 1025.2,578.5 1025.2,587.4 	"/>
	<polyline class="st2" points="975.1,453.6 975.1,464.4 975.1,475 975.1,481.7 975.1,485.6 975.1,496.7 975.1,507 975.1,517.9 
		975.1,528.4 975.1,537.4 	"/>
	<polyline class="st2" points="975.1,346.8 975.1,395.4 975.1,436.9 	"/>
	<polyline class="st2" points="925.2,403.7 925.2,414.4 925.2,425.1 925.2,431.7 925.2,435.6 925.2,446.7 925.2,457 925.2,468 
		925.2,478.5 925.2,487.4 	"/>
	<line class="st2" x1="925.2" y1="387" x2="925.2" y2="346.8"/>
	<polyline class="st2" points="1024.8,606.5 1024.8,614.6 1024.8,622.9 1024.8,631 1024.8,639.1 1024.8,647.6 1024.8,655.5 
		1024.8,663.9 1024.8,671.9 1024.8,680.2 1024.8,687 	"/>
	<polyline class="st2" points="975.1,556.8 975.1,565 975.1,573.2 975.1,581.4 975.1,589.4 975.1,597.9 975.1,605.8 975.1,614.2 
		975.1,622.2 975.1,630.6 975.1,637.3 	"/>
	<polyline class="st2" points="924.7,506.4 924.7,514.6 924.7,522.8 924.7,531 924.7,539 924.7,547.5 924.7,555.4 924.7,563.8 
		924.7,571.8 924.7,580.2 924.7,586.9 	"/>
	<polyline class="st2" points="874.7,456.4 874.7,464.6 874.7,472.8 874.7,481 874.7,489 874.7,497.5 874.7,505.4 874.7,513.8 
		874.7,521.8 874.7,530.2 874.7,536.9 	"/>
	<polyline class="st2" points="874.5,346.8 874.5,395.1 874.5,436.7 	"/>
	<polyline class="st2" points="824.9,346.8 824.9,396.5 824.9,446.5 824.9,486.1 	"/>
	<polyline class="st2" points="775.5,346.8 775.5,396.5 775.5,436.7 	"/>
	<line class="st2" x1="725.4" y1="346.8" x2="725.4" y2="386.6"/>
	<line class="st2" x1="1125.2" y1="897.8" x2="1125.2" y2="807.4"/>
	<line class="st2" x1="1075.2" y1="898.8" x2="1075.2" y2="756.9"/>
	<line class="st2" x1="1025.2" y1="898.8" x2="1025.2" y2="707.4"/>
	<line class="st2" x1="975.2" y1="899.8" x2="975.2" y2="656.9"/>
	<line class="st2" x1="925.4" y1="896.8" x2="925.4" y2="607.1"/>
	<line class="st2" x1="875.4" y1="896.8" x2="875.4" y2="557.1"/>
	<line class="st2" x1="825.6" y1="896.8" x2="825.6" y2="507.3"/>
	<line class="st2" x1="775.4" y1="896.8" x2="775.4" y2="457.1"/>
	<line class="st2" x1="725.4" y1="899.8" x2="725.4" y2="407.1"/>
	<line class="st2" x1="675.4" y1="898.8" x2="675.4" y2="357.1"/>
	<polyline class="st2" points="76.8,837.4 76.8,830.6 76.8,822.3 76.8,814.3 76.8,805.9 76.8,798 76.8,789.5 76.8,781.4 76.8,773.3 
		76.8,765 76.8,756.9 	"/>
	<polyline class="st2" points="77.1,737.2 77.1,728.3 77.1,717.7 77.1,706.8 77.1,696.5 77.1,685.4 77.1,681.5 77.1,674.8 
		77.1,664.2 77.1,653.4 	"/>
	<polyline class="st2" points="126.8,787.4 126.8,780.7 126.8,772.3 126.8,764.3 126.8,755.9 126.8,748 126.8,739.5 126.8,731.4 
		126.8,723.3 126.8,715.1 126.8,706.9 	"/>
	<polyline class="st2" points="177.2,737 177.2,730.2 177.2,721.9 177.2,713.9 177.2,705.5 177.2,697.6 177.2,689.1 177.2,681 
		177.2,672.9 177.2,664.6 177.2,656.5 	"/>
	<polyline class="st2" points="127,687.2 127,678.3 127,667.8 127,656.8 127,646.5 127,635.4 127,631.5 127,624.9 127,614.2 
		127,603.5 	"/>
	<polyline class="st2" points="176.9,637.4 176.9,628.4 176.9,617.9 176.9,607 176.9,596.7 176.9,585.6 176.9,581.7 176.9,575 
		176.9,564.4 176.9,553.6 	"/>
	<polyline class="st2" points="77.1,637.4 77.1,628.4 77.1,617.9 77.1,607 77.1,596.7 77.1,585.6 77.1,581.7 77.1,575 77.1,564.4 
		77.1,553.6 	"/>
	<polyline class="st2" points="77.8,438.8 77.8,397.2 77.8,348.2 77.8,346.8 	"/>
	<polyline class="st2" points="126.4,588 126.4,579.1 126.4,568.6 126.4,557.6 126.4,547.3 126.4,536.2 126.4,532.3 126.4,525.7 
		126.4,515 126.4,504.3 	"/>
	<polyline class="st2" points="77,538.6 77,529.7 77,519.1 77,508.2 77,497.9 77,486.8 77,482.9 77,476.3 77,465.6 77,454.9 	"/>
	<polyline class="st2" points="127.3,389.2 127.3,347.7 127.3,346.8 	"/>
	<polyline class="st2" points="126.6,489 126.6,480.1 126.6,469.6 126.6,458.7 126.6,448.3 126.6,437.2 126.6,433.3 126.6,426.7 
		126.6,416 126.6,405.3 	"/>
	<polyline class="st2" points="177.3,437.4 177.3,395.8 177.3,346.8 	"/>
	<polyline class="st2" points="176.9,537.5 176.9,528.6 176.9,518.1 176.9,507.2 176.9,496.8 176.9,485.8 176.9,481.8 176.9,475.2 
		176.9,464.5 176.9,453.8 	"/>
	<line class="st2" x1="226.7" y1="346.8" x2="226.7" y2="388"/>
	<polyline class="st2" points="226.3,488.1 226.3,479.2 226.3,468.7 226.3,457.8 226.3,447.5 226.3,436.4 226.3,432.5 226.3,425.8 
		226.3,415.1 226.3,404.4 	"/>
	<polyline class="st2" points="226.8,587.4 226.8,578.5 226.8,568 226.8,557 226.8,546.7 226.8,535.6 226.8,531.7 226.8,525.1 
		226.8,514.4 226.8,503.7 	"/>
	<polyline class="st2" points="276.9,537.4 276.9,528.4 276.9,517.9 276.9,507 276.9,496.7 276.9,485.6 276.9,481.7 276.9,475 
		276.9,464.4 276.9,453.6 	"/>
	<polyline class="st2" points="276.9,436.9 276.9,395.4 276.9,346.8 	"/>
	<polyline class="st2" points="326.8,487.4 326.8,478.5 326.8,468 326.8,457 326.8,446.7 326.8,435.6 326.8,431.7 326.8,425.1 
		326.8,414.4 326.8,403.7 	"/>
	<line class="st2" x1="326.8" y1="346.8" x2="326.8" y2="387"/>
	<polyline class="st2" points="227.2,687 227.2,680.2 227.2,671.9 227.2,663.9 227.2,655.5 227.2,647.6 227.2,639.1 227.2,631 
		227.2,622.9 227.2,614.6 227.2,606.5 	"/>
	<polyline class="st2" points="276.9,637.3 276.9,630.6 276.9,622.2 276.9,614.2 276.9,605.8 276.9,597.9 276.9,589.4 276.9,581.4 
		276.9,573.2 276.9,565 276.9,556.8 	"/>
	<polyline class="st2" points="327.3,586.9 327.3,580.2 327.3,571.8 327.3,563.8 327.3,555.4 327.3,547.5 327.3,539 327.3,531 
		327.3,522.8 327.3,514.6 327.3,506.4 	"/>
	<polyline class="st2" points="377.3,536.9 377.3,530.2 377.3,521.8 377.3,513.8 377.3,505.4 377.3,497.5 377.3,489 377.3,481 
		377.3,472.8 377.3,464.6 377.3,456.4 	"/>
	<polyline class="st2" points="377.5,436.7 377.5,395.1 377.5,346.8 	"/>
	<polyline class="st2" points="427.1,486.1 427.1,446.5 427.1,396.5 427.1,346.8 	"/>
	<polyline class="st2" points="476.5,436.7 476.5,396.5 476.5,346.8 	"/>
	<line class="st2" x1="526.6" y1="386.6" x2="526.6" y2="346.8"/>
	<line class="st2" x1="76.8" y1="896.8" x2="76.8" y2="857.5"/>
	<line class="st2" x1="126.8" y1="897.8" x2="126.8" y2="807.4"/>
	<line class="st2" x1="176.8" y1="898.8" x2="176.8" y2="756.9"/>
	<line class="st2" x1="226.8" y1="898.8" x2="226.8" y2="707.4"/>
	<line class="st2" x1="276.8" y1="899.8" x2="276.8" y2="656.9"/>
	<line class="st2" x1="326.7" y1="896.8" x2="326.7" y2="607.1"/>
	<line class="st2" x1="376.7" y1="896.8" x2="376.7" y2="557.1"/>
	<line class="st2" x1="426.5" y1="896.8" x2="426.5" y2="507.3"/>
	<line class="st2" x1="476.7" y1="896.8" x2="476.7" y2="457.1"/>
	<line class="st2" x1="526.7" y1="899.8" x2="526.7" y2="407.1"/>
	<line class="st2" x1="576.7" y1="898.8" x2="576.7" y2="357.1"/>
	<line class="st2" x1="625.4" y1="896.8" x2="625.4" y2="346.8"/>
</g>
<g id="Marketing1" class="st0">
	<polyline class="st3" points="1125.2,896.3 1125,896.3 76.8,896.8 	"/>
	<line class="st3" x1="486.5" y1="546.4" x2="566" y2="546.4"/>
	<line class="st3" x1="434.3" y1="596.3" x2="513.8" y2="596.3"/>
	<line class="st3" x1="536.9" y1="495.9" x2="616" y2="495.9"/>
	<line class="st3" x1="586.3" y1="446.6" x2="666.1" y2="446.6"/>
	<line class="st3" x1="536.9" y1="596.4" x2="616" y2="596.4"/>
	<line class="st3" x1="1123" y1="447.1" x2="685.3" y2="447.1"/>
	<line class="st3" x1="636.1" y1="496.4" x2="716.5" y2="496.4"/>
	<polyline class="st3" points="737.3,496.4 1125.1,496.4 1125.2,496.4 	"/>
	<line class="st3" x1="685.3" y1="545.6" x2="765.8" y2="545.6"/>
	<line class="st3" x1="1125.9" y1="545.6" x2="787.3" y2="545.6"/>
	<line class="st3" x1="737.1" y1="597.4" x2="815" y2="597.4"/>
	<line class="st3" x1="1124.5" y1="597.3" x2="837.6" y2="597.3"/>
	<line class="st3" x1="785.2" y1="645.5" x2="866.3" y2="645.5"/>
	<line class="st3" x1="1125" y1="645.5" x2="886.3" y2="645.5"/>
	<line class="st3" x1="836.1" y1="696.4" x2="916.9" y2="696.4"/>
	<line class="st3" x1="1125.5" y1="696.3" x2="937.6" y2="696.3"/>
	<line class="st3" x1="885.1" y1="745.4" x2="967" y2="745.4"/>
	<line class="st3" x1="1125" y1="745.4" x2="986.2" y2="745.4"/>
	<line class="st3" x1="935.9" y1="796.3" x2="1014.8" y2="796.3"/>
	<polyline class="st3" points="1036.9,796.2 1124.9,796.2 1125.1,796.2 	"/>
	<line class="st3" x1="985" y1="845.3" x2="1065.6" y2="845.3"/>
	<line class="st3" x1="1125" y1="845.3" x2="1086.1" y2="845.3"/>
	<line class="st3" x1="384.4" y1="646.2" x2="463.9" y2="646.2"/>
	<line class="st3" x1="334.3" y1="696.4" x2="413.7" y2="696.4"/>
	<line class="st3" x1="284.7" y1="745.9" x2="364.2" y2="745.9"/>
	<line class="st3" x1="233.9" y1="796.7" x2="313.4" y2="796.7"/>
	<line class="st3" x1="184" y1="846.6" x2="263.5" y2="846.6"/>
	<polyline class="st3" points="636.4,396.5 1122.3,396.5 1123,396.5 	"/>
	<line class="st3" x1="587" y1="546" x2="666.1" y2="546"/>
	<line class="st3" x1="486.5" y1="646" x2="566" y2="646"/>
	<line class="st3" x1="587" y1="645.7" x2="666.1" y2="645.7"/>
	<line class="st3" x1="636.9" y1="595.9" x2="715.9" y2="595.9"/>
	<line class="st3" x1="686.9" y1="645.9" x2="765.9" y2="645.9"/>
	<line class="st3" x1="434.9" y1="696.6" x2="514.3" y2="696.6"/>
	<line class="st3" x1="536.9" y1="696.5" x2="616.4" y2="696.5"/>
	<line class="st3" x1="637.5" y1="696.1" x2="716.5" y2="696.1"/>
	<line class="st3" x1="737.3" y1="696.3" x2="816.3" y2="696.3"/>
	<line class="st3" x1="384.2" y1="746.3" x2="463.7" y2="746.3"/>
	<line class="st3" x1="484.8" y1="746.6" x2="564.3" y2="746.6"/>
	<line class="st3" x1="586.9" y1="746.4" x2="666.3" y2="746.4"/>
	<line class="st3" x1="687.4" y1="746.1" x2="766.4" y2="746.1"/>
	<line class="st3" x1="787.3" y1="746.2" x2="866.3" y2="746.2"/>
	<line class="st3" x1="335.3" y1="796.5" x2="414.7" y2="796.5"/>
	<line class="st3" x1="434.8" y1="796.9" x2="514.3" y2="796.9"/>
	<line class="st3" x1="535.4" y1="797.2" x2="614.9" y2="797.2"/>
	<line class="st3" x1="637.4" y1="797" x2="716.9" y2="797"/>
	<line class="st3" x1="738" y1="796.6" x2="817" y2="796.6"/>
	<line class="st3" x1="837.9" y1="796.8" x2="916.9" y2="796.8"/>
	<line class="st3" x1="284" y1="846.8" x2="363.5" y2="846.8"/>
	<line class="st3" x1="385.4" y1="846.6" x2="464.8" y2="846.6"/>
	<line class="st3" x1="484.9" y1="847" x2="564.4" y2="847"/>
	<line class="st3" x1="585.5" y1="847.3" x2="665" y2="847.3"/>
	<line class="st3" x1="687.6" y1="847.1" x2="767" y2="847.1"/>
	<line class="st3" x1="788.1" y1="846.7" x2="867.1" y2="846.7"/>
	<line class="st3" x1="888" y1="846.9" x2="967" y2="846.9"/>
	<polyline class="st3" points="77.8,346.8 126.5,346.8 176.3,346.8 227.2,346.8 275.6,346.8 326.6,346.8 376.5,346.8 426.2,346.8 
		476.2,346.8 526.1,346.8 575.9,346.8 675.6,346.8 725.5,346.8 774.8,346.8 824.2,346.8 825.1,346.8 844,346.8 874.8,346.8 
		924.6,346.8 974.7,346.8 1023.9,346.8 1073.7,346.8 1123.1,346.8 1125.2,346.8 1125.9,346.8 	"/>
	<line class="st3" x1="76.8" y1="846.2" x2="165.5" y2="846.2"/>
	<line class="st3" x1="76.8" y1="796.2" x2="215.6" y2="796.2"/>
	<line class="st3" x1="76.8" y1="746.2" x2="266.1" y2="746.2"/>
	<line class="st3" x1="77.1" y1="696.5" x2="315.6" y2="696.3"/>
	<line class="st3" x1="77.8" y1="646.2" x2="366.1" y2="646.2"/>
	<line class="st3" x1="77.1" y1="596.7" x2="416" y2="596.4"/>
	<line class="st3" x1="77.8" y1="546.4" x2="466" y2="546.4"/>
	<line class="st3" x1="77" y1="497.9" x2="515.8" y2="496.6"/>
	<line class="st3" x1="76.8" y1="446.4" x2="566" y2="446.4"/>
	<line class="st3" x1="77.8" y1="397.2" x2="616" y2="396.4"/>
</g>
<g id="Marketing2" class="st0">
	<polyline class="st3" points="1125.2,706.9 1125.2,715.1 1125.2,723.3 1125.2,731.4 1125.2,739.5 1125.2,748 1125.2,755.9 
		1125.2,764.3 1125.2,772.3 1125.2,780.7 1125.2,787.4 	"/>
	<polyline class="st3" points="1074.8,656.5 1074.8,664.6 1074.8,672.9 1074.8,681 1074.8,689.1 1074.8,697.6 1074.8,705.5 
		1074.8,713.9 1074.8,721.9 1074.8,730.2 1074.8,737 	"/>
	<polyline class="st3" points="1125,603.5 1125,614.2 1125,624.9 1125,631.5 1125,635.4 1125,646.5 1125,656.8 1125,667.8 
		1125,678.3 1125,687.2 	"/>
	<polyline class="st3" points="1075.1,553.6 1075.1,564.4 1075.1,575 1075.1,581.7 1075.1,585.6 1075.1,596.7 1075.1,607 
		1075.1,617.9 1075.1,628.4 1075.1,637.4 	"/>
	<polyline class="st3" points="1125.6,504.3 1125.6,515 1125.6,525.7 1125.6,532.3 1125.6,536.2 1125.6,547.3 1125.6,557.6 
		1125.6,568.6 1125.6,579.1 1125.6,588 	"/>
	<polyline class="st3" points="1124.7,346.8 1124.7,347.7 1124.7,389.2 	"/>
	<polyline class="st3" points="1125.4,405.3 1125.4,416 1125.4,426.7 1125.4,433.3 1125.4,437.2 1125.4,448.3 1125.4,458.7 
		1125.4,469.6 1125.4,480.1 1125.4,489 	"/>
	<polyline class="st3" points="1074.7,346.8 1074.7,395.8 1074.7,437.4 	"/>
	<polyline class="st3" points="1075.1,453.8 1075.1,464.5 1075.1,475.2 1075.1,481.8 1075.1,485.8 1075.1,496.8 1075.1,507.2 
		1075.1,518.1 1075.1,528.6 1075.1,537.5 	"/>
	<line class="st3" x1="1025.4" y1="388" x2="1025.4" y2="346.8"/>
	<polyline class="st3" points="1025.7,404.4 1025.7,415.1 1025.7,425.8 1025.7,432.5 1025.7,436.4 1025.7,447.5 1025.7,457.8 
		1025.7,468.7 1025.7,479.2 1025.7,488.1 	"/>
	<polyline class="st3" points="1025.2,503.7 1025.2,514.4 1025.2,525.1 1025.2,531.7 1025.2,535.6 1025.2,546.7 1025.2,557 
		1025.2,568 1025.2,578.5 1025.2,587.4 	"/>
	<polyline class="st3" points="975.1,453.6 975.1,464.4 975.1,475 975.1,481.7 975.1,485.6 975.1,496.7 975.1,507 975.1,517.9 
		975.1,528.4 975.1,537.4 	"/>
	<polyline class="st3" points="975.1,346.8 975.1,395.4 975.1,436.9 	"/>
	<polyline class="st3" points="925.2,403.7 925.2,414.4 925.2,425.1 925.2,431.7 925.2,435.6 925.2,446.7 925.2,457 925.2,468 
		925.2,478.5 925.2,487.4 	"/>
	<line class="st3" x1="925.2" y1="387" x2="925.2" y2="346.8"/>
	<polyline class="st3" points="1024.8,606.5 1024.8,614.6 1024.8,622.9 1024.8,631 1024.8,639.1 1024.8,647.6 1024.8,655.5 
		1024.8,663.9 1024.8,671.9 1024.8,680.2 1024.8,687 	"/>
	<polyline class="st3" points="975.1,556.8 975.1,565 975.1,573.2 975.1,581.4 975.1,589.4 975.1,597.9 975.1,605.8 975.1,614.2 
		975.1,622.2 975.1,630.6 975.1,637.3 	"/>
	<polyline class="st3" points="924.7,506.4 924.7,514.6 924.7,522.8 924.7,531 924.7,539 924.7,547.5 924.7,555.4 924.7,563.8 
		924.7,571.8 924.7,580.2 924.7,586.9 	"/>
	<polyline class="st3" points="874.7,456.4 874.7,464.6 874.7,472.8 874.7,481 874.7,489 874.7,497.5 874.7,505.4 874.7,513.8 
		874.7,521.8 874.7,530.2 874.7,536.9 	"/>
	<polyline class="st3" points="874.5,346.8 874.5,395.1 874.5,436.7 	"/>
	<polyline class="st3" points="824.9,346.8 824.9,396.5 824.9,446.5 824.9,486.1 	"/>
	<polyline class="st3" points="775.5,346.8 775.5,396.5 775.5,436.7 	"/>
	<line class="st3" x1="725.4" y1="346.8" x2="725.4" y2="386.6"/>
	<line class="st3" x1="1125.2" y1="897.8" x2="1125.2" y2="807.4"/>
	<line class="st3" x1="1075.2" y1="898.8" x2="1075.2" y2="756.9"/>
	<line class="st3" x1="1025.2" y1="898.8" x2="1025.2" y2="707.4"/>
	<line class="st3" x1="975.2" y1="899.8" x2="975.2" y2="656.9"/>
	<line class="st3" x1="925.4" y1="896.8" x2="925.4" y2="607.1"/>
	<line class="st3" x1="875.4" y1="896.8" x2="875.4" y2="557.1"/>
	<line class="st3" x1="825.6" y1="896.8" x2="825.6" y2="507.3"/>
	<line class="st3" x1="775.4" y1="896.8" x2="775.4" y2="457.1"/>
	<line class="st3" x1="725.4" y1="899.8" x2="725.4" y2="407.1"/>
	<line class="st3" x1="675.4" y1="898.8" x2="675.4" y2="357.1"/>
	<polyline class="st3" points="76.8,837.4 76.8,830.6 76.8,822.3 76.8,814.3 76.8,805.9 76.8,798 76.8,789.5 76.8,781.4 76.8,773.3 
		76.8,765 76.8,756.9 	"/>
	<polyline class="st3" points="77.1,737.2 77.1,728.3 77.1,717.7 77.1,706.8 77.1,696.5 77.1,685.4 77.1,681.5 77.1,674.8 
		77.1,664.2 77.1,653.4 	"/>
	<polyline class="st3" points="126.8,787.4 126.8,780.7 126.8,772.3 126.8,764.3 126.8,755.9 126.8,748 126.8,739.5 126.8,731.4 
		126.8,723.3 126.8,715.1 126.8,706.9 	"/>
	<polyline class="st3" points="177.2,737 177.2,730.2 177.2,721.9 177.2,713.9 177.2,705.5 177.2,697.6 177.2,689.1 177.2,681 
		177.2,672.9 177.2,664.6 177.2,656.5 	"/>
	<polyline class="st3" points="127,687.2 127,678.3 127,667.8 127,656.8 127,646.5 127,635.4 127,631.5 127,624.9 127,614.2 
		127,603.5 	"/>
	<polyline class="st3" points="176.9,637.4 176.9,628.4 176.9,617.9 176.9,607 176.9,596.7 176.9,585.6 176.9,581.7 176.9,575 
		176.9,564.4 176.9,553.6 	"/>
	<polyline class="st3" points="77.1,637.4 77.1,628.4 77.1,617.9 77.1,607 77.1,596.7 77.1,585.6 77.1,581.7 77.1,575 77.1,564.4 
		77.1,553.6 	"/>
	<polyline class="st3" points="77.8,438.8 77.8,397.2 77.8,348.2 77.8,346.8 	"/>
	<polyline class="st3" points="126.4,588 126.4,579.1 126.4,568.6 126.4,557.6 126.4,547.3 126.4,536.2 126.4,532.3 126.4,525.7 
		126.4,515 126.4,504.3 	"/>
	<polyline class="st3" points="77,538.6 77,529.7 77,519.1 77,508.2 77,497.9 77,486.8 77,482.9 77,476.3 77,465.6 77,454.9 	"/>
	<polyline class="st3" points="127.3,389.2 127.3,347.7 127.3,346.8 	"/>
	<polyline class="st3" points="126.6,489 126.6,480.1 126.6,469.6 126.6,458.7 126.6,448.3 126.6,437.2 126.6,433.3 126.6,426.7 
		126.6,416 126.6,405.3 	"/>
	<polyline class="st3" points="177.3,437.4 177.3,395.8 177.3,346.8 	"/>
	<polyline class="st3" points="176.9,537.5 176.9,528.6 176.9,518.1 176.9,507.2 176.9,496.8 176.9,485.8 176.9,481.8 176.9,475.2 
		176.9,464.5 176.9,453.8 	"/>
	<line class="st3" x1="226.7" y1="346.8" x2="226.7" y2="388"/>
	<polyline class="st3" points="226.3,488.1 226.3,479.2 226.3,468.7 226.3,457.8 226.3,447.5 226.3,436.4 226.3,432.5 226.3,425.8 
		226.3,415.1 226.3,404.4 	"/>
	<polyline class="st3" points="226.8,587.4 226.8,578.5 226.8,568 226.8,557 226.8,546.7 226.8,535.6 226.8,531.7 226.8,525.1 
		226.8,514.4 226.8,503.7 	"/>
	<polyline class="st3" points="276.9,537.4 276.9,528.4 276.9,517.9 276.9,507 276.9,496.7 276.9,485.6 276.9,481.7 276.9,475 
		276.9,464.4 276.9,453.6 	"/>
	<polyline class="st3" points="276.9,436.9 276.9,395.4 276.9,346.8 	"/>
	<polyline class="st3" points="326.8,487.4 326.8,478.5 326.8,468 326.8,457 326.8,446.7 326.8,435.6 326.8,431.7 326.8,425.1 
		326.8,414.4 326.8,403.7 	"/>
	<line class="st3" x1="326.8" y1="346.8" x2="326.8" y2="387"/>
	<polyline class="st3" points="227.2,687 227.2,680.2 227.2,671.9 227.2,663.9 227.2,655.5 227.2,647.6 227.2,639.1 227.2,631 
		227.2,622.9 227.2,614.6 227.2,606.5 	"/>
	<polyline class="st3" points="276.9,637.3 276.9,630.6 276.9,622.2 276.9,614.2 276.9,605.8 276.9,597.9 276.9,589.4 276.9,581.4 
		276.9,573.2 276.9,565 276.9,556.8 	"/>
	<polyline class="st3" points="327.3,586.9 327.3,580.2 327.3,571.8 327.3,563.8 327.3,555.4 327.3,547.5 327.3,539 327.3,531 
		327.3,522.8 327.3,514.6 327.3,506.4 	"/>
	<polyline class="st3" points="377.3,536.9 377.3,530.2 377.3,521.8 377.3,513.8 377.3,505.4 377.3,497.5 377.3,489 377.3,481 
		377.3,472.8 377.3,464.6 377.3,456.4 	"/>
	<polyline class="st3" points="377.5,436.7 377.5,395.1 377.5,346.8 	"/>
	<polyline class="st3" points="427.1,486.1 427.1,446.5 427.1,396.5 427.1,346.8 	"/>
	<polyline class="st3" points="476.5,436.7 476.5,396.5 476.5,346.8 	"/>
	<line class="st3" x1="526.6" y1="386.6" x2="526.6" y2="346.8"/>
	<line class="st3" x1="76.8" y1="896.8" x2="76.8" y2="857.5"/>
	<line class="st3" x1="126.8" y1="897.8" x2="126.8" y2="807.4"/>
	<line class="st3" x1="176.8" y1="898.8" x2="176.8" y2="756.9"/>
	<line class="st3" x1="226.8" y1="898.8" x2="226.8" y2="707.4"/>
	<line class="st3" x1="276.8" y1="899.8" x2="276.8" y2="656.9"/>
	<line class="st3" x1="326.7" y1="896.8" x2="326.7" y2="607.1"/>
	<line class="st3" x1="376.7" y1="896.8" x2="376.7" y2="557.1"/>
	<line class="st3" x1="426.5" y1="896.8" x2="426.5" y2="507.3"/>
	<line class="st3" x1="476.7" y1="896.8" x2="476.7" y2="457.1"/>
	<line class="st3" x1="526.7" y1="899.8" x2="526.7" y2="407.1"/>
	<line class="st3" x1="576.7" y1="898.8" x2="576.7" y2="357.1"/>
	<line class="st3" x1="625.4" y1="896.8" x2="625.4" y2="346.8"/>
</g>
<g id="Technical1" class="st0">
	<polyline class="st4" points="1125.2,896.3 1125,896.3 76.8,896.8 	"/>
	<line class="st4" x1="486.5" y1="546.4" x2="566" y2="546.4"/>
	<line class="st4" x1="434.3" y1="596.3" x2="513.8" y2="596.3"/>
	<line class="st4" x1="536.9" y1="495.9" x2="616" y2="495.9"/>
	<line class="st4" x1="586.3" y1="446.6" x2="666.1" y2="446.6"/>
	<line class="st4" x1="536.9" y1="596.4" x2="616" y2="596.4"/>
	<line class="st4" x1="1123" y1="447.1" x2="685.3" y2="447.1"/>
	<line class="st4" x1="636.1" y1="496.4" x2="716.5" y2="496.4"/>
	<polyline class="st4" points="737.3,496.4 1125.1,496.4 1125.2,496.4 	"/>
	<line class="st4" x1="685.3" y1="545.6" x2="765.8" y2="545.6"/>
	<line class="st4" x1="1125.9" y1="545.6" x2="787.3" y2="545.6"/>
	<line class="st4" x1="737.1" y1="597.4" x2="815" y2="597.4"/>
	<line class="st4" x1="1124.5" y1="597.3" x2="837.6" y2="597.3"/>
	<line class="st4" x1="785.2" y1="645.5" x2="866.3" y2="645.5"/>
	<line class="st4" x1="1125" y1="645.5" x2="886.3" y2="645.5"/>
	<line class="st4" x1="836.1" y1="696.4" x2="916.9" y2="696.4"/>
	<line class="st4" x1="1125.5" y1="696.3" x2="937.6" y2="696.3"/>
	<line class="st4" x1="885.1" y1="745.4" x2="967" y2="745.4"/>
	<line class="st4" x1="1125" y1="745.4" x2="986.2" y2="745.4"/>
	<line class="st4" x1="935.9" y1="796.3" x2="1014.8" y2="796.3"/>
	<polyline class="st4" points="1036.9,796.2 1124.9,796.2 1125.1,796.2 	"/>
	<line class="st4" x1="985" y1="845.3" x2="1065.6" y2="845.3"/>
	<line class="st4" x1="1125" y1="845.3" x2="1086.1" y2="845.3"/>
	<line class="st4" x1="384.4" y1="646.2" x2="463.9" y2="646.2"/>
	<line class="st4" x1="334.3" y1="696.4" x2="413.7" y2="696.4"/>
	<line class="st4" x1="284.7" y1="745.9" x2="364.2" y2="745.9"/>
	<line class="st4" x1="233.9" y1="796.7" x2="313.4" y2="796.7"/>
	<line class="st4" x1="184" y1="846.6" x2="263.5" y2="846.6"/>
	<polyline class="st4" points="636.4,396.5 1122.3,396.5 1123,396.5 	"/>
	<line class="st4" x1="587" y1="546" x2="666.1" y2="546"/>
	<line class="st4" x1="486.5" y1="646" x2="566" y2="646"/>
	<line class="st4" x1="587" y1="645.7" x2="666.1" y2="645.7"/>
	<line class="st4" x1="636.9" y1="595.9" x2="715.9" y2="595.9"/>
	<line class="st4" x1="686.9" y1="645.9" x2="765.9" y2="645.9"/>
	<line class="st4" x1="434.9" y1="696.6" x2="514.3" y2="696.6"/>
	<line class="st4" x1="536.9" y1="696.5" x2="616.4" y2="696.5"/>
	<line class="st4" x1="637.5" y1="696.1" x2="716.5" y2="696.1"/>
	<line class="st4" x1="737.3" y1="696.3" x2="816.3" y2="696.3"/>
	<line class="st4" x1="384.2" y1="746.3" x2="463.7" y2="746.3"/>
	<line class="st4" x1="484.8" y1="746.6" x2="564.3" y2="746.6"/>
	<line class="st4" x1="586.9" y1="746.4" x2="666.3" y2="746.4"/>
	<line class="st4" x1="687.4" y1="746.1" x2="766.4" y2="746.1"/>
	<line class="st4" x1="787.3" y1="746.2" x2="866.3" y2="746.2"/>
	<line class="st4" x1="335.3" y1="796.5" x2="414.7" y2="796.5"/>
	<line class="st4" x1="434.8" y1="796.9" x2="514.3" y2="796.9"/>
	<line class="st4" x1="535.4" y1="797.2" x2="614.9" y2="797.2"/>
	<line class="st4" x1="637.4" y1="797" x2="716.9" y2="797"/>
	<line class="st4" x1="738" y1="796.6" x2="817" y2="796.6"/>
	<line class="st4" x1="837.9" y1="796.8" x2="916.9" y2="796.8"/>
	<line class="st4" x1="284" y1="846.8" x2="363.5" y2="846.8"/>
	<line class="st4" x1="385.4" y1="846.6" x2="464.8" y2="846.6"/>
	<line class="st4" x1="484.9" y1="847" x2="564.4" y2="847"/>
	<line class="st4" x1="585.5" y1="847.3" x2="665" y2="847.3"/>
	<line class="st4" x1="687.6" y1="847.1" x2="767" y2="847.1"/>
	<line class="st4" x1="788.1" y1="846.7" x2="867.1" y2="846.7"/>
	<line class="st4" x1="888" y1="846.9" x2="967" y2="846.9"/>
	<polyline class="st4" points="77.8,346.8 126.5,346.8 176.3,346.8 227.2,346.8 275.6,346.8 326.6,346.8 376.5,346.8 426.2,346.8 
		476.2,346.8 526.1,346.8 575.9,346.8 675.6,346.8 725.5,346.8 774.8,346.8 824.2,346.8 825.1,346.8 844,346.8 874.8,346.8 
		924.6,346.8 974.7,346.8 1023.9,346.8 1073.7,346.8 1123.1,346.8 1125.2,346.8 1125.9,346.8 	"/>
	<line class="st4" x1="76.8" y1="846.2" x2="165.5" y2="846.2"/>
	<line class="st4" x1="76.8" y1="796.2" x2="215.6" y2="796.2"/>
	<line class="st4" x1="76.8" y1="746.2" x2="266.1" y2="746.2"/>
	<line class="st4" x1="77.1" y1="696.5" x2="315.6" y2="696.3"/>
	<line class="st4" x1="77.8" y1="646.2" x2="366.1" y2="646.2"/>
	<line class="st4" x1="77.1" y1="596.7" x2="416" y2="596.4"/>
	<line class="st4" x1="77.8" y1="546.4" x2="466" y2="546.4"/>
	<line class="st4" x1="77" y1="497.9" x2="515.8" y2="496.6"/>
	<line class="st4" x1="76.8" y1="446.4" x2="566" y2="446.4"/>
	<line class="st4" x1="77.8" y1="397.2" x2="616" y2="396.4"/>
</g>
<g id="Technical2" class="st0">
	<polyline class="st4" points="1125.2,706.9 1125.2,715.1 1125.2,723.3 1125.2,731.4 1125.2,739.5 1125.2,748 1125.2,755.9 
		1125.2,764.3 1125.2,772.3 1125.2,780.7 1125.2,787.4 	"/>
	<polyline class="st4" points="1074.8,656.5 1074.8,664.6 1074.8,672.9 1074.8,681 1074.8,689.1 1074.8,697.6 1074.8,705.5 
		1074.8,713.9 1074.8,721.9 1074.8,730.2 1074.8,737 	"/>
	<polyline class="st4" points="1125,603.5 1125,614.2 1125,624.9 1125,631.5 1125,635.4 1125,646.5 1125,656.8 1125,667.8 
		1125,678.3 1125,687.2 	"/>
	<polyline class="st4" points="1075.1,553.6 1075.1,564.4 1075.1,575 1075.1,581.7 1075.1,585.6 1075.1,596.7 1075.1,607 
		1075.1,617.9 1075.1,628.4 1075.1,637.4 	"/>
	<polyline class="st4" points="1125.6,504.3 1125.6,515 1125.6,525.7 1125.6,532.3 1125.6,536.2 1125.6,547.3 1125.6,557.6 
		1125.6,568.6 1125.6,579.1 1125.6,588 	"/>
	<polyline class="st4" points="1124.7,346.8 1124.7,347.7 1124.7,389.2 	"/>
	<polyline class="st4" points="1125.4,405.3 1125.4,416 1125.4,426.7 1125.4,433.3 1125.4,437.2 1125.4,448.3 1125.4,458.7 
		1125.4,469.6 1125.4,480.1 1125.4,489 	"/>
	<polyline class="st4" points="1074.7,346.8 1074.7,395.8 1074.7,437.4 	"/>
	<polyline class="st4" points="1075.1,453.8 1075.1,464.5 1075.1,475.2 1075.1,481.8 1075.1,485.8 1075.1,496.8 1075.1,507.2 
		1075.1,518.1 1075.1,528.6 1075.1,537.5 	"/>
	<line class="st4" x1="1025.4" y1="388" x2="1025.4" y2="346.8"/>
	<polyline class="st4" points="1025.7,404.4 1025.7,415.1 1025.7,425.8 1025.7,432.5 1025.7,436.4 1025.7,447.5 1025.7,457.8 
		1025.7,468.7 1025.7,479.2 1025.7,488.1 	"/>
	<polyline class="st4" points="1025.2,503.7 1025.2,514.4 1025.2,525.1 1025.2,531.7 1025.2,535.6 1025.2,546.7 1025.2,557 
		1025.2,568 1025.2,578.5 1025.2,587.4 	"/>
	<polyline class="st4" points="975.1,453.6 975.1,464.4 975.1,475 975.1,481.7 975.1,485.6 975.1,496.7 975.1,507 975.1,517.9 
		975.1,528.4 975.1,537.4 	"/>
	<polyline class="st4" points="975.1,346.8 975.1,395.4 975.1,436.9 	"/>
	<polyline class="st4" points="925.2,403.7 925.2,414.4 925.2,425.1 925.2,431.7 925.2,435.6 925.2,446.7 925.2,457 925.2,468 
		925.2,478.5 925.2,487.4 	"/>
	<line class="st4" x1="925.2" y1="387" x2="925.2" y2="346.8"/>
	<polyline class="st4" points="1024.8,606.5 1024.8,614.6 1024.8,622.9 1024.8,631 1024.8,639.1 1024.8,647.6 1024.8,655.5 
		1024.8,663.9 1024.8,671.9 1024.8,680.2 1024.8,687 	"/>
	<polyline class="st4" points="975.1,556.8 975.1,565 975.1,573.2 975.1,581.4 975.1,589.4 975.1,597.9 975.1,605.8 975.1,614.2 
		975.1,622.2 975.1,630.6 975.1,637.3 	"/>
	<polyline class="st4" points="924.7,506.4 924.7,514.6 924.7,522.8 924.7,531 924.7,539 924.7,547.5 924.7,555.4 924.7,563.8 
		924.7,571.8 924.7,580.2 924.7,586.9 	"/>
	<polyline class="st4" points="874.7,456.4 874.7,464.6 874.7,472.8 874.7,481 874.7,489 874.7,497.5 874.7,505.4 874.7,513.8 
		874.7,521.8 874.7,530.2 874.7,536.9 	"/>
	<polyline class="st4" points="874.5,346.8 874.5,395.1 874.5,436.7 	"/>
	<polyline class="st4" points="824.9,346.8 824.9,396.5 824.9,446.5 824.9,486.1 	"/>
	<polyline class="st4" points="775.5,346.8 775.5,396.5 775.5,436.7 	"/>
	<line class="st4" x1="725.4" y1="346.8" x2="725.4" y2="386.6"/>
	<line class="st4" x1="1125.2" y1="897.8" x2="1125.2" y2="807.4"/>
	<line class="st4" x1="1075.2" y1="898.8" x2="1075.2" y2="756.9"/>
	<line class="st4" x1="1025.2" y1="898.8" x2="1025.2" y2="707.4"/>
	<line class="st4" x1="975.2" y1="899.8" x2="975.2" y2="656.9"/>
	<line class="st4" x1="925.4" y1="896.8" x2="925.4" y2="607.1"/>
	<line class="st4" x1="875.4" y1="896.8" x2="875.4" y2="557.1"/>
	<line class="st4" x1="825.6" y1="896.8" x2="825.6" y2="507.3"/>
	<line class="st4" x1="775.4" y1="896.8" x2="775.4" y2="457.1"/>
	<line class="st4" x1="725.4" y1="899.8" x2="725.4" y2="407.1"/>
	<line class="st4" x1="675.4" y1="898.8" x2="675.4" y2="357.1"/>
	<polyline class="st4" points="76.8,837.4 76.8,830.6 76.8,822.3 76.8,814.3 76.8,805.9 76.8,798 76.8,789.5 76.8,781.4 76.8,773.3 
		76.8,765 76.8,756.9 	"/>
	<polyline class="st4" points="77.1,737.2 77.1,728.3 77.1,717.7 77.1,706.8 77.1,696.5 77.1,685.4 77.1,681.5 77.1,674.8 
		77.1,664.2 77.1,653.4 	"/>
	<polyline class="st4" points="126.8,787.4 126.8,780.7 126.8,772.3 126.8,764.3 126.8,755.9 126.8,748 126.8,739.5 126.8,731.4 
		126.8,723.3 126.8,715.1 126.8,706.9 	"/>
	<polyline class="st4" points="177.2,737 177.2,730.2 177.2,721.9 177.2,713.9 177.2,705.5 177.2,697.6 177.2,689.1 177.2,681 
		177.2,672.9 177.2,664.6 177.2,656.5 	"/>
	<polyline class="st4" points="127,687.2 127,678.3 127,667.8 127,656.8 127,646.5 127,635.4 127,631.5 127,624.9 127,614.2 
		127,603.5 	"/>
	<polyline class="st4" points="176.9,637.4 176.9,628.4 176.9,617.9 176.9,607 176.9,596.7 176.9,585.6 176.9,581.7 176.9,575 
		176.9,564.4 176.9,553.6 	"/>
	<polyline class="st4" points="77.1,637.4 77.1,628.4 77.1,617.9 77.1,607 77.1,596.7 77.1,585.6 77.1,581.7 77.1,575 77.1,564.4 
		77.1,553.6 	"/>
	<polyline class="st4" points="77.8,438.8 77.8,397.2 77.8,348.2 77.8,346.8 	"/>
	<polyline class="st4" points="126.4,588 126.4,579.1 126.4,568.6 126.4,557.6 126.4,547.3 126.4,536.2 126.4,532.3 126.4,525.7 
		126.4,515 126.4,504.3 	"/>
	<polyline class="st4" points="77,538.6 77,529.7 77,519.1 77,508.2 77,497.9 77,486.8 77,482.9 77,476.3 77,465.6 77,454.9 	"/>
	<polyline class="st4" points="127.3,389.2 127.3,347.7 127.3,346.8 	"/>
	<polyline class="st4" points="126.6,489 126.6,480.1 126.6,469.6 126.6,458.7 126.6,448.3 126.6,437.2 126.6,433.3 126.6,426.7 
		126.6,416 126.6,405.3 	"/>
	<polyline class="st4" points="177.3,437.4 177.3,395.8 177.3,346.8 	"/>
	<polyline class="st4" points="176.9,537.5 176.9,528.6 176.9,518.1 176.9,507.2 176.9,496.8 176.9,485.8 176.9,481.8 176.9,475.2 
		176.9,464.5 176.9,453.8 	"/>
	<line class="st4" x1="226.7" y1="346.8" x2="226.7" y2="388"/>
	<polyline class="st4" points="226.3,488.1 226.3,479.2 226.3,468.7 226.3,457.8 226.3,447.5 226.3,436.4 226.3,432.5 226.3,425.8 
		226.3,415.1 226.3,404.4 	"/>
	<polyline class="st4" points="226.8,587.4 226.8,578.5 226.8,568 226.8,557 226.8,546.7 226.8,535.6 226.8,531.7 226.8,525.1 
		226.8,514.4 226.8,503.7 	"/>
	<polyline class="st4" points="276.9,537.4 276.9,528.4 276.9,517.9 276.9,507 276.9,496.7 276.9,485.6 276.9,481.7 276.9,475 
		276.9,464.4 276.9,453.6 	"/>
	<polyline class="st4" points="276.9,436.9 276.9,395.4 276.9,346.8 	"/>
	<polyline class="st4" points="326.8,487.4 326.8,478.5 326.8,468 326.8,457 326.8,446.7 326.8,435.6 326.8,431.7 326.8,425.1 
		326.8,414.4 326.8,403.7 	"/>
	<line class="st4" x1="326.8" y1="346.8" x2="326.8" y2="387"/>
	<polyline class="st4" points="227.2,687 227.2,680.2 227.2,671.9 227.2,663.9 227.2,655.5 227.2,647.6 227.2,639.1 227.2,631 
		227.2,622.9 227.2,614.6 227.2,606.5 	"/>
	<polyline class="st4" points="276.9,637.3 276.9,630.6 276.9,622.2 276.9,614.2 276.9,605.8 276.9,597.9 276.9,589.4 276.9,581.4 
		276.9,573.2 276.9,565 276.9,556.8 	"/>
	<polyline class="st4" points="327.3,586.9 327.3,580.2 327.3,571.8 327.3,563.8 327.3,555.4 327.3,547.5 327.3,539 327.3,531 
		327.3,522.8 327.3,514.6 327.3,506.4 	"/>
	<polyline class="st4" points="377.3,536.9 377.3,530.2 377.3,521.8 377.3,513.8 377.3,505.4 377.3,497.5 377.3,489 377.3,481 
		377.3,472.8 377.3,464.6 377.3,456.4 	"/>
	<polyline class="st4" points="377.5,436.7 377.5,395.1 377.5,346.8 	"/>
	<polyline class="st4" points="427.1,486.1 427.1,446.5 427.1,396.5 427.1,346.8 	"/>
	<polyline class="st4" points="476.5,436.7 476.5,396.5 476.5,346.8 	"/>
	<line class="st4" x1="526.6" y1="386.6" x2="526.6" y2="346.8"/>
	<line class="st4" x1="76.8" y1="896.8" x2="76.8" y2="857.5"/>
	<line class="st4" x1="126.8" y1="897.8" x2="126.8" y2="807.4"/>
	<line class="st4" x1="176.8" y1="898.8" x2="176.8" y2="756.9"/>
	<line class="st4" x1="226.8" y1="898.8" x2="226.8" y2="707.4"/>
	<line class="st4" x1="276.8" y1="899.8" x2="276.8" y2="656.9"/>
	<line class="st4" x1="326.7" y1="896.8" x2="326.7" y2="607.1"/>
	<line class="st4" x1="376.7" y1="896.8" x2="376.7" y2="557.1"/>
	<line class="st4" x1="426.5" y1="896.8" x2="426.5" y2="507.3"/>
	<line class="st4" x1="476.7" y1="896.8" x2="476.7" y2="457.1"/>
	<line class="st4" x1="526.7" y1="899.8" x2="526.7" y2="407.1"/>
	<line class="st4" x1="576.7" y1="898.8" x2="576.7" y2="357.1"/>
	<line class="st4" x1="625.4" y1="896.8" x2="625.4" y2="346.8"/>
</g>
<g id="Logistics1">
	<polyline class="st5" points="1061,892 1060.8,892 95.7,892.5 	"/>
	<line class="st5" x1="472.9" y1="484.5" x2="546.1" y2="484.5"/>
	<line class="st5" x1="424.8" y1="542.6" x2="498" y2="542.6"/>
	<line class="st5" x1="519.3" y1="425.7" x2="592.1" y2="425.7"/>
	<line class="st5" x1="564.8" y1="368.3" x2="638.3" y2="368.3"/>
	<line class="st5" x1="519.3" y1="542.7" x2="592.1" y2="542.7"/>
	<line class="st5" x1="1059" y1="368.8" x2="656" y2="368.8"/>
	<line class="st5" x1="610.6" y1="426.3" x2="684.7" y2="426.3"/>
	<polyline class="st5" points="703.8,426.3 1060.9,426.3 1061,426.3 	"/>
	<line class="st5" x1="656" y1="483.6" x2="730.1" y2="483.6"/>
	<line class="st5" x1="1061.7" y1="483.6" x2="749.9" y2="483.6"/>
	<line class="st5" x1="703.6" y1="543.9" x2="775.4" y2="543.9"/>
	<line class="st5" x1="1060.4" y1="543.8" x2="796.2" y2="543.8"/>
	<line class="st5" x1="747.9" y1="599.9" x2="822.6" y2="599.9"/>
	<line class="st5" x1="1060.8" y1="599.9" x2="841" y2="599.9"/>
	<line class="st5" x1="794.8" y1="659.2" x2="869.2" y2="659.2"/>
	<line class="st5" x1="1061.3" y1="659.1" x2="888.3" y2="659.1"/>
	<line class="st5" x1="839.9" y1="716.2" x2="915.3" y2="716.2"/>
	<line class="st5" x1="1060.8" y1="716.2" x2="933" y2="716.2"/>
	<line class="st5" x1="886.7" y1="775.5" x2="959.4" y2="775.5"/>
	<polyline class="st5" points="979.7,775.4 1060.7,775.4 1060.9,775.4 	"/>
	<line class="st5" x1="931.9" y1="832.6" x2="1006.1" y2="832.6"/>
	<line class="st5" x1="1060.8" y1="832.6" x2="1025" y2="832.6"/>
	<line class="st5" x1="378.9" y1="600.7" x2="452.1" y2="600.7"/>
	<line class="st5" x1="332.8" y1="659.2" x2="405.9" y2="659.2"/>
	<line class="st5" x1="287.1" y1="716.8" x2="360.3" y2="716.8"/>
	<line class="st5" x1="240.3" y1="776" x2="313.5" y2="776"/>
	<line class="st5" x1="194.4" y1="834.1" x2="267.6" y2="834.1"/>
	<polyline class="st5" points="610.9,309.9 1058.3,309.9 1059,309.9 	"/>
	<line class="st5" x1="565.4" y1="484" x2="638.3" y2="484"/>
	<line class="st5" x1="472.9" y1="600.5" x2="546.1" y2="600.5"/>
	<line class="st5" x1="565.4" y1="600.1" x2="638.3" y2="600.1"/>
	<line class="st5" x1="611.4" y1="542.1" x2="684.1" y2="542.1"/>
	<line class="st5" x1="657.4" y1="600.4" x2="730.2" y2="600.4"/>
	<line class="st5" x1="425.4" y1="659.4" x2="498.5" y2="659.4"/>
	<line class="st5" x1="519.3" y1="659.3" x2="592.5" y2="659.3"/>
	<line class="st5" x1="611.9" y1="658.8" x2="684.7" y2="658.8"/>
	<line class="st5" x1="703.8" y1="659.1" x2="776.6" y2="659.1"/>
	<line class="st5" x1="378.7" y1="717.3" x2="451.9" y2="717.3"/>
	<line class="st5" x1="471.3" y1="717.6" x2="544.5" y2="717.6"/>
	<line class="st5" x1="565.3" y1="717.4" x2="638.5" y2="717.4"/>
	<line class="st5" x1="657.9" y1="717" x2="730.6" y2="717"/>
	<line class="st5" x1="749.9" y1="717.2" x2="822.6" y2="717.2"/>
	<line class="st5" x1="333.7" y1="775.7" x2="406.8" y2="775.7"/>
	<line class="st5" x1="425.3" y1="776.2" x2="498.5" y2="776.2"/>
	<line class="st5" x1="517.9" y1="776.6" x2="591.1" y2="776.6"/>
	<line class="st5" x1="611.8" y1="776.3" x2="685" y2="776.3"/>
	<line class="st5" x1="704.5" y1="775.9" x2="777.2" y2="775.9"/>
	<line class="st5" x1="796.5" y1="776.1" x2="869.2" y2="776.1"/>
	<line class="st5" x1="286.4" y1="834.3" x2="359.6" y2="834.3"/>
	<line class="st5" x1="379.8" y1="834.1" x2="452.9" y2="834.1"/>
	<line class="st5" x1="471.4" y1="834.6" x2="544.6" y2="834.6"/>
	<line class="st5" x1="564.1" y1="834.9" x2="637.3" y2="834.9"/>
	<line class="st5" x1="658.1" y1="834.7" x2="731.2" y2="834.7"/>
	<line class="st5" x1="750.6" y1="834.2" x2="823.4" y2="834.2"/>
	<line class="st5" x1="842.6" y1="834.4" x2="915.3" y2="834.4"/>
	<polyline class="st5" points="96.6,252 141.4,252 187.3,252 234.1,252 278.7,252 325.7,252 371.6,252 417.4,252 463.4,252 
		509.4,252 555.2,252 647,252 693,252 738.4,252 783.9,252 784.7,252 802.1,252 830.4,252 876.3,252 922.4,252 967.7,252 
		1013.6,252 1059.1,252 1061,252 1061.7,252 	"/>
	<line class="st5" x1="95.7" y1="833.6" x2="177.3" y2="833.6"/>
	<line class="st5" x1="95.7" y1="775.4" x2="223.5" y2="775.4"/>
	<line class="st5" x1="95.7" y1="717.2" x2="270" y2="717.2"/>
	<line class="st5" x1="95.9" y1="659.3" x2="315.5" y2="659.1"/>
	<line class="st5" x1="96.6" y1="600.7" x2="362" y2="600.7"/>
	<line class="st5" x1="95.9" y1="543.1" x2="408" y2="542.7"/>
	<line class="st5" x1="96.6" y1="484.5" x2="454" y2="484.5"/>
	<line class="st5" x1="95.8" y1="428" x2="499.9" y2="426.5"/>
	<line class="st5" x1="95.7" y1="368" x2="546.1" y2="368"/>
	<line class="st5" x1="96.6" y1="310.7" x2="592.1" y2="309.8"/>
</g>
<g id="Logistics2">
	<polyline class="st5" points="1061,671.4 1061,680.9 1061,690.5 1061,699.9 1061,709.4 1061,719.3 1061,728.5 1061,738.2 
		1061,747.6 1061,757.3 1061,765.1 	"/>
	<polyline class="st5" points="1014.6,612.7 1014.6,622.1 1014.6,631.8 1014.6,641.2 1014.6,650.7 1014.6,660.6 1014.6,669.8 
		1014.6,679.5 1014.6,688.9 1014.6,698.5 1014.6,706.4 	"/>
	<polyline class="st5" points="1060.8,551 1060.8,563.4 1060.8,575.9 1060.8,583.6 1060.8,588.1 1060.8,601.1 1060.8,613.1 
		1060.8,625.9 1060.8,638.1 1060.8,648.5 	"/>
	<polyline class="st5" points="1014.9,492.9 1014.9,505.4 1014.9,517.8 1014.9,525.6 1014.9,530.1 1014.9,543.1 1014.9,555.1 
		1014.9,567.8 1014.9,580 1014.9,590.5 	"/>
	<polyline class="st5" points="1061.4,435.5 1061.4,447.9 1061.4,460.4 1061.4,468.1 1061.4,472.6 1061.4,485.5 1061.4,497.5 
		1061.4,510.3 1061.4,522.6 1061.4,532.9 	"/>
	<polyline class="st5" points="1060.5,252 1060.5,253.1 1060.5,301.4 	"/>
	<polyline class="st5" points="1061.2,320.2 1061.2,332.6 1061.2,345.1 1061.2,352.8 1061.2,357.3 1061.2,370.2 1061.2,382.4 
		1061.2,395 1061.2,407.3 1061.2,417.6 	"/>
	<polyline class="st5" points="1014.5,252 1014.5,309.1 1014.5,357.5 	"/>
	<polyline class="st5" points="1014.9,376.6 1014.9,389.1 1014.9,401.6 1014.9,409.3 1014.9,413.9 1014.9,426.7 1014.9,438.8 
		1014.9,451.5 1014.9,463.8 1014.9,474.1 	"/>
	<line class="st5" x1="969.1" y1="300" x2="969.1" y2="252"/>
	<polyline class="st5" points="969.4,319.1 969.4,331.6 969.4,344 969.4,351.8 969.4,356.4 969.4,369.3 969.4,381.3 969.4,394 
		969.4,406.2 969.4,416.6 	"/>
	<polyline class="st5" points="968.9,434.8 968.9,447.2 968.9,459.7 968.9,467.4 968.9,471.9 968.9,484.8 968.9,496.8 968.9,509.6 
		968.9,521.9 968.9,532.2 	"/>
	<polyline class="st5" points="922.8,376.4 922.8,389 922.8,401.3 922.8,409.1 922.8,413.7 922.8,426.6 922.8,438.6 922.8,451.3 
		922.8,463.5 922.8,474 	"/>
	<polyline class="st5" points="922.8,252 922.8,308.6 922.8,357 	"/>
	<polyline class="st5" points="876.9,318.3 876.9,330.8 876.9,343.2 876.9,350.9 876.9,355.5 876.9,368.4 876.9,380.4 876.9,393.2 
		876.9,405.4 876.9,415.8 	"/>
	<line class="st5" x1="876.9" y1="298.9" x2="876.9" y2="252"/>
	<polyline class="st5" points="968.6,554.5 968.6,563.9 968.6,573.6 968.6,583 968.6,592.4 968.6,602.3 968.6,611.5 968.6,621.3 
		968.6,630.6 968.6,640.3 968.6,648.2 	"/>
	<polyline class="st5" points="922.8,496.6 922.8,506.1 922.8,515.7 922.8,525.2 922.8,534.6 922.8,544.5 922.8,553.7 922.8,563.4 
		922.8,572.8 922.8,582.5 922.8,590.3 	"/>
	<polyline class="st5" points="876.4,437.9 876.4,447.5 876.4,457 876.4,466.6 876.4,475.9 876.4,485.8 876.4,495 876.4,504.7 
		876.4,514.1 876.4,523.8 876.4,531.6 	"/>
	<polyline class="st5" points="830.4,379.7 830.4,389.2 830.4,398.8 830.4,408.3 830.4,417.6 830.4,427.5 830.4,436.7 830.4,446.5 
		830.4,455.8 830.4,465.6 830.4,473.4 	"/>
	<polyline class="st5" points="830.2,252 830.2,308.3 830.2,356.7 	"/>
	<polyline class="st5" points="784.5,252 784.5,309.9 784.5,368.1 784.5,414.3 	"/>
	<polyline class="st5" points="739,252 739,309.9 739,356.7 	"/>
	<line class="st5" x1="692.9" y1="252" x2="692.9" y2="298.4"/>
	<line class="st5" x1="1061" y1="893.7" x2="1061" y2="788.4"/>
	<line class="st5" x1="1015" y1="894.9" x2="1015" y2="729.6"/>
	<line class="st5" x1="968.9" y1="894.9" x2="968.9" y2="672"/>
	<line class="st5" x1="922.9" y1="896" x2="922.9" y2="613.2"/>
	<line class="st5" x1="877" y1="892.5" x2="877" y2="555.2"/>
	<line class="st5" x1="831" y1="892.5" x2="831" y2="496.9"/>
	<line class="st5" x1="785.1" y1="892.5" x2="785.1" y2="439"/>
	<line class="st5" x1="738.9" y1="892.5" x2="738.9" y2="380.5"/>
	<line class="st5" x1="692.9" y1="896" x2="692.9" y2="322.3"/>
	<line class="st5" x1="646.8" y1="894.9" x2="646.8" y2="264"/>
	<polyline class="st5" points="95.7,823.4 95.7,815.5 95.7,805.8 95.7,796.5 95.7,786.7 95.7,777.5 95.7,767.6 95.7,758.2 
		95.7,748.7 95.7,739.1 95.7,729.6 	"/>
	<polyline class="st5" points="95.9,706.7 95.9,696.3 95.9,684 95.9,671.3 95.9,659.3 95.9,646.4 95.9,641.8 95.9,634 95.9,621.7 
		95.9,609.1 	"/>
	<polyline class="st5" points="141.7,765.1 141.7,757.3 141.7,747.6 141.7,738.2 141.7,728.5 141.7,719.3 141.7,709.4 141.7,699.9 
		141.7,690.5 141.7,680.9 141.7,671.4 	"/>
	<polyline class="st5" points="188.1,706.4 188.1,698.5 188.1,688.9 188.1,679.5 188.1,669.8 188.1,660.6 188.1,650.7 188.1,641.2 
		188.1,631.8 188.1,622.1 188.1,612.7 	"/>
	<polyline class="st5" points="141.9,648.5 141.9,638.1 141.9,625.9 141.9,613.1 141.9,601.1 141.9,588.1 141.9,583.6 141.9,575.9 
		141.9,563.4 141.9,551 	"/>
	<polyline class="st5" points="187.8,590.5 187.8,580 187.8,567.8 187.8,555.1 187.8,543.1 187.8,530.1 187.8,525.6 187.8,517.8 
		187.8,505.4 187.8,492.9 	"/>
	<polyline class="st5" points="95.9,590.5 95.9,580 95.9,567.8 95.9,555.1 95.9,543.1 95.9,530.1 95.9,525.6 95.9,517.8 95.9,505.4 
		95.9,492.9 	"/>
	<polyline class="st5" points="96.6,359.2 96.6,310.7 96.6,253.7 96.6,252 	"/>
	<polyline class="st5" points="141.3,532.9 141.3,522.6 141.3,510.3 141.3,497.5 141.3,485.5 141.3,472.6 141.3,468.1 141.3,460.4 
		141.3,447.9 141.3,435.5 	"/>
	<polyline class="st5" points="95.8,475.4 95.8,465 95.8,452.7 95.8,440 95.8,428 95.8,415.1 95.8,410.5 95.8,402.8 95.8,390.4 
		95.8,377.9 	"/>
	<polyline class="st5" points="142.2,301.4 142.2,253.1 142.2,252 	"/>
	<polyline class="st5" points="141.5,417.6 141.5,407.3 141.5,395 141.5,382.4 141.5,370.2 141.5,357.3 141.5,352.8 141.5,345.1 
		141.5,332.6 141.5,320.2 	"/>
	<polyline class="st5" points="188.2,357.5 188.2,309.1 188.2,252 	"/>
	<polyline class="st5" points="187.8,474.1 187.8,463.8 187.8,451.5 187.8,438.8 187.8,426.7 187.8,413.9 187.8,409.3 187.8,401.6 
		187.8,389.1 187.8,376.6 	"/>
	<line class="st5" x1="233.7" y1="252" x2="233.7" y2="300"/>
	<polyline class="st5" points="233.3,416.6 233.3,406.2 233.3,394 233.3,381.3 233.3,369.3 233.3,356.4 233.3,351.8 233.3,344 
		233.3,331.6 233.3,319.1 	"/>
	<polyline class="st5" points="233.8,532.2 233.8,521.9 233.8,509.6 233.8,496.8 233.8,484.8 233.8,471.9 233.8,467.4 233.8,459.7 
		233.8,447.2 233.8,434.8 	"/>
	<polyline class="st5" points="279.9,474 279.9,463.5 279.9,451.3 279.9,438.6 279.9,426.6 279.9,413.7 279.9,409.1 279.9,401.3 
		279.9,389 279.9,376.4 	"/>
	<polyline class="st5" points="279.9,357 279.9,308.6 279.9,252 	"/>
	<polyline class="st5" points="325.8,415.8 325.8,405.4 325.8,393.2 325.8,380.4 325.8,368.4 325.8,355.5 325.8,350.9 325.8,343.2 
		325.8,330.8 325.8,318.3 	"/>
	<line class="st5" x1="325.8" y1="252" x2="325.8" y2="298.9"/>
	<polyline class="st5" points="234.1,648.2 234.1,640.3 234.1,630.6 234.1,621.3 234.1,611.5 234.1,602.3 234.1,592.4 234.1,583 
		234.1,573.6 234.1,563.9 234.1,554.5 	"/>
	<polyline class="st5" points="279.9,590.3 279.9,582.5 279.9,572.8 279.9,563.4 279.9,553.7 279.9,544.5 279.9,534.6 279.9,525.2 
		279.9,515.7 279.9,506.1 279.9,496.6 	"/>
	<polyline class="st5" points="326.3,531.6 326.3,523.8 326.3,514.1 326.3,504.7 326.3,495 326.3,485.8 326.3,475.9 326.3,466.6 
		326.3,457 326.3,447.5 326.3,437.9 	"/>
	<polyline class="st5" points="372.3,473.4 372.3,465.6 372.3,455.8 372.3,446.5 372.3,436.7 372.3,427.5 372.3,417.6 372.3,408.3 
		372.3,398.8 372.3,389.2 372.3,379.7 	"/>
	<polyline class="st5" points="372.5,356.7 372.5,308.3 372.5,252 	"/>
	<polyline class="st5" points="418.2,414.3 418.2,368.1 418.2,309.9 418.2,252 	"/>
	<polyline class="st5" points="463.7,356.7 463.7,309.9 463.7,252 	"/>
	<line class="st5" x1="509.8" y1="298.4" x2="509.8" y2="252"/>
	<line class="st5" x1="95.7" y1="892.5" x2="95.7" y2="846.8"/>
	<line class="st5" x1="141.7" y1="893.7" x2="141.7" y2="788.4"/>
	<line class="st5" x1="187.7" y1="894.9" x2="187.7" y2="729.6"/>
	<line class="st5" x1="233.8" y1="894.9" x2="233.8" y2="672"/>
	<line class="st5" x1="279.8" y1="896" x2="279.8" y2="613.2"/>
	<line class="st5" x1="325.8" y1="892.5" x2="325.8" y2="555.2"/>
	<line class="st5" x1="371.8" y1="892.5" x2="371.8" y2="496.9"/>
	<line class="st5" x1="417.7" y1="892.5" x2="417.7" y2="439"/>
	<line class="st5" x1="463.9" y1="892.5" x2="463.9" y2="380.5"/>
	<line class="st5" x1="509.9" y1="896" x2="509.9" y2="322.3"/>
	<line class="st5" x1="556" y1="894.9" x2="556" y2="264"/>
	<line class="st5" x1="600.8" y1="892.5" x2="600.8" y2="252"/>
</g>
<g id="PR1" class="st0">
	<polyline class="st6" points="1125.2,896.3 1125,896.3 76.8,896.8 	"/>
	<line class="st6" x1="486.5" y1="546.4" x2="566" y2="546.4"/>
	<line class="st6" x1="434.3" y1="596.3" x2="513.8" y2="596.3"/>
	<line class="st6" x1="536.9" y1="495.9" x2="616" y2="495.9"/>
	<line class="st6" x1="586.3" y1="446.6" x2="666.1" y2="446.6"/>
	<line class="st6" x1="536.9" y1="596.4" x2="616" y2="596.4"/>
	<line class="st6" x1="1123" y1="447.1" x2="685.3" y2="447.1"/>
	<line class="st6" x1="636.1" y1="496.4" x2="716.5" y2="496.4"/>
	<polyline class="st6" points="737.3,496.4 1125.1,496.4 1125.2,496.4 	"/>
	<line class="st6" x1="685.3" y1="545.6" x2="765.8" y2="545.6"/>
	<line class="st6" x1="1125.9" y1="545.6" x2="787.3" y2="545.6"/>
	<line class="st6" x1="737.1" y1="597.4" x2="815" y2="597.4"/>
	<line class="st6" x1="1124.5" y1="597.3" x2="837.6" y2="597.3"/>
	<line class="st6" x1="785.2" y1="645.5" x2="866.3" y2="645.5"/>
	<line class="st6" x1="1125" y1="645.5" x2="886.3" y2="645.5"/>
	<line class="st6" x1="836.1" y1="696.4" x2="916.9" y2="696.4"/>
	<line class="st6" x1="1125.5" y1="696.3" x2="937.6" y2="696.3"/>
	<line class="st6" x1="885.1" y1="745.4" x2="967" y2="745.4"/>
	<line class="st6" x1="1125" y1="745.4" x2="986.2" y2="745.4"/>
	<line class="st6" x1="935.9" y1="796.3" x2="1014.8" y2="796.3"/>
	<polyline class="st6" points="1036.9,796.2 1124.9,796.2 1125.1,796.2 	"/>
	<line class="st6" x1="985" y1="845.3" x2="1065.6" y2="845.3"/>
	<line class="st6" x1="1125" y1="845.3" x2="1086.1" y2="845.3"/>
	<line class="st6" x1="384.4" y1="646.2" x2="463.9" y2="646.2"/>
	<line class="st6" x1="334.3" y1="696.4" x2="413.7" y2="696.4"/>
	<line class="st6" x1="284.7" y1="745.9" x2="364.2" y2="745.9"/>
	<line class="st6" x1="233.9" y1="796.7" x2="313.4" y2="796.7"/>
	<line class="st6" x1="184" y1="846.6" x2="263.5" y2="846.6"/>
	<polyline class="st6" points="636.4,396.5 1122.3,396.5 1123,396.5 	"/>
	<line class="st6" x1="587" y1="546" x2="666.1" y2="546"/>
	<line class="st6" x1="486.5" y1="646" x2="566" y2="646"/>
	<line class="st6" x1="587" y1="645.7" x2="666.1" y2="645.7"/>
	<line class="st6" x1="636.9" y1="595.9" x2="715.9" y2="595.9"/>
	<line class="st6" x1="686.9" y1="645.9" x2="765.9" y2="645.9"/>
	<line class="st6" x1="434.9" y1="696.6" x2="514.3" y2="696.6"/>
	<line class="st6" x1="536.9" y1="696.5" x2="616.4" y2="696.5"/>
	<line class="st6" x1="637.5" y1="696.1" x2="716.5" y2="696.1"/>
	<line class="st6" x1="737.3" y1="696.3" x2="816.3" y2="696.3"/>
	<line class="st6" x1="384.2" y1="746.3" x2="463.7" y2="746.3"/>
	<line class="st6" x1="484.8" y1="746.6" x2="564.3" y2="746.6"/>
	<line class="st6" x1="586.9" y1="746.4" x2="666.3" y2="746.4"/>
	<line class="st6" x1="687.4" y1="746.1" x2="766.4" y2="746.1"/>
	<line class="st6" x1="787.3" y1="746.2" x2="866.3" y2="746.2"/>
	<line class="st6" x1="335.3" y1="796.5" x2="414.7" y2="796.5"/>
	<line class="st6" x1="434.8" y1="796.9" x2="514.3" y2="796.9"/>
	<line class="st6" x1="535.4" y1="797.2" x2="614.9" y2="797.2"/>
	<line class="st6" x1="637.4" y1="797" x2="716.9" y2="797"/>
	<line class="st6" x1="738" y1="796.6" x2="817" y2="796.6"/>
	<line class="st6" x1="837.9" y1="796.8" x2="916.9" y2="796.8"/>
	<line class="st6" x1="284" y1="846.8" x2="363.5" y2="846.8"/>
	<line class="st6" x1="385.4" y1="846.6" x2="464.8" y2="846.6"/>
	<line class="st6" x1="484.9" y1="847" x2="564.4" y2="847"/>
	<line class="st6" x1="585.5" y1="847.3" x2="665" y2="847.3"/>
	<line class="st6" x1="687.6" y1="847.1" x2="767" y2="847.1"/>
	<line class="st6" x1="788.1" y1="846.7" x2="867.1" y2="846.7"/>
	<line class="st6" x1="888" y1="846.9" x2="967" y2="846.9"/>
	<polyline class="st6" points="77.8,346.8 126.5,346.8 176.3,346.8 227.2,346.8 275.6,346.8 326.6,346.8 376.5,346.8 426.2,346.8 
		476.2,346.8 526.1,346.8 575.9,346.8 675.6,346.8 725.5,346.8 774.8,346.8 824.2,346.8 825.1,346.8 844,346.8 874.8,346.8 
		924.6,346.8 974.7,346.8 1023.9,346.8 1073.7,346.8 1123.1,346.8 1125.2,346.8 1125.9,346.8 	"/>
	<line class="st6" x1="76.8" y1="846.2" x2="165.5" y2="846.2"/>
	<line class="st6" x1="76.8" y1="796.2" x2="215.6" y2="796.2"/>
	<line class="st6" x1="76.8" y1="746.2" x2="266.1" y2="746.2"/>
	<line class="st6" x1="77.1" y1="696.5" x2="315.6" y2="696.3"/>
	<line class="st6" x1="77.8" y1="646.2" x2="366.1" y2="646.2"/>
	<line class="st6" x1="77.1" y1="596.7" x2="416" y2="596.4"/>
	<line class="st6" x1="77.8" y1="546.4" x2="466" y2="546.4"/>
	<line class="st6" x1="77" y1="497.9" x2="515.8" y2="496.6"/>
	<line class="st6" x1="76.8" y1="446.4" x2="566" y2="446.4"/>
	<line class="st6" x1="77.8" y1="397.2" x2="616" y2="396.4"/>
</g>
<g id="PR2" class="st0">
	<polyline class="st6" points="1125.2,706.9 1125.2,715.1 1125.2,723.3 1125.2,731.4 1125.2,739.5 1125.2,748 1125.2,755.9 
		1125.2,764.3 1125.2,772.3 1125.2,780.7 1125.2,787.4 	"/>
	<polyline class="st6" points="1074.8,656.5 1074.8,664.6 1074.8,672.9 1074.8,681 1074.8,689.1 1074.8,697.6 1074.8,705.5 
		1074.8,713.9 1074.8,721.9 1074.8,730.2 1074.8,737 	"/>
	<polyline class="st6" points="1125,603.5 1125,614.2 1125,624.9 1125,631.5 1125,635.4 1125,646.5 1125,656.8 1125,667.8 
		1125,678.3 1125,687.2 	"/>
	<polyline class="st6" points="1075.1,553.6 1075.1,564.4 1075.1,575 1075.1,581.7 1075.1,585.6 1075.1,596.7 1075.1,607 
		1075.1,617.9 1075.1,628.4 1075.1,637.4 	"/>
	<polyline class="st6" points="1125.6,504.3 1125.6,515 1125.6,525.7 1125.6,532.3 1125.6,536.2 1125.6,547.3 1125.6,557.6 
		1125.6,568.6 1125.6,579.1 1125.6,588 	"/>
	<polyline class="st6" points="1124.7,346.8 1124.7,347.7 1124.7,389.2 	"/>
	<polyline class="st6" points="1125.4,405.3 1125.4,416 1125.4,426.7 1125.4,433.3 1125.4,437.2 1125.4,448.3 1125.4,458.7 
		1125.4,469.6 1125.4,480.1 1125.4,489 	"/>
	<polyline class="st6" points="1074.7,346.8 1074.7,395.8 1074.7,437.4 	"/>
	<polyline class="st6" points="1075.1,453.8 1075.1,464.5 1075.1,475.2 1075.1,481.8 1075.1,485.8 1075.1,496.8 1075.1,507.2 
		1075.1,518.1 1075.1,528.6 1075.1,537.5 	"/>
	<line class="st6" x1="1025.4" y1="388" x2="1025.4" y2="346.8"/>
	<polyline class="st6" points="1025.7,404.4 1025.7,415.1 1025.7,425.8 1025.7,432.5 1025.7,436.4 1025.7,447.5 1025.7,457.8 
		1025.7,468.7 1025.7,479.2 1025.7,488.1 	"/>
	<polyline class="st6" points="1025.2,503.7 1025.2,514.4 1025.2,525.1 1025.2,531.7 1025.2,535.6 1025.2,546.7 1025.2,557 
		1025.2,568 1025.2,578.5 1025.2,587.4 	"/>
	<polyline class="st6" points="975.1,453.6 975.1,464.4 975.1,475 975.1,481.7 975.1,485.6 975.1,496.7 975.1,507 975.1,517.9 
		975.1,528.4 975.1,537.4 	"/>
	<polyline class="st6" points="975.1,346.8 975.1,395.4 975.1,436.9 	"/>
	<polyline class="st6" points="925.2,403.7 925.2,414.4 925.2,425.1 925.2,431.7 925.2,435.6 925.2,446.7 925.2,457 925.2,468 
		925.2,478.5 925.2,487.4 	"/>
	<line class="st6" x1="925.2" y1="387" x2="925.2" y2="346.8"/>
	<polyline class="st6" points="1024.8,606.5 1024.8,614.6 1024.8,622.9 1024.8,631 1024.8,639.1 1024.8,647.6 1024.8,655.5 
		1024.8,663.9 1024.8,671.9 1024.8,680.2 1024.8,687 	"/>
	<polyline class="st6" points="975.1,556.8 975.1,565 975.1,573.2 975.1,581.4 975.1,589.4 975.1,597.9 975.1,605.8 975.1,614.2 
		975.1,622.2 975.1,630.6 975.1,637.3 	"/>
	<polyline class="st6" points="924.7,506.4 924.7,514.6 924.7,522.8 924.7,531 924.7,539 924.7,547.5 924.7,555.4 924.7,563.8 
		924.7,571.8 924.7,580.2 924.7,586.9 	"/>
	<polyline class="st6" points="874.7,456.4 874.7,464.6 874.7,472.8 874.7,481 874.7,489 874.7,497.5 874.7,505.4 874.7,513.8 
		874.7,521.8 874.7,530.2 874.7,536.9 	"/>
	<polyline class="st6" points="874.5,346.8 874.5,395.1 874.5,436.7 	"/>
	<polyline class="st6" points="824.9,346.8 824.9,396.5 824.9,446.5 824.9,486.1 	"/>
	<polyline class="st6" points="775.5,346.8 775.5,396.5 775.5,436.7 	"/>
	<line class="st6" x1="725.4" y1="346.8" x2="725.4" y2="386.6"/>
	<line class="st6" x1="1125.2" y1="897.8" x2="1125.2" y2="807.4"/>
	<line class="st6" x1="1075.2" y1="898.8" x2="1075.2" y2="756.9"/>
	<line class="st6" x1="1025.2" y1="898.8" x2="1025.2" y2="707.4"/>
	<line class="st6" x1="975.2" y1="899.8" x2="975.2" y2="656.9"/>
	<line class="st6" x1="925.4" y1="896.8" x2="925.4" y2="607.1"/>
	<line class="st6" x1="875.4" y1="896.8" x2="875.4" y2="557.1"/>
	<line class="st6" x1="825.6" y1="896.8" x2="825.6" y2="507.3"/>
	<line class="st6" x1="775.4" y1="896.8" x2="775.4" y2="457.1"/>
	<line class="st6" x1="725.4" y1="899.8" x2="725.4" y2="407.1"/>
	<line class="st6" x1="675.4" y1="898.8" x2="675.4" y2="357.1"/>
	<polyline class="st6" points="76.8,837.4 76.8,830.6 76.8,822.3 76.8,814.3 76.8,805.9 76.8,798 76.8,789.5 76.8,781.4 76.8,773.3 
		76.8,765 76.8,756.9 	"/>
	<polyline class="st6" points="77.1,737.2 77.1,728.3 77.1,717.7 77.1,706.8 77.1,696.5 77.1,685.4 77.1,681.5 77.1,674.8 
		77.1,664.2 77.1,653.4 	"/>
	<polyline class="st6" points="126.8,787.4 126.8,780.7 126.8,772.3 126.8,764.3 126.8,755.9 126.8,748 126.8,739.5 126.8,731.4 
		126.8,723.3 126.8,715.1 126.8,706.9 	"/>
	<polyline class="st6" points="177.2,737 177.2,730.2 177.2,721.9 177.2,713.9 177.2,705.5 177.2,697.6 177.2,689.1 177.2,681 
		177.2,672.9 177.2,664.6 177.2,656.5 	"/>
	<polyline class="st6" points="127,687.2 127,678.3 127,667.8 127,656.8 127,646.5 127,635.4 127,631.5 127,624.9 127,614.2 
		127,603.5 	"/>
	<polyline class="st6" points="176.9,637.4 176.9,628.4 176.9,617.9 176.9,607 176.9,596.7 176.9,585.6 176.9,581.7 176.9,575 
		176.9,564.4 176.9,553.6 	"/>
	<polyline class="st6" points="77.1,637.4 77.1,628.4 77.1,617.9 77.1,607 77.1,596.7 77.1,585.6 77.1,581.7 77.1,575 77.1,564.4 
		77.1,553.6 	"/>
	<polyline class="st6" points="77.8,438.8 77.8,397.2 77.8,348.2 77.8,346.8 	"/>
	<polyline class="st6" points="126.4,588 126.4,579.1 126.4,568.6 126.4,557.6 126.4,547.3 126.4,536.2 126.4,532.3 126.4,525.7 
		126.4,515 126.4,504.3 	"/>
	<polyline class="st6" points="77,538.6 77,529.7 77,519.1 77,508.2 77,497.9 77,486.8 77,482.9 77,476.3 77,465.6 77,454.9 	"/>
	<polyline class="st6" points="127.3,389.2 127.3,347.7 127.3,346.8 	"/>
	<polyline class="st6" points="126.6,489 126.6,480.1 126.6,469.6 126.6,458.7 126.6,448.3 126.6,437.2 126.6,433.3 126.6,426.7 
		126.6,416 126.6,405.3 	"/>
	<polyline class="st6" points="177.3,437.4 177.3,395.8 177.3,346.8 	"/>
	<polyline class="st6" points="176.9,537.5 176.9,528.6 176.9,518.1 176.9,507.2 176.9,496.8 176.9,485.8 176.9,481.8 176.9,475.2 
		176.9,464.5 176.9,453.8 	"/>
	<line class="st6" x1="226.7" y1="346.8" x2="226.7" y2="388"/>
	<polyline class="st6" points="226.3,488.1 226.3,479.2 226.3,468.7 226.3,457.8 226.3,447.5 226.3,436.4 226.3,432.5 226.3,425.8 
		226.3,415.1 226.3,404.4 	"/>
	<polyline class="st6" points="226.8,587.4 226.8,578.5 226.8,568 226.8,557 226.8,546.7 226.8,535.6 226.8,531.7 226.8,525.1 
		226.8,514.4 226.8,503.7 	"/>
	<polyline class="st6" points="276.9,537.4 276.9,528.4 276.9,517.9 276.9,507 276.9,496.7 276.9,485.6 276.9,481.7 276.9,475 
		276.9,464.4 276.9,453.6 	"/>
	<polyline class="st6" points="276.9,436.9 276.9,395.4 276.9,346.8 	"/>
	<polyline class="st6" points="326.8,487.4 326.8,478.5 326.8,468 326.8,457 326.8,446.7 326.8,435.6 326.8,431.7 326.8,425.1 
		326.8,414.4 326.8,403.7 	"/>
	<line class="st6" x1="326.8" y1="346.8" x2="326.8" y2="387"/>
	<polyline class="st6" points="227.2,687 227.2,680.2 227.2,671.9 227.2,663.9 227.2,655.5 227.2,647.6 227.2,639.1 227.2,631 
		227.2,622.9 227.2,614.6 227.2,606.5 	"/>
	<polyline class="st6" points="276.9,637.3 276.9,630.6 276.9,622.2 276.9,614.2 276.9,605.8 276.9,597.9 276.9,589.4 276.9,581.4 
		276.9,573.2 276.9,565 276.9,556.8 	"/>
	<polyline class="st6" points="327.3,586.9 327.3,580.2 327.3,571.8 327.3,563.8 327.3,555.4 327.3,547.5 327.3,539 327.3,531 
		327.3,522.8 327.3,514.6 327.3,506.4 	"/>
	<polyline class="st6" points="377.3,536.9 377.3,530.2 377.3,521.8 377.3,513.8 377.3,505.4 377.3,497.5 377.3,489 377.3,481 
		377.3,472.8 377.3,464.6 377.3,456.4 	"/>
	<polyline class="st6" points="377.5,436.7 377.5,395.1 377.5,346.8 	"/>
	<polyline class="st6" points="427.1,486.1 427.1,446.5 427.1,396.5 427.1,346.8 	"/>
	<polyline class="st6" points="476.5,436.7 476.5,396.5 476.5,346.8 	"/>
	<line class="st6" x1="526.6" y1="386.6" x2="526.6" y2="346.8"/>
	<line class="st6" x1="76.8" y1="896.8" x2="76.8" y2="857.5"/>
	<line class="st6" x1="126.8" y1="897.8" x2="126.8" y2="807.4"/>
	<line class="st6" x1="176.8" y1="898.8" x2="176.8" y2="756.9"/>
	<line class="st6" x1="226.8" y1="898.8" x2="226.8" y2="707.4"/>
	<line class="st6" x1="276.8" y1="899.8" x2="276.8" y2="656.9"/>
	<line class="st6" x1="326.7" y1="896.8" x2="326.7" y2="607.1"/>
	<line class="st6" x1="376.7" y1="896.8" x2="376.7" y2="557.1"/>
	<line class="st6" x1="426.5" y1="896.8" x2="426.5" y2="507.3"/>
	<line class="st6" x1="476.7" y1="896.8" x2="476.7" y2="457.1"/>
	<line class="st6" x1="526.7" y1="899.8" x2="526.7" y2="407.1"/>
	<line class="st6" x1="576.7" y1="898.8" x2="576.7" y2="357.1"/>
	<line class="st6" x1="625.4" y1="896.8" x2="625.4" y2="346.8"/>
</g>
<g id="Editorial1" class="st0">
	<polyline class="st7" points="1125.2,896.3 1125,896.3 76.8,896.8 	"/>
	<line class="st7" x1="486.5" y1="546.4" x2="566" y2="546.4"/>
	<line class="st7" x1="434.3" y1="596.3" x2="513.8" y2="596.3"/>
	<line class="st7" x1="536.9" y1="495.9" x2="616" y2="495.9"/>
	<line class="st7" x1="586.3" y1="446.6" x2="666.1" y2="446.6"/>
	<line class="st7" x1="536.9" y1="596.4" x2="616" y2="596.4"/>
	<line class="st7" x1="1123" y1="447.1" x2="685.3" y2="447.1"/>
	<line class="st7" x1="636.1" y1="496.4" x2="716.5" y2="496.4"/>
	<polyline class="st7" points="737.3,496.4 1125.1,496.4 1125.2,496.4 	"/>
	<line class="st7" x1="685.3" y1="545.6" x2="765.8" y2="545.6"/>
	<line class="st7" x1="1125.9" y1="545.6" x2="787.3" y2="545.6"/>
	<line class="st7" x1="737.1" y1="597.4" x2="815" y2="597.4"/>
	<line class="st7" x1="1124.5" y1="597.3" x2="837.6" y2="597.3"/>
	<line class="st7" x1="785.2" y1="645.5" x2="866.3" y2="645.5"/>
	<line class="st7" x1="1125" y1="645.5" x2="886.3" y2="645.5"/>
	<line class="st7" x1="836.1" y1="696.4" x2="916.9" y2="696.4"/>
	<line class="st7" x1="1125.5" y1="696.3" x2="937.6" y2="696.3"/>
	<line class="st7" x1="885.1" y1="745.4" x2="967" y2="745.4"/>
	<line class="st7" x1="1125" y1="745.4" x2="986.2" y2="745.4"/>
	<line class="st7" x1="935.9" y1="796.3" x2="1014.8" y2="796.3"/>
	<polyline class="st7" points="1036.9,796.2 1124.9,796.2 1125.1,796.2 	"/>
	<line class="st7" x1="985" y1="845.3" x2="1065.6" y2="845.3"/>
	<line class="st7" x1="1125" y1="845.3" x2="1086.1" y2="845.3"/>
	<line class="st7" x1="384.4" y1="646.2" x2="463.9" y2="646.2"/>
	<line class="st7" x1="334.3" y1="696.4" x2="413.7" y2="696.4"/>
	<line class="st7" x1="284.7" y1="745.9" x2="364.2" y2="745.9"/>
	<line class="st7" x1="233.9" y1="796.7" x2="313.4" y2="796.7"/>
	<line class="st7" x1="184" y1="846.6" x2="263.5" y2="846.6"/>
	<polyline class="st7" points="636.4,396.5 1122.3,396.5 1123,396.5 	"/>
	<line class="st7" x1="587" y1="546" x2="666.1" y2="546"/>
	<line class="st7" x1="486.5" y1="646" x2="566" y2="646"/>
	<line class="st7" x1="587" y1="645.7" x2="666.1" y2="645.7"/>
	<line class="st7" x1="636.9" y1="595.9" x2="715.9" y2="595.9"/>
	<line class="st7" x1="686.9" y1="645.9" x2="765.9" y2="645.9"/>
	<line class="st7" x1="434.9" y1="696.6" x2="514.3" y2="696.6"/>
	<line class="st7" x1="536.9" y1="696.5" x2="616.4" y2="696.5"/>
	<line class="st7" x1="637.5" y1="696.1" x2="716.5" y2="696.1"/>
	<line class="st7" x1="737.3" y1="696.3" x2="816.3" y2="696.3"/>
	<line class="st7" x1="384.2" y1="746.3" x2="463.7" y2="746.3"/>
	<line class="st7" x1="484.8" y1="746.6" x2="564.3" y2="746.6"/>
	<line class="st7" x1="586.9" y1="746.4" x2="666.3" y2="746.4"/>
	<line class="st7" x1="687.4" y1="746.1" x2="766.4" y2="746.1"/>
	<line class="st7" x1="787.3" y1="746.2" x2="866.3" y2="746.2"/>
	<line class="st7" x1="335.3" y1="796.5" x2="414.7" y2="796.5"/>
	<line class="st7" x1="434.8" y1="796.9" x2="514.3" y2="796.9"/>
	<line class="st7" x1="535.4" y1="797.2" x2="614.9" y2="797.2"/>
	<line class="st7" x1="637.4" y1="797" x2="716.9" y2="797"/>
	<line class="st7" x1="738" y1="796.6" x2="817" y2="796.6"/>
	<line class="st7" x1="837.9" y1="796.8" x2="916.9" y2="796.8"/>
	<line class="st7" x1="284" y1="846.8" x2="363.5" y2="846.8"/>
	<line class="st7" x1="385.4" y1="846.6" x2="464.8" y2="846.6"/>
	<line class="st7" x1="484.9" y1="847" x2="564.4" y2="847"/>
	<line class="st7" x1="585.5" y1="847.3" x2="665" y2="847.3"/>
	<line class="st7" x1="687.6" y1="847.1" x2="767" y2="847.1"/>
	<line class="st7" x1="788.1" y1="846.7" x2="867.1" y2="846.7"/>
	<line class="st7" x1="888" y1="846.9" x2="967" y2="846.9"/>
	<polyline class="st7" points="77.8,346.8 126.5,346.8 176.3,346.8 227.2,346.8 275.6,346.8 326.6,346.8 376.5,346.8 426.2,346.8 
		476.2,346.8 526.1,346.8 575.9,346.8 675.6,346.8 725.5,346.8 774.8,346.8 824.2,346.8 825.1,346.8 844,346.8 874.8,346.8 
		924.6,346.8 974.7,346.8 1023.9,346.8 1073.7,346.8 1123.1,346.8 1125.2,346.8 1125.9,346.8 	"/>
	<line class="st7" x1="76.8" y1="846.2" x2="165.5" y2="846.2"/>
	<line class="st7" x1="76.8" y1="796.2" x2="215.6" y2="796.2"/>
	<line class="st7" x1="76.8" y1="746.2" x2="266.1" y2="746.2"/>
	<line class="st7" x1="77.1" y1="696.5" x2="315.6" y2="696.3"/>
	<line class="st7" x1="77.8" y1="646.2" x2="366.1" y2="646.2"/>
	<line class="st7" x1="77.1" y1="596.7" x2="416" y2="596.4"/>
	<line class="st7" x1="77.8" y1="546.4" x2="466" y2="546.4"/>
	<line class="st7" x1="77" y1="497.9" x2="515.8" y2="496.6"/>
	<line class="st7" x1="76.8" y1="446.4" x2="566" y2="446.4"/>
	<line class="st7" x1="77.8" y1="397.2" x2="616" y2="396.4"/>
</g>
<g id="Editoral2" class="st0">
	<polyline class="st7" points="1125.2,706.9 1125.2,715.1 1125.2,723.3 1125.2,731.4 1125.2,739.5 1125.2,748 1125.2,755.9 
		1125.2,764.3 1125.2,772.3 1125.2,780.7 1125.2,787.4 	"/>
	<polyline class="st7" points="1074.8,656.5 1074.8,664.6 1074.8,672.9 1074.8,681 1074.8,689.1 1074.8,697.6 1074.8,705.5 
		1074.8,713.9 1074.8,721.9 1074.8,730.2 1074.8,737 	"/>
	<polyline class="st7" points="1125,603.5 1125,614.2 1125,624.9 1125,631.5 1125,635.4 1125,646.5 1125,656.8 1125,667.8 
		1125,678.3 1125,687.2 	"/>
	<polyline class="st7" points="1075.1,553.6 1075.1,564.4 1075.1,575 1075.1,581.7 1075.1,585.6 1075.1,596.7 1075.1,607 
		1075.1,617.9 1075.1,628.4 1075.1,637.4 	"/>
	<polyline class="st7" points="1125.6,504.3 1125.6,515 1125.6,525.7 1125.6,532.3 1125.6,536.2 1125.6,547.3 1125.6,557.6 
		1125.6,568.6 1125.6,579.1 1125.6,588 	"/>
	<polyline class="st7" points="1124.7,346.8 1124.7,347.7 1124.7,389.2 	"/>
	<polyline class="st7" points="1125.4,405.3 1125.4,416 1125.4,426.7 1125.4,433.3 1125.4,437.2 1125.4,448.3 1125.4,458.7 
		1125.4,469.6 1125.4,480.1 1125.4,489 	"/>
	<polyline class="st7" points="1074.7,346.8 1074.7,395.8 1074.7,437.4 	"/>
	<polyline class="st7" points="1075.1,453.8 1075.1,464.5 1075.1,475.2 1075.1,481.8 1075.1,485.8 1075.1,496.8 1075.1,507.2 
		1075.1,518.1 1075.1,528.6 1075.1,537.5 	"/>
	<line class="st7" x1="1025.4" y1="388" x2="1025.4" y2="346.8"/>
	<polyline class="st7" points="1025.7,404.4 1025.7,415.1 1025.7,425.8 1025.7,432.5 1025.7,436.4 1025.7,447.5 1025.7,457.8 
		1025.7,468.7 1025.7,479.2 1025.7,488.1 	"/>
	<polyline class="st7" points="1025.2,503.7 1025.2,514.4 1025.2,525.1 1025.2,531.7 1025.2,535.6 1025.2,546.7 1025.2,557 
		1025.2,568 1025.2,578.5 1025.2,587.4 	"/>
	<polyline class="st7" points="975.1,453.6 975.1,464.4 975.1,475 975.1,481.7 975.1,485.6 975.1,496.7 975.1,507 975.1,517.9 
		975.1,528.4 975.1,537.4 	"/>
	<polyline class="st7" points="975.1,346.8 975.1,395.4 975.1,436.9 	"/>
	<polyline class="st7" points="925.2,403.7 925.2,414.4 925.2,425.1 925.2,431.7 925.2,435.6 925.2,446.7 925.2,457 925.2,468 
		925.2,478.5 925.2,487.4 	"/>
	<line class="st7" x1="925.2" y1="387" x2="925.2" y2="346.8"/>
	<polyline class="st7" points="1024.8,606.5 1024.8,614.6 1024.8,622.9 1024.8,631 1024.8,639.1 1024.8,647.6 1024.8,655.5 
		1024.8,663.9 1024.8,671.9 1024.8,680.2 1024.8,687 	"/>
	<polyline class="st7" points="975.1,556.8 975.1,565 975.1,573.2 975.1,581.4 975.1,589.4 975.1,597.9 975.1,605.8 975.1,614.2 
		975.1,622.2 975.1,630.6 975.1,637.3 	"/>
	<polyline class="st7" points="924.7,506.4 924.7,514.6 924.7,522.8 924.7,531 924.7,539 924.7,547.5 924.7,555.4 924.7,563.8 
		924.7,571.8 924.7,580.2 924.7,586.9 	"/>
	<polyline class="st7" points="874.7,456.4 874.7,464.6 874.7,472.8 874.7,481 874.7,489 874.7,497.5 874.7,505.4 874.7,513.8 
		874.7,521.8 874.7,530.2 874.7,536.9 	"/>
	<polyline class="st7" points="874.5,346.8 874.5,395.1 874.5,436.7 	"/>
	<polyline class="st7" points="824.9,346.8 824.9,396.5 824.9,446.5 824.9,486.1 	"/>
	<polyline class="st7" points="775.5,346.8 775.5,396.5 775.5,436.7 	"/>
	<line class="st7" x1="725.4" y1="346.8" x2="725.4" y2="386.6"/>
	<line class="st7" x1="1125.2" y1="897.8" x2="1125.2" y2="807.4"/>
	<line class="st7" x1="1075.2" y1="898.8" x2="1075.2" y2="756.9"/>
	<line class="st7" x1="1025.2" y1="898.8" x2="1025.2" y2="707.4"/>
	<line class="st7" x1="975.2" y1="899.8" x2="975.2" y2="656.9"/>
	<line class="st7" x1="925.4" y1="896.8" x2="925.4" y2="607.1"/>
	<line class="st7" x1="875.4" y1="896.8" x2="875.4" y2="557.1"/>
	<line class="st7" x1="825.6" y1="896.8" x2="825.6" y2="507.3"/>
	<line class="st7" x1="775.4" y1="896.8" x2="775.4" y2="457.1"/>
	<line class="st7" x1="725.4" y1="899.8" x2="725.4" y2="407.1"/>
	<line class="st7" x1="675.4" y1="898.8" x2="675.4" y2="357.1"/>
	<polyline class="st7" points="76.8,837.4 76.8,830.6 76.8,822.3 76.8,814.3 76.8,805.9 76.8,798 76.8,789.5 76.8,781.4 76.8,773.3 
		76.8,765 76.8,756.9 	"/>
	<polyline class="st7" points="77.1,737.2 77.1,728.3 77.1,717.7 77.1,706.8 77.1,696.5 77.1,685.4 77.1,681.5 77.1,674.8 
		77.1,664.2 77.1,653.4 	"/>
	<polyline class="st7" points="126.8,787.4 126.8,780.7 126.8,772.3 126.8,764.3 126.8,755.9 126.8,748 126.8,739.5 126.8,731.4 
		126.8,723.3 126.8,715.1 126.8,706.9 	"/>
	<polyline class="st7" points="177.2,737 177.2,730.2 177.2,721.9 177.2,713.9 177.2,705.5 177.2,697.6 177.2,689.1 177.2,681 
		177.2,672.9 177.2,664.6 177.2,656.5 	"/>
	<polyline class="st7" points="127,687.2 127,678.3 127,667.8 127,656.8 127,646.5 127,635.4 127,631.5 127,624.9 127,614.2 
		127,603.5 	"/>
	<polyline class="st7" points="176.9,637.4 176.9,628.4 176.9,617.9 176.9,607 176.9,596.7 176.9,585.6 176.9,581.7 176.9,575 
		176.9,564.4 176.9,553.6 	"/>
	<polyline class="st7" points="77.1,637.4 77.1,628.4 77.1,617.9 77.1,607 77.1,596.7 77.1,585.6 77.1,581.7 77.1,575 77.1,564.4 
		77.1,553.6 	"/>
	<polyline class="st7" points="77.8,438.8 77.8,397.2 77.8,348.2 77.8,346.8 	"/>
	<polyline class="st7" points="126.4,588 126.4,579.1 126.4,568.6 126.4,557.6 126.4,547.3 126.4,536.2 126.4,532.3 126.4,525.7 
		126.4,515 126.4,504.3 	"/>
	<polyline class="st7" points="77,538.6 77,529.7 77,519.1 77,508.2 77,497.9 77,486.8 77,482.9 77,476.3 77,465.6 77,454.9 	"/>
	<polyline class="st7" points="127.3,389.2 127.3,347.7 127.3,346.8 	"/>
	<polyline class="st7" points="126.6,489 126.6,480.1 126.6,469.6 126.6,458.7 126.6,448.3 126.6,437.2 126.6,433.3 126.6,426.7 
		126.6,416 126.6,405.3 	"/>
	<polyline class="st7" points="177.3,437.4 177.3,395.8 177.3,346.8 	"/>
	<polyline class="st7" points="176.9,537.5 176.9,528.6 176.9,518.1 176.9,507.2 176.9,496.8 176.9,485.8 176.9,481.8 176.9,475.2 
		176.9,464.5 176.9,453.8 	"/>
	<line class="st7" x1="226.7" y1="346.8" x2="226.7" y2="388"/>
	<polyline class="st7" points="226.3,488.1 226.3,479.2 226.3,468.7 226.3,457.8 226.3,447.5 226.3,436.4 226.3,432.5 226.3,425.8 
		226.3,415.1 226.3,404.4 	"/>
	<polyline class="st7" points="226.8,587.4 226.8,578.5 226.8,568 226.8,557 226.8,546.7 226.8,535.6 226.8,531.7 226.8,525.1 
		226.8,514.4 226.8,503.7 	"/>
	<polyline class="st7" points="276.9,537.4 276.9,528.4 276.9,517.9 276.9,507 276.9,496.7 276.9,485.6 276.9,481.7 276.9,475 
		276.9,464.4 276.9,453.6 	"/>
	<polyline class="st7" points="276.9,436.9 276.9,395.4 276.9,346.8 	"/>
	<polyline class="st7" points="326.8,487.4 326.8,478.5 326.8,468 326.8,457 326.8,446.7 326.8,435.6 326.8,431.7 326.8,425.1 
		326.8,414.4 326.8,403.7 	"/>
	<line class="st7" x1="326.8" y1="346.8" x2="326.8" y2="387"/>
	<polyline class="st7" points="227.2,687 227.2,680.2 227.2,671.9 227.2,663.9 227.2,655.5 227.2,647.6 227.2,639.1 227.2,631 
		227.2,622.9 227.2,614.6 227.2,606.5 	"/>
	<polyline class="st7" points="276.9,637.3 276.9,630.6 276.9,622.2 276.9,614.2 276.9,605.8 276.9,597.9 276.9,589.4 276.9,581.4 
		276.9,573.2 276.9,565 276.9,556.8 	"/>
	<polyline class="st7" points="327.3,586.9 327.3,580.2 327.3,571.8 327.3,563.8 327.3,555.4 327.3,547.5 327.3,539 327.3,531 
		327.3,522.8 327.3,514.6 327.3,506.4 	"/>
	<polyline class="st7" points="377.3,536.9 377.3,530.2 377.3,521.8 377.3,513.8 377.3,505.4 377.3,497.5 377.3,489 377.3,481 
		377.3,472.8 377.3,464.6 377.3,456.4 	"/>
	<polyline class="st7" points="377.5,436.7 377.5,395.1 377.5,346.8 	"/>
	<polyline class="st7" points="427.1,486.1 427.1,446.5 427.1,396.5 427.1,346.8 	"/>
	<polyline class="st7" points="476.5,436.7 476.5,396.5 476.5,346.8 	"/>
	<line class="st7" x1="526.6" y1="386.6" x2="526.6" y2="346.8"/>
	<line class="st7" x1="76.8" y1="896.8" x2="76.8" y2="857.5"/>
	<line class="st7" x1="126.8" y1="897.8" x2="126.8" y2="807.4"/>
	<line class="st7" x1="176.8" y1="898.8" x2="176.8" y2="756.9"/>
	<line class="st7" x1="226.8" y1="898.8" x2="226.8" y2="707.4"/>
	<line class="st7" x1="276.8" y1="899.8" x2="276.8" y2="656.9"/>
	<line class="st7" x1="326.7" y1="896.8" x2="326.7" y2="607.1"/>
	<line class="st7" x1="376.7" y1="896.8" x2="376.7" y2="557.1"/>
	<line class="st7" x1="426.5" y1="896.8" x2="426.5" y2="507.3"/>
	<line class="st7" x1="476.7" y1="896.8" x2="476.7" y2="457.1"/>
	<line class="st7" x1="526.7" y1="899.8" x2="526.7" y2="407.1"/>
	<line class="st7" x1="576.7" y1="898.8" x2="576.7" y2="357.1"/>
	<line class="st7" x1="625.4" y1="896.8" x2="625.4" y2="346.8"/>
</g>
</svg>
