<?xml version="1.0" encoding="utf-8"?>
<!-- Generator: Adobe Illustrator 21.0.0, SVG Export Plug-In . SVG Version: 6.00 Build 0)  -->
<svg version="1.1" id="Layer_1" xmlns="http://www.w3.org/2000/svg" xmlns:xlink="http://www.w3.org/1999/xlink" x="0px" y="0px"
	 viewBox="0 0 1200 1200" style="enable-background:new 0 0 1200 1200;" xml:space="preserve">
<style type="text/css">
	.st0{display:none;}
	.st1{display:inline;fill:none;stroke:#000000;stroke-width:5;stroke-linecap:round;stroke-miterlimit:10;}
	
		.st2{display:inline;opacity:0.35;fill:none;stroke:#66C9D1;stroke-width:5;stroke-linecap:round;stroke-miterlimit:10;enable-background:new    ;}
	.st3{opacity:0.3;fill:none;stroke:#008799;stroke-width:5;stroke-linecap:round;stroke-miterlimit:10;enable-background:new    ;}
	
		.st4{display:inline;opacity:0.3;fill:none;stroke:#005B87;stroke-width:5;stroke-linecap:round;stroke-miterlimit:10;enable-background:new    ;}
	
		.st5{display:inline;opacity:0.3;fill:none;stroke:#8C2245;stroke-width:5;stroke-linecap:round;stroke-miterlimit:10;enable-background:new    ;}
	
		.st6{display:inline;opacity:0.3;fill:none;stroke:#EC535E;stroke-width:5;stroke-linecap:round;stroke-miterlimit:10;enable-background:new    ;}
	
		.st7{display:inline;opacity:0.3;fill:none;stroke:#F78E37;stroke-width:5;stroke-linecap:round;stroke-miterlimit:10;enable-background:new    ;}
</style>
<g id="Layer_1_1_" class="st0">
	<line class="st1" x1="49" y1="54.1" x2="49" y2="1155.1"/>
	<line class="st1" x1="99" y1="114" x2="99" y2="1155.1"/>
	<line class="st1" x1="149" y1="164.5" x2="149" y2="1156.1"/>
	<line class="st1" x1="199" y1="214" x2="199" y2="1153.1"/>
	<line class="st1" x1="249" y1="265.5" x2="249" y2="1155.1"/>
	<line class="st1" x1="299" y1="315" x2="299" y2="1155.1"/>
	<line class="st1" x1="349" y1="365" x2="349" y2="1155.1"/>
	<line class="st1" x1="398.9" y1="414.9" x2="398.9" y2="1156.1"/>
	<line class="st1" x1="449.4" y1="465.3" x2="449.4" y2="1155.1"/>
	<line class="st1" x1="498.7" y1="514.7" x2="498.7" y2="1156.1"/>
	<line class="st1" x1="548.8" y1="1153.1" x2="548.8" y2="564.8"/>
	<line class="st1" x1="598.5" y1="1153.1" x2="598.5" y2="614.4"/>
	<line class="st1" x1="648.5" y1="1153.1" x2="648.5" y2="664.5"/>
	<line class="st1" x1="699" y1="1153.1" x2="699" y2="715"/>
	<line class="st1" x1="748.5" y1="1153.1" x2="748.5" y2="764.5"/>
	<line class="st1" x1="798.8" y1="1153.1" x2="798.8" y2="814.7"/>
	<line class="st1" x1="849.1" y1="1153.1" x2="849.1" y2="865"/>
	<line class="st1" x1="898.9" y1="1153.1" x2="898.9" y2="915.4"/>
	<line class="st1" x1="949.4" y1="1153.1" x2="949.4" y2="965.9"/>
	<line class="st1" x1="998.8" y1="1153.1" x2="998.8" y2="1015.4"/>
	<line class="st1" x1="1049.6" y1="1153.1" x2="1049.6" y2="1066.2"/>
	<line class="st1" x1="1099.3" y1="1153.1" x2="1099.3" y2="1115.9"/>
	<line class="st1" x1="1149" y1="54.1" x2="1149" y2="1155.1"/>
	<line class="st1" x1="99" y1="54.6" x2="99" y2="93.9"/>
	<line class="st1" x1="149" y1="53.6" x2="149" y2="144"/>
	<line class="st1" x1="199" y1="52.6" x2="199" y2="194.5"/>
	<line class="st1" x1="249" y1="52.6" x2="249" y2="244"/>
	<line class="st1" x1="299" y1="51.6" x2="299" y2="294.5"/>
	<line class="st1" x1="348.9" y1="54.6" x2="348.9" y2="344.3"/>
	<line class="st1" x1="398.9" y1="54.6" x2="398.9" y2="394.3"/>
	<line class="st1" x1="448.7" y1="54.6" x2="448.7" y2="444.1"/>
	<line class="st1" x1="498.9" y1="54.6" x2="498.9" y2="494.3"/>
	<line class="st1" x1="548.9" y1="51.6" x2="548.9" y2="544.3"/>
	<line class="st1" x1="598.9" y1="52.6" x2="598.9" y2="594.3"/>
	<line class="st1" x1="648.9" y1="54.6" x2="648.9" y2="644.3"/>
	<line class="st1" x1="698.8" y1="54.6" x2="698.8" y2="694.3"/>
	<line class="st1" x1="748.9" y1="52.6" x2="748.9" y2="744.3"/>
	<line class="st1" x1="799" y1="54.6" x2="799" y2="794.4"/>
	<line class="st1" x1="848.8" y1="54.6" x2="848.8" y2="844.3"/>
	<line class="st1" x1="898.9" y1="54.6" x2="898.9" y2="894.3"/>
	<line class="st1" x1="950" y1="52.6" x2="950" y2="945.5"/>
	<line class="st1" x1="998.6" y1="54.6" x2="998.6" y2="994.1"/>
	<line class="st1" x1="1049.6" y1="51.6" x2="1049.6" y2="1045.1"/>
	<line class="st1" x1="1099.6" y1="52.6" x2="1099.6" y2="1095"/>
</g>
<g id="Layer_2" class="st0">
	<line class="st1" x1="48" y1="1153.6" x2="1148.9" y2="1153.6"/>
	<line class="st1" x1="107.9" y1="1103.6" x2="1148.9" y2="1103.6"/>
	<line class="st1" x1="158.4" y1="1053.6" x2="1149.9" y2="1053.6"/>
	<line class="st1" x1="207.9" y1="1003.6" x2="1146.9" y2="1003.6"/>
	<line class="st1" x1="259.4" y1="953.6" x2="1148.9" y2="953.6"/>
	<line class="st1" x1="308.9" y1="903.6" x2="1148.9" y2="903.6"/>
	<line class="st1" x1="358.9" y1="853.6" x2="1148.9" y2="853.6"/>
	<line class="st1" x1="408.7" y1="803.7" x2="1149.9" y2="803.7"/>
	<line class="st1" x1="459.2" y1="753.3" x2="1148.9" y2="753.3"/>
	<line class="st1" x1="508.6" y1="703.9" x2="1149.9" y2="703.9"/>
	<line class="st1" x1="1146.9" y1="653.8" x2="558.7" y2="653.8"/>
	<line class="st1" x1="1146.9" y1="604.1" x2="608.3" y2="604.1"/>
	<line class="st1" x1="1146.9" y1="554.1" x2="658.4" y2="554.1"/>
	<line class="st1" x1="1146.9" y1="503.6" x2="708.9" y2="503.6"/>
	<line class="st1" x1="1146.9" y1="454.1" x2="758.4" y2="454.1"/>
	<line class="st1" x1="1146.9" y1="403.8" x2="808.6" y2="403.8"/>
	<line class="st1" x1="1146.9" y1="353.5" x2="858.9" y2="353.5"/>
	<line class="st1" x1="1146.9" y1="303.7" x2="909.3" y2="303.7"/>
	<line class="st1" x1="1146.9" y1="253.3" x2="959.7" y2="253.3"/>
	<line class="st1" x1="1146.9" y1="203.8" x2="1009.2" y2="203.8"/>
	<line class="st1" x1="1146.9" y1="153" x2="1060.1" y2="153"/>
	<line class="st1" x1="1146.9" y1="103.3" x2="1109.8" y2="103.3"/>
	<line class="st1" x1="48" y1="53.6" x2="1148.9" y2="53.6"/>
	<line class="st1" x1="48.5" y1="1103.6" x2="87.7" y2="1103.6"/>
	<line class="st1" x1="47.5" y1="1053.6" x2="137.9" y2="1053.6"/>
	<line class="st1" x1="46.5" y1="1003.6" x2="188.4" y2="1003.6"/>
	<line class="st1" x1="46.5" y1="953.6" x2="237.9" y2="953.6"/>
	<line class="st1" x1="45.5" y1="903.6" x2="288.4" y2="903.6"/>
	<line class="st1" x1="48.5" y1="853.8" x2="338.2" y2="853.8"/>
	<line class="st1" x1="48.5" y1="803.8" x2="388.2" y2="803.8"/>
	<line class="st1" x1="48.5" y1="754" x2="438" y2="754"/>
	<line class="st1" x1="48.5" y1="703.8" x2="488.2" y2="703.8"/>
	<line class="st1" x1="45.5" y1="653.8" x2="538.2" y2="653.8"/>
	<line class="st1" x1="46.5" y1="603.8" x2="588.2" y2="603.8"/>
	<line class="st1" x1="48.5" y1="553.8" x2="638.2" y2="553.8"/>
	<line class="st1" x1="48.5" y1="503.8" x2="688.2" y2="503.8"/>
	<line class="st1" x1="46.5" y1="453.8" x2="738.2" y2="453.8"/>
	<line class="st1" x1="48.5" y1="403.7" x2="788.3" y2="403.7"/>
	<line class="st1" x1="48.5" y1="353.8" x2="838.2" y2="353.8"/>
	<line class="st1" x1="48.5" y1="303.8" x2="888.2" y2="303.8"/>
	<line class="st1" x1="46.5" y1="252.6" x2="939.4" y2="252.6"/>
	<line class="st1" x1="48.5" y1="204" x2="987.9" y2="204"/>
	<line class="st1" x1="45.5" y1="153" x2="1039" y2="153"/>
	<line class="st1" x1="46.5" y1="103" x2="1088.9" y2="103"/>
</g>
<g id="Layer_1_copy" class="st0">
	<line class="st1" x1="49" y1="54.1" x2="49" y2="1155.1"/>
	<line class="st1" x1="398.9" y1="414.9" x2="398.9" y2="494.3"/>
	<line class="st1" x1="348.9" y1="362.7" x2="348.9" y2="442.2"/>
	<line class="st1" x1="449.4" y1="465.3" x2="449.4" y2="544.3"/>
	<line class="st1" x1="498.7" y1="514.7" x2="498.7" y2="644.3"/>
	<line class="st1" x1="348.9" y1="465.3" x2="348.9" y2="544.3"/>
	<line class="st1" x1="498.7" y1="665.7" x2="498.7" y2="1156.1"/>
	<line class="st1" x1="448.9" y1="564.5" x2="448.9" y2="694.2"/>
	<polyline class="st1" points="448.9,1153.6 448.9,1153.1 448.9,715.5 	"/>
	<line class="st1" x1="399.6" y1="613.7" x2="399.6" y2="743.4"/>
	<polyline class="st1" points="399.7,1153.6 399.7,1153.1 399.7,764.8 	"/>
	<line class="st1" x1="347.9" y1="665.4" x2="347.9" y2="795.1"/>
	<polyline class="st1" points="347.9,1153.6 347.9,1153.1 347.9,816.5 	"/>
	<line class="st1" x1="299.8" y1="713.5" x2="299.8" y2="843.2"/>
	<polyline class="st1" points="299.8,1153.6 299.8,1153.1 299.8,864.6 	"/>
	<line class="st1" x1="248.9" y1="764.4" x2="248.9" y2="894.1"/>
	<polyline class="st1" points="248.9,1153.6 248.9,1153.1 248.9,915.5 	"/>
	<line class="st1" x1="199.8" y1="813.5" x2="199.8" y2="943.2"/>
	<polyline class="st1" points="199.9,1153.6 199.9,1153.1 199.9,964.5 	"/>
	<line class="st1" x1="149" y1="864.3" x2="149" y2="994"/>
	<polyline class="st1" points="149.1,1153.6 149.1,1153.1 149.1,1015.4 	"/>
	<line class="st1" x1="100" y1="913.4" x2="100" y2="1043.1"/>
	<polyline class="st1" points="100,1153.6 100,1153.1 100,1064.4 	"/>
	<line class="st1" x1="299.1" y1="312.8" x2="299.1" y2="392.3"/>
	<line class="st1" x1="248.9" y1="262.7" x2="248.9" y2="342.1"/>
	<line class="st1" x1="199.3" y1="213.1" x2="199.3" y2="292.6"/>
	<line class="st1" x1="148.5" y1="162.3" x2="148.5" y2="241.8"/>
	<line class="st1" x1="98.7" y1="112.4" x2="98.7" y2="191.9"/>
	<line class="st1" x1="548.8" y1="1153.1" x2="548.8" y2="564.8"/>
	<line class="st1" x1="399.3" y1="515.4" x2="399.3" y2="594.4"/>
	<line class="st1" x1="299.2" y1="414.9" x2="299.2" y2="494.3"/>
	<line class="st1" x1="299.6" y1="515.4" x2="299.6" y2="594.4"/>
	<line class="st1" x1="349.4" y1="565.3" x2="349.4" y2="644.3"/>
	<line class="st1" x1="299.4" y1="615.3" x2="299.4" y2="694.3"/>
	<line class="st1" x1="248.6" y1="363.2" x2="248.6" y2="442.7"/>
	<line class="st1" x1="248.8" y1="465.3" x2="248.8" y2="544.8"/>
	<line class="st1" x1="249.2" y1="565.9" x2="249.2" y2="644.9"/>
	<line class="st1" x1="249" y1="665.7" x2="249" y2="744.7"/>
	<line class="st1" x1="198.9" y1="312.6" x2="198.9" y2="392.1"/>
	<line class="st1" x1="198.7" y1="413.2" x2="198.7" y2="492.7"/>
	<line class="st1" x1="198.9" y1="515.3" x2="198.9" y2="594.7"/>
	<line class="st1" x1="199.2" y1="615.8" x2="199.2" y2="694.8"/>
	<line class="st1" x1="199" y1="715.7" x2="199" y2="794.7"/>
	<line class="st1" x1="148.8" y1="263.7" x2="148.8" y2="343.1"/>
	<line class="st1" x1="148.4" y1="363.2" x2="148.4" y2="442.7"/>
	<line class="st1" x1="148.1" y1="463.8" x2="148.1" y2="543.3"/>
	<line class="st1" x1="148.3" y1="565.8" x2="148.3" y2="645.3"/>
	<line class="st1" x1="148.6" y1="666.4" x2="148.6" y2="745.4"/>
	<line class="st1" x1="148.5" y1="766.2" x2="148.5" y2="845.2"/>
	<line class="st1" x1="98.4" y1="212.4" x2="98.4" y2="291.9"/>
	<line class="st1" x1="98.7" y1="313.8" x2="98.7" y2="393.2"/>
	<line class="st1" x1="98.3" y1="413.3" x2="98.3" y2="492.8"/>
	<line class="st1" x1="98" y1="513.9" x2="98" y2="593.4"/>
	<line class="st1" x1="98.2" y1="615.9" x2="98.2" y2="695.4"/>
	<line class="st1" x1="98.5" y1="716.5" x2="98.5" y2="795.5"/>
	<line class="st1" x1="98.4" y1="816.3" x2="98.4" y2="895.3"/>
	<line class="st1" x1="598.5" y1="1153.1" x2="598.5" y2="614.4"/>
	<line class="st1" x1="648.5" y1="1153.1" x2="648.5" y2="664.5"/>
	<line class="st1" x1="699" y1="1153.1" x2="699" y2="715"/>
	<line class="st1" x1="748.5" y1="1153.1" x2="748.5" y2="764.5"/>
	<line class="st1" x1="798.8" y1="1153.1" x2="798.8" y2="814.7"/>
	<line class="st1" x1="849.1" y1="1153.1" x2="849.1" y2="865"/>
	<line class="st1" x1="898.9" y1="1153.1" x2="898.9" y2="915.4"/>
	<line class="st1" x1="949.4" y1="1153.1" x2="949.4" y2="965.9"/>
	<line class="st1" x1="998.8" y1="1153.1" x2="998.8" y2="1015.4"/>
	<line class="st1" x1="1049.6" y1="1153.1" x2="1049.6" y2="1066.2"/>
	<line class="st1" x1="1099.3" y1="1153.1" x2="1099.3" y2="1115.9"/>
	<line class="st1" x1="1149" y1="54.1" x2="1149" y2="1155.1"/>
	<line class="st1" x1="99" y1="54.6" x2="99" y2="93.9"/>
	<line class="st1" x1="149" y1="53.6" x2="149" y2="144"/>
	<line class="st1" x1="199" y1="52.6" x2="199" y2="194.5"/>
	<line class="st1" x1="249" y1="52.6" x2="249" y2="244"/>
	<line class="st1" x1="299" y1="51.6" x2="299" y2="294.5"/>
	<line class="st1" x1="348.9" y1="54.6" x2="348.9" y2="344.3"/>
	<line class="st1" x1="398.9" y1="54.6" x2="398.9" y2="394.3"/>
	<line class="st1" x1="448.7" y1="54.6" x2="448.7" y2="444.1"/>
	<line class="st1" x1="498.9" y1="54.6" x2="498.9" y2="494.3"/>
	<line class="st1" x1="548.9" y1="51.6" x2="548.9" y2="544.3"/>
	<line class="st1" x1="598.9" y1="52.6" x2="598.9" y2="594.3"/>
	<line class="st1" x1="648.9" y1="54.6" x2="648.9" y2="644.3"/>
	<line class="st1" x1="698.8" y1="54.6" x2="698.8" y2="694.3"/>
	<line class="st1" x1="748.9" y1="52.6" x2="748.9" y2="744.3"/>
	<line class="st1" x1="799" y1="54.6" x2="799" y2="794.4"/>
	<line class="st1" x1="848.8" y1="54.6" x2="848.8" y2="844.3"/>
	<line class="st1" x1="898.9" y1="54.6" x2="898.9" y2="894.3"/>
	<line class="st1" x1="950" y1="52.6" x2="950" y2="945.5"/>
	<line class="st1" x1="998.6" y1="54.6" x2="998.6" y2="994.1"/>
	<line class="st1" x1="1049.6" y1="51.6" x2="1049.6" y2="1045.1"/>
	<line class="st1" x1="1099.6" y1="52.6" x2="1099.6" y2="1095"/>
</g>
<g id="Layer_2_copy" class="st0">
	<line class="st1" x1="48" y1="1153.6" x2="1148.9" y2="1153.6"/>
	<line class="st1" x1="107.9" y1="1103.6" x2="1148.9" y2="1103.6"/>
	<line class="st1" x1="158.4" y1="1053.6" x2="1149.9" y2="1053.6"/>
	<line class="st1" x1="207.9" y1="1003.6" x2="1146.9" y2="1003.6"/>
	<line class="st1" x1="259.4" y1="953.6" x2="1148.9" y2="953.6"/>
	<line class="st1" x1="308.9" y1="903.6" x2="1148.9" y2="903.6"/>
	<line class="st1" x1="358.9" y1="853.6" x2="1148.9" y2="853.6"/>
	<line class="st1" x1="408.7" y1="803.7" x2="1149.9" y2="803.7"/>
	<line class="st1" x1="459.2" y1="753.3" x2="1148.9" y2="753.3"/>
	<line class="st1" x1="508.6" y1="703.9" x2="1149.9" y2="703.9"/>
	<line class="st1" x1="1146.9" y1="653.8" x2="558.7" y2="653.8"/>
	<line class="st1" x1="1146.9" y1="604.1" x2="608.3" y2="604.1"/>
	<line class="st1" x1="1146.9" y1="554.1" x2="658.4" y2="554.1"/>
	<line class="st1" x1="1146.9" y1="503.6" x2="708.9" y2="503.6"/>
	<line class="st1" x1="1146.9" y1="454.1" x2="758.4" y2="454.1"/>
	<line class="st1" x1="1146.9" y1="403.8" x2="808.6" y2="403.8"/>
	<line class="st1" x1="1146.9" y1="353.5" x2="858.9" y2="353.5"/>
	<line class="st1" x1="1146.9" y1="303.7" x2="909.3" y2="303.7"/>
	<line class="st1" x1="1146.9" y1="253.3" x2="959.7" y2="253.3"/>
	<line class="st1" x1="1146.9" y1="203.8" x2="1009.2" y2="203.8"/>
	<line class="st1" x1="1146.9" y1="153" x2="1060.1" y2="153"/>
	<line class="st1" x1="1146.9" y1="103.3" x2="1109.8" y2="103.3"/>
	<line class="st1" x1="48" y1="53.6" x2="1148.9" y2="53.6"/>
	<line class="st1" x1="48.5" y1="1103.6" x2="87.7" y2="1103.6"/>
	<line class="st1" x1="47.5" y1="1053.6" x2="137.9" y2="1053.6"/>
	<line class="st1" x1="46.5" y1="1003.6" x2="188.4" y2="1003.6"/>
	<line class="st1" x1="46.5" y1="953.6" x2="237.9" y2="953.6"/>
	<line class="st1" x1="45.5" y1="903.6" x2="288.4" y2="903.6"/>
	<line class="st1" x1="48.5" y1="853.8" x2="338.2" y2="853.8"/>
	<line class="st1" x1="48.5" y1="803.8" x2="388.2" y2="803.8"/>
	<line class="st1" x1="48.5" y1="754" x2="438" y2="754"/>
	<line class="st1" x1="48.5" y1="703.8" x2="488.2" y2="703.8"/>
	<line class="st1" x1="45.5" y1="653.8" x2="538.2" y2="653.8"/>
	<line class="st1" x1="46.5" y1="603.8" x2="588.2" y2="603.8"/>
	<line class="st1" x1="48.5" y1="553.8" x2="638.2" y2="553.8"/>
	<line class="st1" x1="48.5" y1="503.8" x2="688.2" y2="503.8"/>
	<line class="st1" x1="46.5" y1="453.8" x2="738.2" y2="453.8"/>
	<line class="st1" x1="48.5" y1="403.7" x2="788.3" y2="403.7"/>
	<line class="st1" x1="48.5" y1="353.8" x2="838.2" y2="353.8"/>
	<line class="st1" x1="48.5" y1="303.8" x2="888.2" y2="303.8"/>
	<line class="st1" x1="46.5" y1="252.6" x2="939.4" y2="252.6"/>
	<line class="st1" x1="48.5" y1="204" x2="987.9" y2="204"/>
	<line class="st1" x1="45.5" y1="153" x2="1039" y2="153"/>
	<line class="st1" x1="46.5" y1="103" x2="1088.9" y2="103"/>
</g>
<g id="Creatives1" class="st0">
	<polyline class="st2" points="1125.2,896.3 1125,896.3 76.8,896.8 	"/>
	<line class="st2" x1="486.5" y1="546.4" x2="566" y2="546.4"/>
	<line class="st2" x1="434.3" y1="596.3" x2="513.8" y2="596.3"/>
	<line class="st2" x1="536.9" y1="495.9" x2="616" y2="495.9"/>
	<line class="st2" x1="586.3" y1="446.6" x2="666.1" y2="446.6"/>
	<line class="st2" x1="536.9" y1="596.4" x2="616" y2="596.4"/>
	<line class="st2" x1="1123" y1="447.1" x2="685.3" y2="447.1"/>
	<line class="st2" x1="636.1" y1="496.4" x2="716.5" y2="496.4"/>
	<polyline class="st2" points="737.3,496.4 1125.1,496.4 1125.2,496.4 	"/>
	<line class="st2" x1="685.3" y1="545.6" x2="765.8" y2="545.6"/>
	<line class="st2" x1="1125.9" y1="545.6" x2="787.3" y2="545.6"/>
	<line class="st2" x1="737.1" y1="597.4" x2="815" y2="597.4"/>
	<line class="st2" x1="1124.5" y1="597.3" x2="837.6" y2="597.3"/>
	<line class="st2" x1="785.2" y1="645.5" x2="866.3" y2="645.5"/>
	<line class="st2" x1="1125" y1="645.5" x2="886.3" y2="645.5"/>
	<line class="st2" x1="836.1" y1="696.4" x2="916.9" y2="696.4"/>
	<line class="st2" x1="1125.5" y1="696.3" x2="937.6" y2="696.3"/>
	<line class="st2" x1="885.1" y1="745.4" x2="967" y2="745.4"/>
	<line class="st2" x1="1125" y1="745.4" x2="986.2" y2="745.4"/>
	<line class="st2" x1="935.9" y1="796.3" x2="1014.8" y2="796.3"/>
	<polyline class="st2" points="1036.9,796.2 1124.9,796.2 1125.1,796.2 	"/>
	<line class="st2" x1="985" y1="845.3" x2="1065.6" y2="845.3"/>
	<line class="st2" x1="1125" y1="845.3" x2="1086.1" y2="845.3"/>
	<line class="st2" x1="384.4" y1="646.2" x2="463.9" y2="646.2"/>
	<line class="st2" x1="334.3" y1="696.4" x2="413.7" y2="696.4"/>
	<line class="st2" x1="284.7" y1="745.9" x2="364.2" y2="745.9"/>
	<line class="st2" x1="233.9" y1="796.7" x2="313.4" y2="796.7"/>
	<line class="st2" x1="184" y1="846.6" x2="263.5" y2="846.6"/>
	<polyline class="st2" points="636.4,396.5 1122.3,396.5 1123,396.5 	"/>
	<line class="st2" x1="587" y1="546" x2="666.1" y2="546"/>
	<line class="st2" x1="486.5" y1="646" x2="566" y2="646"/>
	<line class="st2" x1="587" y1="645.7" x2="666.1" y2="645.7"/>
	<line class="st2" x1="636.9" y1="595.9" x2="715.9" y2="595.9"/>
	<line class="st2" x1="686.9" y1="645.9" x2="765.9" y2="645.9"/>
	<line class="st2" x1="434.9" y1="696.6" x2="514.3" y2="696.6"/>
	<line class="st2" x1="536.9" y1="696.5" x2="616.4" y2="696.5"/>
	<line class="st2" x1="637.5" y1="696.1" x2="716.5" y2="696.1"/>
	<line class="st2" x1="737.3" y1="696.3" x2="816.3" y2="696.3"/>
	<line class="st2" x1="384.2" y1="746.3" x2="463.7" y2="746.3"/>
	<line class="st2" x1="484.8" y1="746.6" x2="564.3" y2="746.6"/>
	<line class="st2" x1="586.9" y1="746.4" x2="666.3" y2="746.4"/>
	<line class="st2" x1="687.4" y1="746.1" x2="766.4" y2="746.1"/>
	<line class="st2" x1="787.3" y1="746.2" x2="866.3" y2="746.2"/>
	<line class="st2" x1="335.3" y1="796.5" x2="414.7" y2="796.5"/>
	<line class="st2" x1="434.8" y1="796.9" x2="514.3" y2="796.9"/>
	<line class="st2" x1="535.4" y1="797.2" x2="614.9" y2="797.2"/>
	<line class="st2" x1="637.4" y1="797" x2="716.9" y2="797"/>
	<line class="st2" x1="738" y1="796.6" x2="817" y2="796.6"/>
	<line class="st2" x1="837.9" y1="796.8" x2="916.9" y2="796.8"/>
	<line class="st2" x1="284" y1="846.8" x2="363.5" y2="846.8"/>
	<line class="st2" x1="385.4" y1="846.6" x2="464.8" y2="846.6"/>
	<line class="st2" x1="484.9" y1="847" x2="564.4" y2="847"/>
	<line class="st2" x1="585.5" y1="847.3" x2="665" y2="847.3"/>
	<line class="st2" x1="687.6" y1="847.1" x2="767" y2="847.1"/>
	<line class="st2" x1="788.1" y1="846.7" x2="867.1" y2="846.7"/>
	<line class="st2" x1="888" y1="846.9" x2="967" y2="846.9"/>
	<polyline class="st2" points="77.8,346.8 126.5,346.8 176.3,346.8 227.2,346.8 275.6,346.8 326.6,346.8 376.5,346.8 426.2,346.8 
		476.2,346.8 526.1,346.8 575.9,346.8 675.6,346.8 725.5,346.8 774.8,346.8 824.2,346.8 825.1,346.8 844,346.8 874.8,346.8 
		924.6,346.8 974.7,346.8 1023.9,346.8 1073.7,346.8 1123.1,346.8 1125.2,346.8 1125.9,346.8 	"/>
	<line class="st2" x1="76.8" y1="846.2" x2="165.5" y2="846.2"/>
	<line class="st2" x1="76.8" y1="796.2" x2="215.6" y2="796.2"/>
	<line class="st2" x1="76.8" y1="746.2" x2="266.1" y2="746.2"/>
	<line class="st2" x1="77.1" y1="696.5" x2="315.6" y2="696.3"/>
	<line class="st2" x1="77.8" y1="646.2" x2="366.1" y2="646.2"/>
	<line class="st2" x1="77.1" y1="596.7" x2="416" y2="596.4"/>
	<line class="st2" x1="77.8" y1="546.4" x2="466" y2="546.4"/>
	<line class="st2" x1="77" y1="497.9" x2="515.8" y2="496.6"/>
	<line class="st2" x1="76.8" y1="446.4" x2="566" y2="446.4"/>
	<line class="st2" x1="77.8" y1="397.2" x2="616" y2="396.4"/>
</g>
<g id="Creatives2" class="st0">
	<polyline class="st2" points="1125.2,706.9 1125.2,715.1 1125.2,723.3 1125.2,731.4 1125.2,739.5 1125.2,748 1125.2,755.9 
		1125.2,764.3 1125.2,772.3 1125.2,780.7 1125.2,787.4 	"/>
	<polyline class="st2" points="1074.8,656.5 1074.8,664.6 1074.8,672.9 1074.8,681 1074.8,689.1 1074.8,697.6 1074.8,705.5 
		1074.8,713.9 1074.8,721.9 1074.8,730.2 1074.8,737 	"/>
	<polyline class="st2" points="1125,603.5 1125,614.2 1125,624.9 1125,631.5 1125,635.4 1125,646.5 1125,656.8 1125,667.8 
		1125,678.3 1125,687.2 	"/>
	<polyline class="st2" points="1075.1,553.6 1075.1,564.4 1075.1,575 1075.1,581.7 1075.1,585.6 1075.1,596.7 1075.1,607 
		1075.1,617.9 1075.1,628.4 1075.1,637.4 	"/>
	<polyline class="st2" points="1125.6,504.3 1125.6,515 1125.6,525.7 1125.6,532.3 1125.6,536.2 1125.6,547.3 1125.6,557.6 
		1125.6,568.6 1125.6,579.1 1125.6,588 	"/>
	<polyline class="st2" points="1124.7,346.8 1124.7,347.7 1124.7,389.2 	"/>
	<polyline class="st2" points="1125.4,405.3 1125.4,416 1125.4,426.7 1125.4,433.3 1125.4,437.2 1125.4,448.3 1125.4,458.7 
		1125.4,469.6 1125.4,480.1 1125.4,489 	"/>
	<polyline class="st2" points="1074.7,346.8 1074.7,395.8 1074.7,437.4 	"/>
	<polyline class="st2" points="1075.1,453.8 1075.1,464.5 1075.1,475.2 1075.1,481.8 1075.1,485.8 1075.1,496.8 1075.1,507.2 
		1075.1,518.1 1075.1,528.6 1075.1,537.5 	"/>
	<line class="st2" x1="1025.4" y1="388" x2="1025.4" y2="346.8"/>
	<polyline class="st2" points="1025.7,404.4 1025.7,415.1 1025.7,425.8 1025.7,432.5 1025.7,436.4 1025.7,447.5 1025.7,457.8 
		1025.7,468.7 1025.7,479.2 1025.7,488.1 	"/>
	<polyline class="st2" points="1025.2,503.7 1025.2,514.4 1025.2,525.1 1025.2,531.7 1025.2,535.6 1025.2,546.7 1025.2,557 
		1025.2,568 1025.2,578.5 1025.2,587.4 	"/>
	<polyline class="st2" points="975.1,453.6 975.1,464.4 975.1,475 975.1,481.7 975.1,485.6 975.1,496.7 975.1,507 975.1,517.9 
		975.1,528.4 975.1,537.4 	"/>
	<polyline class="st2" points="975.1,346.8 975.1,395.4 975.1,436.9 	"/>
	<polyline class="st2" points="925.2,403.7 925.2,414.4 925.2,425.1 925.2,431.7 925.2,435.6 925.2,446.7 925.2,457 925.2,468 
		925.2,478.5 925.2,487.4 	"/>
	<line class="st2" x1="925.2" y1="387" x2="925.2" y2="346.8"/>
	<polyline class="st2" points="1024.8,606.5 1024.8,614.6 1024.8,622.9 1024.8,631 1024.8,639.1 1024.8,647.6 1024.8,655.5 
		1024.8,663.9 1024.8,671.9 1024.8,680.2 1024.8,687 	"/>
	<polyline class="st2" points="975.1,556.8 975.1,565 975.1,573.2 975.1,581.4 975.1,589.4 975.1,597.9 975.1,605.8 975.1,614.2 
		975.1,622.2 975.1,630.6 975.1,637.3 	"/>
	<polyline class="st2" points="924.7,506.4 924.7,514.6 924.7,522.8 924.7,531 924.7,539 924.7,547.5 924.7,555.4 924.7,563.8 
		924.7,571.8 924.7,580.2 924.7,586.9 	"/>
	<polyline class="st2" points="874.7,456.4 874.7,464.6 874.7,472.8 874.7,481 874.7,489 874.7,497.5 874.7,505.4 874.7,513.8 
		874.7,521.8 874.7,530.2 874.7,536.9 	"/>
	<polyline class="st2" points="874.5,346.8 874.5,395.1 874.5,436.7 	"/>
	<polyline class="st2" points="824.9,346.8 824.9,396.5 824.9,446.5 824.9,486.1 	"/>
	<polyline class="st2" points="775.5,346.8 775.5,396.5 775.5,436.7 	"/>
	<line class="st2" x1="725.4" y1="346.8" x2="725.4" y2="386.6"/>
	<line class="st2" x1="1125.2" y1="897.8" x2="1125.2" y2="807.4"/>
	<line class="st2" x1="1075.2" y1="898.8" x2="1075.2" y2="756.9"/>
	<line class="st2" x1="1025.2" y1="898.8" x2="1025.2" y2="707.4"/>
	<line class="st2" x1="975.2" y1="899.8" x2="975.2" y2="656.9"/>
	<line class="st2" x1="925.4" y1="896.8" x2="925.4" y2="607.1"/>
	<line class="st2" x1="875.4" y1="896.8" x2="875.4" y2="557.1"/>
	<line class="st2" x1="825.6" y1="896.8" x2="825.6" y2="507.3"/>
	<line class="st2" x1="775.4" y1="896.8" x2="775.4" y2="457.1"/>
	<line class="st2" x1="725.4" y1="899.8" x2="725.4" y2="407.1"/>
	<line class="st2" x1="675.4" y1="898.8" x2="675.4" y2="357.1"/>
	<polyline class="st2" points="76.8,837.4 76.8,830.6 76.8,822.3 76.8,814.3 76.8,805.9 76.8,798 76.8,789.5 76.8,781.4 76.8,773.3 
		76.8,765 76.8,756.9 	"/>
	<polyline class="st2" points="77.1,737.2 77.1,728.3 77.1,717.7 77.1,706.8 77.1,696.5 77.1,685.4 77.1,681.5 77.1,674.8 
		77.1,664.2 77.1,653.4 	"/>
	<polyline class="st2" points="126.8,787.4 126.8,780.7 126.8,772.3 126.8,764.3 126.8,755.9 126.8,748 126.8,739.5 126.8,731.4 
		126.8,723.3 126.8,715.1 126.8,706.9 	"/>
	<polyline class="st2" points="177.2,737 177.2,730.2 177.2,721.9 177.2,713.9 177.2,705.5 177.2,697.6 177.2,689.1 177.2,681 
		177.2,672.9 177.2,664.6 177.2,656.5 	"/>
	<polyline class="st2" points="127,687.2 127,678.3 127,667.8 127,656.8 127,646.5 127,635.4 127,631.5 127,624.9 127,614.2 
		127,603.5 	"/>
	<polyline class="st2" points="176.9,637.4 176.9,628.4 176.9,617.9 176.9,607 176.9,596.7 176.9,585.6 176.9,581.7 176.9,575 
		176.9,564.4 176.9,553.6 	"/>
	<polyline class="st2" points="77.1,637.4 77.1,628.4 77.1,617.9 77.1,607 77.1,596.7 77.1,585.6 77.1,581.7 77.1,575 77.1,564.4 
		77.1,553.6 	"/>
	<polyline class="st2" points="77.8,438.8 77.8,397.2 77.8,348.2 77.8,346.8 	"/>
	<polyline class="st2" points="126.4,588 126.4,579.1 126.4,568.6 126.4,557.6 126.4,547.3 126.4,536.2 126.4,532.3 126.4,525.7 
		126.4,515 126.4,504.3 	"/>
	<polyline class="st2" points="77,538.6 77,529.7 77,519.1 77,508.2 77,497.9 77,486.8 77,482.9 77,476.3 77,465.6 77,454.9 	"/>
	<polyline class="st2" points="127.3,389.2 127.3,347.7 127.3,346.8 	"/>
	<polyline class="st2" points="126.6,489 126.6,480.1 126.6,469.6 126.6,458.7 126.6,448.3 126.6,437.2 126.6,433.3 126.6,426.7 
		126.6,416 126.6,405.3 	"/>
	<polyline class="st2" points="177.3,437.4 177.3,395.8 177.3,346.8 	"/>
	<polyline class="st2" points="176.9,537.5 176.9,528.6 176.9,518.1 176.9,507.2 176.9,496.8 176.9,485.8 176.9,481.8 176.9,475.2 
		176.9,464.5 176.9,453.8 	"/>
	<line class="st2" x1="226.7" y1="346.8" x2="226.7" y2="388"/>
	<polyline class="st2" points="226.3,488.1 226.3,479.2 226.3,468.7 226.3,457.8 226.3,447.5 226.3,436.4 226.3,432.5 226.3,425.8 
		226.3,415.1 226.3,404.4 	"/>
	<polyline class="st2" points="226.8,587.4 226.8,578.5 226.8,568 226.8,557 226.8,546.7 226.8,535.6 226.8,531.7 226.8,525.1 
		226.8,514.4 226.8,503.7 	"/>
	<polyline class="st2" points="276.9,537.4 276.9,528.4 276.9,517.9 276.9,507 276.9,496.7 276.9,485.6 276.9,481.7 276.9,475 
		276.9,464.4 276.9,453.6 	"/>
	<polyline class="st2" points="276.9,436.9 276.9,395.4 276.9,346.8 	"/>
	<polyline class="st2" points="326.8,487.4 326.8,478.5 326.8,468 326.8,457 326.8,446.7 326.8,435.6 326.8,431.7 326.8,425.1 
		326.8,414.4 326.8,403.7 	"/>
	<line class="st2" x1="326.8" y1="346.8" x2="326.8" y2="387"/>
	<polyline class="st2" points="227.2,687 227.2,680.2 227.2,671.9 227.2,663.9 227.2,655.5 227.2,647.6 227.2,639.1 227.2,631 
		227.2,622.9 227.2,614.6 227.2,606.5 	"/>
	<polyline class="st2" points="276.9,637.3 276.9,630.6 276.9,622.2 276.9,614.2 276.9,605.8 276.9,597.9 276.9,589.4 276.9,581.4 
		276.9,573.2 276.9,565 276.9,556.8 	"/>
	<polyline class="st2" points="327.3,586.9 327.3,580.2 327.3,571.8 327.3,563.8 327.3,555.4 327.3,547.5 327.3,539 327.3,531 
		327.3,522.8 327.3,514.6 327.3,506.4 	"/>
	<polyline class="st2" points="377.3,536.9 377.3,530.2 377.3,521.8 377.3,513.8 377.3,505.4 377.3,497.5 377.3,489 377.3,481 
		377.3,472.8 377.3,464.6 377.3,456.4 	"/>
	<polyline class="st2" points="377.5,436.7 377.5,395.1 377.5,346.8 	"/>
	<polyline class="st2" points="427.1,486.1 427.1,446.5 427.1,396.5 427.1,346.8 	"/>
	<polyline class="st2" points="476.5,436.7 476.5,396.5 476.5,346.8 	"/>
	<line class="st2" x1="526.6" y1="386.6" x2="526.6" y2="346.8"/>
	<line class="st2" x1="76.8" y1="896.8" x2="76.8" y2="857.5"/>
	<line class="st2" x1="126.8" y1="897.8" x2="126.8" y2="807.4"/>
	<line class="st2" x1="176.8" y1="898.8" x2="176.8" y2="756.9"/>
	<line class="st2" x1="226.8" y1="898.8" x2="226.8" y2="707.4"/>
	<line class="st2" x1="276.8" y1="899.8" x2="276.8" y2="656.9"/>
	<line class="st2" x1="326.7" y1="896.8" x2="326.7" y2="607.1"/>
	<line class="st2" x1="376.7" y1="896.8" x2="376.7" y2="557.1"/>
	<line class="st2" x1="426.5" y1="896.8" x2="426.5" y2="507.3"/>
	<line class="st2" x1="476.7" y1="896.8" x2="476.7" y2="457.1"/>
	<line class="st2" x1="526.7" y1="899.8" x2="526.7" y2="407.1"/>
	<line class="st2" x1="576.7" y1="898.8" x2="576.7" y2="357.1"/>
	<line class="st2" x1="625.4" y1="896.8" x2="625.4" y2="346.8"/>
</g>
<g id="Marketing1">
	<polyline class="st3" points="1083.7,941.2 1083.5,941.2 118.4,941.8 	"/>
	<line class="st3" x1="495.6" y1="533.7" x2="568.8" y2="533.7"/>
	<line class="st3" x1="447.5" y1="591.9" x2="520.7" y2="591.9"/>
	<line class="st3" x1="542" y1="474.9" x2="614.8" y2="474.9"/>
	<line class="st3" x1="587.5" y1="417.5" x2="661" y2="417.5"/>
	<line class="st3" x1="542" y1="592" x2="614.8" y2="592"/>
	<line class="st3" x1="1081.7" y1="418.1" x2="678.7" y2="418.1"/>
	<line class="st3" x1="633.3" y1="475.5" x2="707.4" y2="475.5"/>
	<polyline class="st3" points="726.5,475.5 1083.6,475.5 1083.7,475.5 	"/>
	<line class="st3" x1="678.7" y1="532.8" x2="752.8" y2="532.8"/>
	<line class="st3" x1="1084.3" y1="532.8" x2="772.6" y2="532.8"/>
	<line class="st3" x1="726.3" y1="593.1" x2="798.1" y2="593.1"/>
	<line class="st3" x1="1083.1" y1="593" x2="818.9" y2="593"/>
	<line class="st3" x1="770.6" y1="649.2" x2="845.3" y2="649.2"/>
	<line class="st3" x1="1083.5" y1="649.2" x2="863.7" y2="649.2"/>
	<line class="st3" x1="817.5" y1="708.4" x2="891.9" y2="708.4"/>
	<line class="st3" x1="1084" y1="708.3" x2="911" y2="708.3"/>
	<line class="st3" x1="862.6" y1="765.5" x2="938" y2="765.5"/>
	<line class="st3" x1="1083.5" y1="765.5" x2="955.7" y2="765.5"/>
	<line class="st3" x1="909.4" y1="824.8" x2="982.1" y2="824.8"/>
	<polyline class="st3" points="1002.4,824.7 1083.4,824.7 1083.6,824.7 	"/>
	<line class="st3" x1="954.6" y1="881.8" x2="1028.8" y2="881.8"/>
	<line class="st3" x1="1083.5" y1="881.8" x2="1047.7" y2="881.8"/>
	<line class="st3" x1="401.6" y1="650" x2="474.8" y2="650"/>
	<line class="st3" x1="355.5" y1="708.4" x2="428.6" y2="708.4"/>
	<line class="st3" x1="309.8" y1="766.1" x2="383" y2="766.1"/>
	<line class="st3" x1="263" y1="825.2" x2="336.2" y2="825.2"/>
	<line class="st3" x1="217.1" y1="883.3" x2="290.3" y2="883.3"/>
	<polyline class="st3" points="633.6,359.2 1081,359.2 1081.7,359.2 	"/>
	<line class="st3" x1="588.1" y1="533.3" x2="661" y2="533.3"/>
	<line class="st3" x1="495.6" y1="649.7" x2="568.8" y2="649.7"/>
	<line class="st3" x1="588.1" y1="649.4" x2="661" y2="649.4"/>
	<line class="st3" x1="634.1" y1="591.4" x2="706.8" y2="591.4"/>
	<line class="st3" x1="680.1" y1="649.6" x2="752.9" y2="649.6"/>
	<line class="st3" x1="448.1" y1="708.7" x2="521.2" y2="708.7"/>
	<line class="st3" x1="542" y1="708.5" x2="615.2" y2="708.5"/>
	<line class="st3" x1="634.6" y1="708.1" x2="707.4" y2="708.1"/>
	<line class="st3" x1="726.5" y1="708.3" x2="799.3" y2="708.3"/>
	<line class="st3" x1="401.4" y1="766.5" x2="474.6" y2="766.5"/>
	<line class="st3" x1="494" y1="766.9" x2="567.2" y2="766.9"/>
	<line class="st3" x1="588" y1="766.7" x2="661.2" y2="766.7"/>
	<line class="st3" x1="680.6" y1="766.3" x2="753.3" y2="766.3"/>
	<line class="st3" x1="772.6" y1="766.4" x2="845.3" y2="766.4"/>
	<line class="st3" x1="356.4" y1="825" x2="429.5" y2="825"/>
	<line class="st3" x1="448" y1="825.5" x2="521.2" y2="825.5"/>
	<line class="st3" x1="540.6" y1="825.8" x2="613.8" y2="825.8"/>
	<line class="st3" x1="634.5" y1="825.6" x2="707.7" y2="825.6"/>
	<line class="st3" x1="727.2" y1="825.1" x2="799.9" y2="825.1"/>
	<line class="st3" x1="819.2" y1="825.4" x2="891.9" y2="825.4"/>
	<line class="st3" x1="309.1" y1="883.6" x2="382.3" y2="883.6"/>
	<line class="st3" x1="402.5" y1="883.3" x2="475.6" y2="883.3"/>
	<line class="st3" x1="494.1" y1="883.8" x2="567.3" y2="883.8"/>
	<line class="st3" x1="586.8" y1="884.2" x2="660" y2="884.2"/>
	<line class="st3" x1="680.8" y1="883.9" x2="753.9" y2="883.9"/>
	<line class="st3" x1="773.3" y1="883.5" x2="846" y2="883.5"/>
	<line class="st3" x1="865.3" y1="883.7" x2="938" y2="883.7"/>
	<polyline class="st3" points="119.3,301.3 164.1,301.3 210,301.3 256.8,301.3 301.4,301.3 348.4,301.3 394.3,301.3 440.1,301.3 
		486.1,301.3 532.1,301.3 577.9,301.3 669.7,301.3 715.7,301.3 761.1,301.3 806.5,301.3 807.4,301.3 824.8,301.3 853.1,301.3 
		899,301.3 945.1,301.3 990.4,301.3 1036.3,301.3 1081.8,301.3 1083.7,301.3 1084.3,301.3 	"/>
	<line class="st3" x1="118.4" y1="882.9" x2="200" y2="882.9"/>
	<line class="st3" x1="118.4" y1="824.7" x2="246.2" y2="824.7"/>
	<line class="st3" x1="118.4" y1="766.4" x2="292.7" y2="766.4"/>
	<line class="st3" x1="118.6" y1="708.5" x2="338.2" y2="708.3"/>
	<line class="st3" x1="119.3" y1="650" x2="384.7" y2="650"/>
	<line class="st3" x1="118.6" y1="592.3" x2="430.7" y2="592"/>
	<line class="st3" x1="119.3" y1="533.7" x2="476.7" y2="533.7"/>
	<line class="st3" x1="118.5" y1="477.3" x2="522.6" y2="475.8"/>
	<line class="st3" x1="118.4" y1="417.3" x2="568.8" y2="417.3"/>
	<line class="st3" x1="119.3" y1="360" x2="614.8" y2="359.1"/>
</g>
<g id="Marketing2">
	<polyline class="st3" points="1083.7,720.7 1083.7,730.2 1083.7,739.8 1083.7,749.2 1083.7,758.6 1083.7,768.5 1083.7,777.7 
		1083.7,787.5 1083.7,796.8 1083.7,806.6 1083.7,814.4 	"/>
	<polyline class="st3" points="1037.3,662 1037.3,671.4 1037.3,681.1 1037.3,690.5 1037.3,699.9 1037.3,709.8 1037.3,719 
		1037.3,728.8 1037.3,738.1 1037.3,747.8 1037.3,755.7 	"/>
	<polyline class="st3" points="1083.5,600.2 1083.5,612.7 1083.5,625.2 1083.5,632.8 1083.5,637.4 1083.5,650.3 1083.5,662.3 
		1083.5,675.1 1083.5,687.4 1083.5,697.7 	"/>
	<polyline class="st3" points="1037.6,542.1 1037.6,554.7 1037.6,567.1 1037.6,574.9 1037.6,579.4 1037.6,592.3 1037.6,604.3 
		1037.6,617 1037.6,629.2 1037.6,639.7 	"/>
	<polyline class="st3" points="1084.1,484.7 1084.1,497.2 1084.1,509.6 1084.1,517.3 1084.1,521.9 1084.1,534.8 1084.1,546.8 
		1084.1,559.6 1084.1,571.8 1084.1,582.2 	"/>
	<polyline class="st3" points="1083.2,301.3 1083.2,302.3 1083.2,350.7 	"/>
	<polyline class="st3" points="1083.9,369.4 1083.9,381.9 1083.9,394.3 1083.9,402 1083.9,406.6 1083.9,419.5 1083.9,431.6 
		1083.9,444.3 1083.9,456.5 1083.9,466.9 	"/>
	<polyline class="st3" points="1037.2,301.3 1037.2,358.4 1037.2,406.8 	"/>
	<polyline class="st3" points="1037.6,425.9 1037.6,438.4 1037.6,450.8 1037.6,458.5 1037.6,463.2 1037.6,476 1037.6,488.1 
		1037.6,500.8 1037.6,513 1037.6,523.4 	"/>
	<line class="st3" x1="991.8" y1="349.3" x2="991.8" y2="301.3"/>
	<polyline class="st3" points="992.1,368.4 992.1,380.8 992.1,393.3 992.1,401.1 992.1,405.6 992.1,418.6 992.1,430.6 992.1,443.3 
		992.1,455.5 992.1,465.9 	"/>
	<polyline class="st3" points="991.6,484 991.6,496.5 991.6,508.9 991.6,516.6 991.6,521.2 991.6,534.1 991.6,546.1 991.6,558.9 
		991.6,571.1 991.6,581.5 	"/>
	<polyline class="st3" points="945.5,425.7 945.5,438.3 945.5,450.6 945.5,458.4 945.5,462.9 945.5,475.9 945.5,487.9 945.5,500.6 
		945.5,512.8 945.5,523.3 	"/>
	<polyline class="st3" points="945.5,301.3 945.5,357.9 945.5,406.2 	"/>
	<polyline class="st3" points="899.5,367.6 899.5,380 899.5,392.5 899.5,400.2 899.5,404.7 899.5,417.6 899.5,429.6 899.5,442.4 
		899.5,454.7 899.5,465 	"/>
	<line class="st3" x1="899.5" y1="348.1" x2="899.5" y2="301.3"/>
	<polyline class="st3" points="991.3,603.7 991.3,613.2 991.3,622.8 991.3,632.3 991.3,641.7 991.3,651.6 991.3,660.8 991.3,670.6 
		991.3,679.9 991.3,689.6 991.3,697.5 	"/>
	<polyline class="st3" points="945.5,545.9 945.5,555.4 945.5,565 945.5,574.5 945.5,583.8 945.5,593.7 945.5,602.9 945.5,612.7 
		945.5,622 945.5,631.8 945.5,639.6 	"/>
	<polyline class="st3" points="899.1,487.2 899.1,496.7 899.1,506.3 899.1,515.8 899.1,525.1 899.1,535 899.1,544.2 899.1,554 
		899.1,563.3 899.1,573.1 899.1,580.9 	"/>
	<polyline class="st3" points="853,428.9 853,438.5 853,448 853,457.6 853,466.9 853,476.8 853,486 853,495.8 853,505.1 853,514.9 
		853,522.7 	"/>
	<polyline class="st3" points="852.9,301.3 852.9,357.5 852.9,406 	"/>
	<polyline class="st3" points="807.2,301.3 807.2,359.2 807.2,417.4 807.2,463.5 	"/>
	<polyline class="st3" points="761.7,301.3 761.7,359.2 761.7,406 	"/>
	<line class="st3" x1="715.6" y1="301.3" x2="715.6" y2="347.6"/>
	<line class="st3" x1="1083.7" y1="943" x2="1083.7" y2="837.7"/>
	<line class="st3" x1="1037.7" y1="944.1" x2="1037.7" y2="778.9"/>
	<line class="st3" x1="991.6" y1="944.1" x2="991.6" y2="721.2"/>
	<line class="st3" x1="945.6" y1="945.3" x2="945.6" y2="662.4"/>
	<line class="st3" x1="899.7" y1="941.8" x2="899.7" y2="604.4"/>
	<line class="st3" x1="853.7" y1="941.8" x2="853.7" y2="546.2"/>
	<line class="st3" x1="807.8" y1="941.8" x2="807.8" y2="488.2"/>
	<line class="st3" x1="761.6" y1="941.8" x2="761.6" y2="429.8"/>
	<line class="st3" x1="715.6" y1="945.3" x2="715.6" y2="371.5"/>
	<line class="st3" x1="669.5" y1="944.1" x2="669.5" y2="313.3"/>
	<polyline class="st3" points="118.4,872.6 118.4,864.7 118.4,855 118.4,845.7 118.4,835.9 118.4,826.7 118.4,816.8 118.4,807.4 
		118.4,798 118.4,788.3 118.4,778.9 	"/>
	<polyline class="st3" points="118.6,755.9 118.6,745.6 118.6,733.2 118.6,720.5 118.6,708.5 118.6,695.6 118.6,691.1 118.6,683.3 
		118.6,670.9 118.6,658.4 	"/>
	<polyline class="st3" points="164.4,814.4 164.4,806.6 164.4,796.8 164.4,787.5 164.4,777.7 164.4,768.5 164.4,758.6 164.4,749.2 
		164.4,739.8 164.4,730.2 164.4,720.7 	"/>
	<polyline class="st3" points="210.8,755.7 210.8,747.8 210.8,738.1 210.8,728.8 210.8,719 210.8,709.8 210.8,699.9 210.8,690.5 
		210.8,681.1 210.8,671.4 210.8,662 	"/>
	<polyline class="st3" points="164.6,697.7 164.6,687.4 164.6,675.1 164.6,662.3 164.6,650.3 164.6,637.4 164.6,632.8 164.6,625.2 
		164.6,612.7 164.6,600.2 	"/>
	<polyline class="st3" points="210.5,639.7 210.5,629.2 210.5,617 210.5,604.3 210.5,592.3 210.5,579.4 210.5,574.9 210.5,567.1 
		210.5,554.7 210.5,542.1 	"/>
	<polyline class="st3" points="118.6,639.7 118.6,629.2 118.6,617 118.6,604.3 118.6,592.3 118.6,579.4 118.6,574.9 118.6,567.1 
		118.6,554.7 118.6,542.1 	"/>
	<polyline class="st3" points="119.3,408.4 119.3,360 119.3,302.9 119.3,301.3 	"/>
	<polyline class="st3" points="164,582.2 164,571.8 164,559.6 164,546.8 164,534.8 164,521.9 164,517.3 164,509.6 164,497.2 
		164,484.7 	"/>
	<polyline class="st3" points="118.5,524.7 118.5,514.3 118.5,502 118.5,489.3 118.5,477.3 118.5,464.3 118.5,459.8 118.5,452.1 
		118.5,439.6 118.5,427.2 	"/>
	<polyline class="st3" points="164.8,350.7 164.8,302.3 164.8,301.3 	"/>
	<polyline class="st3" points="164.2,466.9 164.2,456.5 164.2,444.3 164.2,431.6 164.2,419.5 164.2,406.6 164.2,402 164.2,394.3 
		164.2,381.9 164.2,369.4 	"/>
	<polyline class="st3" points="210.9,406.8 210.9,358.4 210.9,301.3 	"/>
	<polyline class="st3" points="210.5,523.4 210.5,513 210.5,500.8 210.5,488.1 210.5,476 210.5,463.2 210.5,458.5 210.5,450.8 
		210.5,438.4 210.5,425.9 	"/>
	<line class="st3" x1="256.4" y1="301.3" x2="256.4" y2="349.3"/>
	<polyline class="st3" points="256,465.9 256,455.5 256,443.3 256,430.6 256,418.6 256,405.6 256,401.1 256,393.3 256,380.8 
		256,368.4 	"/>
	<polyline class="st3" points="256.5,581.5 256.5,571.1 256.5,558.9 256.5,546.1 256.5,534.1 256.5,521.2 256.5,516.6 256.5,508.9 
		256.5,496.5 256.5,484 	"/>
	<polyline class="st3" points="302.6,523.3 302.6,512.8 302.6,500.6 302.6,487.9 302.6,475.9 302.6,462.9 302.6,458.4 302.6,450.6 
		302.6,438.3 302.6,425.7 	"/>
	<polyline class="st3" points="302.6,406.2 302.6,357.9 302.6,301.3 	"/>
	<polyline class="st3" points="348.5,465 348.5,454.7 348.5,442.4 348.5,429.6 348.5,417.6 348.5,404.7 348.5,400.2 348.5,392.5 
		348.5,380 348.5,367.6 	"/>
	<line class="st3" x1="348.5" y1="301.3" x2="348.5" y2="348.1"/>
	<polyline class="st3" points="256.8,697.5 256.8,689.6 256.8,679.9 256.8,670.6 256.8,660.8 256.8,651.6 256.8,641.7 256.8,632.3 
		256.8,622.8 256.8,613.2 256.8,603.7 	"/>
	<polyline class="st3" points="302.6,639.6 302.6,631.8 302.6,622 302.6,612.7 302.6,602.9 302.6,593.7 302.6,583.8 302.6,574.5 
		302.6,565 302.6,555.4 302.6,545.9 	"/>
	<polyline class="st3" points="349,580.9 349,573.1 349,563.3 349,554 349,544.2 349,535 349,525.1 349,515.8 349,506.3 349,496.7 
		349,487.2 	"/>
	<polyline class="st3" points="395,522.7 395,514.9 395,505.1 395,495.8 395,486 395,476.8 395,466.9 395,457.6 395,448 395,438.5 
		395,428.9 	"/>
	<polyline class="st3" points="395.2,406 395.2,357.5 395.2,301.3 	"/>
	<polyline class="st3" points="440.9,463.5 440.9,417.4 440.9,359.2 440.9,301.3 	"/>
	<polyline class="st3" points="486.4,406 486.4,359.2 486.4,301.3 	"/>
	<line class="st3" x1="532.5" y1="347.6" x2="532.5" y2="301.3"/>
	<line class="st3" x1="118.4" y1="941.8" x2="118.4" y2="896"/>
	<line class="st3" x1="164.4" y1="943" x2="164.4" y2="837.7"/>
	<line class="st3" x1="210.4" y1="944.1" x2="210.4" y2="778.9"/>
	<line class="st3" x1="256.5" y1="944.1" x2="256.5" y2="721.2"/>
	<line class="st3" x1="302.5" y1="945.3" x2="302.5" y2="662.4"/>
	<line class="st3" x1="348.5" y1="941.8" x2="348.5" y2="604.4"/>
	<line class="st3" x1="394.5" y1="941.8" x2="394.5" y2="546.2"/>
	<line class="st3" x1="440.4" y1="941.8" x2="440.4" y2="488.2"/>
	<line class="st3" x1="486.6" y1="941.8" x2="486.6" y2="429.8"/>
	<line class="st3" x1="532.6" y1="945.3" x2="532.6" y2="371.5"/>
	<line class="st3" x1="578.7" y1="944.1" x2="578.7" y2="313.3"/>
	<line class="st3" x1="623.5" y1="941.8" x2="623.5" y2="301.3"/>
</g>
<g id="Technical1" class="st0">
	<polyline class="st4" points="1125.2,896.3 1125,896.3 76.8,896.8 	"/>
	<line class="st4" x1="486.5" y1="546.4" x2="566" y2="546.4"/>
	<line class="st4" x1="434.3" y1="596.3" x2="513.8" y2="596.3"/>
	<line class="st4" x1="536.9" y1="495.9" x2="616" y2="495.9"/>
	<line class="st4" x1="586.3" y1="446.6" x2="666.1" y2="446.6"/>
	<line class="st4" x1="536.9" y1="596.4" x2="616" y2="596.4"/>
	<line class="st4" x1="1123" y1="447.1" x2="685.3" y2="447.1"/>
	<line class="st4" x1="636.1" y1="496.4" x2="716.5" y2="496.4"/>
	<polyline class="st4" points="737.3,496.4 1125.1,496.4 1125.2,496.4 	"/>
	<line class="st4" x1="685.3" y1="545.6" x2="765.8" y2="545.6"/>
	<line class="st4" x1="1125.9" y1="545.6" x2="787.3" y2="545.6"/>
	<line class="st4" x1="737.1" y1="597.4" x2="815" y2="597.4"/>
	<line class="st4" x1="1124.5" y1="597.3" x2="837.6" y2="597.3"/>
	<line class="st4" x1="785.2" y1="645.5" x2="866.3" y2="645.5"/>
	<line class="st4" x1="1125" y1="645.5" x2="886.3" y2="645.5"/>
	<line class="st4" x1="836.1" y1="696.4" x2="916.9" y2="696.4"/>
	<line class="st4" x1="1125.5" y1="696.3" x2="937.6" y2="696.3"/>
	<line class="st4" x1="885.1" y1="745.4" x2="967" y2="745.4"/>
	<line class="st4" x1="1125" y1="745.4" x2="986.2" y2="745.4"/>
	<line class="st4" x1="935.9" y1="796.3" x2="1014.8" y2="796.3"/>
	<polyline class="st4" points="1036.9,796.2 1124.9,796.2 1125.1,796.2 	"/>
	<line class="st4" x1="985" y1="845.3" x2="1065.6" y2="845.3"/>
	<line class="st4" x1="1125" y1="845.3" x2="1086.1" y2="845.3"/>
	<line class="st4" x1="384.4" y1="646.2" x2="463.9" y2="646.2"/>
	<line class="st4" x1="334.3" y1="696.4" x2="413.7" y2="696.4"/>
	<line class="st4" x1="284.7" y1="745.9" x2="364.2" y2="745.9"/>
	<line class="st4" x1="233.9" y1="796.7" x2="313.4" y2="796.7"/>
	<line class="st4" x1="184" y1="846.6" x2="263.5" y2="846.6"/>
	<polyline class="st4" points="636.4,396.5 1122.3,396.5 1123,396.5 	"/>
	<line class="st4" x1="587" y1="546" x2="666.1" y2="546"/>
	<line class="st4" x1="486.5" y1="646" x2="566" y2="646"/>
	<line class="st4" x1="587" y1="645.7" x2="666.1" y2="645.7"/>
	<line class="st4" x1="636.9" y1="595.9" x2="715.9" y2="595.9"/>
	<line class="st4" x1="686.9" y1="645.9" x2="765.9" y2="645.9"/>
	<line class="st4" x1="434.9" y1="696.6" x2="514.3" y2="696.6"/>
	<line class="st4" x1="536.9" y1="696.5" x2="616.4" y2="696.5"/>
	<line class="st4" x1="637.5" y1="696.1" x2="716.5" y2="696.1"/>
	<line class="st4" x1="737.3" y1="696.3" x2="816.3" y2="696.3"/>
	<line class="st4" x1="384.2" y1="746.3" x2="463.7" y2="746.3"/>
	<line class="st4" x1="484.8" y1="746.6" x2="564.3" y2="746.6"/>
	<line class="st4" x1="586.9" y1="746.4" x2="666.3" y2="746.4"/>
	<line class="st4" x1="687.4" y1="746.1" x2="766.4" y2="746.1"/>
	<line class="st4" x1="787.3" y1="746.2" x2="866.3" y2="746.2"/>
	<line class="st4" x1="335.3" y1="796.5" x2="414.7" y2="796.5"/>
	<line class="st4" x1="434.8" y1="796.9" x2="514.3" y2="796.9"/>
	<line class="st4" x1="535.4" y1="797.2" x2="614.9" y2="797.2"/>
	<line class="st4" x1="637.4" y1="797" x2="716.9" y2="797"/>
	<line class="st4" x1="738" y1="796.6" x2="817" y2="796.6"/>
	<line class="st4" x1="837.9" y1="796.8" x2="916.9" y2="796.8"/>
	<line class="st4" x1="284" y1="846.8" x2="363.5" y2="846.8"/>
	<line class="st4" x1="385.4" y1="846.6" x2="464.8" y2="846.6"/>
	<line class="st4" x1="484.9" y1="847" x2="564.4" y2="847"/>
	<line class="st4" x1="585.5" y1="847.3" x2="665" y2="847.3"/>
	<line class="st4" x1="687.6" y1="847.1" x2="767" y2="847.1"/>
	<line class="st4" x1="788.1" y1="846.7" x2="867.1" y2="846.7"/>
	<line class="st4" x1="888" y1="846.9" x2="967" y2="846.9"/>
	<polyline class="st4" points="77.8,346.8 126.5,346.8 176.3,346.8 227.2,346.8 275.6,346.8 326.6,346.8 376.5,346.8 426.2,346.8 
		476.2,346.8 526.1,346.8 575.9,346.8 675.6,346.8 725.5,346.8 774.8,346.8 824.2,346.8 825.1,346.8 844,346.8 874.8,346.8 
		924.6,346.8 974.7,346.8 1023.9,346.8 1073.7,346.8 1123.1,346.8 1125.2,346.8 1125.9,346.8 	"/>
	<line class="st4" x1="76.8" y1="846.2" x2="165.5" y2="846.2"/>
	<line class="st4" x1="76.8" y1="796.2" x2="215.6" y2="796.2"/>
	<line class="st4" x1="76.8" y1="746.2" x2="266.1" y2="746.2"/>
	<line class="st4" x1="77.1" y1="696.5" x2="315.6" y2="696.3"/>
	<line class="st4" x1="77.8" y1="646.2" x2="366.1" y2="646.2"/>
	<line class="st4" x1="77.1" y1="596.7" x2="416" y2="596.4"/>
	<line class="st4" x1="77.8" y1="546.4" x2="466" y2="546.4"/>
	<line class="st4" x1="77" y1="497.9" x2="515.8" y2="496.6"/>
	<line class="st4" x1="76.8" y1="446.4" x2="566" y2="446.4"/>
	<line class="st4" x1="77.8" y1="397.2" x2="616" y2="396.4"/>
</g>
<g id="Technical2" class="st0">
	<polyline class="st4" points="1125.2,706.9 1125.2,715.1 1125.2,723.3 1125.2,731.4 1125.2,739.5 1125.2,748 1125.2,755.9 
		1125.2,764.3 1125.2,772.3 1125.2,780.7 1125.2,787.4 	"/>
	<polyline class="st4" points="1074.8,656.5 1074.8,664.6 1074.8,672.9 1074.8,681 1074.8,689.1 1074.8,697.6 1074.8,705.5 
		1074.8,713.9 1074.8,721.9 1074.8,730.2 1074.8,737 	"/>
	<polyline class="st4" points="1125,603.5 1125,614.2 1125,624.9 1125,631.5 1125,635.4 1125,646.5 1125,656.8 1125,667.8 
		1125,678.3 1125,687.2 	"/>
	<polyline class="st4" points="1075.1,553.6 1075.1,564.4 1075.1,575 1075.1,581.7 1075.1,585.6 1075.1,596.7 1075.1,607 
		1075.1,617.9 1075.1,628.4 1075.1,637.4 	"/>
	<polyline class="st4" points="1125.6,504.3 1125.6,515 1125.6,525.7 1125.6,532.3 1125.6,536.2 1125.6,547.3 1125.6,557.6 
		1125.6,568.6 1125.6,579.1 1125.6,588 	"/>
	<polyline class="st4" points="1124.7,346.8 1124.7,347.7 1124.7,389.2 	"/>
	<polyline class="st4" points="1125.4,405.3 1125.4,416 1125.4,426.7 1125.4,433.3 1125.4,437.2 1125.4,448.3 1125.4,458.7 
		1125.4,469.6 1125.4,480.1 1125.4,489 	"/>
	<polyline class="st4" points="1074.7,346.8 1074.7,395.8 1074.7,437.4 	"/>
	<polyline class="st4" points="1075.1,453.8 1075.1,464.5 1075.1,475.2 1075.1,481.8 1075.1,485.8 1075.1,496.8 1075.1,507.2 
		1075.1,518.1 1075.1,528.6 1075.1,537.5 	"/>
	<line class="st4" x1="1025.4" y1="388" x2="1025.4" y2="346.8"/>
	<polyline class="st4" points="1025.7,404.4 1025.7,415.1 1025.7,425.8 1025.7,432.5 1025.7,436.4 1025.7,447.5 1025.7,457.8 
		1025.7,468.7 1025.7,479.2 1025.7,488.1 	"/>
	<polyline class="st4" points="1025.2,503.7 1025.2,514.4 1025.2,525.1 1025.2,531.7 1025.2,535.6 1025.2,546.7 1025.2,557 
		1025.2,568 1025.2,578.5 1025.2,587.4 	"/>
	<polyline class="st4" points="975.1,453.6 975.1,464.4 975.1,475 975.1,481.7 975.1,485.6 975.1,496.7 975.1,507 975.1,517.9 
		975.1,528.4 975.1,537.4 	"/>
	<polyline class="st4" points="975.1,346.8 975.1,395.4 975.1,436.9 	"/>
	<polyline class="st4" points="925.2,403.7 925.2,414.4 925.2,425.1 925.2,431.7 925.2,435.6 925.2,446.7 925.2,457 925.2,468 
		925.2,478.5 925.2,487.4 	"/>
	<line class="st4" x1="925.2" y1="387" x2="925.2" y2="346.8"/>
	<polyline class="st4" points="1024.8,606.5 1024.8,614.6 1024.8,622.9 1024.8,631 1024.8,639.1 1024.8,647.6 1024.8,655.5 
		1024.8,663.9 1024.8,671.9 1024.8,680.2 1024.8,687 	"/>
	<polyline class="st4" points="975.1,556.8 975.1,565 975.1,573.2 975.1,581.4 975.1,589.4 975.1,597.9 975.1,605.8 975.1,614.2 
		975.1,622.2 975.1,630.6 975.1,637.3 	"/>
	<polyline class="st4" points="924.7,506.4 924.7,514.6 924.7,522.8 924.7,531 924.7,539 924.7,547.5 924.7,555.4 924.7,563.8 
		924.7,571.8 924.7,580.2 924.7,586.9 	"/>
	<polyline class="st4" points="874.7,456.4 874.7,464.6 874.7,472.8 874.7,481 874.7,489 874.7,497.5 874.7,505.4 874.7,513.8 
		874.7,521.8 874.7,530.2 874.7,536.9 	"/>
	<polyline class="st4" points="874.5,346.8 874.5,395.1 874.5,436.7 	"/>
	<polyline class="st4" points="824.9,346.8 824.9,396.5 824.9,446.5 824.9,486.1 	"/>
	<polyline class="st4" points="775.5,346.8 775.5,396.5 775.5,436.7 	"/>
	<line class="st4" x1="725.4" y1="346.8" x2="725.4" y2="386.6"/>
	<line class="st4" x1="1125.2" y1="897.8" x2="1125.2" y2="807.4"/>
	<line class="st4" x1="1075.2" y1="898.8" x2="1075.2" y2="756.9"/>
	<line class="st4" x1="1025.2" y1="898.8" x2="1025.2" y2="707.4"/>
	<line class="st4" x1="975.2" y1="899.8" x2="975.2" y2="656.9"/>
	<line class="st4" x1="925.4" y1="896.8" x2="925.4" y2="607.1"/>
	<line class="st4" x1="875.4" y1="896.8" x2="875.4" y2="557.1"/>
	<line class="st4" x1="825.6" y1="896.8" x2="825.6" y2="507.3"/>
	<line class="st4" x1="775.4" y1="896.8" x2="775.4" y2="457.1"/>
	<line class="st4" x1="725.4" y1="899.8" x2="725.4" y2="407.1"/>
	<line class="st4" x1="675.4" y1="898.8" x2="675.4" y2="357.1"/>
	<polyline class="st4" points="76.8,837.4 76.8,830.6 76.8,822.3 76.8,814.3 76.8,805.9 76.8,798 76.8,789.5 76.8,781.4 76.8,773.3 
		76.8,765 76.8,756.9 	"/>
	<polyline class="st4" points="77.1,737.2 77.1,728.3 77.1,717.7 77.1,706.8 77.1,696.5 77.1,685.4 77.1,681.5 77.1,674.8 
		77.1,664.2 77.1,653.4 	"/>
	<polyline class="st4" points="126.8,787.4 126.8,780.7 126.8,772.3 126.8,764.3 126.8,755.9 126.8,748 126.8,739.5 126.8,731.4 
		126.8,723.3 126.8,715.1 126.8,706.9 	"/>
	<polyline class="st4" points="177.2,737 177.2,730.2 177.2,721.9 177.2,713.9 177.2,705.5 177.2,697.6 177.2,689.1 177.2,681 
		177.2,672.9 177.2,664.6 177.2,656.5 	"/>
	<polyline class="st4" points="127,687.2 127,678.3 127,667.8 127,656.8 127,646.5 127,635.4 127,631.5 127,624.9 127,614.2 
		127,603.5 	"/>
	<polyline class="st4" points="176.9,637.4 176.9,628.4 176.9,617.9 176.9,607 176.9,596.7 176.9,585.6 176.9,581.7 176.9,575 
		176.9,564.4 176.9,553.6 	"/>
	<polyline class="st4" points="77.1,637.4 77.1,628.4 77.1,617.9 77.1,607 77.1,596.7 77.1,585.6 77.1,581.7 77.1,575 77.1,564.4 
		77.1,553.6 	"/>
	<polyline class="st4" points="77.8,438.8 77.8,397.2 77.8,348.2 77.8,346.8 	"/>
	<polyline class="st4" points="126.4,588 126.4,579.1 126.4,568.6 126.4,557.6 126.4,547.3 126.4,536.2 126.4,532.3 126.4,525.7 
		126.4,515 126.4,504.3 	"/>
	<polyline class="st4" points="77,538.6 77,529.7 77,519.1 77,508.2 77,497.9 77,486.8 77,482.9 77,476.3 77,465.6 77,454.9 	"/>
	<polyline class="st4" points="127.3,389.2 127.3,347.7 127.3,346.8 	"/>
	<polyline class="st4" points="126.6,489 126.6,480.1 126.6,469.6 126.6,458.7 126.6,448.3 126.6,437.2 126.6,433.3 126.6,426.7 
		126.6,416 126.6,405.3 	"/>
	<polyline class="st4" points="177.3,437.4 177.3,395.8 177.3,346.8 	"/>
	<polyline class="st4" points="176.9,537.5 176.9,528.6 176.9,518.1 176.9,507.2 176.9,496.8 176.9,485.8 176.9,481.8 176.9,475.2 
		176.9,464.5 176.9,453.8 	"/>
	<line class="st4" x1="226.7" y1="346.8" x2="226.7" y2="388"/>
	<polyline class="st4" points="226.3,488.1 226.3,479.2 226.3,468.7 226.3,457.8 226.3,447.5 226.3,436.4 226.3,432.5 226.3,425.8 
		226.3,415.1 226.3,404.4 	"/>
	<polyline class="st4" points="226.8,587.4 226.8,578.5 226.8,568 226.8,557 226.8,546.7 226.8,535.6 226.8,531.7 226.8,525.1 
		226.8,514.4 226.8,503.7 	"/>
	<polyline class="st4" points="276.9,537.4 276.9,528.4 276.9,517.9 276.9,507 276.9,496.7 276.9,485.6 276.9,481.7 276.9,475 
		276.9,464.4 276.9,453.6 	"/>
	<polyline class="st4" points="276.9,436.9 276.9,395.4 276.9,346.8 	"/>
	<polyline class="st4" points="326.8,487.4 326.8,478.5 326.8,468 326.8,457 326.8,446.7 326.8,435.6 326.8,431.7 326.8,425.1 
		326.8,414.4 326.8,403.7 	"/>
	<line class="st4" x1="326.8" y1="346.8" x2="326.8" y2="387"/>
	<polyline class="st4" points="227.2,687 227.2,680.2 227.2,671.9 227.2,663.9 227.2,655.5 227.2,647.6 227.2,639.1 227.2,631 
		227.2,622.9 227.2,614.6 227.2,606.5 	"/>
	<polyline class="st4" points="276.9,637.3 276.9,630.6 276.9,622.2 276.9,614.2 276.9,605.8 276.9,597.9 276.9,589.4 276.9,581.4 
		276.9,573.2 276.9,565 276.9,556.8 	"/>
	<polyline class="st4" points="327.3,586.9 327.3,580.2 327.3,571.8 327.3,563.8 327.3,555.4 327.3,547.5 327.3,539 327.3,531 
		327.3,522.8 327.3,514.6 327.3,506.4 	"/>
	<polyline class="st4" points="377.3,536.9 377.3,530.2 377.3,521.8 377.3,513.8 377.3,505.4 377.3,497.5 377.3,489 377.3,481 
		377.3,472.8 377.3,464.6 377.3,456.4 	"/>
	<polyline class="st4" points="377.5,436.7 377.5,395.1 377.5,346.8 	"/>
	<polyline class="st4" points="427.1,486.1 427.1,446.5 427.1,396.5 427.1,346.8 	"/>
	<polyline class="st4" points="476.5,436.7 476.5,396.5 476.5,346.8 	"/>
	<line class="st4" x1="526.6" y1="386.6" x2="526.6" y2="346.8"/>
	<line class="st4" x1="76.8" y1="896.8" x2="76.8" y2="857.5"/>
	<line class="st4" x1="126.8" y1="897.8" x2="126.8" y2="807.4"/>
	<line class="st4" x1="176.8" y1="898.8" x2="176.8" y2="756.9"/>
	<line class="st4" x1="226.8" y1="898.8" x2="226.8" y2="707.4"/>
	<line class="st4" x1="276.8" y1="899.8" x2="276.8" y2="656.9"/>
	<line class="st4" x1="326.7" y1="896.8" x2="326.7" y2="607.1"/>
	<line class="st4" x1="376.7" y1="896.8" x2="376.7" y2="557.1"/>
	<line class="st4" x1="426.5" y1="896.8" x2="426.5" y2="507.3"/>
	<line class="st4" x1="476.7" y1="896.8" x2="476.7" y2="457.1"/>
	<line class="st4" x1="526.7" y1="899.8" x2="526.7" y2="407.1"/>
	<line class="st4" x1="576.7" y1="898.8" x2="576.7" y2="357.1"/>
	<line class="st4" x1="625.4" y1="896.8" x2="625.4" y2="346.8"/>
</g>
<g id="Logistics1" class="st0">
	<polyline class="st5" points="1125.2,896.3 1125,896.3 76.8,896.8 	"/>
	<line class="st5" x1="486.5" y1="546.4" x2="566" y2="546.4"/>
	<line class="st5" x1="434.3" y1="596.3" x2="513.8" y2="596.3"/>
	<line class="st5" x1="536.9" y1="495.9" x2="616" y2="495.9"/>
	<line class="st5" x1="586.3" y1="446.6" x2="666.1" y2="446.6"/>
	<line class="st5" x1="536.9" y1="596.4" x2="616" y2="596.4"/>
	<line class="st5" x1="1123" y1="447.1" x2="685.3" y2="447.1"/>
	<line class="st5" x1="636.1" y1="496.4" x2="716.5" y2="496.4"/>
	<polyline class="st5" points="737.3,496.4 1125.1,496.4 1125.2,496.4 	"/>
	<line class="st5" x1="685.3" y1="545.6" x2="765.8" y2="545.6"/>
	<line class="st5" x1="1125.9" y1="545.6" x2="787.3" y2="545.6"/>
	<line class="st5" x1="737.1" y1="597.4" x2="815" y2="597.4"/>
	<line class="st5" x1="1124.5" y1="597.3" x2="837.6" y2="597.3"/>
	<line class="st5" x1="785.2" y1="645.5" x2="866.3" y2="645.5"/>
	<line class="st5" x1="1125" y1="645.5" x2="886.3" y2="645.5"/>
	<line class="st5" x1="836.1" y1="696.4" x2="916.9" y2="696.4"/>
	<line class="st5" x1="1125.5" y1="696.3" x2="937.6" y2="696.3"/>
	<line class="st5" x1="885.1" y1="745.4" x2="967" y2="745.4"/>
	<line class="st5" x1="1125" y1="745.4" x2="986.2" y2="745.4"/>
	<line class="st5" x1="935.9" y1="796.3" x2="1014.8" y2="796.3"/>
	<polyline class="st5" points="1036.9,796.2 1124.9,796.2 1125.1,796.2 	"/>
	<line class="st5" x1="985" y1="845.3" x2="1065.6" y2="845.3"/>
	<line class="st5" x1="1125" y1="845.3" x2="1086.1" y2="845.3"/>
	<line class="st5" x1="384.4" y1="646.2" x2="463.9" y2="646.2"/>
	<line class="st5" x1="334.3" y1="696.4" x2="413.7" y2="696.4"/>
	<line class="st5" x1="284.7" y1="745.9" x2="364.2" y2="745.9"/>
	<line class="st5" x1="233.9" y1="796.7" x2="313.4" y2="796.7"/>
	<line class="st5" x1="184" y1="846.6" x2="263.5" y2="846.6"/>
	<polyline class="st5" points="636.4,396.5 1122.3,396.5 1123,396.5 	"/>
	<line class="st5" x1="587" y1="546" x2="666.1" y2="546"/>
	<line class="st5" x1="486.5" y1="646" x2="566" y2="646"/>
	<line class="st5" x1="587" y1="645.7" x2="666.1" y2="645.7"/>
	<line class="st5" x1="636.9" y1="595.9" x2="715.9" y2="595.9"/>
	<line class="st5" x1="686.9" y1="645.9" x2="765.9" y2="645.9"/>
	<line class="st5" x1="434.9" y1="696.6" x2="514.3" y2="696.6"/>
	<line class="st5" x1="536.9" y1="696.5" x2="616.4" y2="696.5"/>
	<line class="st5" x1="637.5" y1="696.1" x2="716.5" y2="696.1"/>
	<line class="st5" x1="737.3" y1="696.3" x2="816.3" y2="696.3"/>
	<line class="st5" x1="384.2" y1="746.3" x2="463.7" y2="746.3"/>
	<line class="st5" x1="484.8" y1="746.6" x2="564.3" y2="746.6"/>
	<line class="st5" x1="586.9" y1="746.4" x2="666.3" y2="746.4"/>
	<line class="st5" x1="687.4" y1="746.1" x2="766.4" y2="746.1"/>
	<line class="st5" x1="787.3" y1="746.2" x2="866.3" y2="746.2"/>
	<line class="st5" x1="335.3" y1="796.5" x2="414.7" y2="796.5"/>
	<line class="st5" x1="434.8" y1="796.9" x2="514.3" y2="796.9"/>
	<line class="st5" x1="535.4" y1="797.2" x2="614.9" y2="797.2"/>
	<line class="st5" x1="637.4" y1="797" x2="716.9" y2="797"/>
	<line class="st5" x1="738" y1="796.6" x2="817" y2="796.6"/>
	<line class="st5" x1="837.9" y1="796.8" x2="916.9" y2="796.8"/>
	<line class="st5" x1="284" y1="846.8" x2="363.5" y2="846.8"/>
	<line class="st5" x1="385.4" y1="846.6" x2="464.8" y2="846.6"/>
	<line class="st5" x1="484.9" y1="847" x2="564.4" y2="847"/>
	<line class="st5" x1="585.5" y1="847.3" x2="665" y2="847.3"/>
	<line class="st5" x1="687.6" y1="847.1" x2="767" y2="847.1"/>
	<line class="st5" x1="788.1" y1="846.7" x2="867.1" y2="846.7"/>
	<line class="st5" x1="888" y1="846.9" x2="967" y2="846.9"/>
	<polyline class="st5" points="77.8,346.8 126.5,346.8 176.3,346.8 227.2,346.8 275.6,346.8 326.6,346.8 376.5,346.8 426.2,346.8 
		476.2,346.8 526.1,346.8 575.9,346.8 675.6,346.8 725.5,346.8 774.8,346.8 824.2,346.8 825.1,346.8 844,346.8 874.8,346.8 
		924.6,346.8 974.7,346.8 1023.9,346.8 1073.7,346.8 1123.1,346.8 1125.2,346.8 1125.9,346.8 	"/>
	<line class="st5" x1="76.8" y1="846.2" x2="165.5" y2="846.2"/>
	<line class="st5" x1="76.8" y1="796.2" x2="215.6" y2="796.2"/>
	<line class="st5" x1="76.8" y1="746.2" x2="266.1" y2="746.2"/>
	<line class="st5" x1="77.1" y1="696.5" x2="315.6" y2="696.3"/>
	<line class="st5" x1="77.8" y1="646.2" x2="366.1" y2="646.2"/>
	<line class="st5" x1="77.1" y1="596.7" x2="416" y2="596.4"/>
	<line class="st5" x1="77.8" y1="546.4" x2="466" y2="546.4"/>
	<line class="st5" x1="77" y1="497.9" x2="515.8" y2="496.6"/>
	<line class="st5" x1="76.8" y1="446.4" x2="566" y2="446.4"/>
	<line class="st5" x1="77.8" y1="397.2" x2="616" y2="396.4"/>
</g>
<g id="Logistics2" class="st0">
	<polyline class="st5" points="1125.2,706.9 1125.2,715.1 1125.2,723.3 1125.2,731.4 1125.2,739.5 1125.2,748 1125.2,755.9 
		1125.2,764.3 1125.2,772.3 1125.2,780.7 1125.2,787.4 	"/>
	<polyline class="st5" points="1074.8,656.5 1074.8,664.6 1074.8,672.9 1074.8,681 1074.8,689.1 1074.8,697.6 1074.8,705.5 
		1074.8,713.9 1074.8,721.9 1074.8,730.2 1074.8,737 	"/>
	<polyline class="st5" points="1125,603.5 1125,614.2 1125,624.9 1125,631.5 1125,635.4 1125,646.5 1125,656.8 1125,667.8 
		1125,678.3 1125,687.2 	"/>
	<polyline class="st5" points="1075.1,553.6 1075.1,564.4 1075.1,575 1075.1,581.7 1075.1,585.6 1075.1,596.7 1075.1,607 
		1075.1,617.9 1075.1,628.4 1075.1,637.4 	"/>
	<polyline class="st5" points="1125.6,504.3 1125.6,515 1125.6,525.7 1125.6,532.3 1125.6,536.2 1125.6,547.3 1125.6,557.6 
		1125.6,568.6 1125.6,579.1 1125.6,588 	"/>
	<polyline class="st5" points="1124.7,346.8 1124.7,347.7 1124.7,389.2 	"/>
	<polyline class="st5" points="1125.4,405.3 1125.4,416 1125.4,426.7 1125.4,433.3 1125.4,437.2 1125.4,448.3 1125.4,458.7 
		1125.4,469.6 1125.4,480.1 1125.4,489 	"/>
	<polyline class="st5" points="1074.7,346.8 1074.7,395.8 1074.7,437.4 	"/>
	<polyline class="st5" points="1075.1,453.8 1075.1,464.5 1075.1,475.2 1075.1,481.8 1075.1,485.8 1075.1,496.8 1075.1,507.2 
		1075.1,518.1 1075.1,528.6 1075.1,537.5 	"/>
	<line class="st5" x1="1025.4" y1="388" x2="1025.4" y2="346.8"/>
	<polyline class="st5" points="1025.7,404.4 1025.7,415.1 1025.7,425.8 1025.7,432.5 1025.7,436.4 1025.7,447.5 1025.7,457.8 
		1025.7,468.7 1025.7,479.2 1025.7,488.1 	"/>
	<polyline class="st5" points="1025.2,503.7 1025.2,514.4 1025.2,525.1 1025.2,531.7 1025.2,535.6 1025.2,546.7 1025.2,557 
		1025.2,568 1025.2,578.5 1025.2,587.4 	"/>
	<polyline class="st5" points="975.1,453.6 975.1,464.4 975.1,475 975.1,481.7 975.1,485.6 975.1,496.7 975.1,507 975.1,517.9 
		975.1,528.4 975.1,537.4 	"/>
	<polyline class="st5" points="975.1,346.8 975.1,395.4 975.1,436.9 	"/>
	<polyline class="st5" points="925.2,403.7 925.2,414.4 925.2,425.1 925.2,431.7 925.2,435.6 925.2,446.7 925.2,457 925.2,468 
		925.2,478.5 925.2,487.4 	"/>
	<line class="st5" x1="925.2" y1="387" x2="925.2" y2="346.8"/>
	<polyline class="st5" points="1024.8,606.5 1024.8,614.6 1024.8,622.9 1024.8,631 1024.8,639.1 1024.8,647.6 1024.8,655.5 
		1024.8,663.9 1024.8,671.9 1024.8,680.2 1024.8,687 	"/>
	<polyline class="st5" points="975.1,556.8 975.1,565 975.1,573.2 975.1,581.4 975.1,589.4 975.1,597.9 975.1,605.8 975.1,614.2 
		975.1,622.2 975.1,630.6 975.1,637.3 	"/>
	<polyline class="st5" points="924.7,506.4 924.7,514.6 924.7,522.8 924.7,531 924.7,539 924.7,547.5 924.7,555.4 924.7,563.8 
		924.7,571.8 924.7,580.2 924.7,586.9 	"/>
	<polyline class="st5" points="874.7,456.4 874.7,464.6 874.7,472.8 874.7,481 874.7,489 874.7,497.5 874.7,505.4 874.7,513.8 
		874.7,521.8 874.7,530.2 874.7,536.9 	"/>
	<polyline class="st5" points="874.5,346.8 874.5,395.1 874.5,436.7 	"/>
	<polyline class="st5" points="824.9,346.8 824.9,396.5 824.9,446.5 824.9,486.1 	"/>
	<polyline class="st5" points="775.5,346.8 775.5,396.5 775.5,436.7 	"/>
	<line class="st5" x1="725.4" y1="346.8" x2="725.4" y2="386.6"/>
	<line class="st5" x1="1125.2" y1="897.8" x2="1125.2" y2="807.4"/>
	<line class="st5" x1="1075.2" y1="898.8" x2="1075.2" y2="756.9"/>
	<line class="st5" x1="1025.2" y1="898.8" x2="1025.2" y2="707.4"/>
	<line class="st5" x1="975.2" y1="899.8" x2="975.2" y2="656.9"/>
	<line class="st5" x1="925.4" y1="896.8" x2="925.4" y2="607.1"/>
	<line class="st5" x1="875.4" y1="896.8" x2="875.4" y2="557.1"/>
	<line class="st5" x1="825.6" y1="896.8" x2="825.6" y2="507.3"/>
	<line class="st5" x1="775.4" y1="896.8" x2="775.4" y2="457.1"/>
	<line class="st5" x1="725.4" y1="899.8" x2="725.4" y2="407.1"/>
	<line class="st5" x1="675.4" y1="898.8" x2="675.4" y2="357.1"/>
	<polyline class="st5" points="76.8,837.4 76.8,830.6 76.8,822.3 76.8,814.3 76.8,805.9 76.8,798 76.8,789.5 76.8,781.4 76.8,773.3 
		76.8,765 76.8,756.9 	"/>
	<polyline class="st5" points="77.1,737.2 77.1,728.3 77.1,717.7 77.1,706.8 77.1,696.5 77.1,685.4 77.1,681.5 77.1,674.8 
		77.1,664.2 77.1,653.4 	"/>
	<polyline class="st5" points="126.8,787.4 126.8,780.7 126.8,772.3 126.8,764.3 126.8,755.9 126.8,748 126.8,739.5 126.8,731.4 
		126.8,723.3 126.8,715.1 126.8,706.9 	"/>
	<polyline class="st5" points="177.2,737 177.2,730.2 177.2,721.9 177.2,713.9 177.2,705.5 177.2,697.6 177.2,689.1 177.2,681 
		177.2,672.9 177.2,664.6 177.2,656.5 	"/>
	<polyline class="st5" points="127,687.2 127,678.3 127,667.8 127,656.8 127,646.5 127,635.4 127,631.5 127,624.9 127,614.2 
		127,603.5 	"/>
	<polyline class="st5" points="176.9,637.4 176.9,628.4 176.9,617.9 176.9,607 176.9,596.7 176.9,585.6 176.9,581.7 176.9,575 
		176.9,564.4 176.9,553.6 	"/>
	<polyline class="st5" points="77.1,637.4 77.1,628.4 77.1,617.9 77.1,607 77.1,596.7 77.1,585.6 77.1,581.7 77.1,575 77.1,564.4 
		77.1,553.6 	"/>
	<polyline class="st5" points="77.8,438.8 77.8,397.2 77.8,348.2 77.8,346.8 	"/>
	<polyline class="st5" points="126.4,588 126.4,579.1 126.4,568.6 126.4,557.6 126.4,547.3 126.4,536.2 126.4,532.3 126.4,525.7 
		126.4,515 126.4,504.3 	"/>
	<polyline class="st5" points="77,538.6 77,529.7 77,519.1 77,508.2 77,497.9 77,486.8 77,482.9 77,476.3 77,465.6 77,454.9 	"/>
	<polyline class="st5" points="127.3,389.2 127.3,347.7 127.3,346.8 	"/>
	<polyline class="st5" points="126.6,489 126.6,480.1 126.6,469.6 126.6,458.7 126.6,448.3 126.6,437.2 126.6,433.3 126.6,426.7 
		126.6,416 126.6,405.3 	"/>
	<polyline class="st5" points="177.3,437.4 177.3,395.8 177.3,346.8 	"/>
	<polyline class="st5" points="176.9,537.5 176.9,528.6 176.9,518.1 176.9,507.2 176.9,496.8 176.9,485.8 176.9,481.8 176.9,475.2 
		176.9,464.5 176.9,453.8 	"/>
	<line class="st5" x1="226.7" y1="346.8" x2="226.7" y2="388"/>
	<polyline class="st5" points="226.3,488.1 226.3,479.2 226.3,468.7 226.3,457.8 226.3,447.5 226.3,436.4 226.3,432.5 226.3,425.8 
		226.3,415.1 226.3,404.4 	"/>
	<polyline class="st5" points="226.8,587.4 226.8,578.5 226.8,568 226.8,557 226.8,546.7 226.8,535.6 226.8,531.7 226.8,525.1 
		226.8,514.4 226.8,503.7 	"/>
	<polyline class="st5" points="276.9,537.4 276.9,528.4 276.9,517.9 276.9,507 276.9,496.7 276.9,485.6 276.9,481.7 276.9,475 
		276.9,464.4 276.9,453.6 	"/>
	<polyline class="st5" points="276.9,436.9 276.9,395.4 276.9,346.8 	"/>
	<polyline class="st5" points="326.8,487.4 326.8,478.5 326.8,468 326.8,457 326.8,446.7 326.8,435.6 326.8,431.7 326.8,425.1 
		326.8,414.4 326.8,403.7 	"/>
	<line class="st5" x1="326.8" y1="346.8" x2="326.8" y2="387"/>
	<polyline class="st5" points="227.2,687 227.2,680.2 227.2,671.9 227.2,663.9 227.2,655.5 227.2,647.6 227.2,639.1 227.2,631 
		227.2,622.9 227.2,614.6 227.2,606.5 	"/>
	<polyline class="st5" points="276.9,637.3 276.9,630.6 276.9,622.2 276.9,614.2 276.9,605.8 276.9,597.9 276.9,589.4 276.9,581.4 
		276.9,573.2 276.9,565 276.9,556.8 	"/>
	<polyline class="st5" points="327.3,586.9 327.3,580.2 327.3,571.8 327.3,563.8 327.3,555.4 327.3,547.5 327.3,539 327.3,531 
		327.3,522.8 327.3,514.6 327.3,506.4 	"/>
	<polyline class="st5" points="377.3,536.9 377.3,530.2 377.3,521.8 377.3,513.8 377.3,505.4 377.3,497.5 377.3,489 377.3,481 
		377.3,472.8 377.3,464.6 377.3,456.4 	"/>
	<polyline class="st5" points="377.5,436.7 377.5,395.1 377.5,346.8 	"/>
	<polyline class="st5" points="427.1,486.1 427.1,446.5 427.1,396.5 427.1,346.8 	"/>
	<polyline class="st5" points="476.5,436.7 476.5,396.5 476.5,346.8 	"/>
	<line class="st5" x1="526.6" y1="386.6" x2="526.6" y2="346.8"/>
	<line class="st5" x1="76.8" y1="896.8" x2="76.8" y2="857.5"/>
	<line class="st5" x1="126.8" y1="897.8" x2="126.8" y2="807.4"/>
	<line class="st5" x1="176.8" y1="898.8" x2="176.8" y2="756.9"/>
	<line class="st5" x1="226.8" y1="898.8" x2="226.8" y2="707.4"/>
	<line class="st5" x1="276.8" y1="899.8" x2="276.8" y2="656.9"/>
	<line class="st5" x1="326.7" y1="896.8" x2="326.7" y2="607.1"/>
	<line class="st5" x1="376.7" y1="896.8" x2="376.7" y2="557.1"/>
	<line class="st5" x1="426.5" y1="896.8" x2="426.5" y2="507.3"/>
	<line class="st5" x1="476.7" y1="896.8" x2="476.7" y2="457.1"/>
	<line class="st5" x1="526.7" y1="899.8" x2="526.7" y2="407.1"/>
	<line class="st5" x1="576.7" y1="898.8" x2="576.7" y2="357.1"/>
	<line class="st5" x1="625.4" y1="896.8" x2="625.4" y2="346.8"/>
</g>
<g id="PR1" class="st0">
	<polyline class="st6" points="1125.2,896.3 1125,896.3 76.8,896.8 	"/>
	<line class="st6" x1="486.5" y1="546.4" x2="566" y2="546.4"/>
	<line class="st6" x1="434.3" y1="596.3" x2="513.8" y2="596.3"/>
	<line class="st6" x1="536.9" y1="495.9" x2="616" y2="495.9"/>
	<line class="st6" x1="586.3" y1="446.6" x2="666.1" y2="446.6"/>
	<line class="st6" x1="536.9" y1="596.4" x2="616" y2="596.4"/>
	<line class="st6" x1="1123" y1="447.1" x2="685.3" y2="447.1"/>
	<line class="st6" x1="636.1" y1="496.4" x2="716.5" y2="496.4"/>
	<polyline class="st6" points="737.3,496.4 1125.1,496.4 1125.2,496.4 	"/>
	<line class="st6" x1="685.3" y1="545.6" x2="765.8" y2="545.6"/>
	<line class="st6" x1="1125.9" y1="545.6" x2="787.3" y2="545.6"/>
	<line class="st6" x1="737.1" y1="597.4" x2="815" y2="597.4"/>
	<line class="st6" x1="1124.5" y1="597.3" x2="837.6" y2="597.3"/>
	<line class="st6" x1="785.2" y1="645.5" x2="866.3" y2="645.5"/>
	<line class="st6" x1="1125" y1="645.5" x2="886.3" y2="645.5"/>
	<line class="st6" x1="836.1" y1="696.4" x2="916.9" y2="696.4"/>
	<line class="st6" x1="1125.5" y1="696.3" x2="937.6" y2="696.3"/>
	<line class="st6" x1="885.1" y1="745.4" x2="967" y2="745.4"/>
	<line class="st6" x1="1125" y1="745.4" x2="986.2" y2="745.4"/>
	<line class="st6" x1="935.9" y1="796.3" x2="1014.8" y2="796.3"/>
	<polyline class="st6" points="1036.9,796.2 1124.9,796.2 1125.1,796.2 	"/>
	<line class="st6" x1="985" y1="845.3" x2="1065.6" y2="845.3"/>
	<line class="st6" x1="1125" y1="845.3" x2="1086.1" y2="845.3"/>
	<line class="st6" x1="384.4" y1="646.2" x2="463.9" y2="646.2"/>
	<line class="st6" x1="334.3" y1="696.4" x2="413.7" y2="696.4"/>
	<line class="st6" x1="284.7" y1="745.9" x2="364.2" y2="745.9"/>
	<line class="st6" x1="233.9" y1="796.7" x2="313.4" y2="796.7"/>
	<line class="st6" x1="184" y1="846.6" x2="263.5" y2="846.6"/>
	<polyline class="st6" points="636.4,396.5 1122.3,396.5 1123,396.5 	"/>
	<line class="st6" x1="587" y1="546" x2="666.1" y2="546"/>
	<line class="st6" x1="486.5" y1="646" x2="566" y2="646"/>
	<line class="st6" x1="587" y1="645.7" x2="666.1" y2="645.7"/>
	<line class="st6" x1="636.9" y1="595.9" x2="715.9" y2="595.9"/>
	<line class="st6" x1="686.9" y1="645.9" x2="765.9" y2="645.9"/>
	<line class="st6" x1="434.9" y1="696.6" x2="514.3" y2="696.6"/>
	<line class="st6" x1="536.9" y1="696.5" x2="616.4" y2="696.5"/>
	<line class="st6" x1="637.5" y1="696.1" x2="716.5" y2="696.1"/>
	<line class="st6" x1="737.3" y1="696.3" x2="816.3" y2="696.3"/>
	<line class="st6" x1="384.2" y1="746.3" x2="463.7" y2="746.3"/>
	<line class="st6" x1="484.8" y1="746.6" x2="564.3" y2="746.6"/>
	<line class="st6" x1="586.9" y1="746.4" x2="666.3" y2="746.4"/>
	<line class="st6" x1="687.4" y1="746.1" x2="766.4" y2="746.1"/>
	<line class="st6" x1="787.3" y1="746.2" x2="866.3" y2="746.2"/>
	<line class="st6" x1="335.3" y1="796.5" x2="414.7" y2="796.5"/>
	<line class="st6" x1="434.8" y1="796.9" x2="514.3" y2="796.9"/>
	<line class="st6" x1="535.4" y1="797.2" x2="614.9" y2="797.2"/>
	<line class="st6" x1="637.4" y1="797" x2="716.9" y2="797"/>
	<line class="st6" x1="738" y1="796.6" x2="817" y2="796.6"/>
	<line class="st6" x1="837.9" y1="796.8" x2="916.9" y2="796.8"/>
	<line class="st6" x1="284" y1="846.8" x2="363.5" y2="846.8"/>
	<line class="st6" x1="385.4" y1="846.6" x2="464.8" y2="846.6"/>
	<line class="st6" x1="484.9" y1="847" x2="564.4" y2="847"/>
	<line class="st6" x1="585.5" y1="847.3" x2="665" y2="847.3"/>
	<line class="st6" x1="687.6" y1="847.1" x2="767" y2="847.1"/>
	<line class="st6" x1="788.1" y1="846.7" x2="867.1" y2="846.7"/>
	<line class="st6" x1="888" y1="846.9" x2="967" y2="846.9"/>
	<polyline class="st6" points="77.8,346.8 126.5,346.8 176.3,346.8 227.2,346.8 275.6,346.8 326.6,346.8 376.5,346.8 426.2,346.8 
		476.2,346.8 526.1,346.8 575.9,346.8 675.6,346.8 725.5,346.8 774.8,346.8 824.2,346.8 825.1,346.8 844,346.8 874.8,346.8 
		924.6,346.8 974.7,346.8 1023.9,346.8 1073.7,346.8 1123.1,346.8 1125.2,346.8 1125.9,346.8 	"/>
	<line class="st6" x1="76.8" y1="846.2" x2="165.5" y2="846.2"/>
	<line class="st6" x1="76.8" y1="796.2" x2="215.6" y2="796.2"/>
	<line class="st6" x1="76.8" y1="746.2" x2="266.1" y2="746.2"/>
	<line class="st6" x1="77.1" y1="696.5" x2="315.6" y2="696.3"/>
	<line class="st6" x1="77.8" y1="646.2" x2="366.1" y2="646.2"/>
	<line class="st6" x1="77.1" y1="596.7" x2="416" y2="596.4"/>
	<line class="st6" x1="77.8" y1="546.4" x2="466" y2="546.4"/>
	<line class="st6" x1="77" y1="497.9" x2="515.8" y2="496.6"/>
	<line class="st6" x1="76.8" y1="446.4" x2="566" y2="446.4"/>
	<line class="st6" x1="77.8" y1="397.2" x2="616" y2="396.4"/>
</g>
<g id="PR2" class="st0">
	<polyline class="st6" points="1125.2,706.9 1125.2,715.1 1125.2,723.3 1125.2,731.4 1125.2,739.5 1125.2,748 1125.2,755.9 
		1125.2,764.3 1125.2,772.3 1125.2,780.7 1125.2,787.4 	"/>
	<polyline class="st6" points="1074.8,656.5 1074.8,664.6 1074.8,672.9 1074.8,681 1074.8,689.1 1074.8,697.6 1074.8,705.5 
		1074.8,713.9 1074.8,721.9 1074.8,730.2 1074.8,737 	"/>
	<polyline class="st6" points="1125,603.5 1125,614.2 1125,624.9 1125,631.5 1125,635.4 1125,646.5 1125,656.8 1125,667.8 
		1125,678.3 1125,687.2 	"/>
	<polyline class="st6" points="1075.1,553.6 1075.1,564.4 1075.1,575 1075.1,581.7 1075.1,585.6 1075.1,596.7 1075.1,607 
		1075.1,617.9 1075.1,628.4 1075.1,637.4 	"/>
	<polyline class="st6" points="1125.6,504.3 1125.6,515 1125.6,525.7 1125.6,532.3 1125.6,536.2 1125.6,547.3 1125.6,557.6 
		1125.6,568.6 1125.6,579.1 1125.6,588 	"/>
	<polyline class="st6" points="1124.7,346.8 1124.7,347.7 1124.7,389.2 	"/>
	<polyline class="st6" points="1125.4,405.3 1125.4,416 1125.4,426.7 1125.4,433.3 1125.4,437.2 1125.4,448.3 1125.4,458.7 
		1125.4,469.6 1125.4,480.1 1125.4,489 	"/>
	<polyline class="st6" points="1074.7,346.8 1074.7,395.8 1074.7,437.4 	"/>
	<polyline class="st6" points="1075.1,453.8 1075.1,464.5 1075.1,475.2 1075.1,481.8 1075.1,485.8 1075.1,496.8 1075.1,507.2 
		1075.1,518.1 1075.1,528.6 1075.1,537.5 	"/>
	<line class="st6" x1="1025.4" y1="388" x2="1025.4" y2="346.8"/>
	<polyline class="st6" points="1025.7,404.4 1025.7,415.1 1025.7,425.8 1025.7,432.5 1025.7,436.4 1025.7,447.5 1025.7,457.8 
		1025.7,468.7 1025.7,479.2 1025.7,488.1 	"/>
	<polyline class="st6" points="1025.2,503.7 1025.2,514.4 1025.2,525.1 1025.2,531.7 1025.2,535.6 1025.2,546.7 1025.2,557 
		1025.2,568 1025.2,578.5 1025.2,587.4 	"/>
	<polyline class="st6" points="975.1,453.6 975.1,464.4 975.1,475 975.1,481.7 975.1,485.6 975.1,496.7 975.1,507 975.1,517.9 
		975.1,528.4 975.1,537.4 	"/>
	<polyline class="st6" points="975.1,346.8 975.1,395.4 975.1,436.9 	"/>
	<polyline class="st6" points="925.2,403.7 925.2,414.4 925.2,425.1 925.2,431.7 925.2,435.6 925.2,446.7 925.2,457 925.2,468 
		925.2,478.5 925.2,487.4 	"/>
	<line class="st6" x1="925.2" y1="387" x2="925.2" y2="346.8"/>
	<polyline class="st6" points="1024.8,606.5 1024.8,614.6 1024.8,622.9 1024.8,631 1024.8,639.1 1024.8,647.6 1024.8,655.5 
		1024.8,663.9 1024.8,671.9 1024.8,680.2 1024.8,687 	"/>
	<polyline class="st6" points="975.1,556.8 975.1,565 975.1,573.2 975.1,581.4 975.1,589.4 975.1,597.9 975.1,605.8 975.1,614.2 
		975.1,622.2 975.1,630.6 975.1,637.3 	"/>
	<polyline class="st6" points="924.7,506.4 924.7,514.6 924.7,522.8 924.7,531 924.7,539 924.7,547.5 924.7,555.4 924.7,563.8 
		924.7,571.8 924.7,580.2 924.7,586.9 	"/>
	<polyline class="st6" points="874.7,456.4 874.7,464.6 874.7,472.8 874.7,481 874.7,489 874.7,497.5 874.7,505.4 874.7,513.8 
		874.7,521.8 874.7,530.2 874.7,536.9 	"/>
	<polyline class="st6" points="874.5,346.8 874.5,395.1 874.5,436.7 	"/>
	<polyline class="st6" points="824.9,346.8 824.9,396.5 824.9,446.5 824.9,486.1 	"/>
	<polyline class="st6" points="775.5,346.8 775.5,396.5 775.5,436.7 	"/>
	<line class="st6" x1="725.4" y1="346.8" x2="725.4" y2="386.6"/>
	<line class="st6" x1="1125.2" y1="897.8" x2="1125.2" y2="807.4"/>
	<line class="st6" x1="1075.2" y1="898.8" x2="1075.2" y2="756.9"/>
	<line class="st6" x1="1025.2" y1="898.8" x2="1025.2" y2="707.4"/>
	<line class="st6" x1="975.2" y1="899.8" x2="975.2" y2="656.9"/>
	<line class="st6" x1="925.4" y1="896.8" x2="925.4" y2="607.1"/>
	<line class="st6" x1="875.4" y1="896.8" x2="875.4" y2="557.1"/>
	<line class="st6" x1="825.6" y1="896.8" x2="825.6" y2="507.3"/>
	<line class="st6" x1="775.4" y1="896.8" x2="775.4" y2="457.1"/>
	<line class="st6" x1="725.4" y1="899.8" x2="725.4" y2="407.1"/>
	<line class="st6" x1="675.4" y1="898.8" x2="675.4" y2="357.1"/>
	<polyline class="st6" points="76.8,837.4 76.8,830.6 76.8,822.3 76.8,814.3 76.8,805.9 76.8,798 76.8,789.5 76.8,781.4 76.8,773.3 
		76.8,765 76.8,756.9 	"/>
	<polyline class="st6" points="77.1,737.2 77.1,728.3 77.1,717.7 77.1,706.8 77.1,696.5 77.1,685.4 77.1,681.5 77.1,674.8 
		77.1,664.2 77.1,653.4 	"/>
	<polyline class="st6" points="126.8,787.4 126.8,780.7 126.8,772.3 126.8,764.3 126.8,755.9 126.8,748 126.8,739.5 126.8,731.4 
		126.8,723.3 126.8,715.1 126.8,706.9 	"/>
	<polyline class="st6" points="177.2,737 177.2,730.2 177.2,721.9 177.2,713.9 177.2,705.5 177.2,697.6 177.2,689.1 177.2,681 
		177.2,672.9 177.2,664.6 177.2,656.5 	"/>
	<polyline class="st6" points="127,687.2 127,678.3 127,667.8 127,656.8 127,646.5 127,635.4 127,631.5 127,624.9 127,614.2 
		127,603.5 	"/>
	<polyline class="st6" points="176.9,637.4 176.9,628.4 176.9,617.9 176.9,607 176.9,596.7 176.9,585.6 176.9,581.7 176.9,575 
		176.9,564.4 176.9,553.6 	"/>
	<polyline class="st6" points="77.1,637.4 77.1,628.4 77.1,617.9 77.1,607 77.1,596.7 77.1,585.6 77.1,581.7 77.1,575 77.1,564.4 
		77.1,553.6 	"/>
	<polyline class="st6" points="77.8,438.8 77.8,397.2 77.8,348.2 77.8,346.8 	"/>
	<polyline class="st6" points="126.4,588 126.4,579.1 126.4,568.6 126.4,557.6 126.4,547.3 126.4,536.2 126.4,532.3 126.4,525.7 
		126.4,515 126.4,504.3 	"/>
	<polyline class="st6" points="77,538.6 77,529.7 77,519.1 77,508.2 77,497.9 77,486.8 77,482.9 77,476.3 77,465.6 77,454.9 	"/>
	<polyline class="st6" points="127.3,389.2 127.3,347.7 127.3,346.8 	"/>
	<polyline class="st6" points="126.6,489 126.6,480.1 126.6,469.6 126.6,458.7 126.6,448.3 126.6,437.2 126.6,433.3 126.6,426.7 
		126.6,416 126.6,405.3 	"/>
	<polyline class="st6" points="177.3,437.4 177.3,395.8 177.3,346.8 	"/>
	<polyline class="st6" points="176.9,537.5 176.9,528.6 176.9,518.1 176.9,507.2 176.9,496.8 176.9,485.8 176.9,481.8 176.9,475.2 
		176.9,464.5 176.9,453.8 	"/>
	<line class="st6" x1="226.7" y1="346.8" x2="226.7" y2="388"/>
	<polyline class="st6" points="226.3,488.1 226.3,479.2 226.3,468.7 226.3,457.8 226.3,447.5 226.3,436.4 226.3,432.5 226.3,425.8 
		226.3,415.1 226.3,404.4 	"/>
	<polyline class="st6" points="226.8,587.4 226.8,578.5 226.8,568 226.8,557 226.8,546.7 226.8,535.6 226.8,531.7 226.8,525.1 
		226.8,514.4 226.8,503.7 	"/>
	<polyline class="st6" points="276.9,537.4 276.9,528.4 276.9,517.9 276.9,507 276.9,496.7 276.9,485.6 276.9,481.7 276.9,475 
		276.9,464.4 276.9,453.6 	"/>
	<polyline class="st6" points="276.9,436.9 276.9,395.4 276.9,346.8 	"/>
	<polyline class="st6" points="326.8,487.4 326.8,478.5 326.8,468 326.8,457 326.8,446.7 326.8,435.6 326.8,431.7 326.8,425.1 
		326.8,414.4 326.8,403.7 	"/>
	<line class="st6" x1="326.8" y1="346.8" x2="326.8" y2="387"/>
	<polyline class="st6" points="227.2,687 227.2,680.2 227.2,671.9 227.2,663.9 227.2,655.5 227.2,647.6 227.2,639.1 227.2,631 
		227.2,622.9 227.2,614.6 227.2,606.5 	"/>
	<polyline class="st6" points="276.9,637.3 276.9,630.6 276.9,622.2 276.9,614.2 276.9,605.8 276.9,597.9 276.9,589.4 276.9,581.4 
		276.9,573.2 276.9,565 276.9,556.8 	"/>
	<polyline class="st6" points="327.3,586.9 327.3,580.2 327.3,571.8 327.3,563.8 327.3,555.4 327.3,547.5 327.3,539 327.3,531 
		327.3,522.8 327.3,514.6 327.3,506.4 	"/>
	<polyline class="st6" points="377.3,536.9 377.3,530.2 377.3,521.8 377.3,513.8 377.3,505.4 377.3,497.5 377.3,489 377.3,481 
		377.3,472.8 377.3,464.6 377.3,456.4 	"/>
	<polyline class="st6" points="377.5,436.7 377.5,395.1 377.5,346.8 	"/>
	<polyline class="st6" points="427.1,486.1 427.1,446.5 427.1,396.5 427.1,346.8 	"/>
	<polyline class="st6" points="476.5,436.7 476.5,396.5 476.5,346.8 	"/>
	<line class="st6" x1="526.6" y1="386.6" x2="526.6" y2="346.8"/>
	<line class="st6" x1="76.8" y1="896.8" x2="76.8" y2="857.5"/>
	<line class="st6" x1="126.8" y1="897.8" x2="126.8" y2="807.4"/>
	<line class="st6" x1="176.8" y1="898.8" x2="176.8" y2="756.9"/>
	<line class="st6" x1="226.8" y1="898.8" x2="226.8" y2="707.4"/>
	<line class="st6" x1="276.8" y1="899.8" x2="276.8" y2="656.9"/>
	<line class="st6" x1="326.7" y1="896.8" x2="326.7" y2="607.1"/>
	<line class="st6" x1="376.7" y1="896.8" x2="376.7" y2="557.1"/>
	<line class="st6" x1="426.5" y1="896.8" x2="426.5" y2="507.3"/>
	<line class="st6" x1="476.7" y1="896.8" x2="476.7" y2="457.1"/>
	<line class="st6" x1="526.7" y1="899.8" x2="526.7" y2="407.1"/>
	<line class="st6" x1="576.7" y1="898.8" x2="576.7" y2="357.1"/>
	<line class="st6" x1="625.4" y1="896.8" x2="625.4" y2="346.8"/>
</g>
<g id="Editorial1" class="st0">
	<polyline class="st7" points="1125.2,896.3 1125,896.3 76.8,896.8 	"/>
	<line class="st7" x1="486.5" y1="546.4" x2="566" y2="546.4"/>
	<line class="st7" x1="434.3" y1="596.3" x2="513.8" y2="596.3"/>
	<line class="st7" x1="536.9" y1="495.9" x2="616" y2="495.9"/>
	<line class="st7" x1="586.3" y1="446.6" x2="666.1" y2="446.6"/>
	<line class="st7" x1="536.9" y1="596.4" x2="616" y2="596.4"/>
	<line class="st7" x1="1123" y1="447.1" x2="685.3" y2="447.1"/>
	<line class="st7" x1="636.1" y1="496.4" x2="716.5" y2="496.4"/>
	<polyline class="st7" points="737.3,496.4 1125.1,496.4 1125.2,496.4 	"/>
	<line class="st7" x1="685.3" y1="545.6" x2="765.8" y2="545.6"/>
	<line class="st7" x1="1125.9" y1="545.6" x2="787.3" y2="545.6"/>
	<line class="st7" x1="737.1" y1="597.4" x2="815" y2="597.4"/>
	<line class="st7" x1="1124.5" y1="597.3" x2="837.6" y2="597.3"/>
	<line class="st7" x1="785.2" y1="645.5" x2="866.3" y2="645.5"/>
	<line class="st7" x1="1125" y1="645.5" x2="886.3" y2="645.5"/>
	<line class="st7" x1="836.1" y1="696.4" x2="916.9" y2="696.4"/>
	<line class="st7" x1="1125.5" y1="696.3" x2="937.6" y2="696.3"/>
	<line class="st7" x1="885.1" y1="745.4" x2="967" y2="745.4"/>
	<line class="st7" x1="1125" y1="745.4" x2="986.2" y2="745.4"/>
	<line class="st7" x1="935.9" y1="796.3" x2="1014.8" y2="796.3"/>
	<polyline class="st7" points="1036.9,796.2 1124.9,796.2 1125.1,796.2 	"/>
	<line class="st7" x1="985" y1="845.3" x2="1065.6" y2="845.3"/>
	<line class="st7" x1="1125" y1="845.3" x2="1086.1" y2="845.3"/>
	<line class="st7" x1="384.4" y1="646.2" x2="463.9" y2="646.2"/>
	<line class="st7" x1="334.3" y1="696.4" x2="413.7" y2="696.4"/>
	<line class="st7" x1="284.7" y1="745.9" x2="364.2" y2="745.9"/>
	<line class="st7" x1="233.9" y1="796.7" x2="313.4" y2="796.7"/>
	<line class="st7" x1="184" y1="846.6" x2="263.5" y2="846.6"/>
	<polyline class="st7" points="636.4,396.5 1122.3,396.5 1123,396.5 	"/>
	<line class="st7" x1="587" y1="546" x2="666.1" y2="546"/>
	<line class="st7" x1="486.5" y1="646" x2="566" y2="646"/>
	<line class="st7" x1="587" y1="645.7" x2="666.1" y2="645.7"/>
	<line class="st7" x1="636.9" y1="595.9" x2="715.9" y2="595.9"/>
	<line class="st7" x1="686.9" y1="645.9" x2="765.9" y2="645.9"/>
	<line class="st7" x1="434.9" y1="696.6" x2="514.3" y2="696.6"/>
	<line class="st7" x1="536.9" y1="696.5" x2="616.4" y2="696.5"/>
	<line class="st7" x1="637.5" y1="696.1" x2="716.5" y2="696.1"/>
	<line class="st7" x1="737.3" y1="696.3" x2="816.3" y2="696.3"/>
	<line class="st7" x1="384.2" y1="746.3" x2="463.7" y2="746.3"/>
	<line class="st7" x1="484.8" y1="746.6" x2="564.3" y2="746.6"/>
	<line class="st7" x1="586.9" y1="746.4" x2="666.3" y2="746.4"/>
	<line class="st7" x1="687.4" y1="746.1" x2="766.4" y2="746.1"/>
	<line class="st7" x1="787.3" y1="746.2" x2="866.3" y2="746.2"/>
	<line class="st7" x1="335.3" y1="796.5" x2="414.7" y2="796.5"/>
	<line class="st7" x1="434.8" y1="796.9" x2="514.3" y2="796.9"/>
	<line class="st7" x1="535.4" y1="797.2" x2="614.9" y2="797.2"/>
	<line class="st7" x1="637.4" y1="797" x2="716.9" y2="797"/>
	<line class="st7" x1="738" y1="796.6" x2="817" y2="796.6"/>
	<line class="st7" x1="837.9" y1="796.8" x2="916.9" y2="796.8"/>
	<line class="st7" x1="284" y1="846.8" x2="363.5" y2="846.8"/>
	<line class="st7" x1="385.4" y1="846.6" x2="464.8" y2="846.6"/>
	<line class="st7" x1="484.9" y1="847" x2="564.4" y2="847"/>
	<line class="st7" x1="585.5" y1="847.3" x2="665" y2="847.3"/>
	<line class="st7" x1="687.6" y1="847.1" x2="767" y2="847.1"/>
	<line class="st7" x1="788.1" y1="846.7" x2="867.1" y2="846.7"/>
	<line class="st7" x1="888" y1="846.9" x2="967" y2="846.9"/>
	<polyline class="st7" points="77.8,346.8 126.5,346.8 176.3,346.8 227.2,346.8 275.6,346.8 326.6,346.8 376.5,346.8 426.2,346.8 
		476.2,346.8 526.1,346.8 575.9,346.8 675.6,346.8 725.5,346.8 774.8,346.8 824.2,346.8 825.1,346.8 844,346.8 874.8,346.8 
		924.6,346.8 974.7,346.8 1023.9,346.8 1073.7,346.8 1123.1,346.8 1125.2,346.8 1125.9,346.8 	"/>
	<line class="st7" x1="76.8" y1="846.2" x2="165.5" y2="846.2"/>
	<line class="st7" x1="76.8" y1="796.2" x2="215.6" y2="796.2"/>
	<line class="st7" x1="76.8" y1="746.2" x2="266.1" y2="746.2"/>
	<line class="st7" x1="77.1" y1="696.5" x2="315.6" y2="696.3"/>
	<line class="st7" x1="77.8" y1="646.2" x2="366.1" y2="646.2"/>
	<line class="st7" x1="77.1" y1="596.7" x2="416" y2="596.4"/>
	<line class="st7" x1="77.8" y1="546.4" x2="466" y2="546.4"/>
	<line class="st7" x1="77" y1="497.9" x2="515.8" y2="496.6"/>
	<line class="st7" x1="76.8" y1="446.4" x2="566" y2="446.4"/>
	<line class="st7" x1="77.8" y1="397.2" x2="616" y2="396.4"/>
</g>
<g id="Editoral2" class="st0">
	<polyline class="st7" points="1125.2,706.9 1125.2,715.1 1125.2,723.3 1125.2,731.4 1125.2,739.5 1125.2,748 1125.2,755.9 
		1125.2,764.3 1125.2,772.3 1125.2,780.7 1125.2,787.4 	"/>
	<polyline class="st7" points="1074.8,656.5 1074.8,664.6 1074.8,672.9 1074.8,681 1074.8,689.1 1074.8,697.6 1074.8,705.5 
		1074.8,713.9 1074.8,721.9 1074.8,730.2 1074.8,737 	"/>
	<polyline class="st7" points="1125,603.5 1125,614.2 1125,624.9 1125,631.5 1125,635.4 1125,646.5 1125,656.8 1125,667.8 
		1125,678.3 1125,687.2 	"/>
	<polyline class="st7" points="1075.1,553.6 1075.1,564.4 1075.1,575 1075.1,581.7 1075.1,585.6 1075.1,596.7 1075.1,607 
		1075.1,617.9 1075.1,628.4 1075.1,637.4 	"/>
	<polyline class="st7" points="1125.6,504.3 1125.6,515 1125.6,525.7 1125.6,532.3 1125.6,536.2 1125.6,547.3 1125.6,557.6 
		1125.6,568.6 1125.6,579.1 1125.6,588 	"/>
	<polyline class="st7" points="1124.7,346.8 1124.7,347.7 1124.7,389.2 	"/>
	<polyline class="st7" points="1125.4,405.3 1125.4,416 1125.4,426.7 1125.4,433.3 1125.4,437.2 1125.4,448.3 1125.4,458.7 
		1125.4,469.6 1125.4,480.1 1125.4,489 	"/>
	<polyline class="st7" points="1074.7,346.8 1074.7,395.8 1074.7,437.4 	"/>
	<polyline class="st7" points="1075.1,453.8 1075.1,464.5 1075.1,475.2 1075.1,481.8 1075.1,485.8 1075.1,496.8 1075.1,507.2 
		1075.1,518.1 1075.1,528.6 1075.1,537.5 	"/>
	<line class="st7" x1="1025.4" y1="388" x2="1025.4" y2="346.8"/>
	<polyline class="st7" points="1025.7,404.4 1025.7,415.1 1025.7,425.8 1025.7,432.5 1025.7,436.4 1025.7,447.5 1025.7,457.8 
		1025.7,468.7 1025.7,479.2 1025.7,488.1 	"/>
	<polyline class="st7" points="1025.2,503.7 1025.2,514.4 1025.2,525.1 1025.2,531.7 1025.2,535.6 1025.2,546.7 1025.2,557 
		1025.2,568 1025.2,578.5 1025.2,587.4 	"/>
	<polyline class="st7" points="975.1,453.6 975.1,464.4 975.1,475 975.1,481.7 975.1,485.6 975.1,496.7 975.1,507 975.1,517.9 
		975.1,528.4 975.1,537.4 	"/>
	<polyline class="st7" points="975.1,346.8 975.1,395.4 975.1,436.9 	"/>
	<polyline class="st7" points="925.2,403.7 925.2,414.4 925.2,425.1 925.2,431.7 925.2,435.6 925.2,446.7 925.2,457 925.2,468 
		925.2,478.5 925.2,487.4 	"/>
	<line class="st7" x1="925.2" y1="387" x2="925.2" y2="346.8"/>
	<polyline class="st7" points="1024.8,606.5 1024.8,614.6 1024.8,622.9 1024.8,631 1024.8,639.1 1024.8,647.6 1024.8,655.5 
		1024.8,663.9 1024.8,671.9 1024.8,680.2 1024.8,687 	"/>
	<polyline class="st7" points="975.1,556.8 975.1,565 975.1,573.2 975.1,581.4 975.1,589.4 975.1,597.9 975.1,605.8 975.1,614.2 
		975.1,622.2 975.1,630.6 975.1,637.3 	"/>
	<polyline class="st7" points="924.7,506.4 924.7,514.6 924.7,522.8 924.7,531 924.7,539 924.7,547.5 924.7,555.4 924.7,563.8 
		924.7,571.8 924.7,580.2 924.7,586.9 	"/>
	<polyline class="st7" points="874.7,456.4 874.7,464.6 874.7,472.8 874.7,481 874.7,489 874.7,497.5 874.7,505.4 874.7,513.8 
		874.7,521.8 874.7,530.2 874.7,536.9 	"/>
	<polyline class="st7" points="874.5,346.8 874.5,395.1 874.5,436.7 	"/>
	<polyline class="st7" points="824.9,346.8 824.9,396.5 824.9,446.5 824.9,486.1 	"/>
	<polyline class="st7" points="775.5,346.8 775.5,396.5 775.5,436.7 	"/>
	<line class="st7" x1="725.4" y1="346.8" x2="725.4" y2="386.6"/>
	<line class="st7" x1="1125.2" y1="897.8" x2="1125.2" y2="807.4"/>
	<line class="st7" x1="1075.2" y1="898.8" x2="1075.2" y2="756.9"/>
	<line class="st7" x1="1025.2" y1="898.8" x2="1025.2" y2="707.4"/>
	<line class="st7" x1="975.2" y1="899.8" x2="975.2" y2="656.9"/>
	<line class="st7" x1="925.4" y1="896.8" x2="925.4" y2="607.1"/>
	<line class="st7" x1="875.4" y1="896.8" x2="875.4" y2="557.1"/>
	<line class="st7" x1="825.6" y1="896.8" x2="825.6" y2="507.3"/>
	<line class="st7" x1="775.4" y1="896.8" x2="775.4" y2="457.1"/>
	<line class="st7" x1="725.4" y1="899.8" x2="725.4" y2="407.1"/>
	<line class="st7" x1="675.4" y1="898.8" x2="675.4" y2="357.1"/>
	<polyline class="st7" points="76.8,837.4 76.8,830.6 76.8,822.3 76.8,814.3 76.8,805.9 76.8,798 76.8,789.5 76.8,781.4 76.8,773.3 
		76.8,765 76.8,756.9 	"/>
	<polyline class="st7" points="77.1,737.2 77.1,728.3 77.1,717.7 77.1,706.8 77.1,696.5 77.1,685.4 77.1,681.5 77.1,674.8 
		77.1,664.2 77.1,653.4 	"/>
	<polyline class="st7" points="126.8,787.4 126.8,780.7 126.8,772.3 126.8,764.3 126.8,755.9 126.8,748 126.8,739.5 126.8,731.4 
		126.8,723.3 126.8,715.1 126.8,706.9 	"/>
	<polyline class="st7" points="177.2,737 177.2,730.2 177.2,721.9 177.2,713.9 177.2,705.5 177.2,697.6 177.2,689.1 177.2,681 
		177.2,672.9 177.2,664.6 177.2,656.5 	"/>
	<polyline class="st7" points="127,687.2 127,678.3 127,667.8 127,656.8 127,646.5 127,635.4 127,631.5 127,624.9 127,614.2 
		127,603.5 	"/>
	<polyline class="st7" points="176.9,637.4 176.9,628.4 176.9,617.9 176.9,607 176.9,596.7 176.9,585.6 176.9,581.7 176.9,575 
		176.9,564.4 176.9,553.6 	"/>
	<polyline class="st7" points="77.1,637.4 77.1,628.4 77.1,617.9 77.1,607 77.1,596.7 77.1,585.6 77.1,581.7 77.1,575 77.1,564.4 
		77.1,553.6 	"/>
	<polyline class="st7" points="77.8,438.8 77.8,397.2 77.8,348.2 77.8,346.8 	"/>
	<polyline class="st7" points="126.4,588 126.4,579.1 126.4,568.6 126.4,557.6 126.4,547.3 126.4,536.2 126.4,532.3 126.4,525.7 
		126.4,515 126.4,504.3 	"/>
	<polyline class="st7" points="77,538.6 77,529.7 77,519.1 77,508.2 77,497.9 77,486.8 77,482.9 77,476.3 77,465.6 77,454.9 	"/>
	<polyline class="st7" points="127.3,389.2 127.3,347.7 127.3,346.8 	"/>
	<polyline class="st7" points="126.6,489 126.6,480.1 126.6,469.6 126.6,458.7 126.6,448.3 126.6,437.2 126.6,433.3 126.6,426.7 
		126.6,416 126.6,405.3 	"/>
	<polyline class="st7" points="177.3,437.4 177.3,395.8 177.3,346.8 	"/>
	<polyline class="st7" points="176.9,537.5 176.9,528.6 176.9,518.1 176.9,507.2 176.9,496.8 176.9,485.8 176.9,481.8 176.9,475.2 
		176.9,464.5 176.9,453.8 	"/>
	<line class="st7" x1="226.7" y1="346.8" x2="226.7" y2="388"/>
	<polyline class="st7" points="226.3,488.1 226.3,479.2 226.3,468.7 226.3,457.8 226.3,447.5 226.3,436.4 226.3,432.5 226.3,425.8 
		226.3,415.1 226.3,404.4 	"/>
	<polyline class="st7" points="226.8,587.4 226.8,578.5 226.8,568 226.8,557 226.8,546.7 226.8,535.6 226.8,531.7 226.8,525.1 
		226.8,514.4 226.8,503.7 	"/>
	<polyline class="st7" points="276.9,537.4 276.9,528.4 276.9,517.9 276.9,507 276.9,496.7 276.9,485.6 276.9,481.7 276.9,475 
		276.9,464.4 276.9,453.6 	"/>
	<polyline class="st7" points="276.9,436.9 276.9,395.4 276.9,346.8 	"/>
	<polyline class="st7" points="326.8,487.4 326.8,478.5 326.8,468 326.8,457 326.8,446.7 326.8,435.6 326.8,431.7 326.8,425.1 
		326.8,414.4 326.8,403.7 	"/>
	<line class="st7" x1="326.8" y1="346.8" x2="326.8" y2="387"/>
	<polyline class="st7" points="227.2,687 227.2,680.2 227.2,671.9 227.2,663.9 227.2,655.5 227.2,647.6 227.2,639.1 227.2,631 
		227.2,622.9 227.2,614.6 227.2,606.5 	"/>
	<polyline class="st7" points="276.9,637.3 276.9,630.6 276.9,622.2 276.9,614.2 276.9,605.8 276.9,597.9 276.9,589.4 276.9,581.4 
		276.9,573.2 276.9,565 276.9,556.8 	"/>
	<polyline class="st7" points="327.3,586.9 327.3,580.2 327.3,571.8 327.3,563.8 327.3,555.4 327.3,547.5 327.3,539 327.3,531 
		327.3,522.8 327.3,514.6 327.3,506.4 	"/>
	<polyline class="st7" points="377.3,536.9 377.3,530.2 377.3,521.8 377.3,513.8 377.3,505.4 377.3,497.5 377.3,489 377.3,481 
		377.3,472.8 377.3,464.6 377.3,456.4 	"/>
	<polyline class="st7" points="377.5,436.7 377.5,395.1 377.5,346.8 	"/>
	<polyline class="st7" points="427.1,486.1 427.1,446.5 427.1,396.5 427.1,346.8 	"/>
	<polyline class="st7" points="476.5,436.7 476.5,396.5 476.5,346.8 	"/>
	<line class="st7" x1="526.6" y1="386.6" x2="526.6" y2="346.8"/>
	<line class="st7" x1="76.8" y1="896.8" x2="76.8" y2="857.5"/>
	<line class="st7" x1="126.8" y1="897.8" x2="126.8" y2="807.4"/>
	<line class="st7" x1="176.8" y1="898.8" x2="176.8" y2="756.9"/>
	<line class="st7" x1="226.8" y1="898.8" x2="226.8" y2="707.4"/>
	<line class="st7" x1="276.8" y1="899.8" x2="276.8" y2="656.9"/>
	<line class="st7" x1="326.7" y1="896.8" x2="326.7" y2="607.1"/>
	<line class="st7" x1="376.7" y1="896.8" x2="376.7" y2="557.1"/>
	<line class="st7" x1="426.5" y1="896.8" x2="426.5" y2="507.3"/>
	<line class="st7" x1="476.7" y1="896.8" x2="476.7" y2="457.1"/>
	<line class="st7" x1="526.7" y1="899.8" x2="526.7" y2="407.1"/>
	<line class="st7" x1="576.7" y1="898.8" x2="576.7" y2="357.1"/>
	<line class="st7" x1="625.4" y1="896.8" x2="625.4" y2="346.8"/>
</g>
</svg>
