<?xml version="1.0" encoding="utf-8"?>
<!-- Generator: Adobe Illustrator 22.0.1, SVG Export Plug-In . SVG Version: 6.00 Build 0)  -->
<svg version="1.1" id="Layer_1" xmlns="http://www.w3.org/2000/svg" xmlns:xlink="http://www.w3.org/1999/xlink" x="0px" y="0px"
	 viewBox="0 0 172.7 64.2" style="enable-background:new 0 0 172.7 64.2;" xml:space="preserve">
<g transform="translate(0.000000,288.000000) scale(0.100000,-0.100000)">
	<path d="M221.9,2835.1C159.1,2811.4,50,2742.7,50,2727.3c0-14.8,35.6-93.6,46.2-101.4c5.3-4.1,21.9-7.7,37.3-7.7
		c14.8,0,30.2-3.6,33.8-7.7c4.1-5.3,3-56.9-4.7-173.1c-6.5-91.3-9.5-167.7-6.5-170.7c2.4-2.4,80-3.6,173.1-3l168.3,1.8l-1.2,37.9
		c-1.2,27.9-4.7,39.7-11.9,45.6c-10.1,6.5-10.7,4.7-12.4-27.9l-1.8-35H325.6H180.4v16.6c0,8.9,4.1,72.3,8.9,140.5
		c4.7,68.8,8.9,135.7,8.9,150c0,28.4-14.2,46.8-40.9,52.2c-14.2,3-20.2,10.1-35.6,45c-10.1,23.1-18.4,43.9-18.4,46.8
		c0,7.1,84.8,58.1,114.4,68.2c14.8,4.7,34.4,8.3,43.9,7.1c15.4-1.8,16.6-4.1,20.2-35.6c6.5-58.1,22.5-82.4,48.6-72.3
		c11.9,4.1,21.9,33.2,21.9,62.2c0,44.5,36.2,58.7,90.7,35.6c33.2-14.2,104.9-59.3,104.9-65.8c0-2.4-7.7-22.5-17.2-44.5
		c-14.8-35.6-19.6-40.9-39.1-48c-29.6-10.1-33.2-14.8-36.7-46.2c-2.4-21.3-1.2-30.2,7.1-39.1c14.8-16,22.5-8.3,18.4,17.8
		c-4.7,29.6,5.3,41.5,35,42.1c13,0.6,28.4,1.8,34.4,3.6c11.3,3,51.6,83.6,51.6,103.7c0,16-116.8,90.7-164.8,105.5
		c-32,10.1-42.1,10.7-64,5.3c-14.2-3.6-27.3-8.9-29-10.7c-1.2-2.4-6.5-23.7-11.3-48c-13.6-64.6-17.8-64.6-27.3,0.6
		c-3.6,23.7-9.5,47.4-14.2,51.6C279.4,2841.7,245,2844,221.9,2835.1z"/>
	<path d="M907.6,2633.6c-19.6-21.3-27.9-53.3-27.9-110.2c0-84.8,21.9-126.8,63.4-123.3c24.9,2.4,41.5,20.2,49.2,55.7
		c6.5,28.4,2.4,43.9-11.9,43.9c-7.1,0-11.9-5.9-14.2-20.2c-2.4-10.7-8.9-24.3-16-30.2c-11.3-10.7-11.9-10.7-24.3,1.2
		c-9.5,10.1-13,22.5-15.4,56.9c-5.3,88.3,28.4,129.2,55.1,65.2c8.9-20.7,24.3-26.1,27.9-8.9c3.6,16-5.3,49.2-17.8,65.8
		C959.2,2652,926,2653.8,907.6,2633.6z"/>
	<path d="M640.3,2632.4c-5.3-14.8-4.1-217.5,1.8-227c3-4.7,9.5-6.5,14.8-4.7c7.7,3,9.5,15.4,10.1,70.5l0.6,67l8.3-56.3
		c11.3-78.2,12.4-83,26.1-83s14.8,4.7,26.1,83l8.3,56.3l0.6-67c0.6-55.1,2.4-67.6,10.1-70.5c5.3-1.8,11.9,0,14.8,4.7
		c5.9,9.5,7.1,212.2,1.8,227c-4.1,10.1-35,13-40.3,4.1c-1.8-2.4-6.5-30.8-10.1-62.2c-4.1-31.4-8.9-56.9-11.3-56.9
		s-7.1,25.5-11.3,56.9c-3.6,31.4-8.3,59.9-10.1,62.2C675.3,2645.5,644.5,2642.5,640.3,2632.4z"/>
	<path d="M1303,2577.9c-10.7-6.5-20.2-28.4-20.2-45c0-11.3,3-15.4,11.9-15.4c6.5,0,11.9,3.6,11.9,8.3c0,4.1,4.1,11.3,8.9,15.4
		c7.1,5.9,10.7,5.9,17.8,0c15.4-12.4,10.1-23.7-17.2-35.6c-22.5-9.5-27.9-14.8-33.8-35c-10.1-33.8,3-68.2,26.7-70.5
		c9.5-1.2,21.3,2.4,27.3,7.7c9.5,8.3,10.7,8.3,13.6,0c4.7-10.7,21.9-11.9,22.5-1.2c0,3.6,0,34.4-0.6,67.6
		c-0.6,63.4-6.5,95.4-19,103.7C1343.3,2583.8,1311.8,2583.8,1303,2577.9z"/>
	<path d="M1514.6,2571.4c-25.5-25.5-29-116.2-5.9-154.1c8.9-14.8,14.8-18.4,31.4-18.4c26.7,0,45,21.9,45,53.9
		c0,28.4-15.4,32-24.3,5.9c-7.7-21.3-19.6-26.7-30.2-14.2c-10.7,13-10.1,80,0.6,93.1c7.7,8.9,8.9,8.9,19,0
		c6.5-5.9,11.3-13.6,11.3-18.4c0-4.1,5.3-7.7,11.9-7.7c9.5,0,11.9,4.1,11.9,20.2C1585.1,2573.8,1541.8,2598.6,1514.6,2571.4z"/>
	<path d="M1615.3,2567.8c-15.4-20.2-20.2-46.8-17.2-94.8c3-48,17.2-70.5,47.4-72.9c22.5-1.8,36.7,9.5,43.3,35.6
		c5.9,24.3-11.3,28.4-27.9,7.7l-13-16.6l-10.7,13.6c-5.9,7.1-10.7,17.8-10.7,24.3c0,8.9,5.3,10.7,31.4,12.4l30.8,1.8v33.8
		c-0.6,41.5-15.4,65.8-42.7,68.8C1632.5,2582.6,1624.8,2579.7,1615.3,2567.8z"/>
	<path d="M780.8,2566.6c-2.4-5.3,3.6-46.8,13-91.9c13-65.8,15.4-84.8,10.1-96.6c-4.1-8.9-10.1-13-15.4-11.3
		c-10.1,3.6-17.8-14.8-11.9-29.6c5.3-14.8,36.2-12.4,46.2,4.1c9.5,14.8,45,186.7,45,216.3c0,15.4-2.4,19.6-10.1,17.8
		c-8.3-1.2-13.6-14.8-22.5-58.1l-11.3-56.3l-4.7,26.7c-11.9,68.8-17.8,88.9-26.1,88.9C788.5,2576.7,782.6,2572,780.8,2566.6z"/>
	<path d="M1016.1,2487.8c0-82.4,0.6-88.9,10.7-88.9s11.9,7.1,14.8,58.7c4.7,72.3,6.5,76.5,25.5,72.9c13.6-2.4,14.2-4.7,14.2-45.6
		c0-34.4,2.4-46.2,13.6-62.8c21.9-32.6,55.7-30.8,71.7,3c12.4,27.3,12.4,98.4,0,125.7c-16,33.8-49.8,35.6-71.1,3.6l-13.6-19.6
		l-1.8,19.6c-1.2,15.4-4.7,20.2-16,21.3c-7.7,1.2-16.6-1.2-19-5.9c-4.1-5.9-5.3-5.9-5.3,0c0,3.6-5.3,7.1-11.9,7.1
		C1016.7,2576.7,1016.1,2572.6,1016.1,2487.8z"/>
	<path d="M1183.8,2566.6c-2.4-5.3,3.6-46.8,13-91.9c13-65.8,15.4-84.8,10.1-96.6c-4.1-8.9-10.1-13-15.4-11.3
		c-10.1,3.6-17.8-14.8-11.9-29.6c5.3-14.8,36.2-12.4,46.2,4.1c9.5,14.8,45,186.7,45,216.3c0,15.4-2.4,19.6-10.1,17.8
		c-8.3-1.2-13.6-14.8-22.5-58.1l-11.3-56.3l-4.7,26.7c-11.9,68.8-17.8,88.9-26.1,88.9C1191.5,2576.7,1185.6,2572,1183.8,2566.6z"/>
	<path d="M1387.1,2558.3c-1.8-10.1-3.6-42.1-3.6-70.5c0-67,4.1-88.9,17.8-88.9c9.5,0,10.7,7.7,13,61.6c1.2,41.5,4.7,64.6,10.7,71.7
		c15.4,19,23.7-4.7,23.7-69.3c0-48,1.8-59.3,9.5-62.2c15.4-5.9,20.2,10.1,19.6,72.3c0,74.1-7.7,100.2-30.8,102.5
		c-9.5,1.2-20.2-1.2-24.9-4.7c-5.3-4.1-8.9-4.7-11.9,0C1403.1,2582.6,1390.7,2576.1,1387.1,2558.3z"/>
	<path d="M470.2,2519.8c-58.1-56.9-49.8-55.1-93.6-18.4c-29,24.9-46.8,30.2-63.4,19c-18.4-11.9-18.4-33.2,0-71.1
		c21.9-44.5,24.9-48,35-39.7c7.1,6.5,5.9,12.4-9.5,41.5c-11.3,21.3-16.6,38.5-14.2,45c3.6,9.5,4.7,9.5,21.9-0.6
		c10.1-5.9,26.1-19,36.2-29l18.4-19l-20.2-22.5c-28.4-32-81.8-103.7-81.8-109.6c0-3,2.4-5.3,5.3-5.3c5.9,0,52.2,34.4,96.6,72.3
		l33.8,29l36.2-29.6c50.4-42.1,83-40.9,83,3.6c0,19.6-23.7,74.7-35.6,81.8c-12.4,7.7-13-17.2-0.6-42.1
		c26.1-54.5,10.7-65.2-33.8-23.7L456,2428l45,46.2c56.3,58.1,63.4,69.9,49.2,85.3c-5.3,5.9-14.2,11.3-19,11.3
		S499.3,2547.7,470.2,2519.8z"/>
</g>
</svg>
