<svg xmlns="http://www.w3.org/2000/svg" xmlns:xlink="http://www.w3.org/1999/xlink" id="Layer_1" x="0" y="0" enable-background="new 0 0 800 800" version="1.1" viewBox="0 0 800 800" xml:space="preserve"><style type="text/css">.st0{fill:#999}.st1{fill:#f55}.st2{fill:#24c3ae}</style><g id="svgg"><path id="path1" d="M87.9,266.1c-0.4,0.8,0.6,1.2,2.8,1.6c4,0.6,5.2,0,3.2-1.6C92.1,264.7,88.3,264.5,87.9,266.1 M179,265.5c1.2,0.2,3.2,0.2,4.4,0c1.2-0.2,0.2-0.4-2.2-0.4C178.8,265.1,177.8,265.3,179,265.5 M118.4,267.3c3.4,2,4.6,2,1.4,0 c-1.4-0.8-2.8-1.6-3.2-1.6S117,266.5,118.4,267.3 M158.3,266.9c1.8,1.4,5,1.6,6.8,0.4c1-0.6,0.8-0.8-1-0.8c-1.2,0-3.4-0.2-4.8-0.4 C156.9,265.7,156.7,265.7,158.3,266.9 M176.8,267.3c0.6,1,5,1,7.2,0c1.2-0.4,0.2-0.8-3-0.8C178,266.5,176.4,266.7,176.8,267.3 M74.4,271.7c0,0.8,0.8,1.2,2.2,1.2c2.2,0,2.2,0,0.6-1.2C75.2,270.1,74.4,270.1,74.4,271.7 M146.1,271.5c-1.4,1.4-1.2,3,0.2,3 c0.8,0,1.2-0.6,1-2c0-1.2-0.2-2-0.2-2S146.5,270.9,146.1,271.5 M202.1,271.7c0,0.6,0.8,1.2,1.6,1.2c0.8,0,1.6-0.4,1.6-1 s-0.8-1-1.6-1.2C202.7,270.7,202.1,271.1,202.1,271.7 M110.7,275.1c-2.4,0.4-1.8,2.2,1,2.4c1.8,0.2,2.2,0,2.2-1.4 c0-1-0.2-1.6-0.6-1.6C112.8,274.7,111.8,274.9,110.7,275.1 M62.6,277c-0.6,1-0.4,1.4,1.4,1.4c1.2,0,2.4-0.2,2.4-0.6 c0-0.4-0.4-0.8-0.8-0.8s-0.6-0.2-0.4-0.6c0.2-0.4,0-0.6-0.6-0.6C63.8,275.5,63,276.2,62.6,277 M98.5,276.2c0,0.4,0.8,0.8,1.6,0.8 c0.8,0,1.6-0.4,1.6-0.8s-0.8-0.8-1.6-0.8C99.3,275.3,98.5,275.7,98.5,276.2 M165.7,276.4c1.4,1.4,14.8,1.4,15.3,0 c0.2-0.8-1.6-1-7.8-1C166.7,275.3,165.1,275.5,165.7,276.4 M210.3,277.2c0,1.2,0.4,1.4,3,1.4c3,0,4.2-2.2,1.2-2.4 c-0.6,0-1.6-0.2-2.6-0.2C210.9,275.7,210.3,276.2,210.3,277.2 M191,280.8c-2,0.2-4,2.4-2.4,2.6c5.6,0.8,6,0.8,6.4-0.4 c0.6-1.4,0-2.8-1-2.6C193.8,280.4,192.4,280.6,191,280.8 M82.5,281.6c0,2.6,5,3.4,5.4,0.8c0.2-1-0.4-1.4-2.6-1.4 C83.7,281,82.5,281.2,82.5,281.6 M154.7,282.2c0,0.6,0.6,1.2,1.2,1.2s1.4-0.6,1.6-1.2c0.4-0.8,0-1.2-1.2-1.2 C155.5,281,154.7,281.6,154.7,282.2 M221.7,282.6c-1.4,1.6-1.4,1.6,0.6,1.6c1.6,0,2.2-0.4,2.2-1.6c0-0.8-0.4-1.6-0.6-1.6 C223.5,281,222.5,281.8,221.7,282.6 M52.6,282.4c-1,1-0.6,1.8,1.2,1.8c1,0,1.6-0.4,1.4-1C54.6,282,53.2,281.6,52.6,282.4 M116.8,285.6c-0.8,0.8-0.6,1.6,0.6,2.2c0.8,0.4,1.2,0,1.2-1.2C118.6,285,117.8,284.6,116.8,285.6 M71,287.6 c0.4,0.6,0.6,1.4,0.4,1.6c-0.8,0.8,0.8,0.6,1.8,0c1.6-1.2,1.2-2.6-0.8-2.6C70.6,286.6,70.4,286.8,71,287.6 M202.7,288.2 c0.4,1.2,0.8,1.4,2,0.8c2.2-1.2,1.8-2.4-0.4-2.4C202.7,286.6,202.3,287,202.7,288.2 M43.9,288.4c0,0.8,0.4,1.4,1.2,1.4 s1.2-0.4,1.2-0.8s-0.4-0.6-0.8-0.4c-0.4,0.2-1,0-1.2-0.6C44.1,287.4,44.1,287.6,43.9,288.4 M128.4,295.4c0,3.4,0.2,4.6,0.4,3 c0.2-1.6,0.2-4.4,0-6C128.6,290.8,128.4,292.2,128.4,295.4 M60,293c0,0.4,0.6,0.8,1.2,0.8c0.8,0,1,0.4,0.8,0.8 c-0.4,0.6,0,0.6,1.2,0c2.8-1.4,2.6-2.2-0.2-2.4C61.2,292.2,60,292.6,60,293 M238.2,294c0,1.6,0.4,2,1.6,1.6c2-0.6,1.8-2.8-0.2-3.2 C238.6,292.2,238.2,292.6,238.2,294 M27.7,298.4c-1.2,1-0.4,2.6,1,2.6c1.8,0,1.8-0.2,1.2-2C29.3,297.8,28.5,297.4,27.7,298.4 M116.2,303.8c0,1.2,0.4,2,1.2,2s1.2-0.8,1.2-2c0-1.2-0.4-2-1.2-2S116.2,302.6,116.2,303.8 M43.1,304.2c0,1,0.6,1.6,1.6,1.6 c1.8,0,2.2-2,0.4-2.8C43.1,302.4,43.1,302.4,43.1,304.2 M255,305.4c0,0.8,0.6,1.2,1.6,1.2c2,0,1.6-1.8-0.4-2.2 C255.6,304.2,255,304.6,255,305.4 M240,308.9c-1.4,0.4-1.2,2.6,0.2,2.6c1.2,0,2.4-2.2,1.4-2.6C241.2,308.7,240.6,308.7,240,308.9 M10.8,310.9c-0.2,1.4,0,1.8,1.4,1.8c1,0,1.6-0.4,1.4-0.6s-0.2-1-0.2-1.8C13.4,308.3,11.2,308.9,10.8,310.9 M29.5,321.9 c0,0.8-0.4,1.6-0.8,1.8c-0.4,0.2-0.2,1,0.4,1.8c1,1.4,1.2,1.4,1.2-1.8c0-1.8-0.2-3.4-0.4-3.4C29.7,320.3,29.5,320.9,29.5,321.9 M124.4,326.5c0.2,0.8,1,1.4,1.8,1.4s1.6-0.6,1.8-1.4c0.2-1-0.2-1.4-1.8-1.4S124.2,325.5,124.4,326.5 M143.5,326.7 c0,0.8,0.6,1.4,1.4,1.4s1.4-0.4,1.4-1c0-0.6-0.6-1.2-1.4-1.4C143.9,325.3,143.5,325.7,143.5,326.7 M267.7,325.7 c-1.6,0.4-2,2.6-0.2,2.6c0.6,0,1.4-0.6,1.6-1.4C269.7,325.5,269.5,325.3,267.7,325.7 M12.6,326.9c0,0.8-0.6,1.8-1.2,2.6 c-1.4,1.4-1.2,3.8,0.2,4.2c0.8,0.2,2.2-7,1.4-7.6C12.8,325.7,12.6,326.3,12.6,326.9 M243.4,330.5c-0.2,0.2-0.2,0.8,0,1.4 c0.4,1.2,2.6,0,2.6-1.2C246.2,330.1,244,329.9,243.4,330.5 M26.9,333.5c-0.6,1.8-0.6,1.8,0.6,1.8c1.4,0,1.4-0.4,0.6-2 C27.5,332.3,27.3,332.5,26.9,333.5 M34.3,336.4c-1,0.6-1,0.8,0,2c1.2,1.2,1.2,1,1.4-0.8C35.9,335.3,35.9,335.3,34.3,336.4 M260.7,337.2c0,0.4,0.8,0.8,1.8,0.8c1.4,0,1.6-0.2,0.6-0.8C261.5,336.2,260.7,336.2,260.7,337.2 M246.2,340 c-0.6,0.6-0.8,1.4-0.6,1.6s0.8-0.2,1.4-0.8c0.6-0.6,0.8-1.4,0.6-1.6C247.4,339,246.8,339.4,246.2,340 M227.9,344.4 c0,0.8,0.6,1.6,1.2,1.6c1.4,0,1.4-2.2-0.2-2.6C228.1,343,227.9,343.4,227.9,344.4 M48.7,349.6c0,0.8,0.6,1.2,1.6,1.2 c2,0,1.6-1.8-0.4-2.2C49.3,348.4,48.7,348.8,48.7,349.6 M58.8,354.8c-0.2,0.4-0.8,0.6-1.2,0.4s-0.8,0-0.8,0.4c0,1.2,2.2,1,2.6-0.2 c0.4-0.8,0.4-0.8,0.4,0c0,1.4,2.4,1.2,2.4-0.2C62.4,353.8,59.6,353.6,58.8,354.8 M213.7,354.6c-0.6,0.6,0.4,1.8,1.6,1.8 c0.6,0,1.2-0.6,1.6-1.2C217.1,354.2,214.7,353.8,213.7,354.6 M217.7,355.6c-0.6,1,2.2,1.8,4.8,1.2c1.6-0.4,1.8-0.8,1-1.2 C222.1,354.6,218.3,354.6,217.7,355.6 M71.2,360.8c0,0.6,0.8,1.2,1.6,1.2c1.4,0,1.6-0.2,0.8-1.2c-0.6-0.6-1.4-1.2-1.6-1.2 C71.6,359.6,71.2,360.2,71.2,360.8 M200,364c-1,2.4-0.6,3.6,1.4,3.4c1.4,0,1.4-0.2,0.4-0.4c-0.8-0.2-1.4-0.8-1.4-1.6s0.4-1,0.8-0.8 s0.6,0,0.4-0.8C201.1,362.4,200.6,362.4,200,364 M27.1,365.7c0,2,1.2,2.2,2.8,0.4c1.4-1.6,1.4-1.6-0.6-1.6 C27.9,364.4,27.1,364.8,27.1,365.7 M246.4,366.1c0.2,2,2.4,1.8,2.8-0.2c0.2-1-0.2-1.4-1.4-1.4C246.8,364.4,246.4,364.8,246.4,366.1 M65.8,378.5c0,1.8,0.2,2.4,0.4,1.4c0.2-1,0.2-2.4,0-3.2S65.8,376.7,65.8,378.5 M184,391.7c-0.8,0.8-1.8,1.6-2.4,1.6 c-2,0-1.4,8.6,0.8,10.8c1,1,2.2,2,2.8,2c0.6,0,1,0.4,1,1c0,1.2,3.4,4.6,4.6,4.6c0.6,0,1,0.8,1.4,1.6c0.4,1.2,1,1.6,3.8,1.6 s3.4-0.4,3.8-1.6c0.2-0.8,1-1.6,1.6-1.6c0.8,0,1.2-1.2,1.2-4c0-4.2-1.4-6.4-4-6.4c-0.8,0-1.6-0.4-1.6-1c0-1.2-3.4-4.6-4.6-4.6 c-0.4,0-1-0.4-1-1C190.6,392.3,185.4,390.1,184,391.7 M229.9,391.7c-0.6,1-1.8,1.8-2.4,1.8c-0.8,0.2-1.6,0.6-2,0.8 c-0.4,0.4-0.2,0.4,0.4,0.2c0.6-0.2,1.2-0.2,1.4,0.2c0.2,0.4,0.2,0.8-0.2,0.8c-2.4-0.4-5,0.2-5,1.2c0,0.6-0.6,1.4-1.2,1.6 s-1.2,1-1.2,1.6s-0.6,1.2-1.2,1.2c-0.6,0-1.4,0.6-1.6,1.2c-0.2,0.6-1,1.2-1.6,1.2c-0.6,0-1.2,0.4-1.2,0.8c0,1.2-6.8,7.8-8.6,8.2 c-0.8,0.2-2,1.4-2.6,2.8c-0.6,1.4-1.6,2.6-2.2,2.6c-0.6,0-1,0.6-1,1.2c0,0.6-0.6,1.2-1.2,1.2c-0.6,0-1.2,0.8-1.2,1.6 c0,1-0.6,1.6-1.2,1.6c-0.6,0-1.4,0.6-1.6,1.2c-0.2,0.6-1,1.2-1.4,1.2c-0.6,0-1.2,0.8-1.4,1.6c-0.2,0.8-1,1.6-1.6,1.6 c-0.8,0-1.2,0.6-1.2,1.2s-0.6,1.2-1.2,1.2c-0.6,0-1.2,0.8-1.2,1.6c0,0.8-0.2,1.6-0.6,1.6c-1.6-0.2-2.6,0.2-2.6,1.2 c0,0.6-0.8,1.2-1.6,1.2c-0.8,0-1.6-0.6-1.6-1.2s-1-1.4-2.4-1.6s-2.2-1-2.2-1.4c0-0.6-0.6-1-1.6-1.2c-1-0.2-1.8-0.6-1.8-1 c0-1-3.8-4.8-4.8-4.8c-0.4,0-0.8-0.4-0.8-1.2c0-0.6-0.8-1.2-1.6-1.6c-0.8-0.2-1.6-1-1.6-1.6c0-0.8-0.6-1.2-1.2-1.2 c-0.6,0-1.2-0.6-1.2-1.2c0-0.8-0.8-1.2-1.8-1.2c-1,0-2.6-0.8-3.4-1.6s-2.2-1.6-2.8-1.6c-1,0-1.2-0.4-1-1.2c0.4-1-0.2-1.2-3.2-1.2 c-4.4,0-6.4-0.6-5.6-1.8c0.4-0.4,0.2-0.6-0.4-0.2s-0.8,1-0.4,1.4c0.2,0.4-1.8,0.8-4.8,0.8c-5.2,0-9,1.8-9.2,4.2 c0,0.4-0.8,1.4-1.6,2.2c-2.4,2.4-2.4,17.7,0,17.7c1.4,0,1.6,0.6,1.6,4c0,2.8,0.4,4.2,1.2,4.4c0.6,0.2,1.2,1.2,1.2,2.2 s0.8,2.8,1.6,3.8c0.8,1.2,1.6,2.6,1.6,3.4c0,0.8,0.6,1.6,1.2,1.8c0.6,0.2,1.2,1.4,1.2,2.4c0,1,0.8,2.4,1.6,3c0.8,0.6,1.6,1.4,1.6,2 s0.6,1,1.2,1c0.8,0,1.2,0.8,1.2,2c0,1,0.4,2,0.8,2c0.4,0,0.6,0.4,0.4,0.8c-0.2,0.4,0.8,0.8,2.8,0.8c1.8,0,3.4-0.4,3.8-1 c0.4-0.6,1.2-1.2,2-1.6c0.8-0.2,1.4-1.2,1.4-2.2c0-0.8,0.4-1.6,0.8-1.6s0.8-0.8,0.8-1.6s-0.4-1.6-0.8-1.6c-0.4,0-0.8-0.8-0.8-1.6 c0-1-0.6-1.8-1.6-2c-1.2-0.2-1.6-1-1.6-2.8c0-1.4-0.6-2.6-1.2-2.8c-0.6-0.2-1.2-1-1.2-1.6s-0.4-1.2-0.8-1.2c-0.4,0-0.8-0.6-0.8-1.2 s-0.4-1.2-0.8-1.2s-1.4-0.8-1.4-1.6c0-0.8-0.6-1.6-1.2-1.6c-0.8,0-1.2-1.2-1.4-3.8c-0.4-6.2-5.4-5.8-5.4,0.4c0,2,0.4,2.6,1.6,2.6 c1.2,0,1.6,0.6,1.6,2.4c0,1.4,0.4,2.6,1.2,2.8c0.6,0.2,1.2,1.4,1.2,2.8c0,1.8,0.4,2.6,1.6,2.8c1.2,0.2,1.6,1,1.6,2.8c0,3-1,3-2.2,0 c-0.6-1.8-1.2-2.2-2.4-1.8c-1.4,0.4-1.4,0.4-0.4-0.8c1-1.2,1-1.6-0.6-3c-1-0.8-1.8-2-1.8-2.4c0-0.8-1.2-2.6-3.4-4.6 c-0.8-0.8-1.4-2.2-1.4-3.2c0-1.2-0.6-2-1.4-2.2c-1.6-0.4-1.8-7.4-0.2-8.4c0.6-0.4,0.6-0.8,0-1.2c-1.2-0.8-1-3.4,0.4-4 c0.8-0.4,1.2-1.6,1.2-3.6c0-2.4,0.4-3.2,1.2-3.2c1,0,1.2,0.4,0.8,2.2c-0.4,1.2-0.8,5-1,8.4l-0.4,6.2h2.8h2.4v-5.6 c0-3.4,0.4-5.6,0.8-5.6c0.4,0,0.6,0.4,0.4,1c-0.2,0.6,0,0.4,0.6-0.4c1-1.2,1-1.2,1.8,0.4c0.4,1,1.8,1.8,2.8,2 c1,0.2,2.2,0.8,2.6,1.4c0.4,0.6,1.2,1.2,1.8,1.2c0.6,0,1.2,0.4,1.2,1s0.6,1.2,1.2,1.2s1.8,0.2,2.4,0.2c0.6,0,1.4,0.8,1.6,1.6 c0.2,0.8,1,1.4,1.6,1.4c0.6,0,1.2,0.6,1.2,1.2c0,0.6,0.8,1.4,1.6,1.6c0.8,0.2,1.6,1,1.6,1.6c0,0.6,0.4,1.2,0.8,1.2 c1.2,0,4.8,3.6,4.8,4.6c0,0.6,0.6,1,1.2,1c0.6,0,1.2,0.6,1.2,1.2s0.6,1.2,1.4,1.2c1.4,0,1.4,0,0,0.8c-0.8,0.4-1.4,1.8-1.4,3.2 c0,1.2-0.4,2.4-0.8,2.4c-1.2,0-4.8,3.6-4.8,4.6c0,0.6-0.4,1-0.8,1c-1,0-4.8,3.6-4.8,4.6c0,0.4-0.6,1-1.2,1.4 c-0.6,0.2-1,0.8-0.8,1.2c0.2,0.4-0.2,1-1.2,1.2c-0.8,0.2-1.8,1.4-2.2,2.6c-0.6,2.2-3.6,5.8-5,5.8c-0.6,0-1,0.6-1,1.2 c0,0.6-0.6,1.4-1.2,1.6s-1.2,1.4-1.2,2.8c0,1.6-0.4,2.4-1.6,2.8c-0.8,0.2-1.6,1-1.6,1.6s-0.6,1.2-1.2,1.2c-0.6,0-1.2,0.6-1.2,1.2 c0,0.6-0.6,1.2-1.2,1.2c-1.2,0-2,1.6-2,4c0,0.8-0.6,1.6-1.2,1.6c-0.6,0-1.2,0.6-1.2,1.2c0,0.6-0.6,1.2-1.2,1.2 c-0.8,0-1.4,0.6-1.6,1.6c-0.2,0.8-1,1.8-1.6,2s-1.2,1.4-1.2,2.8c0,1.6-0.4,2.4-1.6,2.8c-1.4,0.4-1.6,1-1.4,3.8l0.2,3.4l3.4,0.2 c3,0.2,3.6,0,3.8-1.4c0.2-1,1.2-1.6,2-1.8c3-0.2,3.6-0.4,3.4-1.4c-0.2-0.6,0.6-1,1.4-1c1,0,1.8-0.6,2-1.6c0.2-0.8,1-1.6,1.6-1.6 c0.6,0,1.2-0.6,1.2-1.2c0-0.8,0.8-1.2,2.2-1.2s3-1,4.8-2.8c1.4-1.6,3-2.8,3.4-2.8c0.4,0,0.8-0.8,0.8-1.6s0.2-1.6,0.6-1.6 c1.8,0.2,2.6-0.2,2.6-1.4c0-1,0.2-1.2,0.6-0.4c0.4,0.8,1.4,0.4,3.4-1.4c1.4-1.4,3-2.4,3.4-2.4c0.4,0,0.6-0.6,0.6-1.2 c0-0.6,0.4-1.2,0.8-1.2c1,0,4.8-3.8,4.8-4.8c0-0.4,0.8-0.8,2-0.8c1.2,0,2.6-0.8,3.4-2c0.8-1,1.8-1.8,2-1.4c0.2,0.2,0.6,0,0.6-0.8 s0.4-1.4,1-1.4c1.2,0,4.6-3.4,4.6-4.6c0-0.4,0.6-0.8,1.2-0.8c0.6,0,1.4-0.6,1.6-1.2c0.8-2.2,6.6,1,6.6,3.8c0,0.4,0.6,0.6,1.2,0.6 c0.6,0,1.2,0.6,1.2,1.2c0,0.6,0.4,1.2,1,1c0.6-0.2,1.4,0.4,1.8,1.4s1.8,1.8,3,2c1.6,0.2,2.2,0.6,1.8,1.4c-0.4,0.8,0.2,1.2,1.6,1.2 c1.2,0,1.8,0.4,1.4,0.8c-0.2,0.4,0.2,1,1.2,1.2c1,0.2,1.6,1,1.6,2c0,0.8,0.4,1.6,1,1.6c0.6,0,2.2,1.2,3.8,2.8 c1.6,1.8,3.6,2.8,4.8,2.8c2,0,5.2,1.4,3.6,1.6c-1.8,0.2,2.6,1.4,5,1.6c2,0,2.8-0.4,3.2-1.6l0.6-1.8l0.4,1.6c0.6,2,6,2,7.4-0.2 c0.6-0.6,1.4-1.2,1.8-1.2s1-0.6,1-1.6c0-0.8,0.8-1.6,1.6-2c1.4-0.4,1.6-1,1.6-5.2c0-4.6-0.4-5.4-2.6-5c-0.4,0-0.6-0.4-0.6-1 c0-1.8-1.6,1.4-1.6,3.2c0,1.2-0.6,2-1.6,2.2c-0.8,0.2-1.4,0.8-1,1.2s0.2,0.6-0.4,0.2c-1.6-1-1-3.4,1.2-5.2c1.6-1.2,1.8-2,1.4-3 c-0.6-1-1-1-1.4-0.4c-1.2,2-2,0.8-2-3c0-3.2,0.4-4.2,1.6-4.8c1.4-0.8,1.6-0.6,1.4,1.4c-0.2,4.2,0.8,5.8,3.4,5.8 c2.4,0,2.4,0,2.4-4.4c0-2.6-0.4-4.4-0.8-4.4c-0.4,0-0.6-0.4-0.4-0.8c0.2-0.4,0-0.8-0.6-0.6c-0.6,0.2-1.2-0.8-1.4-2.8 c-0.2-2-0.6-3-1.4-3s-1.2-0.8-1.2-2.4c0-1.8-0.4-2.6-1.6-2.8c-1.2-0.4-1.6-1-1.6-3.2c0-1.8-0.4-2.8-1.2-2.8c-0.6,0-1.4-1-1.6-2.2 c-0.4-1.2-0.8-1.8-1-1.2c-0.2,0.6-0.6,1-1.2,1c-1.2,0-0.8-2.2,0.2-2.6c0.8-0.4,0.8-0.4,0-0.4c-0.6,0-1-0.6-1-1c0-0.6-1.4-1.8-3-3 l-3-2l-1.2,1.8c-0.6,1-1.6,1.8-2.2,1.8c-1.6,0-1.4,1.4,0.2,1.8c1.4,0.4,1.4,0.4,0,0.4c-1,0-1.4,0.8-1.4,2c0,1-0.4,2.2-0.8,2.8 c-0.6,0.6-0.6,1,0,1.4c0.4,0.2,0.8,1.4,0.8,2.4c0,1.2,0.4,2,1.2,2c0.6,0,1.2,0.6,1.2,1.6c0,2.4,0.8,4,2,4c0.6,0,1.2,0.8,1.2,2 c0,2,1.6,3.8,1.8,1.8c0-0.6,0.4,0.4,0.6,2.2c0.4,2.4,0.8,3.2,1.8,3c1.2-0.2,1.4,0.4,1.4,4.2c0,2.4,0.4,4.6,0.8,4.8 c0.4,0.2,0.8,1,0.8,1.4c0,0.6-0.4,0.4-0.8-0.2c-0.6-1-0.8-0.8-0.4,0.6c0.2,1,0.2,2-0.2,2.4c-0.8,1.2-6.6,0.2-6.6-1 c0-0.6-0.6-1.2-1.6-1.2c-1,0-2-0.6-2.4-1.2c-0.4-0.6-1.4-1.2-1.8-1.2c-0.4,0-2-1.2-3.4-2.8c-1.4-1.6-3-2.8-3.4-2.8 c-0.4,0-0.8-0.6-0.8-1.2s-1-1.6-2-2c-1.2-0.4-1.8-1.2-1.4-1.8c0.4-0.6,0.2-0.8-0.4-0.4c-0.6,0.4-1.2,0-1.4-0.8 c-0.8-2-4.2-5.2-5.2-4.8c-2,1.2-0.4-3.2,1.8-5.4c1.4-1.4,2.6-2.8,2.4-3.2c-0.2-0.4,0.4-0.8,1-0.8s1.6-0.8,2.2-2 c0.4-1,1.2-1.8,1.6-1.6c0.4,0.2,1-0.2,1.2-0.8c0.2-0.6,1-1.2,1.6-1.2s1.2-0.8,1.4-1.6c0.2-0.8,1-1.6,1.6-1.6c0.8,0,1.2-0.4,1.2-0.8 c0-1,4-4.8,5-4.8c0.4,0,0.6-0.6,0.6-1.2c0-0.6,0.6-1.2,1.2-1.2c0.6,0,1.4-0.8,1.6-1.6c0.2-0.8,1-1.6,1.6-1.6c0.6,0,1.2-0.6,1.2-1.2 c0-0.6,0.6-1.2,1.2-1.2c0.6,0,1.2-0.6,1.2-1.2s0.6-1.4,1.2-1.8c0.8-0.2,1-1,0.8-1.8s-0.2-1,0-0.8c1.2,1.2,3.6-1,3.6-3.4 c0-1.8,0.4-2.4,1.6-2.4c0.8,0,1.6-0.6,1.6-1.2c0-0.6,0.6-1.4,1.2-1.6c0.6-0.2,1.2-1,1.2-1.6c0-0.6,0.8-1.4,1.6-1.6 c1.2-0.4,1.6-1,1.6-2.8c0-1.6,0.4-2.4,1.2-2.4c0.8,0,1.2-1,1.2-3.4C249.4,394.7,234,385.9,229.9,391.7 M197.2,393.7 c0,0.8,0.4,1,1.2,0.8c0.6-0.2,1.2-0.8,1.2-1.2c0-0.4-0.6-0.8-1.2-0.8C197.8,392.5,197.2,393.1,197.2,393.7 M239.6,397.4 c1.4,1.8,1.2,2.4-0.2,2.4c-0.6,0-1.2,0.4-1.2,0.8s-1.6,0.8-3.6,0.8c-3,0-3.6-0.2-3.6-1.6C231,396.8,237.8,394.9,239.6,397.4 M210.3,399.4c0.2,2.2,0.6,2.4,2,1c1.4-1.4,1.2-3-0.6-3C210.5,397.4,210.1,397.8,210.3,399.4 M190,400.2c1,1,2.6,2.8,3.6,4 c0.8,1.2,2,2,2.6,2c0.6,0,1,0.8,1,2c0,2.4-0.8,2.6-3.2,0.4c-2.8-2.4-3.4-2.8-5.2-5.2c-0.8-1.2-2-2-2.6-2c-1.4,0-0.2-3,1.4-3.2 C187.8,398.2,189,399,190,400.2 M244.6,401.4c0,0.4-0.6,0.8-1.2,0.8c-0.6,0-1.2-0.4-1.2-0.8s0.6-0.8,1.2-0.8S244.6,401,244.6,401.4 M239.8,403.4c0,0.6,0.6,1.6,1.2,2.2c1,0.8,1,1.2,0.2,2.2c-0.8,1-1.2,1-2-0.2c-1.2-1.6-1.4-5.2-0.2-5.2 C239.4,402.2,239.8,402.6,239.8,403.4 M224.3,404.8c1.8,1.8-2.2,3.8-4.8,2.2c-0.8-0.4-0.6-0.6,0.4-0.6c0.8,0,1.4-0.6,1.4-1.2 C221.3,403.6,223.1,403.4,224.3,404.8 M231.4,409.8c-3.4,4.4-11,11.6-12.6,12c-0.8,0.2-1.4,0.8-1.4,1.2s-0.6,0.8-1.2,0.8 c-1.4,0-1-2.6,1.2-5.2c3.2-3.8,13.2-13.2,14.2-13.2c0.6,0,1.2-0.4,1.2-1s0.4-0.2,0.6,0.6C233.8,406.2,233.4,407.4,231.4,409.8 M215.7,412.2c0,0.8-2.6,5.4-3.6,6.4c-1,1-2.4,8.2-1.6,9c0.2,0.2,1.4,0,2.4-0.6c1.2-0.6,3.4-1,5.2-1c2.6,0,3.2-0.2,3.2-1.6 c0-1,0.6-1.6,1.2-1.6c0.6,0,1.4-0.6,1.6-1.2c0.2-0.6,1.2-1.2,2-1.2c0.8,0,1.6-0.4,1.8-1c0.2-0.6,1-0.8,1.6-0.4 c1.4,0.6-1.6,4.6-3.2,4.6c-0.6,0-4.2,3.6-4.2,4.2c0,0.8-6.2,6.8-8.2,7.8c-1.2,0.6-2.6,1.8-3,2.6c-1,1.8-6.4,7-7.2,7 c-0.4,0-0.6,0.8-0.6,1.6s-0.4,1.6-0.8,1.6c-1.8,0-6.6,5.4-6,7c0.4,1.2,0,1.6-1.4,1.8c-1.4,0.2-2,0.8-2,2.4c-0.2,2-0.6,2.2-3,2.2 c-2,0-2.8,0.4-3.2,1.6c-0.2,0.8-1,1.6-1.6,1.6c-0.6,0-1.2,0.6-1.6,1.2c-0.6,1.4-2.2,0.8-2-0.8c0.4-2.4-1-3.6-2.4-2.2 c-0.8,0.8-1.2,1.6-1,2c0.8,1.6-0.6,3.2-1.6,1.8c-0.6-0.8-1.4-1.2-2-0.8c-1.2,0.6-1.2,3.6-0.2,3.6c1.4,0-2,4.8-3.6,5 c-1,0.2-1.6,0.8-1.6,2c0,1-0.2,1.8-0.4,1.8c-1,0-4.8,3.8-4.8,4.8c0,0.4-0.8,0.8-2,0.8s-2.4,0.6-3,1.6c-0.6,0.8-1.6,1.6-2.4,1.6 c-0.8,0-1.4,0.4-1.4,0.8s-1,1.8-2.4,3.2c-1.4,1.2-2.4,2.8-2.4,3.2c0,0.4-1,0.8-2.4,0.8s-2.6,0.4-2.8,1.2c-0.4,1-0.8,1-2,0.4 c-1.4-0.8-1.4-1-0.4-2.6c0.6-1,1.2-2.6,1.2-3.6c0-1,0.4-1.8,1.2-1.8c0.6,0,1.2-0.6,1.2-1.2c0-0.6,0.8-1.2,1.6-1.2 c1.2,0,1.6-0.6,1.6-1.8v-1.8l0.8,1.8c0.4,1,1,1.8,1.6,1.8c1.2,0,2-1.6,1-2.6c-1.4-1.4-1-4.4,0.8-5.4c0.8-0.4,1.6-1.4,1.6-2 s0.6-1.2,1.2-1.6c0.6-0.2,1.2-1,1.2-1.6c0-1.8,1.4-1.6,2.4,0.4c0.8,1.6,1,1.6,2.2,0.4c1.2-1.2,1.2-1.4-0.2-2.4 c-1.4-1-1.4-1.2,0.2-2.8c1-1,1.6-2.2,1.6-2.8c0-1.2,6.8-8.4,8-8.4c1.2,0,0.8,1.8-0.6,2.8c-0.8,0.6-1.2,1.6-0.8,2.2 c0.6,1.8,2,1.6,2.4,0c0.2-0.8,1.2-1.8,2.2-2.2c2.4-1,2.4-3,0-3.6c-2.6-0.6-1.2-2.2,3-3l3.6-0.8h-3c-1.6,0-3.2-0.6-3.4-1 c-0.2-0.6-0.6-1.8-0.8-2.6c-0.6-1.4-0.6-2.4,0-6c0.2-1,1.4-1.2,5.8-1.2c3.2,0,5.6-0.2,5.6-0.4c-0.2-0.8,2.2-5.6,2.8-5.6 c1,0,10.2-8,10.2-8.8c0-1,14.6-15.9,15.9-15.9C215.3,411.8,215.7,412,215.7,412.2 M148.3,419c0,1.2-0.6,1.6-2,1.6s-2-0.4-2-1.6 c0-1.2,0.6-1.6,2-1.6S148.3,417.8,148.3,419 M152.3,421.8c0,1.4-0.4,2-1.6,2c-2,0-2.2-2-0.2-3.2 C152.3,419.6,152.3,419.6,152.3,421.8 M159.7,427.1c2,1.4,3.8,2.8,3.8,3.2c0,0.4,0.8,0.8,1.6,1c1.6,0.4,1.6,0.4,0.2,2.2 c-1.2,1.4-1.6,1.6-2.4,0.4c-0.4-0.6-1.4-1.2-1.8-1.2s-1-0.4-1-0.6c0-1-3.8-5-4.8-5c-0.4,0-0.8-0.6-0.8-1.2 C154.7,424,155.5,424.2,159.7,427.1 M200.4,429.3c-3.2,1.8-4.2,4.8-2.4,6.6c2.6,2.6,5.2,0.8,5.6-4.2 C204.3,428.3,203.3,427.7,200.4,429.3 M60.6,433.9c-0.4,1.2,0.2,2,1.6,2c0.6,0,1-0.6,1-1.2C63.2,433.3,61,432.5,60.6,433.9 M172.4,438.1c0,1.2-0.4,1.2-2.4,0.2c-2.4-1.4-2-3.2,0.4-2C171.4,436.7,172.4,437.5,172.4,438.1 M178.6,444.7 c-0.8,0.4-1.4,1.4-1.4,2.4c0,2.2,2.8,2,3.4-0.2C181.2,444.7,180.4,443.7,178.6,444.7 M185.2,447.5c0,0.8,0.6,1.2,1.2,1.2 c0.6,0,1.4,0.8,1.6,1.6c0.2,1,1.2,1.6,2.2,1.6c1.6,0,1.6,0-0.4-1.8C185.6,446.3,185.2,445.9,185.2,447.5 M195,447.7 c-0.8,0.6-0.8,0.8,0.2,1.2c1.6,0.6,3,0,2.4-1.2C197,446.9,196.4,446.9,195,447.7 M182,451.5c0,0.6,0.4,1.2,0.8,1.2s0.8-0.6,0.8-1.2 c0-0.6-0.4-1.2-0.8-1.2S182,450.9,182,451.5 M232.8,453.1c-0.6,2.8-2.2,4.2-2.8,2c-0.4-1.2,1.8-4,3-4 C233.2,451.1,233,451.9,232.8,453.1 M61.6,456.8c0,0.8,0.4,1.6,0.8,1.6c0.4,0,0.8-0.8,0.8-1.6c0-0.8-0.4-1.6-0.8-1.6 C62,455.2,61.6,456,61.6,456.8 M237,463.2c-0.6,0.8-4.4-0.8-4.4-1.8c0-0.4,0.6-1.6,1.4-2.4C235.4,457.4,238.2,461.2,237,463.2 M145.9,461.2c-1,1.2-2,1.6-2.2,1.2c-0.4-1.2,1.6-3.2,3-3.2C147.5,459.2,147.1,459.8,145.9,461.2 M218.1,481.6c2,0,2.2,1.2,0.2,2.4 c-2,1.2-2.4,1-2.4-0.4c0-0.6-0.6-1.2-1.2-1.2c-0.6,0-1.2-0.6-1.2-1.2c0-1,0.4-1,1.6-0.4C215.7,481.2,217.1,481.6,218.1,481.6 M225.3,486.5c1.8,1.8,2,4,0.4,4c-0.6,0-1.2-0.4-1.2-1.2c0-0.6-0.8-1.2-1.6-1.6c-1-0.2-1.4-0.8-1.2-1.6 C222.5,484.4,223.3,484.4,225.3,486.5 M239.2,488.9c-0.4,1.4-0.8,1.8-2.2,1.2c-1-0.2-2.2-0.6-3-0.6c-0.8,0-1.8-0.6-2.4-1.2 c-1-1.2-0.6-1.2,3.2-0.8c2.6,0.2,4.2,0,4.2-0.4s0.2-0.6,0.4-0.4C239.6,486.9,239.6,487.7,239.2,488.9 M71.2,490.9 c0,3.6,0.6,4.4,2.2,2.6c1.6-1.6,1.2-6.2-0.6-6.2C71.4,487.3,71.2,487.9,71.2,490.9 M147.7,489.1c-1.2,1.2,0.2,3,2.2,3 c1,0,1.2-0.4,1-2C150.5,487.9,149.1,487.5,147.7,489.1 M169.9,489.1c0,0.4,0.4,0.6,0.8,0.4c0.4-0.2,1,0,1.4,0.4 c0.4,0.6,0.2,0.8-0.2,0.4c-0.4-0.2-1.4,0-2.2,0.8c-0.6,0.6-1.2,0.8-1.2,0.4c0-1.4-1.4-1-1.8,0.8c-0.2,0.8-1,1.6-1.6,1.6 c-2.4,0-1.4,3.2,2.4,6.8c2,2,4,3.6,4.4,3.6c0.4,0,0.8,0.6,0.8,1.2c0,0.6,0.6,1.2,1.2,1.2c0.6,0,1.2,0.4,1.2,0.8 c0,1.2,3.4,4.6,4.6,4.6c0.6,0,1,0.8,1.4,1.6c0.8,2.8,4.6,2.2,4.6-0.8c0-1.2,0.2-2.6,0.6-2.8s0.4,0.8,0.4,2.4 c-0.4,3.2,3.4,4.2,4.4,1.4c0.2-0.8,1-1.6,1.6-2c1.4-0.8,1.4-3.8,0-3.6c-0.6,0.2-1.2-0.6-1.2-1.6c-0.2-1-0.8-2-1.4-2.2 c-0.6-0.2-1.2-1-1.2-1.6s-0.6-1.2-1.2-1.2c-0.6,0-1.6-1-2-2c-0.4-1.2-1.2-1.8-1.8-1.4c-0.6,0.4-0.8,0.2-0.4-0.2 c0.8-1.2-0.8-4.4-2.2-4.4c-0.6,0-1.2-0.6-1.2-1.2s-0.8-1.6-1.6-1.8c-1-0.4-1.6-1-1.4-1.4c0.2-0.4-1.2-0.8-3.2-0.8 C171.6,488.3,169.9,488.7,169.9,489.1 M208.5,493.7c-2,0.6-4,8-2.2,8c0.4,0,1,0,1.2,0c0.4,0,0.6-0.8,0.6-1.8c0-1.2,0.8-2.2,2.4-3 C215.7,494.3,214.3,492.1,208.5,493.7 M184,506.1c1.4,0.6,1.8,3.6,0.4,3.6c-1.2,0-3.8-2.4-3.8-3.4 C180.4,505.5,182.2,505.5,184,506.1 M55,518.4c-0.2,0.2-0.2,0.8,0,1.2c0.6,1,2.8,0.8,2.8,0C57.6,518.6,55.6,517.8,55,518.4 M55.4,531.2c-0.8,0.2-0.8,0.8-0.2,2c1.2,2.2,2.4,2,2.4-0.4C57.6,530.6,57.2,530.4,55.4,531.2" class="st0"/><path id="path3" d="M233.4,397c-4,1.8-3.4,4.4,1.2,4.4c2,0,3.6-0.4,3.6-0.8s0.6-0.8,1.2-0.8c1.4,0,1.4-0.8,0.2-2.4 C238.4,395.8,236.6,395.8,233.4,397 M186.2,399.4c-0.6,0.6-1,1.4-1,1.6s0.4,0.4,1,0.4c0.6,0,1.8,1,2.6,2c1.8,2.2,2.2,2.8,5.2,5.2 c2.6,2,3.2,2,3.2-0.4c0-1.2-0.4-2-1-2c-0.6,0-1.8-1-2.6-2C189.8,399,187.8,397.6,186.2,399.4 M242.2,401.4c0,0.4,0.6,0.8,1.2,0.8 c0.6,0,1.2-0.4,1.2-0.8s-0.6-0.8-1.2-0.8S242.2,401,242.2,401.4 M238.2,404c0,2.8,1.8,5,3,3.6c0.8-1,0.8-1.4-0.2-2.2 c-0.6-0.6-1.2-1.6-1.2-2.2c0-0.6-0.4-1.2-0.8-1.2C238.6,402,238.2,403,238.2,404 M221.3,405c0,0.6-0.6,1.2-1.4,1.2 c-1,0-1.2,0.2-0.4,0.6c2.6,1.6,6.8-0.2,4.8-2.2C223.1,403.4,221.3,403.6,221.3,405 M206.3,419.4c-4,4.2-7.4,7.8-7.4,8.2 c0,0.8-9.2,8.8-10.2,8.8c-0.6,0-3.2,4.8-2.8,5.6c0,0.2-2.4,0.4-5.6,0.4c-4.4,0-5.8,0.2-5.8,1.2c-0.6,3.6-0.6,4.6,0,6 c0.4,0.8,0.8,2,0.8,2.6c0.2,0.6,1.6,1,3.4,1h3l-3.6,0.8c-4.2,1-5.6,2.4-3,3c2.2,0.6,2.2,2.6,0,3.6c-1,0.4-2,1.4-2.2,2.2 c-0.6,1.8-1.8,1.8-2.4,0c-0.2-0.8,0-1.8,0.8-2.2c1.4-1,1.8-2.8,0.6-2.8c-1.2,0-8,7.2-8,8.4c0,0.6-0.8,1.8-1.6,2.8 c-1.6,1.6-1.6,1.8-0.2,2.8c1.4,1,1.4,1.2,0.2,2.4c-1.2,1.2-1.4,1.2-2.2-0.4c-1-2-2.4-2.2-2.4-0.4c0,0.6-0.6,1.4-1.2,1.6 c-0.6,0.2-1.2,1-1.2,1.6s-0.8,1.4-1.6,2c-1.8,1-2.2,4-0.8,5.4c1,1,0.4,2.6-1,2.6c-0.4,0-1.2-0.8-1.6-1.8l-0.8-1.8v1.8 c0,1.2-0.6,1.8-1.6,1.8c-0.8,0-1.6,0.6-1.6,1.2c0,0.6-0.6,1.2-1.2,1.2c-0.8,0-1.2,0.8-1.2,1.8c0,1-0.6,2.6-1.2,3.6 c-1.2,1.6-1,1.8,0.4,2.6c1.2,0.6,1.6,0.6,2-0.4c0.2-0.6,1.4-1.2,2.8-1.2c1.4,0,2.4-0.4,2.4-0.8c0-0.4,1-1.8,2.4-3.2 c1.4-1.2,2.4-2.8,2.4-3.2c0-0.4,0.6-0.8,1.4-0.8c0.8,0,1.8-0.8,2.4-1.6c0.6-1,1.8-1.6,3-1.6c1,0,2-0.4,2-0.8c0-1,3.8-4.8,4.8-4.8 c0.4,0,0.6-0.8,0.4-1.8c0-1.2,0.4-1.8,1.6-2c1.6-0.2,5-5,3.6-5c-1,0-1-3,0.2-3.6c0.6-0.4,1.4,0,2,0.8c1,1.4,2.6,0,1.6-1.8 c-0.2-0.4,0.2-1.2,1-2c1.4-1.4,2.8-0.2,2.4,2.2c-0.2,1.4,1.4,2,2,0.8c0.2-0.6,1-1.2,1.6-1.2c0.6,0,1.2-0.8,1.6-1.6 c0.4-1.2,1.2-1.6,3.2-1.6c2.4,0,2.8-0.2,3-2.2c0.2-1.6,0.8-2.2,2-2.4c1.4-0.2,1.8-0.6,1.4-1.8c-0.6-1.6,4.2-7,6-7 c0.4,0,0.8-0.8,0.8-1.6s0.4-1.6,0.6-1.6c0.8,0,6.2-5.2,7.2-7c0.4-0.8,1.8-2,3-2.6c2-1,8.2-7,8.2-7.8c0-0.6,3.6-4.2,4.2-4.2 c1.8,0,4.6-4,3.2-4.6c-0.8-0.2-1.4,0-1.6,0.4c-0.2,0.6-1,1-1.8,1c-0.8,0-1.6,0.6-2,1.2c-0.2,0.6-1,1.2-1.6,1.2 c-0.6,0-1.2,0.6-1.2,1.6c0,1.4-0.6,1.6-3.2,1.6c-1.8,0-4,0.4-5.2,1c-1.2,0.6-2.2,0.8-2.4,0.6c-0.8-0.8,0.6-8,1.6-9 c1-1,3.6-5.6,3.6-6.4C215.7,410.6,212.7,413,206.3,419.4 M132.2,420.6c0,2.2-0.4,3.4-1.2,3.6c-1.4,0.6-1.6,3.2-0.4,4 c0.6,0.4,0.6,0.8,0,1.2c-1.6,1-1.4,7.8,0.2,8.4c0.8,0.2,1.4,1.2,1.4,2.2s0.6,2.4,1.4,3.2c2.2,2,3.4,3.6,3.4,4.6 c0,0.4,0.8,1.6,1.8,2.4c1.6,1.4,1.6,1.8,0.6,3c-1,1.2-1,1.4,0.4,0.8c1.2-0.4,1.6,0,2.4,1.8c1.2,3,2.2,3,2.2,0 c0-1.6-0.4-2.4-1.6-2.8s-1.6-1-1.6-2.8c0-1.4-0.6-2.6-1.2-2.8c-0.8-0.2-1.2-1.4-1.2-2.8c0-1.8-0.4-2.4-1.6-2.4 c-2.8,0-2-6.4,0.8-7.4c0.6-0.2-0.2-0.4-1.8-0.6h-3l0.4-6.2c0.2-3.4,0.6-7.2,1-8.4c0.4-1.8,0.4-2.2-0.8-2.2 C132.6,417.4,132.2,418.2,132.2,420.6 M144.3,419c0,1.2,0.6,1.6,2,1.6s2-0.4,2-1.6c0-1.2-0.6-1.6-2-1.6S144.3,417.8,144.3,419 M150.5,420.6c-2,1.2-1.8,3.2,0.2,3.2c1.2,0,1.6-0.6,1.6-2C152.3,419.6,152.3,419.6,150.5,420.6 M154.7,425.9 c0,0.6,0.4,1.2,0.8,1.2c1,0,4.8,4,4.8,5c0,0.4,0.4,0.6,1,0.6s1.4,0.6,1.8,1.2c0.8,1,1,1,2.4-0.4c1.4-1.6,1.4-1.6-0.2-2.2 c-1-0.2-1.6-0.8-1.6-1c0-0.8-7.2-5.6-8.2-5.6C154.9,424.6,154.7,425.3,154.7,425.9 M203.9,431.7c-0.6,5-3,7-5.6,4.2 c-1.8-1.8-0.8-4.8,2.4-6.6C203.3,427.7,204.3,428.3,203.9,431.7 M168.3,436.3c0,1,2.4,2.8,3.6,2.8s0.2-2.2-1.6-3 C168.7,435.5,168.3,435.5,168.3,436.3 M180.6,446.9c-0.6,2.2-3.4,2.4-3.4,0.2c0-1.6,2.4-3.6,3.4-2.6 C180.8,444.9,181,445.9,180.6,446.9 M189.8,450.1c1.8,1.8,1.8,1.8,0.4,1.8c-1,0-1.8-0.6-2.2-1.6c-0.2-0.8-1-1.6-1.6-1.6 c-0.6,0-1.2-0.6-1.2-1.2C185.2,445.9,185.6,446.3,189.8,450.1 M197.6,447.9c0.6,1-0.8,1.8-2.4,1.2c-1-0.4-1.2-0.6-0.2-1.2 C196.4,446.9,197,446.9,197.6,447.9 M183.6,451.5c0,0.6-0.4,1.2-0.8,1.2s-0.8-0.6-0.8-1.2c0-0.6,0.4-1.2,0.8-1.2 S183.6,450.9,183.6,451.5 M231.2,452.3c-1.2,0.8-1.6,1.8-1.2,2.8c0.4,1.2,0.6,1.4,1.4,0.8s2.2-4.8,1.6-4.8 C233,451.1,232.2,451.7,231.2,452.3 M234,459c-1.8,2-1.8,3,0.6,4c2.6,1.2,3.2,0.2,1.8-3C235.4,457.6,235.4,457.4,234,459 M144.5,460.4c-1.8,2.2-0.6,2.8,1.4,0.8c1.4-1.4,1.6-2,0.8-2C146.1,459.2,145.1,459.8,144.5,460.4 M239.6,468.8 c-1,0.6-1.4,1.8-1.4,4.8c0,3.8,0.8,5,2,3c0.4-0.6,0.8-0.4,1.4,0.4c0.6,1,0.2,1.8-1.4,3c-2.2,1.6-2.8,4.2-1.2,5.2 c0.6,0.4,0.8,0.2,0.4-0.2c-0.2-0.4,0.2-1,1-1.2c1-0.2,1.6-1,1.6-2.2c0-1.8,1.6-5.2,1.6-3.4c0,0.4,0.8,0.8,1.6,1 c1,0,1.6-0.4,1.6-1.4c0-1.2-0.6-1.6-2.4-1.6c-2.6,0-3.6-1.6-3.4-5.8c0-1.2,0-2.2,0-2.2C241,468,240.4,468.4,239.6,468.8 M213.3,481.2c0,0.6,0.6,1.2,1.2,1.2c0.6,0,1.2,0.6,1.2,1.2c0,1.4,0.4,1.4,2.4,0.4c2-1,2-2.4-0.2-2.4c-1,0-2.4-0.4-3.2-0.8 C213.7,480.2,213.3,480.2,213.3,481.2 M221.7,486.1c-0.4,0.8,0,1.4,1.2,1.6c0.8,0.2,1.6,1,1.6,1.6s0.6,1.2,1.2,1.2 c1.6,0,1.4-2.2-0.4-4C223.3,484.4,222.5,484.4,221.7,486.1 M239,487.1c0,0.6-1.6,0.6-4.2,0.4c-3.8-0.4-4-0.2-3.2,0.8 c0.6,0.6,1.6,1.2,2.4,1.2c0.8,0,2.2,0.2,3,0.6c1.6,0.6,3.4-2.4,2.2-3.4C239.2,486.5,239,486.5,239,487.1 M150.9,490.1 c0.2,1.6,0,2-1,2c-2,0-3.4-1.8-2.2-3C149.1,487.5,150.5,487.9,150.9,490.1 M232.4,494.5c-0.2,1,0,1.6,0.6,1.6 c0.6,0,0.8-0.6,0.6-1.6c-0.2-0.8-0.6-1.6-0.6-1.6S232.6,493.7,232.4,494.5 M180.4,506.3c0,1,2.8,3.4,3.8,3.4c1.4,0,1.2-3-0.4-3.6 C182.2,505.5,180.4,505.5,180.4,506.3 M185.6,510.9c-0.2,0.6-0.4,2-0.2,3c0.2,1.4,0.4,1,0.8-1.2 C186.4,509.5,186.2,508.9,185.6,510.9" class="st1"/><path id="path4" d="M98.5,263.3c0,1.2-0.6,1.8-2.4,2.2c-1.8,0.4-2.2,0.6-1.4,1.2c1.4,0.8,0.8,1-7.6,0.8 c-6.6-0.2-7,0-7,1.6c0,1.2-0.6,1.6-2.2,1.6c-2,0-2,0-0.6,1.2c1.4,1,1.2,1.2-3.4,1.2c-4.4,0-5,0.2-5,1.6c0,1.2-0.6,1.6-2.2,1.6 c-1.2,0-1.8,0.2-1.2,0.4c2.4,1,0.6,1.8-3.4,1.8c-3.8,0-4.4,0.2-4.4,1.6c0,1-0.6,1.6-1.6,1.6c-1,0-1.4,0.4-1.2,1.2 c0.4,1-0.4,1.2-4,1.2c-4,0-4.4,0.2-4.4,1.6c0,0.8-0.4,1.6-0.8,1.6c-0.4,0-0.8,0.4-0.8,0.8s0.4,0.6,0.8,0.4c0.4-0.2,0.8-0.2,0.8,0.4 c0,0.4-1.8,0.8-4,0.8c-3.6,0-4,0.2-4,1.6c0,1.2-0.4,1.6-1.6,1.2c-1.2-0.4-1.6,0-1.6,1.2c0,1.2-0.6,1.6-2.8,1.6 c-2.8,0-4,1.4-2.8,3.2c1.2,2,0.8,2.4-3.6,2.4c-4,0-4.4,0.2-4.4,1.6c0,1.2-0.4,1.6-1.2,1.2c-0.8-0.4-1.4,0-1.6,1.2 c-0.4,1.4-3,2.2-6,1.8c-0.4,0,0,1.2,0.6,2.8c0.6,1.6,0.8,2.8,0.6,2.8c-0.4,0-1,0.2-1.4,0.2c-0.4,0.2-1.8,0.2-3,0.4l-2.4,0l0.2,5.8 c0.2,5.4,0.4,5.8,2.2,6c1.6,0.2,1.8,0.6,1.4,2.6c-0.6,3,0.8,3,1.6,0.2c0.6-1.6,0.6-0.2,0.6,4.6c0,6,0.2,6.6,1.4,6.6 c1,0,1.4,0.4,1.4,1.8c0,1,0.4,2,1,2.2c0.8,0.4,0.8,0.4,0,0.4c-0.6,0-1,0.4-1,0.8s0.6,0.6,1.4,0.6c1.2,0,1.4,0.4,1.2,2.8 c-0.2,2.6,0,3,1.4,3c1.4,0,1.6,0.4,1.6,4c0,3,0.2,4,1.2,4c0.8,0,1.2,0.8,1.2,2.8c0,2.8,0,2.8,3.8,2.8c3.6,0,3.8,0,2.2,1.6 c-1.4,1.6-1.4,1.6,1.4,1.6c2.2,0,2.8,0.2,2.4,1.2c-0.4,1,1.6,1.2,14.4,1.2h15.1v2.8c0,2.4,0.2,2.8,1.8,2.8s1.6,0.2,1.2,4.2 c-0.2,2.4-0.6,5.4-0.6,6.8c0,2-0.2,2.6-1.2,2.2c-0.6-0.2-1.2-0.2-1.2,0.2c1.2,7.6-0.4,46.8-1.8,46.8s-1.6,0.4-1.6,4.6 c0.2,9.2,0,13-0.8,12.6c-0.4-0.4-0.8,1-0.8,3.6s0.4,4,0.8,3.6c0.4-0.2,0.8,0.8,1,2.6c0.4,10.8,0.2,12.4-1.4,12.4 c-0.4,0-0.8,10-1,22.5c-0.2,21.5-0.2,22.5-1.8,22.5c-1.2,0-1.6,0.8-1.8,3.4c-0.6,5.6,0,8,1.8,7.4c1.4-0.4,1.6,0,1.6,3.2v3.6H138 c80.1,0,80.7,0,80.7-1.6c0-1,0.6-1.6,1.6-1.6c1.6,0,1.6-0.4,1.4-10c-0.2-9.2-0.6-10.4-2.4-10c-0.4,0-0.6-4-0.6-9.2v-9.2h-3.8 c-4.4,0-7,1.4-7,4.2c0,1.4-0.4,1.8-1.4,1.6c-1.2-0.2-1.4,0.6-1.4,9.4c0,9-0.2,9.6-1.4,9.2c-1.4-0.4-1.4-0.4,0,0.6 c3.6,2.8,3,3-65.6,3H71.2v-18.5c0-15.9,0.2-18.5,1.2-18.5c0.8,0,1.2-1,1.4-3c0-1.6,0.2-3.4,0.4-3.8c0.2-0.4,0.2-4,0.2-7.8 c0-5.4,0.4-7,1-6.4c0.8,0.4,0.8,0.4,0-0.6c-2-2.4-1.4-17.7,0.6-16.3c0.4,0.2,0.8-7.8,0.8-20.9c0-18.5,0.2-21.3,1.2-21.3 c1,0,1.2-2.8,1.2-19.7c0-13.2-0.2-19.7-0.8-19.7c-0.4,0-0.6,0.4-0.2,1c0.4,0.6,0.2,0.8-0.4,0.4c-0.6-0.4-1-2-1-3.8 c0-3,0-3.2-2.8-3.2c-2,0-2.8-0.4-2.8-1.2c0-0.6-0.8-1.2-1.6-1.2c-1,0-1.6-0.6-1.6-1.6c0-1.6-2.4-2.2-6.2-1.6c-0.6,0-1.4-0.4-2-1 c-0.6-0.6-2.4-1.4-4.6-1.4c-3-0.2-3.6-0.6-3.4-1.6c0.2-1-0.2-1.4-1.4-1.4c-1.4,0-1.6-0.6-1.6-4c0-3-0.2-4-1.2-4 c-0.8,0-1.2-0.8-1.2-2.8c0-1.6-0.2-2.8-0.6-2.8c-2,0.4-2.6-0.4-2.8-3.8c-0.2-2.6-0.6-3.8-1.2-3.6c-0.6,0.2-1-0.8-1-3 c0-2.6-0.2-3.2-1.6-3.2c-1.2,0-1.6-0.6-1.6-2.8c0-2-0.4-2.8-1.2-2.8s-1.2-0.8-1.2-3.2c0-2.4,0.4-3.2,1.2-3.2c0.6,0,1.2-0.6,1.2-1.2 c0-0.8,0.8-1.2,2.8-1.2c2.8,0,2.8,0,2.8-3.2V303l3.2,0.4c2.6,0.4,3.2,0.2,4-1.2c0.4-1,1.6-1.6,2.4-1.6s1.6-0.4,1.6-0.8 s-0.4-0.6-0.8-0.4c-0.4,0.2-0.8,0.2-0.8-0.4c0-0.4,1.6-0.8,3.6-0.8c3,0,3.6-0.2,3.6-1.6c0-0.8,0.6-1.8,1.4-2c1.4-0.4,1.4-0.4,0-0.4 c-3.4-0.2-1-1.6,2.6-1.6c3.4,0,4-0.2,4-1.6c0-1.2,0.6-1.6,2-1.6c1.8,0,2-0.2,1.2-1.2c-0.8-1-0.4-1.2,3.6-1.2s4.4-0.2,4.4-1.6 c0-1.2,0.6-1.6,2-1.6c1.4,0,1.8-0.4,1.6-1.2c-0.4-1,0.6-1.2,6.4-1.2c5.6,0,6.8-0.2,6.8-1.2c0-1.2,2.4-1.6,11.6-1.2 c5,0.2,6.4,0.6,5.6,1.8c-0.2,0.4,0.2,0.8,1.2,0.8c1.2,0,1.6,0.6,1.6,1.6s-0.4,1.4-0.8,1.2s-0.8-0.2-0.8,0.4c0,0.8,1,1.2,3,1 c0.6,0,1,0.6,1,1.4c0,1.2-0.4,1.4-1.2,1.2c-1-0.4-1.2,0.6-1.2,6.6c0,6.6,0,7-1.4,5.8c-1.2-1-1.2-1-0.4,0.4c0.6,0.8,1.8,1.4,2.6,1.4 c1.4,0,1.6,0.6,1.6,7.6c0,7,0.2,7.6,1.6,7.6c1,0,1.6,0.6,1.6,1.6c0,0.8,0.6,1.8,1.4,2c1.4,0.4,1.4,0.4,0,0.4 c-1.8,0.2-1.8,1.6-0.2,1.6c0.6,0,1.2,0.6,1.2,1.2c0,0.8,0.8,1.2,2,1.2c1.6,0,2,0.4,1.6,1.6c-0.2,1,0,1.6,0.8,1.6 c0.6,0,1.4,0.8,1.6,1.6c0.4,1.4,1,1.6,5.2,1.6c4.2,0,4.8-0.2,4.8-1.6c0-1,0.6-1.6,1.6-1.6c1,0,1.6-0.6,1.6-1.6 c0-1.2,0.4-1.4,1.6-1.2c1.2,0.4,1.6,0,1.6-1.2c0-1,0.6-1.6,1.2-1.6c1,0,1.2-1,1.2-4.8s0.2-4.8,1.2-4.8c0.6,0,1-0.4,0.8-0.8 s-0.2-0.8,0.2-0.8s0.8-4.2,0.8-10.2c0.2-10.2,0.4-12.6,1.8-10.6c0.4,0.6,0.6-1,0.6-4.4v-5.4h4c3,0,4-0.2,4-1.2 c0-1,1.6-1.2,10.4-1.2c9,0,10.4,0.2,10.4,1.2c0,1,1,1.2,5.8,1c5-0.2,5.8,0,5.6,1.2c0,0.8,0.4,1.4,1,1.4s1.2,0.8,1.2,1.6 c0,1.4,0.6,1.6,4.4,1.6c3.6,0,4.4,0.2,4,1.2c-0.2,0.6,0.2,1.2,1.2,1.6c0.8,0.2,1.6,1,1.6,1.6c0,1,0.8,1.2,2.8,1.2 c2,0,2.8,0.4,2.8,1.2c0,0.6,0.6,1.2,1.2,1.2s1.2,0.8,1.2,1.6c0,1.2,0.6,1.6,2.8,1.6c2,0,2.8,0.4,2.8,1.2c0,0.6,0.6,1.2,1.2,1.2 s1.2,0.8,1.2,1.6c0,1.4,0.6,1.6,3.2,1.6c2.4,0,3,0.2,2.8,1.2c-0.4,0.8,0,1.2,1.2,1.2c1.2,0,1.6,0.6,1.6,1.6c0,1.4,0.4,1.6,3.8,1.4 c4.4-0.2,4.2-0.4,4.2,4.8c0,3-0.2,4-1.2,4c-0.8,0-1.2,1-1.2,3.2c0,2.8-0.2,3.2-1.6,2.8c-1.4-0.4-1.6,0-1.6,3.6c0,3-0.2,4-1.2,4 c-0.8,0-1.2,0.8-1.2,2.8c0,2.2-0.4,2.8-1.6,2.8c-1.4,0-1.6,0.6-1.6,4.4c0,3.4-0.2,4.4-1.2,4.4c-0.8,0-1.2,0.8-1.2,2.4 c0,1.8-0.4,2.4-1.6,2.4c-1,0-1.6,0.6-1.6,1.6c0,1.4-0.6,1.6-3.6,1.6c-2.6,0-3.8,0.4-4,1.2c-0.2,0.6-1,1.2-1.8,1.2 c-4.4-0.4-6.6,0.2-6.6,1.6c0,1.2-0.6,1.6-2.8,1.6c-3.2,0-4.6,1.4-1.8,1.8c1.4,0.2,1.2,0.4-0.8,0.4c-3.6,0.2-4.6,4.2-1.2,5.2 c0.8,0.2,0.8,0.4-0.4,0.4c-1.2,0-1.8,0.6-1.8,1.6c0,0.8-0.6,1.6-1.2,1.6c-1,0-1.2,1.8-1.2,10.8s0.2,10.8,1.2,10.8 c0.8,0,1.2,0.8,1.2,2.8c0,2,0.4,2.8,1.2,2.8c0.6,0,1.2,0.6,1.2,1.2c0,0.8,0.8,1.2,1.8,1.2c2.4,0,4.2,1.2,3.4,2.2 c-0.4,0.4,0.2,0.8,1.2,0.8c1,0,1.4-0.6,1.2-1.2c-0.2-0.6,0-1.2,0.4-1.4c0.4-0.2,0.6-1.2,0.2-2c-0.4-1.2,0-1.6,1.2-1.6 c1.6,0,1.6-0.4,1.6-5.2c0-4-0.2-5.2-1.2-5.2c-1,0-1.2-1.2-1.2-5.6s0.2-5.6,1.2-5.6c0.8,0,1.2-0.8,1.2-2.4c0-2.6,1.2-3.8,2-2.4 c0.4,0.6,0.8,0.6,1,0c0.4-0.6,5.2-0.8,13.4-1c10.4,0,12.8-0.4,12.6-1.2c-0.2-0.8,0.4-1.2,1.8-1.4c1.6-0.2,2.2-0.6,2-1.6 c-0.2-1.2,0.4-1.4,3-1.4c3.2,0,3.2,0,3.2-2.8c0-2,0.4-2.8,1.2-2.8c0.8,0,1.2-0.8,1.2-2.8c0-2.2,0.4-2.8,1.4-2.8 c1.2,0,1.4-0.6,1.4-4s0.2-4,1.4-4s1.4-0.6,1.4-3.2s0.2-3.2,1.8-3.4l1.8-0.4l-1.8-0.2c-1,0-1.8-0.4-1.8-1c0-0.6,0.6-0.6,1.6-0.4 c1.4,0.4,1.6,0.2,1.2-1.2c-0.4-1.4-0.2-1.6,1.2-1.6s1.6-0.4,1.6-4c0-3,0.4-4,1.4-4.2c1.2-0.4,1.4-1.4,1.4-6.4 c0-6.8-0.2-7.2-3.2-7.2c-1.8,0-1.8-0.2-0.8-0.8c1.8-1,1.6-2.2-0.2-2.2c-0.8,0-1.6-0.6-1.6-1.2c0-1-1-1.2-4-1.2c-3.2,0-4-0.2-4-1.2 c0-0.8,0.4-1.2,1.6-0.8c0.8,0.2,1.4,0,1.2-0.4c-0.2-0.4-1-0.8-1.6-0.8c-0.6,0-1.2-0.6-1.2-1.2c0-0.8-0.8-1.2-2.8-1.2 s-2.8-0.4-3.2-1.6c-0.2-0.8-1-1.6-1.4-1.4c-0.6,0.2-1-0.4-1-1.2c0.2-1.2-0.4-1.4-4.2-1.2l-4.4,0.2v-3c0-2.8,0-3-2.8-3 c-2,0-2.8-0.4-2.8-1.2c0-0.6-0.6-1.2-1.2-1.2s-1.2-0.8-1.2-1.6c0-1.4-0.6-1.6-4.8-1.6c-4.2,0-4.8-0.2-4-1.2c0.8-1,0.8-1.2-0.8-1.2 c-1.2,0-1.6-0.6-1.6-1.6c0-1.4-0.6-1.6-4.4-1.6c-3,0-4.4-0.4-4.4-1c0.4-3.2-1-4.6-4.6-4.6c-2.6,0-3.6-0.4-3.6-1.2s-0.8-1.2-2.8-1.2 c-2.2,0-2.8-0.4-2.8-1.6c0-1.4-0.6-1.6-4.4-1.6c-3.6,0-4.4-0.2-4-1.2c0.4-1-0.2-1.2-3.4-0.8c-5.6,0.8-9.6-0.2-9.6-2.2 c0-1.2-0.6-1.6-3.2-1.6c-2.6,0-3.2,0.2-3.2,1.6c0,1.6-1.8,2.4-6,2.6c-2,0.2-2,0.2,0.8,0.6l3.2,0.6l-2.4,0.6 c-1.4,0.4-3.2,0.4-4.6-0.2c-1.8-0.6-2.8-0.6-4.6,0.2c-1.2,0.6-3.2,1.2-4.2,1.2c-2,0-3.2,1.8-3,4.2c0.2,0.8-0.4,1.4-1,1.4 c-0.8,0-1.2,0.8-1.2,1.8s-0.4,2.8-1,3.8c-0.6,1.2-1.2,5-1.6,8.8c-0.4,4.2-1,7.2-1.8,8c-0.8,0.8-1.2,2.8-1.2,5.4s-0.4,4.4-1.2,5 c-0.6,0.6-1.2,1.8-1.2,2.6c0,3.6-1,5.4-2.8,5.4c-2.2,0-2.8-1.4-2.8-5.6c0-1.8-0.8-4.4-1.6-6.2c-1.2-2.4-1.6-4.4-1.6-9.8 c0-4.6-0.4-7.8-1.2-9.8c-0.6-1.6-1.2-4.8-1.2-6.8c0-5.8-4.6-10-12.6-11.8c-1.4-0.4-2.6-0.8-2.6-1.2c0.4-2.2-0.4-2.6-6.2-2.6 C99.1,261.7,98.5,261.9,98.5,263.3 M184,267.3c-2.2,1-6.6,1-7.2,0c-0.4-0.6,1.2-0.8,4.2-0.8C184.2,266.5,185.2,266.9,184,267.3 M113.8,276.2c0,1.8-4,2-4.6,0.2c-0.2-0.8,0.4-1.2,4-1.8C113.6,274.5,113.8,275.3,113.8,276.2 M101.7,276.2c0,0.4-0.8,0.8-1.6,0.8 c-0.8,0-1.6-0.4-1.6-0.8s0.8-0.8,1.6-0.8C100.9,275.3,101.7,275.7,101.7,276.2 M181,276.4c-0.4,1.4-13.8,1.2-15.3,0 c-0.8-0.8,1-1,7.4-1C179.4,275.3,181.2,275.5,181,276.4 M254,321.1c0.2,2.2-0.4,4-3.4,9.4c-1,2-2.2,4.8-2.4,6.4 c-0.2,1.6-1,3.4-1.6,4.2c-1.2,1.6-3.4,6.2-4,9c-0.2,1.2-1.2,2.4-2,2.6c-0.8,0.2-1.6,0.8-1.6,1.2c0,0.4-0.8,0.4-2,0.2 c-1.8-0.4-1.8-0.6-0.8-1.6c0.6-0.6,1.2-1.8,1.2-2.8c0-0.8,1.2-3.8,2.8-6.8c1.8-3.2,3-6.6,3.2-9c0.2-2.2,0.8-3.8,1.2-3.8 c1.4,0,4.2-5.6,4.2-8.4C248.6,318.3,253.6,317.5,254,321.1 M27.7,321.7c0.2,1,0.6,1.8,1,1.8s0.8-0.8,0.8-1.8s0.4,0.8,0.8,3.8 c0.8,6,2.8,11,4.4,10.4c0.6-0.2,1,0.6,1,2.2c0,2.2,2.8,10.6,5,14.2c1.6,2.8-2,3.2-4.4,0.4c-1-1-2-2.8-2.2-4s-0.8-2.2-1.2-2.2 c-0.4,0-1-1.4-1.4-3c-0.8-4-3.4-9.2-4.4-8.4c-0.4,0.4-0.6-0.2-0.2-1.2c0.2-0.8,0.2-1.8-0.4-2.2c-0.4-0.2-0.8-1.4-0.8-2.2 s-0.6-2.4-1.2-3.4c-2.2-2.8-1.6-7,1-6.8C26.9,319.9,27.5,320.5,27.7,321.7 M417.2,355.2c0,0.6-0.6,1.2-1.6,1.2c-2.4,0-4,0.8-4,2 c0,0.6-0.6,1.2-1.2,1.2c-1.2,0-2,1.6-2,4c0,0.8-0.6,1.6-1.2,1.6s-1.2,0.6-1.2,1.2c0,0.6-0.6,1.2-1.2,1.2s-1.2,0-1.2,0.2 s-0.2,1.8-0.4,3.8c-0.2,2-1,4-1.6,4.4c-0.6,0.6-1.2,2.4-1.2,4.6c0,2.8-0.4,3.8-1.2,3.8c-1,0-1.2,3.8-1.2,28.9 c0,25.1,0.2,28.9,1.2,28.9c1,0,1.2,1,1.2,4.4c0,3.2,0.2,4.4,1,4.4s1.2,1.4,1.6,4c0.4,2.8,0.8,4,1.8,4c0.6,0,1.2,0.8,1.2,1.6 c0,0.8,0.6,1.6,1.2,1.6c1,0,1.6,2,1.2,4.2c0,0.4,0.6,0.8,1.4,1c0.8,0.2,1.8,1,2,1.6s1.6,1.2,2.8,1.2c1.8,0,2.4,0.4,2.4,1.6 c0,1.6,0.6,1.6,10.8,1.6s10.8,0,10.8-1.6c0-1,0.6-1.6,1.6-1.6c0.8,0,1.6-0.6,1.6-1.2s0.6-1.2,1.2-1.2s1.2-0.8,1.2-1.6 c0-1,0.6-1.6,1.6-1.6c1.2,0,1.6-0.6,1.6-2.8c0-2,0.4-2.8,1.2-2.8s1.2-0.8,1.2-2.8c0-2,0.4-2.8,1.6-3.2c1.4-0.4,1.6-1,1.6-7.4 c0-3.8,0.4-6.8,0.8-6.4c1,0.6,1.6-1.6,1.6-6c0-3-0.2-4-1.2-4c-0.8,0-1.2-0.8-1.2-2.8v-2.8h-6.6h-6.8v5.6c0,4.8-0.2,5.6-1.6,6 c-1.4,0.4-1.6,1-1.6,4c0,2.8-0.4,3.6-1.2,3.6c-0.6,0-1.2,0.6-1.2,1.6c0,1-0.8,1.8-1.6,2c-0.8,0.2-1.6,0.8-1.6,1.2s-0.6,0.8-1.2,0.8 s-1.2,0.6-1.2,1.2s-0.8,1.2-1.6,1.2s-1.6-0.6-1.6-1.2s-0.4-1.2-1-1.2c-1,0-4.6-3.8-4.6-4.8c0-0.4-0.6-0.8-1.2-0.8 c-0.8,0-1.2-0.8-1.2-3c0-4.6-0.6-7-2-7.8c-2.2-1.6-1.8-35.7,0.4-37.1c1.2-0.8,1.6-1.8,1.6-4.6c0-2.6,0.4-3.6,1.2-3.6 s1.2-0.8,1.2-2.8c0-2.2,0.4-2.8,1.6-2.8c0.8,0,1.6-0.6,1.6-1.2c0-0.6,0.6-1.2,1.2-1.2s1.2-0.8,1.2-1.6c0-1,0.6-1.6,1.6-1.6 s1.6,0.6,1.6,1.6c0,1,0.6,1.6,1.2,1.6s1.4,0.6,1.6,1.2c0.2,0.6,1,1.2,1.6,1.2c0.6,0,1.2,0.6,1.2,1.2c0,0.6,0.6,1.4,1.2,1.6 c0.8,0.2,1.2,1.6,1.2,3.4c0,3.2,0.8,5.2,2,5c0.4,0,0.8,1.2,1,2.8c0.2,1.8,0.6,2.8,1.4,2.8c0.6,0,1.2,0.8,1.2,1.6 c0,1.4,0.6,1.6,3.8,1.6c6.8,0,7.4-0.4,7.4-5.4c0-2.4,0.4-4.2,0.8-4s1-0.2,1.2-0.8c0.8-2.2,0.6-3.6-0.8-3.6c-1,0-1.2-1.2-1.2-6.8 c0-6.2-0.2-7-1.6-7.2c-1.2-0.4-1.6-1-1.6-3.2c0-1.8-0.4-2.8-1.2-2.8s-1.2-0.8-1.2-2.4c0-1.8-0.4-2.6-1.6-2.8 c-0.8-0.2-1.6-1-1.6-1.6c0-0.6-0.6-1.2-1.2-1.2s-1.2-0.8-1.2-1.6c0-1-0.6-1.6-1.6-1.6c-0.8,0-1.6-0.6-1.6-1.2c0-1-1.8-1.2-10.8-1.2 C419,354,417.2,354.2,417.2,355.2 M223.5,355.6c0.8,0.6,0.6,0.8-1,1.2c-2.4,0.6-5.4-0.2-4.8-1.2 C218.3,354.6,222.1,354.6,223.5,355.6 M286.9,357c-0.2,0.2-0.6,1.6-0.6,2.8c0,1.6-0.4,2.4-1.6,2.6c-1.6,0.4-1.6,1-1.6,52.8 s0,52.4,1.6,52.8c1.2,0.4,1.6,1,1.6,3.2v2.8h5.2c4.6,0,5.2-0.2,5.2-1.6c0-1,0.6-1.6,1.6-1.6c1.6,0,1.6-0.6,1.6-20.5 c0-17.9,0.2-20.5,1.2-19.5c0.8,0.8,1.2,3.6,1.4,9.8c0.2,9.6,0.4,10.8,2,10.8c0.8,0,1.2,1.6,1.2,8c0,6.2,0.2,8.2,1.2,8.4 c0.6,0.2,1.4,1.6,1.6,3.2l0.6,2.8l6.6-0.2l6.6-0.2l0.2-2.4c0.2-1.4,0.8-2.6,1.4-3c0.8-0.4,1.2-2.6,1.2-8.6c0-6.2,0.2-8,1.2-8 c1.6,0,1.8-1.2,2-10.8c0.2-6.4,0.4-9,1.4-9.8c1-1,1.2,1.4,1.2,19.5c0,20.1,0,20.5,1.6,20.5c1,0,1.6,0.6,1.6,1.6 c0,1.4,0.6,1.6,5.2,1.6h5.2v-2.8c0-2,0.4-2.8,1.6-3.2c2.4-0.6,2.6-104.8,0-105.6c-1-0.2-1.6-1.2-1.8-3l-0.2-2.6l-9.4-0.2 c-8.8-0.2-9.4-0.2-9.4,1.4c0,0.8-0.6,1.8-1.2,2c-1,0.4-1.2,2-1.2,6.8c0,5.2-0.2,6.6-1.4,7.2c-1.2,0.6-1.4,2.2-1.6,11 c-0.2,7.8-0.6,10.4-1.4,10.8c-0.8,0.4-1.2,2.8-1.2,9.8c0,8.6,0,9.2-1.6,9.2c-1.6,0-1.6-0.6-1.6-9.2c0-7-0.2-9.4-1.2-9.8 c-0.8-0.4-1.2-3.2-1.4-10.8c-0.2-8.8-0.4-10.4-1.6-11c-1.2-0.6-1.4-2-1.4-7.6c0-5.4-0.2-6.8-1.2-6.8c-0.6,0-1.2-0.8-1.2-1.6 C305.6,356.4,288.3,355.4,286.9,357 M598.6,385.7c0,0.6-1.2,1.4-2.8,1.6c-2.4,0.4-2.8,0.8-2.8,2.8c0,1.6-0.4,2.4-1.6,2.6 c-1.2,0.4-1.6,1-1.6,2.8c0,1.6-0.4,2.4-1.2,2.4c-1.6,0-1.8,16.9-0.2,18.3c0.6,0.6,3.2,1,6.4,1c5.8,0,6.4-0.4,6.4-5.2 c0-1.8,0.4-2.8,1.2-2.8c0.6,0,1.2-0.8,1.2-1.6c0-1,0.6-1.6,1.6-1.6c0.8,0,1.6-0.6,1.6-1.2s0.6-1.2,1.2-1.2c0.6,0,1.4,0.6,1.6,1.2 c0.2,0.6,1,1.2,1.6,1.2s1.2,0.6,1.2,1.2s0.6,1.4,1.2,1.6c0.8,0.2,1.2,1.6,1.2,3.2c0,2-0.4,2.8-1.2,2.8c-0.6,0-1.2,0.8-1.2,1.6 c0,1.2-0.6,1.6-2.8,1.6c-2,0-2.8,0.4-2.8,1.2c0,0.8-1,1.2-3.6,1.2c-2.8,0-3.6,0.4-4,1.6c-0.4,1.2-1.2,1.6-3.2,1.6 c-1.8,0-2.8,0.4-2.8,1.2c0,0.6-0.8,1.2-1.6,1.6c-1.2,0.4-1.6,1-1.6,2.8c0,1.6-0.4,2.4-1.2,2.4c-0.8,0-1.2,1.2-1.4,4 c-0.2,2.2-0.6,4-1,4c-2.6-0.2-3.2,16.1-0.4,16.7c1.4,0.4,1.6,1,1.6,4.4c0,3,0.2,4,1.2,4c0.8,0,1.2,0.8,1.2,2.8 c0,2.2,0.4,2.8,1.6,2.8c1,0,1.6,0.6,1.6,1.6c0,1.6,0.6,1.6,8.8,1.6c8,0,8.8-0.2,9.6-1.6c0.4-0.8,1.4-1.6,2-1.6s1.2-0.6,1.2-1.2 s0.6-1.2,1.2-1.2c0.6,0,1.4-0.4,1.6-1c0.2-0.6,0.4,0,0.4,1.2c0,1.4,0.6,2.2,1.2,2.2c0.6,0,1.2,0.8,1.6,1.6c0.8,3,10.4,2,10.8-1.2 c0.2-1.2,0.8-2.8,1.4-3.4c1.4-1.4,1.4-3,0-4.6c-1-1-1.2-5.4-1.2-29.3c0-23.9-0.2-28.3-1.2-29.3c-0.8-0.8-1.2-2.8-1.2-6.2 c0-4.2-0.2-5-1.6-5.4c-1-0.2-1.6-1.2-1.8-2.6c-0.2-1.6-0.8-2.4-2.8-2.8c-1.4-0.4-2.6-1.2-2.6-1.8c0-0.8-2.6-1-10.8-1 C600.4,384.5,598.6,384.7,598.6,385.7 M701.3,385.7c0,0.6-0.6,1.2-1.2,1.4c-0.6,0-1.6,0.2-2,0.2s-1.2,0.2-1.6,0.2 c-0.4,0-1,0.8-1.2,1.8c-0.2,1-0.8,1.4-1.2,1.2c-0.6-0.4-0.8,0.6-0.8,2.4c0,2-0.4,2.8-1.2,2.8c-1.4,0-2,1.8-2,5.2 c0,1.6-0.4,2.8-1.2,3.2c-1,0.4-1.2,2-1.2,7c0,5.6-0.2,6.8-1.6,7.6c-2.8,1.8-2.4,21.1,0.4,21.1c0.8,0,1.2,1.6,1.2,8s0.2,8.2,1.2,8.4 c0.8,0.2,1.2,1.6,1.2,3.2c0,2.2,0.4,2.8,1.6,2.8c1.2,0,1.6,0.6,1.6,2.8c0,1.6,0.4,2.6,0.8,2.4c0.4-0.2,1.2,0.2,1.6,1.2 c0.4,1,1.4,1.6,2,1.6s1.2,0.8,1.2,1.6c0,1.6,0.6,1.6,10.8,1.6s10.8,0,10.8-1.6c0-1,0.6-1.6,1.2-1.6c0.6,0,1.4-0.6,1.6-1.2 c0.2-0.6,1-1.2,1.6-1.2s1.2-0.6,1.2-1.6c0-0.8,0.8-1.6,1.6-2c1.2-0.4,1.6-1,1.6-2.8c0-1.6,0.4-2.4,1.2-2.4c2,0,1.8-22.9-0.4-24.1 c-2.8-1.6-9-1-9.4,0.8c-0.2,0.8-1,1.8-1.6,2c-0.8,0.2-1.2,1.6-1.2,4c0,2.8-0.4,3.6-1.6,4c-1.2,0.4-1.6,1-1.6,2.8 c0,2.2-0.2,2.4-2,2.4c-1.4,0-2.2,0.6-2.8,1.8l-0.8,1.8v-1.8c0-1-0.6-1.8-1.2-1.8c-0.6,0-1.2-0.6-1.2-1.2s-0.8-1.2-1.6-1.2 c-1.4,0-1.6-0.6-1.6-4.4c0-4.8-0.6-7-1.6-6.4c-0.4,0.2-0.8-3.4-0.8-8.4c0-7.2,0.2-9,1.2-9.4c0.8-0.4,1.2-1.8,1.2-5.6 c0-4.6,0.2-5.2,1.6-5.2c1,0,1.6-0.6,1.6-1.6c0-0.8,0.6-1.6,1.2-1.6s1.4-0.6,1.6-1.4c0.4-1.2,0.4-1.2,0.4,0c0,0.8,0.8,1.6,1.8,1.8 c1,0.2,1.4,0.8,1.2,1.2c-0.2,0.4,0,1,0.8,1.2c0.6,0.2,1.2,1,1.2,1.6s0.6,1.2,1.6,1.2c1.4,0,1.6,0.6,1.6,4c0,4.6,0.4,4.8,6.8,4.8 c6.8,0,6.6,0.4,6.8-10.2c0-7.2-0.2-9.8-1-11c-0.6-0.8-1.2-2.4-1.2-3.4c0-1-0.8-2.2-1.6-2.8c-0.8-0.6-1.6-1.4-1.6-2s-0.6-1-1.2-1 c-0.6,0-1.2-0.6-1.2-1.2s-0.6-1.4-1.6-1.6c-0.8-0.2-1.8-1-2-1.6C719.6,383.9,701.3,383.9,701.3,385.7 M748.7,385.7 c0,0.6-0.6,1.2-1.2,1.2c-0.6,0-1.2,0.8-1.2,1.6c0,1-0.6,1.6-1.6,1.6c-0.8,0-1.6,0.8-2,1.6c-0.2,1-0.8,1.4-1.2,1.2 c-0.6-0.4-0.8,0.6-0.8,2.4c0,2-0.4,2.8-1.2,2.8c-1.4,0-2,1.8-2,5.6c0,1.8-0.6,3.4-1.2,4c-1.8,1.4-1.8,42.1,0,43.1 c0.6,0.4,1.2,2.2,1.4,4.4c0.2,3,0.4,3.8,1.6,3.8c1.2,0,1.4,0.6,1.4,2.8c0,2,0.4,2.8,1.2,2.8c0.6,0,1.2,0.8,1.2,1.6 c0,1,0.6,1.6,1.6,1.6c0.8,0,1.6,0.6,1.6,1.2s0.6,1.2,1.2,1.2c0.6,0,1.2,0.8,1.2,1.6c0,1.6,0.6,1.6,10.4,1.6 c9.6,0,10.4-0.2,11.2-1.6c0.4-0.8,1.4-1.6,2-1.6c0.6,0,1.2-0.6,1.2-1.2s0.4-1.2,1-1.2s1.4-0.8,2-2c0.6-1.2,1.2-2,1.8-2 c0.4,0,0.8-1.6,0.8-3.6c0-2.6,0.4-3.6,1.2-3.6c1,0,1.2-1.2,1.2-5.2c0-4-0.4-5.4-1.2-5.6c-0.6-0.2-1.2-1-1.2-1.6 c0-1.4-10.4-1.6-10.6-0.4c0,0.4-0.2,1.2-0.2,1.6c0,0.4-0.2,1.4-0.2,2s-0.6,1.2-1.2,1.2c-0.6,0-1.2,0.6-1.2,1.2s-0.6,1.2-1.2,1.2 c-1,0-1.6,1-1.2,2.6c0,0.4-0.6,0.6-1.4,0.6c-0.8,0-1.8,0.4-2,1c-0.4,0.8-0.4,0.8-0.4,0c0-0.6-0.6-1-1.2-1c-0.6,0-1.2-0.6-1.2-1.2 s-0.6-1.4-1.2-1.6c-0.6-0.2-1.2-1.4-1.2-2.4c0-1.2-0.6-2.2-1.6-2.4c-1.4-0.4-1.6-1.2-1.6-4.8v-4.4h13.6c13,0,13.6,0,14-1.6 c0.2-0.8,1-1.6,1.6-1.6c0.8,0,1.2-2.6,1.2-13.6c0-11.6-0.2-13.6-1.2-13.6s-1.2-1-1.2-4c0-2.8-0.4-4.2-1.2-4.4 c-0.6-0.2-1.2-1.4-1.2-2.8c0-1.8-0.4-2.6-1.6-2.8c-0.8-0.2-1.6-1-1.6-1.6s-0.6-1.2-1.2-1.2c-0.6,0-1.2-0.6-1.2-1.2 c0-0.8-0.8-1.4-1.6-1.6s-1.6-1-1.6-1.6c0-0.8-2-1.2-9.6-1.2C750.3,384.5,748.7,384.7,748.7,385.7 M353.2,388.5 c-0.2,0.8-1,1.6-1.6,1.6c-0.8,0-1.2,2.2-1.2,10.8c0,9,0.2,10.8,1.2,10.8s1.2,1.2,1.2,5.8c0,4,0.4,6.4,1.2,7.4 c0.8,1,1.2,3.4,1.2,6.2c0,3.8,0.4,4.8,1.6,5.6c1.4,0.8,1.6,1.8,1.6,7.6c0,5.4,0.2,6.6,1.2,6.6c1,0,1.2,1,1.2,5c0,6,0.6,8.6,2,8.6 c2,0,1.6,14-0.6,14.6c-0.8,0.2-1.6,0.8-1.6,1c0.6,3.6,0,4.2-5,4.4c-5,0.2-5,0.2-5.2,2.8c-0.2,2-0.6,2.6-1.8,2.6 c-1.4,0-1.6,0.6-1.6,5.2c0,5,0.4,5.6,2.6,5.2c0.4,0,0.6,1.2,0.6,2.8v2.8h9.2c7.4,0,9.4-0.2,9.6-1.2c0.2-0.6,1-1.2,1.6-1.2 s1.2-0.4,1.2-1.2c0-0.6,0.8-1.2,1.6-1.6c1.2-0.4,1.6-1,1.6-3.4c0-1.8,0.4-3,1.2-3.4c1-0.4,1.2-2,1.2-6.8c0-5,0.2-6.4,1.2-6.4 s1.2-1.2,1.2-5.6c0-4.6,0.2-5.6,1.4-5.8c1.2-0.4,1.6-1.4,1.6-6.6c0.2-4.2,0.6-6.6,1.4-7.4c0.8-0.8,1.2-3,1.2-7.4 c0-5.6,0.2-6.2,1.6-6.6c1.4-0.4,1.6-1.2,1.8-7c0.2-4.8,0.6-6.6,1.2-6.4c0.8,0.2,1-1.6,1-7c0-4,0.4-7,0.8-6.8c1.8,1,2.4-2.2,2.4-14 c0.2-14,0.6-13.2-6.6-13.4c-4.2-0.2-4.6,0-4.6,1.4c0,1-0.6,1.6-1.2,1.6c-1,0-1.2,1.2-1.2,5.6c0,5-0.2,5.6-1.6,5.6 c-1.4,0-1.6,0.6-1.6,6.8c0,5.6-0.2,6.8-1.2,6.8c-1,0-1.2,1.4-1.2,7.2s-0.2,7.2-1.2,7.2c-0.6,0-1.4,0.6-1.6,1.4s-0.4-0.2-0.4-2.4 c0-2.4-0.6-4-1.2-4.4c-0.8-0.4-1.2-2.4-1.4-6.6c-0.2-6.8-0.4-8-2-8c-0.8,0-1.2-1.4-1.2-6.4c0-5-0.2-6.6-1.2-6.8 c-0.8-0.4-1.2-1.6-1.2-3.8c0-4.4-1-5.2-6.2-5.2C354.4,386.9,353.6,387.1,353.2,388.5 M462.1,387.9c-1,1.2-1.4,81.9-0.4,84.5 c0.6,1.6,12.8,1.8,13.4,0c0.2-0.6,0.4-8.8,0.6-18.3c0-14,0.2-17.3,1.2-17.9c1-0.6,1.2-2.8,1.2-11c0-8.6,0.2-10.4,1.2-10.4 c0.8,0,1.2-0.8,1.2-2.8c0-1.8,0.4-2.6,0.8-2.4c0.4,0.2,0.6,0.8,0.4,1.2c-0.2,0.4,2,0.8,5.2,0.8h5.6v20.9c0,18.1,0.2,20.9,1.2,20.9 c0.8,0,1.2,0.8,1.2,2.8c0,2.2,0.4,2.8,1.6,2.8s1.6,0.6,1.6,2.8c0,2,0.4,2.8,1.2,2.8c0.6,0,1.2,0.8,1.2,1.6s0.6,1.6,1.2,1.6 s1.2,0.6,1.2,1.2s0.6,1.2,1.6,1.2c0.8,0,1.6,0.8,2,1.6c0.6,2.4,19.1,2.4,19.1,0c0-1.2,0.6-1.6,2.6-1.8c1.4-0.2,2.6-0.6,2.6-1.2 c0-0.6,0.2-1.8,0.2-2.6c0-0.8,0.6-1.6,1.2-1.6c0.6,0,1.2-0.8,1.2-1.6c0-1,0.4-1.4,0.8-1.2c0.4,0.2,1,0,1.6-0.6c1-1.2,1-1.2,1-5 c0-2,0.4-2.8,1.2-2.8c1,0,1.2-3.2,1.2-23.3s-0.2-23.3-1.2-23.3c-0.8,0-1.2-1-1.2-3.6c0-3.2-1.4-6-2.6-4.8c-0.2,0.2-0.6-0.2-0.6-1.2 s-0.6-1.8-1.2-1.8c-0.6,0-1.2-0.8-1.2-1.6c0-0.8-0.2-2-0.2-2.6s-1.2-1.2-2.6-1.2c-2-0.2-2.6-0.6-2.6-1.8c0-2.4-18.5-2.4-19.1,0 c-0.2,0.8-1,1.6-2,1.6c-0.8,0-1.6,0.6-1.6,1.2s-0.6,1.2-1.2,1.2s-1.2,0.8-1.2,1.6s-0.6,1.6-1.2,1.6c-0.8,0-1.2,0.8-1.2,2.8 c0,2.2-0.4,2.8-1.6,2.8c-1.4,0-1.6-0.6-1.6-4.4c0-5-0.6-6.8-2-6.8c-0.6,0-1.2-0.6-1.2-1.2c0-3.2-15.1-3-16.3,0.4 c-0.4,1-0.4,1-0.6-0.2C475,386.9,464.1,385.9,462.1,387.9 M542.4,388.5c0,0.8-0.6,1.6-1.2,1.6c-1,0-1.2,1.8-1.2,10.8 s0.2,10.8,1.2,10.8s1.2,1.2,1.2,5.6c0,3,0,5.8,0,6.2c0.2,1.2,1.8,2.6,2.4,2.2c0.4-0.2,0.8,2.2,0.8,5.2c0,4.4,0.2,5.8,1.2,6.2 c1,0.4,1.2,2,1.2,7.2c0,6.2,0.2,6.8,1.6,6.8s1.6,0.6,1.6,6.8c0,5.6,0.2,6.8,1.2,6.8s1.2,1.4,1.2,7.2c0,5.8-0.2,7.2-1.2,7.2 c-0.8,0-1.2,0.8-1.2,2.8v2.8l-5.4,0.2l-5.4,0.2l-0.2,2.6c-0.2,1.6-0.6,2.6-1.4,2.6c-1.4,0-2,1.8-2,6.4c0,3.6,0.4,4.4,2.6,4 c0.4,0,0.6,1.2,0.6,2.8v2.8h9.2c7.4,0,9.4-0.2,9.6-1.2c0.2-0.6,1-1.2,1.6-1.2s1.2-0.4,1.2-1.2c0-0.6,0.8-1.2,1.6-1.6 c1.2-0.4,1.6-1,1.6-3.2c0-1.8,0.4-3,1.2-3.2c1-0.4,1.2-2,1.2-6.8c0-5.4,0.2-6.4,1.4-6.8c1.2-0.4,1.4-1.2,1.6-5.4 c0.2-3,0.6-5.4,1.2-6c0.6-0.6,1.2-3,1.2-6.8c0.2-3.2,0.4-6.2,0.8-6.4c1.4-1,2.2-4,2.4-8.8c0.2-3.6,0.6-5.4,1.4-5.8 c0.8-0.4,1.2-2.4,1.2-7c0-5.2,0.2-6.4,1.2-6.4s1.2-1.4,1.2-7.2c0-4,0.2-7.2,0.6-7.2c2.2,0.4,2.4-0.4,2.6-12.8 c0.2-14.4,0.2-14.2-6.2-14.4c-3.8-0.2-4.4,0-4.6,1.4c-0.2,1-1,1.6-1.6,1.6c-0.8,0-1.2,1.4-1.2,5.6c0,4.6-0.2,5.6-1.4,5.8 c-1.2,0.4-1.6,1.4-1.6,6.6c-0.2,4.6-0.4,6.4-1.4,7c-0.8,0.4-1.2,2.4-1.2,7.4c0,5.4-0.2,6.8-1.2,6.8c-0.6,0-1.4,0.6-1.6,1.4 c-0.2,0.8-0.4-0.4-0.4-2.8c0-3.2-0.4-4.2-1.2-4.2c-1,0-1.2-1.2-1.2-5.6c0-3-0.2-6-0.2-6.4s-0.2-1.2-0.2-1.6s-0.6-0.8-1.2-0.8 c-1,0-1.2-1.2-1.2-6.8s-0.2-6.8-1.2-6.8c-0.8,0-1.2-1-1.2-3.6c0-4.4-1.2-5.2-7.2-5.2C543,386.9,542.4,387.1,542.4,388.5 M637.5,388.3c-0.2,0.6-0.4,3.2-0.4,5.6c0,3.2-0.4,4.4-1.2,4.8c-1.8,0.6-1.8,62.4,0,63.2c0.8,0.4,1.2,2,1.4,5.8l0.2,5.4l4.8,0.2 c2.6,0.2,5.6,0,6.6-0.2l1.8-0.4v-24.9c0-20.7,0.2-24.9,1.2-24.9c1.6,0,2-1.8,2-6.8c0-3.4,0.2-4.4,1.2-4.4c0.6,0,1.2-0.4,1.2-1.2 c0-1.2,2-2,4.2-1.4c1.2,0.2,1.8,2.2,1.6,4.4c0,0.4,0.6,0.8,1.6,1c1.6,0.4,1.6,1.2,1.6,28.1c0,24.1,0.2,27.7,1.2,27.7 c0.6,0,1.2,0.8,1.2,1.6c0,3,10.8,2,11-1.2c0.2-1.2,0.8-2.8,1.4-3.4c1.8-1.8,1.6-60.4,0-60.4c-1,0-1.2-1-1.2-4.4 c-0.2-5.8-0.2-6-1.2-6.6c-0.4-0.4-1.2-1.8-1.4-3.2c-0.4-1.4-0.8-2.6-1.2-2.6s-1.4-0.8-2.4-1.6c-2.4-2.4-17.7-2.2-18.3,0.2 c-0.2,0.8-0.8,1.6-1.4,1.6s-1.2,0.8-1.4,1.8l-0.4,1.8l-0.2-1.8c0-1-0.6-1.8-1.4-1.8c-0.6,0-1.2-0.8-1.2-1.6 C648.4,386.3,638.3,386.3,637.5,388.3 M759.9,405c0,0.6,0.6,1.2,1.2,1.2c0.6,0,1.2,0.6,1.2,1.6c0,2.4,0.8,4,2,4 c0.8,0,1.2,1.2,1.2,4.4v4.4h-7.2h-7.2v-4.4c0-3.8,0.2-4.4,1.6-4.4c1.2,0,1.6-0.6,1.6-2.8c0-2,0.4-2.8,1.2-2.8 c0.6,0,1.2-0.6,1.2-1.2s0.8-1.2,1.6-1.2C759.1,403.8,759.9,404.4,759.9,405 M517.5,407.8c0,0.8,0.6,1.6,1.2,1.6 c0.6,0,1.4,1.2,1.6,2.4c0.2,1.4,1,2.6,1.6,2.8c0.8,0.4,1.2,1.8,1.2,5.4c0,3.8,0.4,5.2,1.2,5.4c0.8,0.4,1.2,1.6,1.2,4.6 s-0.4,4.2-1.2,4.6s-1.2,1.8-1.2,5.6c0,4-0.4,5.4-1.6,6.8c-0.8,0.8-1.6,2.2-1.6,2.8s-0.6,1.2-1.2,1.2c-0.6,0-1.2,0.8-1.2,1.6 c0,1-0.6,1.6-1.6,1.6c-1,0-1.6-0.6-1.6-1.6c0-0.8-0.6-1.6-1.2-1.6c-0.8,0-1.2-0.8-1.2-2c0-1.2-0.6-2.4-1.6-3 c-2.2-1.4-2.6-31.1-0.4-31.1c0.6,0,1.2-0.4,1.2-0.8s0.2-1.2,0.2-1.6c0.2-0.4,0.2-1.4,0.4-2c0-0.6,0.6-1.2,1.2-1.2 c0.6,0,1.2-0.8,1.2-1.6c0-1,0.6-1.6,1.6-1.6C516.9,406.2,517.5,406.8,517.5,407.8 M614.6,440.3c0,4.4-0.2,6-1,5.8 c-0.6-0.2-1,0.8-1.2,2.4c-0.2,1.6-0.6,2.6-1.4,2.6c-0.6,0-1.2,0.6-1.2,1.2c0,0.6-0.6,1.4-1.4,1.8c-0.8,0.2-1.6,1-2,1.4 c-0.4,0.6-0.6,0.6-0.6-0.2c0-0.6-0.6-1-1.2-1c-0.6,0-1.2-0.6-1.2-1.2s-0.6-1.4-1.2-1.6c-0.8-0.4-1.2-1.6-1.2-4.4s0.4-4,1.2-4.4 c0.6-0.2,1.2-1,1.2-1.6s0.8-1.2,1.6-1.2s1.6-0.6,1.6-1.2c0-0.8,0.8-1.2,2.4-1.2c1.8,0,2.6-0.4,2.8-1.6 C613,431.7,614.6,434.3,614.6,440.3 M63.2,456.8c0,0.8-0.4,1.6-0.8,1.6c-0.4,0-0.8-0.8-0.8-1.6c0-0.8,0.4-1.6,0.8-1.6 S63.2,456,63.2,456.8 M205.5,495.9c0.2,4.8,0.2,5,0.6,1.8c0.4-3,0.8-3.6,2.4-4c1.2-0.2,2-1.2,2.2-2c0.2-1.2,0.2-1.4-0.6-0.4 c-0.6,0.8-0.8,0.8-0.8,0.2c0-0.6-1-1-2-1C205.3,490.5,205.3,490.7,205.5,495.9" class="st2"/></g></svg>