<?xml version="1.0" encoding="utf-8"?>
<!-- Generator: Adobe Illustrator 21.0.0, SVG Export Plug-In . SVG Version: 6.00 Build 0)  -->
<svg version="1.1" xmlns="http://www.w3.org/2000/svg" xmlns:xlink="http://www.w3.org/1999/xlink" x="0px" y="0px"
	 viewBox="0 0 1200 1200" style="enable-background:new 0 0 1200 1200;" xml:space="preserve">
<style type="text/css">
	.st0{display:none;}
	.st1{display:inline;fill:none;stroke:#000000;stroke-width:5;stroke-linecap:round;stroke-miterlimit:10;}
	
		.st2{display:inline;opacity:0.35;fill:none;stroke:#66C9D1;stroke-width:5;stroke-linecap:round;stroke-miterlimit:10;enable-background:new    ;}
	
		.st3{display:inline;opacity:0.3;fill:none;stroke:#008799;stroke-width:5;stroke-linecap:round;stroke-miterlimit:10;enable-background:new    ;}
	
		.st4{display:inline;opacity:0.3;fill:none;stroke:#005B87;stroke-width:5;stroke-linecap:round;stroke-miterlimit:10;enable-background:new    ;}
	
		.st5{display:inline;opacity:0.35;fill:none;stroke:#8C2245;stroke-width:5;stroke-linecap:round;stroke-miterlimit:10;enable-background:new    ;}
	.st6{opacity:0.3;fill:none;stroke:#EC535E;stroke-width:5;stroke-linecap:round;stroke-miterlimit:10;enable-background:new    ;}
	
		.st7{display:inline;opacity:0.3;fill:none;stroke:#F78E37;stroke-width:5;stroke-linecap:round;stroke-miterlimit:10;enable-background:new    ;}
</style>
<g id="Layer_1">
	<g id="Layer_1_1_" class="st0">
		<line class="st1" x1="49" y1="54.1" x2="49" y2="1155.1"/>
		<line class="st1" x1="99" y1="114" x2="99" y2="1155.1"/>
		<line class="st1" x1="149" y1="164.5" x2="149" y2="1156.1"/>
		<line class="st1" x1="199" y1="214" x2="199" y2="1153.1"/>
		<line class="st1" x1="249" y1="265.5" x2="249" y2="1155.1"/>
		<line class="st1" x1="299" y1="315" x2="299" y2="1155.1"/>
		<line class="st1" x1="349" y1="365" x2="349" y2="1155.1"/>
		<line class="st1" x1="398.9" y1="414.9" x2="398.9" y2="1156.1"/>
		<line class="st1" x1="449.4" y1="465.3" x2="449.4" y2="1155.1"/>
		<line class="st1" x1="498.7" y1="514.7" x2="498.7" y2="1156.1"/>
		<line class="st1" x1="548.8" y1="1153.1" x2="548.8" y2="564.8"/>
		<line class="st1" x1="598.5" y1="1153.1" x2="598.5" y2="614.4"/>
		<line class="st1" x1="648.5" y1="1153.1" x2="648.5" y2="664.5"/>
		<line class="st1" x1="699" y1="1153.1" x2="699" y2="715"/>
		<line class="st1" x1="748.5" y1="1153.1" x2="748.5" y2="764.5"/>
		<line class="st1" x1="798.8" y1="1153.1" x2="798.8" y2="814.7"/>
		<line class="st1" x1="849.1" y1="1153.1" x2="849.1" y2="865"/>
		<line class="st1" x1="898.9" y1="1153.1" x2="898.9" y2="915.4"/>
		<line class="st1" x1="949.4" y1="1153.1" x2="949.4" y2="965.9"/>
		<line class="st1" x1="998.8" y1="1153.1" x2="998.8" y2="1015.4"/>
		<line class="st1" x1="1049.6" y1="1153.1" x2="1049.6" y2="1066.2"/>
		<line class="st1" x1="1099.3" y1="1153.1" x2="1099.3" y2="1115.9"/>
		<line class="st1" x1="1149" y1="54.1" x2="1149" y2="1155.1"/>
		<line class="st1" x1="99" y1="54.6" x2="99" y2="93.9"/>
		<line class="st1" x1="149" y1="53.6" x2="149" y2="144"/>
		<line class="st1" x1="199" y1="52.6" x2="199" y2="194.5"/>
		<line class="st1" x1="249" y1="52.6" x2="249" y2="244"/>
		<line class="st1" x1="299" y1="51.6" x2="299" y2="294.5"/>
		<line class="st1" x1="348.9" y1="54.6" x2="348.9" y2="344.3"/>
		<line class="st1" x1="398.9" y1="54.6" x2="398.9" y2="394.3"/>
		<line class="st1" x1="448.7" y1="54.6" x2="448.7" y2="444.1"/>
		<line class="st1" x1="498.9" y1="54.6" x2="498.9" y2="494.3"/>
		<line class="st1" x1="548.9" y1="51.6" x2="548.9" y2="544.3"/>
		<line class="st1" x1="598.9" y1="52.6" x2="598.9" y2="594.3"/>
		<line class="st1" x1="648.9" y1="54.6" x2="648.9" y2="644.3"/>
		<line class="st1" x1="698.8" y1="54.6" x2="698.8" y2="694.3"/>
		<line class="st1" x1="748.9" y1="52.6" x2="748.9" y2="744.3"/>
		<line class="st1" x1="799" y1="54.6" x2="799" y2="794.4"/>
		<line class="st1" x1="848.8" y1="54.6" x2="848.8" y2="844.3"/>
		<line class="st1" x1="898.9" y1="54.6" x2="898.9" y2="894.3"/>
		<line class="st1" x1="950" y1="52.6" x2="950" y2="945.5"/>
		<line class="st1" x1="998.6" y1="54.6" x2="998.6" y2="994.1"/>
		<line class="st1" x1="1049.6" y1="51.6" x2="1049.6" y2="1045.1"/>
		<line class="st1" x1="1099.6" y1="52.6" x2="1099.6" y2="1095"/>
	</g>
	<g id="Layer_2" class="st0">
		<line class="st1" x1="48" y1="1153.6" x2="1148.9" y2="1153.6"/>
		<line class="st1" x1="107.9" y1="1103.6" x2="1148.9" y2="1103.6"/>
		<line class="st1" x1="158.4" y1="1053.6" x2="1149.9" y2="1053.6"/>
		<line class="st1" x1="207.9" y1="1003.6" x2="1146.9" y2="1003.6"/>
		<line class="st1" x1="259.4" y1="953.6" x2="1148.9" y2="953.6"/>
		<line class="st1" x1="308.9" y1="903.6" x2="1148.9" y2="903.6"/>
		<line class="st1" x1="358.9" y1="853.6" x2="1148.9" y2="853.6"/>
		<line class="st1" x1="408.7" y1="803.7" x2="1149.9" y2="803.7"/>
		<line class="st1" x1="459.2" y1="753.3" x2="1148.9" y2="753.3"/>
		<line class="st1" x1="508.6" y1="703.9" x2="1149.9" y2="703.9"/>
		<line class="st1" x1="1146.9" y1="653.8" x2="558.7" y2="653.8"/>
		<line class="st1" x1="1146.9" y1="604.1" x2="608.3" y2="604.1"/>
		<line class="st1" x1="1146.9" y1="554.1" x2="658.4" y2="554.1"/>
		<line class="st1" x1="1146.9" y1="503.6" x2="708.9" y2="503.6"/>
		<line class="st1" x1="1146.9" y1="454.1" x2="758.4" y2="454.1"/>
		<line class="st1" x1="1146.9" y1="403.8" x2="808.6" y2="403.8"/>
		<line class="st1" x1="1146.9" y1="353.5" x2="858.9" y2="353.5"/>
		<line class="st1" x1="1146.9" y1="303.7" x2="909.3" y2="303.7"/>
		<line class="st1" x1="1146.9" y1="253.3" x2="959.7" y2="253.3"/>
		<line class="st1" x1="1146.9" y1="203.8" x2="1009.2" y2="203.8"/>
		<line class="st1" x1="1146.9" y1="153" x2="1060.1" y2="153"/>
		<line class="st1" x1="1146.9" y1="103.3" x2="1109.8" y2="103.3"/>
		<line class="st1" x1="48" y1="53.6" x2="1148.9" y2="53.6"/>
		<line class="st1" x1="48.5" y1="1103.6" x2="87.7" y2="1103.6"/>
		<line class="st1" x1="47.5" y1="1053.6" x2="137.9" y2="1053.6"/>
		<line class="st1" x1="46.5" y1="1003.6" x2="188.4" y2="1003.6"/>
		<line class="st1" x1="46.5" y1="953.6" x2="237.9" y2="953.6"/>
		<line class="st1" x1="45.5" y1="903.6" x2="288.4" y2="903.6"/>
		<line class="st1" x1="48.5" y1="853.8" x2="338.2" y2="853.8"/>
		<line class="st1" x1="48.5" y1="803.8" x2="388.2" y2="803.8"/>
		<line class="st1" x1="48.5" y1="754" x2="438" y2="754"/>
		<line class="st1" x1="48.5" y1="703.8" x2="488.2" y2="703.8"/>
		<line class="st1" x1="45.5" y1="653.8" x2="538.2" y2="653.8"/>
		<line class="st1" x1="46.5" y1="603.8" x2="588.2" y2="603.8"/>
		<line class="st1" x1="48.5" y1="553.8" x2="638.2" y2="553.8"/>
		<line class="st1" x1="48.5" y1="503.8" x2="688.2" y2="503.8"/>
		<line class="st1" x1="46.5" y1="453.8" x2="738.2" y2="453.8"/>
		<line class="st1" x1="48.5" y1="403.7" x2="788.3" y2="403.7"/>
		<line class="st1" x1="48.5" y1="353.8" x2="838.2" y2="353.8"/>
		<line class="st1" x1="48.5" y1="303.8" x2="888.2" y2="303.8"/>
		<line class="st1" x1="46.5" y1="252.6" x2="939.4" y2="252.6"/>
		<line class="st1" x1="48.5" y1="204" x2="987.9" y2="204"/>
		<line class="st1" x1="45.5" y1="153" x2="1039" y2="153"/>
		<line class="st1" x1="46.5" y1="103" x2="1088.9" y2="103"/>
	</g>
	<g id="Layer_1_copy" class="st0">
		<line class="st1" x1="49" y1="54.1" x2="49" y2="1155.1"/>
		<line class="st1" x1="398.9" y1="414.9" x2="398.9" y2="494.3"/>
		<line class="st1" x1="348.9" y1="362.7" x2="348.9" y2="442.2"/>
		<line class="st1" x1="449.4" y1="465.3" x2="449.4" y2="544.3"/>
		<line class="st1" x1="498.7" y1="514.7" x2="498.7" y2="644.3"/>
		<line class="st1" x1="348.9" y1="465.3" x2="348.9" y2="544.3"/>
		<line class="st1" x1="498.7" y1="665.7" x2="498.7" y2="1156.1"/>
		<line class="st1" x1="448.9" y1="564.5" x2="448.9" y2="694.2"/>
		<polyline class="st1" points="448.9,1153.6 448.9,1153.1 448.9,715.5 		"/>
		<line class="st1" x1="399.6" y1="613.7" x2="399.6" y2="743.4"/>
		<polyline class="st1" points="399.7,1153.6 399.7,1153.1 399.7,764.8 		"/>
		<line class="st1" x1="347.9" y1="665.4" x2="347.9" y2="795.1"/>
		<polyline class="st1" points="347.9,1153.6 347.9,1153.1 347.9,816.5 		"/>
		<line class="st1" x1="299.8" y1="713.5" x2="299.8" y2="843.2"/>
		<polyline class="st1" points="299.8,1153.6 299.8,1153.1 299.8,864.6 		"/>
		<line class="st1" x1="248.9" y1="764.4" x2="248.9" y2="894.1"/>
		<polyline class="st1" points="248.9,1153.6 248.9,1153.1 248.9,915.5 		"/>
		<line class="st1" x1="199.8" y1="813.5" x2="199.8" y2="943.2"/>
		<polyline class="st1" points="199.9,1153.6 199.9,1153.1 199.9,964.5 		"/>
		<line class="st1" x1="149" y1="864.3" x2="149" y2="994"/>
		<polyline class="st1" points="149.1,1153.6 149.1,1153.1 149.1,1015.4 		"/>
		<line class="st1" x1="100" y1="913.4" x2="100" y2="1043.1"/>
		<polyline class="st1" points="100,1153.6 100,1153.1 100,1064.4 		"/>
		<line class="st1" x1="299.1" y1="312.8" x2="299.1" y2="392.3"/>
		<line class="st1" x1="248.9" y1="262.7" x2="248.9" y2="342.1"/>
		<line class="st1" x1="199.3" y1="213.1" x2="199.3" y2="292.6"/>
		<line class="st1" x1="148.5" y1="162.3" x2="148.5" y2="241.8"/>
		<line class="st1" x1="98.7" y1="112.4" x2="98.7" y2="191.9"/>
		<line class="st1" x1="548.8" y1="1153.1" x2="548.8" y2="564.8"/>
		<line class="st1" x1="399.3" y1="515.4" x2="399.3" y2="594.4"/>
		<line class="st1" x1="299.2" y1="414.9" x2="299.2" y2="494.3"/>
		<line class="st1" x1="299.6" y1="515.4" x2="299.6" y2="594.4"/>
		<line class="st1" x1="349.4" y1="565.3" x2="349.4" y2="644.3"/>
		<line class="st1" x1="299.4" y1="615.3" x2="299.4" y2="694.3"/>
		<line class="st1" x1="248.6" y1="363.2" x2="248.6" y2="442.7"/>
		<line class="st1" x1="248.8" y1="465.3" x2="248.8" y2="544.8"/>
		<line class="st1" x1="249.2" y1="565.9" x2="249.2" y2="644.9"/>
		<line class="st1" x1="249" y1="665.7" x2="249" y2="744.7"/>
		<line class="st1" x1="198.9" y1="312.6" x2="198.9" y2="392.1"/>
		<line class="st1" x1="198.7" y1="413.2" x2="198.7" y2="492.7"/>
		<line class="st1" x1="198.9" y1="515.3" x2="198.9" y2="594.7"/>
		<line class="st1" x1="199.2" y1="615.8" x2="199.2" y2="694.8"/>
		<line class="st1" x1="199" y1="715.7" x2="199" y2="794.7"/>
		<line class="st1" x1="148.8" y1="263.7" x2="148.8" y2="343.1"/>
		<line class="st1" x1="148.4" y1="363.2" x2="148.4" y2="442.7"/>
		<line class="st1" x1="148.1" y1="463.8" x2="148.1" y2="543.3"/>
		<line class="st1" x1="148.3" y1="565.8" x2="148.3" y2="645.3"/>
		<line class="st1" x1="148.6" y1="666.4" x2="148.6" y2="745.4"/>
		<line class="st1" x1="148.5" y1="766.2" x2="148.5" y2="845.2"/>
		<line class="st1" x1="98.4" y1="212.4" x2="98.4" y2="291.9"/>
		<line class="st1" x1="98.7" y1="313.8" x2="98.7" y2="393.2"/>
		<line class="st1" x1="98.3" y1="413.3" x2="98.3" y2="492.8"/>
		<line class="st1" x1="98" y1="513.9" x2="98" y2="593.4"/>
		<line class="st1" x1="98.2" y1="615.9" x2="98.2" y2="695.4"/>
		<line class="st1" x1="98.5" y1="716.5" x2="98.5" y2="795.5"/>
		<line class="st1" x1="98.4" y1="816.3" x2="98.4" y2="895.3"/>
		<line class="st1" x1="598.5" y1="1153.1" x2="598.5" y2="614.4"/>
		<line class="st1" x1="648.5" y1="1153.1" x2="648.5" y2="664.5"/>
		<line class="st1" x1="699" y1="1153.1" x2="699" y2="715"/>
		<line class="st1" x1="748.5" y1="1153.1" x2="748.5" y2="764.5"/>
		<line class="st1" x1="798.8" y1="1153.1" x2="798.8" y2="814.7"/>
		<line class="st1" x1="849.1" y1="1153.1" x2="849.1" y2="865"/>
		<line class="st1" x1="898.9" y1="1153.1" x2="898.9" y2="915.4"/>
		<line class="st1" x1="949.4" y1="1153.1" x2="949.4" y2="965.9"/>
		<line class="st1" x1="998.8" y1="1153.1" x2="998.8" y2="1015.4"/>
		<line class="st1" x1="1049.6" y1="1153.1" x2="1049.6" y2="1066.2"/>
		<line class="st1" x1="1099.3" y1="1153.1" x2="1099.3" y2="1115.9"/>
		<line class="st1" x1="1149" y1="54.1" x2="1149" y2="1155.1"/>
		<line class="st1" x1="99" y1="54.6" x2="99" y2="93.9"/>
		<line class="st1" x1="149" y1="53.6" x2="149" y2="144"/>
		<line class="st1" x1="199" y1="52.6" x2="199" y2="194.5"/>
		<line class="st1" x1="249" y1="52.6" x2="249" y2="244"/>
		<line class="st1" x1="299" y1="51.6" x2="299" y2="294.5"/>
		<line class="st1" x1="348.9" y1="54.6" x2="348.9" y2="344.3"/>
		<line class="st1" x1="398.9" y1="54.6" x2="398.9" y2="394.3"/>
		<line class="st1" x1="448.7" y1="54.6" x2="448.7" y2="444.1"/>
		<line class="st1" x1="498.9" y1="54.6" x2="498.9" y2="494.3"/>
		<line class="st1" x1="548.9" y1="51.6" x2="548.9" y2="544.3"/>
		<line class="st1" x1="598.9" y1="52.6" x2="598.9" y2="594.3"/>
		<line class="st1" x1="648.9" y1="54.6" x2="648.9" y2="644.3"/>
		<line class="st1" x1="698.8" y1="54.6" x2="698.8" y2="694.3"/>
		<line class="st1" x1="748.9" y1="52.6" x2="748.9" y2="744.3"/>
		<line class="st1" x1="799" y1="54.6" x2="799" y2="794.4"/>
		<line class="st1" x1="848.8" y1="54.6" x2="848.8" y2="844.3"/>
		<line class="st1" x1="898.9" y1="54.6" x2="898.9" y2="894.3"/>
		<line class="st1" x1="950" y1="52.6" x2="950" y2="945.5"/>
		<line class="st1" x1="998.6" y1="54.6" x2="998.6" y2="994.1"/>
		<line class="st1" x1="1049.6" y1="51.6" x2="1049.6" y2="1045.1"/>
		<line class="st1" x1="1099.6" y1="52.6" x2="1099.6" y2="1095"/>
	</g>
	<g id="Layer_2_copy" class="st0">
		<line class="st1" x1="48" y1="1153.6" x2="1148.9" y2="1153.6"/>
		<line class="st1" x1="107.9" y1="1103.6" x2="1148.9" y2="1103.6"/>
		<line class="st1" x1="158.4" y1="1053.6" x2="1149.9" y2="1053.6"/>
		<line class="st1" x1="207.9" y1="1003.6" x2="1146.9" y2="1003.6"/>
		<line class="st1" x1="259.4" y1="953.6" x2="1148.9" y2="953.6"/>
		<line class="st1" x1="308.9" y1="903.6" x2="1148.9" y2="903.6"/>
		<line class="st1" x1="358.9" y1="853.6" x2="1148.9" y2="853.6"/>
		<line class="st1" x1="408.7" y1="803.7" x2="1149.9" y2="803.7"/>
		<line class="st1" x1="459.2" y1="753.3" x2="1148.9" y2="753.3"/>
		<line class="st1" x1="508.6" y1="703.9" x2="1149.9" y2="703.9"/>
		<line class="st1" x1="1146.9" y1="653.8" x2="558.7" y2="653.8"/>
		<line class="st1" x1="1146.9" y1="604.1" x2="608.3" y2="604.1"/>
		<line class="st1" x1="1146.9" y1="554.1" x2="658.4" y2="554.1"/>
		<line class="st1" x1="1146.9" y1="503.6" x2="708.9" y2="503.6"/>
		<line class="st1" x1="1146.9" y1="454.1" x2="758.4" y2="454.1"/>
		<line class="st1" x1="1146.9" y1="403.8" x2="808.6" y2="403.8"/>
		<line class="st1" x1="1146.9" y1="353.5" x2="858.9" y2="353.5"/>
		<line class="st1" x1="1146.9" y1="303.7" x2="909.3" y2="303.7"/>
		<line class="st1" x1="1146.9" y1="253.3" x2="959.7" y2="253.3"/>
		<line class="st1" x1="1146.9" y1="203.8" x2="1009.2" y2="203.8"/>
		<line class="st1" x1="1146.9" y1="153" x2="1060.1" y2="153"/>
		<line class="st1" x1="1146.9" y1="103.3" x2="1109.8" y2="103.3"/>
		<line class="st1" x1="48" y1="53.6" x2="1148.9" y2="53.6"/>
		<line class="st1" x1="48.5" y1="1103.6" x2="87.7" y2="1103.6"/>
		<line class="st1" x1="47.5" y1="1053.6" x2="137.9" y2="1053.6"/>
		<line class="st1" x1="46.5" y1="1003.6" x2="188.4" y2="1003.6"/>
		<line class="st1" x1="46.5" y1="953.6" x2="237.9" y2="953.6"/>
		<line class="st1" x1="45.5" y1="903.6" x2="288.4" y2="903.6"/>
		<line class="st1" x1="48.5" y1="853.8" x2="338.2" y2="853.8"/>
		<line class="st1" x1="48.5" y1="803.8" x2="388.2" y2="803.8"/>
		<line class="st1" x1="48.5" y1="754" x2="438" y2="754"/>
		<line class="st1" x1="48.5" y1="703.8" x2="488.2" y2="703.8"/>
		<line class="st1" x1="45.5" y1="653.8" x2="538.2" y2="653.8"/>
		<line class="st1" x1="46.5" y1="603.8" x2="588.2" y2="603.8"/>
		<line class="st1" x1="48.5" y1="553.8" x2="638.2" y2="553.8"/>
		<line class="st1" x1="48.5" y1="503.8" x2="688.2" y2="503.8"/>
		<line class="st1" x1="46.5" y1="453.8" x2="738.2" y2="453.8"/>
		<line class="st1" x1="48.5" y1="403.7" x2="788.3" y2="403.7"/>
		<line class="st1" x1="48.5" y1="353.8" x2="838.2" y2="353.8"/>
		<line class="st1" x1="48.5" y1="303.8" x2="888.2" y2="303.8"/>
		<line class="st1" x1="46.5" y1="252.6" x2="939.4" y2="252.6"/>
		<line class="st1" x1="48.5" y1="204" x2="987.9" y2="204"/>
		<line class="st1" x1="45.5" y1="153" x2="1039" y2="153"/>
		<line class="st1" x1="46.5" y1="103" x2="1088.9" y2="103"/>
	</g>
	<g id="Creatives1" class="st0">
		<polyline class="st2" points="1125.2,896.3 1125,896.3 76.8,896.8 		"/>
		<line class="st2" x1="486.5" y1="546.4" x2="566" y2="546.4"/>
		<line class="st2" x1="434.3" y1="596.3" x2="513.8" y2="596.3"/>
		<line class="st2" x1="536.9" y1="495.9" x2="616" y2="495.9"/>
		<line class="st2" x1="586.3" y1="446.6" x2="666.1" y2="446.6"/>
		<line class="st2" x1="536.9" y1="596.4" x2="616" y2="596.4"/>
		<line class="st2" x1="1123" y1="447.1" x2="685.3" y2="447.1"/>
		<line class="st2" x1="636.1" y1="496.4" x2="716.5" y2="496.4"/>
		<polyline class="st2" points="737.3,496.4 1125.1,496.4 1125.2,496.4 		"/>
		<line class="st2" x1="685.3" y1="545.6" x2="765.8" y2="545.6"/>
		<line class="st2" x1="1125.9" y1="545.6" x2="787.3" y2="545.6"/>
		<line class="st2" x1="737.1" y1="597.4" x2="815" y2="597.4"/>
		<line class="st2" x1="1124.5" y1="597.3" x2="837.6" y2="597.3"/>
		<line class="st2" x1="785.2" y1="645.5" x2="866.3" y2="645.5"/>
		<line class="st2" x1="1125" y1="645.5" x2="886.3" y2="645.5"/>
		<line class="st2" x1="836.1" y1="696.4" x2="916.9" y2="696.4"/>
		<line class="st2" x1="1125.5" y1="696.3" x2="937.6" y2="696.3"/>
		<line class="st2" x1="885.1" y1="745.4" x2="967" y2="745.4"/>
		<line class="st2" x1="1125" y1="745.4" x2="986.2" y2="745.4"/>
		<line class="st2" x1="935.9" y1="796.3" x2="1014.8" y2="796.3"/>
		<polyline class="st2" points="1036.9,796.2 1124.9,796.2 1125.1,796.2 		"/>
		<line class="st2" x1="985" y1="845.3" x2="1065.6" y2="845.3"/>
		<line class="st2" x1="1125" y1="845.3" x2="1086.1" y2="845.3"/>
		<line class="st2" x1="384.4" y1="646.2" x2="463.9" y2="646.2"/>
		<line class="st2" x1="334.3" y1="696.4" x2="413.7" y2="696.4"/>
		<line class="st2" x1="284.7" y1="745.9" x2="364.2" y2="745.9"/>
		<line class="st2" x1="233.9" y1="796.7" x2="313.4" y2="796.7"/>
		<line class="st2" x1="184" y1="846.6" x2="263.5" y2="846.6"/>
		<polyline class="st2" points="636.4,396.5 1122.3,396.5 1123,396.5 		"/>
		<line class="st2" x1="587" y1="546" x2="666.1" y2="546"/>
		<line class="st2" x1="486.5" y1="646" x2="566" y2="646"/>
		<line class="st2" x1="587" y1="645.7" x2="666.1" y2="645.7"/>
		<line class="st2" x1="636.9" y1="595.9" x2="715.9" y2="595.9"/>
		<line class="st2" x1="686.9" y1="645.9" x2="765.9" y2="645.9"/>
		<line class="st2" x1="434.9" y1="696.6" x2="514.3" y2="696.6"/>
		<line class="st2" x1="536.9" y1="696.5" x2="616.4" y2="696.5"/>
		<line class="st2" x1="637.5" y1="696.1" x2="716.5" y2="696.1"/>
		<line class="st2" x1="737.3" y1="696.3" x2="816.3" y2="696.3"/>
		<line class="st2" x1="384.2" y1="746.3" x2="463.7" y2="746.3"/>
		<line class="st2" x1="484.8" y1="746.6" x2="564.3" y2="746.6"/>
		<line class="st2" x1="586.9" y1="746.4" x2="666.3" y2="746.4"/>
		<line class="st2" x1="687.4" y1="746.1" x2="766.4" y2="746.1"/>
		<line class="st2" x1="787.3" y1="746.2" x2="866.3" y2="746.2"/>
		<line class="st2" x1="335.3" y1="796.5" x2="414.7" y2="796.5"/>
		<line class="st2" x1="434.8" y1="796.9" x2="514.3" y2="796.9"/>
		<line class="st2" x1="535.4" y1="797.2" x2="614.9" y2="797.2"/>
		<line class="st2" x1="637.4" y1="797" x2="716.9" y2="797"/>
		<line class="st2" x1="738" y1="796.6" x2="817" y2="796.6"/>
		<line class="st2" x1="837.9" y1="796.8" x2="916.9" y2="796.8"/>
		<line class="st2" x1="284" y1="846.8" x2="363.5" y2="846.8"/>
		<line class="st2" x1="385.4" y1="846.6" x2="464.8" y2="846.6"/>
		<line class="st2" x1="484.9" y1="847" x2="564.4" y2="847"/>
		<line class="st2" x1="585.5" y1="847.3" x2="665" y2="847.3"/>
		<line class="st2" x1="687.6" y1="847.1" x2="767" y2="847.1"/>
		<line class="st2" x1="788.1" y1="846.7" x2="867.1" y2="846.7"/>
		<line class="st2" x1="888" y1="846.9" x2="967" y2="846.9"/>
		<polyline class="st2" points="77.8,346.8 126.5,346.8 176.3,346.8 227.2,346.8 275.6,346.8 326.6,346.8 376.5,346.8 426.2,346.8 
			476.2,346.8 526.1,346.8 575.9,346.8 675.6,346.8 725.5,346.8 774.8,346.8 824.2,346.8 825.1,346.8 844,346.8 874.8,346.8 
			924.6,346.8 974.7,346.8 1023.9,346.8 1073.7,346.8 1123.1,346.8 1125.2,346.8 1125.9,346.8 		"/>
		<line class="st2" x1="76.8" y1="846.2" x2="165.5" y2="846.2"/>
		<line class="st2" x1="76.8" y1="796.2" x2="215.6" y2="796.2"/>
		<line class="st2" x1="76.8" y1="746.2" x2="266.1" y2="746.2"/>
		<line class="st2" x1="77.1" y1="696.5" x2="315.6" y2="696.3"/>
		<line class="st2" x1="77.8" y1="646.2" x2="366.1" y2="646.2"/>
		<line class="st2" x1="77.1" y1="596.7" x2="416" y2="596.4"/>
		<line class="st2" x1="77.8" y1="546.4" x2="466" y2="546.4"/>
		<line class="st2" x1="77" y1="497.9" x2="515.8" y2="496.6"/>
		<line class="st2" x1="76.8" y1="446.4" x2="566" y2="446.4"/>
		<line class="st2" x1="77.8" y1="397.2" x2="616" y2="396.4"/>
	</g>
	<g id="Creatives2" class="st0">
		<polyline class="st2" points="1125.2,706.9 1125.2,715.1 1125.2,723.3 1125.2,731.4 1125.2,739.5 1125.2,748 1125.2,755.9 
			1125.2,764.3 1125.2,772.3 1125.2,780.7 1125.2,787.4 		"/>
		<polyline class="st2" points="1074.8,656.5 1074.8,664.6 1074.8,672.9 1074.8,681 1074.8,689.1 1074.8,697.6 1074.8,705.5 
			1074.8,713.9 1074.8,721.9 1074.8,730.2 1074.8,737 		"/>
		<polyline class="st2" points="1125,603.5 1125,614.2 1125,624.9 1125,631.5 1125,635.4 1125,646.5 1125,656.8 1125,667.8 
			1125,678.3 1125,687.2 		"/>
		<polyline class="st2" points="1075.1,553.6 1075.1,564.4 1075.1,575 1075.1,581.7 1075.1,585.6 1075.1,596.7 1075.1,607 
			1075.1,617.9 1075.1,628.4 1075.1,637.4 		"/>
		<polyline class="st2" points="1125.6,504.3 1125.6,515 1125.6,525.7 1125.6,532.3 1125.6,536.2 1125.6,547.3 1125.6,557.6 
			1125.6,568.6 1125.6,579.1 1125.6,588 		"/>
		<polyline class="st2" points="1124.7,346.8 1124.7,347.7 1124.7,389.2 		"/>
		<polyline class="st2" points="1125.4,405.3 1125.4,416 1125.4,426.7 1125.4,433.3 1125.4,437.2 1125.4,448.3 1125.4,458.7 
			1125.4,469.6 1125.4,480.1 1125.4,489 		"/>
		<polyline class="st2" points="1074.7,346.8 1074.7,395.8 1074.7,437.4 		"/>
		<polyline class="st2" points="1075.1,453.8 1075.1,464.5 1075.1,475.2 1075.1,481.8 1075.1,485.8 1075.1,496.8 1075.1,507.2 
			1075.1,518.1 1075.1,528.6 1075.1,537.5 		"/>
		<line class="st2" x1="1025.4" y1="388" x2="1025.4" y2="346.8"/>
		<polyline class="st2" points="1025.7,404.4 1025.7,415.1 1025.7,425.8 1025.7,432.5 1025.7,436.4 1025.7,447.5 1025.7,457.8 
			1025.7,468.7 1025.7,479.2 1025.7,488.1 		"/>
		<polyline class="st2" points="1025.2,503.7 1025.2,514.4 1025.2,525.1 1025.2,531.7 1025.2,535.6 1025.2,546.7 1025.2,557 
			1025.2,568 1025.2,578.5 1025.2,587.4 		"/>
		<polyline class="st2" points="975.1,453.6 975.1,464.4 975.1,475 975.1,481.7 975.1,485.6 975.1,496.7 975.1,507 975.1,517.9 
			975.1,528.4 975.1,537.4 		"/>
		<polyline class="st2" points="975.1,346.8 975.1,395.4 975.1,436.9 		"/>
		<polyline class="st2" points="925.2,403.7 925.2,414.4 925.2,425.1 925.2,431.7 925.2,435.6 925.2,446.7 925.2,457 925.2,468 
			925.2,478.5 925.2,487.4 		"/>
		<line class="st2" x1="925.2" y1="387" x2="925.2" y2="346.8"/>
		<polyline class="st2" points="1024.8,606.5 1024.8,614.6 1024.8,622.9 1024.8,631 1024.8,639.1 1024.8,647.6 1024.8,655.5 
			1024.8,663.9 1024.8,671.9 1024.8,680.2 1024.8,687 		"/>
		<polyline class="st2" points="975.1,556.8 975.1,565 975.1,573.2 975.1,581.4 975.1,589.4 975.1,597.9 975.1,605.8 975.1,614.2 
			975.1,622.2 975.1,630.6 975.1,637.3 		"/>
		<polyline class="st2" points="924.7,506.4 924.7,514.6 924.7,522.8 924.7,531 924.7,539 924.7,547.5 924.7,555.4 924.7,563.8 
			924.7,571.8 924.7,580.2 924.7,586.9 		"/>
		<polyline class="st2" points="874.7,456.4 874.7,464.6 874.7,472.8 874.7,481 874.7,489 874.7,497.5 874.7,505.4 874.7,513.8 
			874.7,521.8 874.7,530.2 874.7,536.9 		"/>
		<polyline class="st2" points="874.5,346.8 874.5,395.1 874.5,436.7 		"/>
		<polyline class="st2" points="824.9,346.8 824.9,396.5 824.9,446.5 824.9,486.1 		"/>
		<polyline class="st2" points="775.5,346.8 775.5,396.5 775.5,436.7 		"/>
		<line class="st2" x1="725.4" y1="346.8" x2="725.4" y2="386.6"/>
		<line class="st2" x1="1125.2" y1="897.8" x2="1125.2" y2="807.4"/>
		<line class="st2" x1="1075.2" y1="898.8" x2="1075.2" y2="756.9"/>
		<line class="st2" x1="1025.2" y1="898.8" x2="1025.2" y2="707.4"/>
		<line class="st2" x1="975.2" y1="899.8" x2="975.2" y2="656.9"/>
		<line class="st2" x1="925.4" y1="896.8" x2="925.4" y2="607.1"/>
		<line class="st2" x1="875.4" y1="896.8" x2="875.4" y2="557.1"/>
		<line class="st2" x1="825.6" y1="896.8" x2="825.6" y2="507.3"/>
		<line class="st2" x1="775.4" y1="896.8" x2="775.4" y2="457.1"/>
		<line class="st2" x1="725.4" y1="899.8" x2="725.4" y2="407.1"/>
		<line class="st2" x1="675.4" y1="898.8" x2="675.4" y2="357.1"/>
		<polyline class="st2" points="76.8,837.4 76.8,830.6 76.8,822.3 76.8,814.3 76.8,805.9 76.8,798 76.8,789.5 76.8,781.4 
			76.8,773.3 76.8,765 76.8,756.9 		"/>
		<polyline class="st2" points="77.1,737.2 77.1,728.3 77.1,717.7 77.1,706.8 77.1,696.5 77.1,685.4 77.1,681.5 77.1,674.8 
			77.1,664.2 77.1,653.4 		"/>
		<polyline class="st2" points="126.8,787.4 126.8,780.7 126.8,772.3 126.8,764.3 126.8,755.9 126.8,748 126.8,739.5 126.8,731.4 
			126.8,723.3 126.8,715.1 126.8,706.9 		"/>
		<polyline class="st2" points="177.2,737 177.2,730.2 177.2,721.9 177.2,713.9 177.2,705.5 177.2,697.6 177.2,689.1 177.2,681 
			177.2,672.9 177.2,664.6 177.2,656.5 		"/>
		<polyline class="st2" points="127,687.2 127,678.3 127,667.8 127,656.8 127,646.5 127,635.4 127,631.5 127,624.9 127,614.2 
			127,603.5 		"/>
		<polyline class="st2" points="176.9,637.4 176.9,628.4 176.9,617.9 176.9,607 176.9,596.7 176.9,585.6 176.9,581.7 176.9,575 
			176.9,564.4 176.9,553.6 		"/>
		<polyline class="st2" points="77.1,637.4 77.1,628.4 77.1,617.9 77.1,607 77.1,596.7 77.1,585.6 77.1,581.7 77.1,575 77.1,564.4 
			77.1,553.6 		"/>
		<polyline class="st2" points="77.8,438.8 77.8,397.2 77.8,348.2 77.8,346.8 		"/>
		<polyline class="st2" points="126.4,588 126.4,579.1 126.4,568.6 126.4,557.6 126.4,547.3 126.4,536.2 126.4,532.3 126.4,525.7 
			126.4,515 126.4,504.3 		"/>
		<polyline class="st2" points="77,538.6 77,529.7 77,519.1 77,508.2 77,497.9 77,486.8 77,482.9 77,476.3 77,465.6 77,454.9 		"/>
		<polyline class="st2" points="127.3,389.2 127.3,347.7 127.3,346.8 		"/>
		<polyline class="st2" points="126.6,489 126.6,480.1 126.6,469.6 126.6,458.7 126.6,448.3 126.6,437.2 126.6,433.3 126.6,426.7 
			126.6,416 126.6,405.3 		"/>
		<polyline class="st2" points="177.3,437.4 177.3,395.8 177.3,346.8 		"/>
		<polyline class="st2" points="176.9,537.5 176.9,528.6 176.9,518.1 176.9,507.2 176.9,496.8 176.9,485.8 176.9,481.8 176.9,475.2 
			176.9,464.5 176.9,453.8 		"/>
		<line class="st2" x1="226.7" y1="346.8" x2="226.7" y2="388"/>
		<polyline class="st2" points="226.3,488.1 226.3,479.2 226.3,468.7 226.3,457.8 226.3,447.5 226.3,436.4 226.3,432.5 226.3,425.8 
			226.3,415.1 226.3,404.4 		"/>
		<polyline class="st2" points="226.8,587.4 226.8,578.5 226.8,568 226.8,557 226.8,546.7 226.8,535.6 226.8,531.7 226.8,525.1 
			226.8,514.4 226.8,503.7 		"/>
		<polyline class="st2" points="276.9,537.4 276.9,528.4 276.9,517.9 276.9,507 276.9,496.7 276.9,485.6 276.9,481.7 276.9,475 
			276.9,464.4 276.9,453.6 		"/>
		<polyline class="st2" points="276.9,436.9 276.9,395.4 276.9,346.8 		"/>
		<polyline class="st2" points="326.8,487.4 326.8,478.5 326.8,468 326.8,457 326.8,446.7 326.8,435.6 326.8,431.7 326.8,425.1 
			326.8,414.4 326.8,403.7 		"/>
		<line class="st2" x1="326.8" y1="346.8" x2="326.8" y2="387"/>
		<polyline class="st2" points="227.2,687 227.2,680.2 227.2,671.9 227.2,663.9 227.2,655.5 227.2,647.6 227.2,639.1 227.2,631 
			227.2,622.9 227.2,614.6 227.2,606.5 		"/>
		<polyline class="st2" points="276.9,637.3 276.9,630.6 276.9,622.2 276.9,614.2 276.9,605.8 276.9,597.9 276.9,589.4 276.9,581.4 
			276.9,573.2 276.9,565 276.9,556.8 		"/>
		<polyline class="st2" points="327.3,586.9 327.3,580.2 327.3,571.8 327.3,563.8 327.3,555.4 327.3,547.5 327.3,539 327.3,531 
			327.3,522.8 327.3,514.6 327.3,506.4 		"/>
		<polyline class="st2" points="377.3,536.9 377.3,530.2 377.3,521.8 377.3,513.8 377.3,505.4 377.3,497.5 377.3,489 377.3,481 
			377.3,472.8 377.3,464.6 377.3,456.4 		"/>
		<polyline class="st2" points="377.5,436.7 377.5,395.1 377.5,346.8 		"/>
		<polyline class="st2" points="427.1,486.1 427.1,446.5 427.1,396.5 427.1,346.8 		"/>
		<polyline class="st2" points="476.5,436.7 476.5,396.5 476.5,346.8 		"/>
		<line class="st2" x1="526.6" y1="386.6" x2="526.6" y2="346.8"/>
		<line class="st2" x1="76.8" y1="896.8" x2="76.8" y2="857.5"/>
		<line class="st2" x1="126.8" y1="897.8" x2="126.8" y2="807.4"/>
		<line class="st2" x1="176.8" y1="898.8" x2="176.8" y2="756.9"/>
		<line class="st2" x1="226.8" y1="898.8" x2="226.8" y2="707.4"/>
		<line class="st2" x1="276.8" y1="899.8" x2="276.8" y2="656.9"/>
		<line class="st2" x1="326.7" y1="896.8" x2="326.7" y2="607.1"/>
		<line class="st2" x1="376.7" y1="896.8" x2="376.7" y2="557.1"/>
		<line class="st2" x1="426.5" y1="896.8" x2="426.5" y2="507.3"/>
		<line class="st2" x1="476.7" y1="896.8" x2="476.7" y2="457.1"/>
		<line class="st2" x1="526.7" y1="899.8" x2="526.7" y2="407.1"/>
		<line class="st2" x1="576.7" y1="898.8" x2="576.7" y2="357.1"/>
		<line class="st2" x1="625.4" y1="896.8" x2="625.4" y2="346.8"/>
	</g>
	<g id="Marketing1" class="st0">
		<polyline class="st3" points="1125.2,896.3 1125,896.3 76.8,896.8 		"/>
		<line class="st3" x1="486.5" y1="546.4" x2="566" y2="546.4"/>
		<line class="st3" x1="434.3" y1="596.3" x2="513.8" y2="596.3"/>
		<line class="st3" x1="536.9" y1="495.9" x2="616" y2="495.9"/>
		<line class="st3" x1="586.3" y1="446.6" x2="666.1" y2="446.6"/>
		<line class="st3" x1="536.9" y1="596.4" x2="616" y2="596.4"/>
		<line class="st3" x1="1123" y1="447.1" x2="685.3" y2="447.1"/>
		<line class="st3" x1="636.1" y1="496.4" x2="716.5" y2="496.4"/>
		<polyline class="st3" points="737.3,496.4 1125.1,496.4 1125.2,496.4 		"/>
		<line class="st3" x1="685.3" y1="545.6" x2="765.8" y2="545.6"/>
		<line class="st3" x1="1125.9" y1="545.6" x2="787.3" y2="545.6"/>
		<line class="st3" x1="737.1" y1="597.4" x2="815" y2="597.4"/>
		<line class="st3" x1="1124.5" y1="597.3" x2="837.6" y2="597.3"/>
		<line class="st3" x1="785.2" y1="645.5" x2="866.3" y2="645.5"/>
		<line class="st3" x1="1125" y1="645.5" x2="886.3" y2="645.5"/>
		<line class="st3" x1="836.1" y1="696.4" x2="916.9" y2="696.4"/>
		<line class="st3" x1="1125.5" y1="696.3" x2="937.6" y2="696.3"/>
		<line class="st3" x1="885.1" y1="745.4" x2="967" y2="745.4"/>
		<line class="st3" x1="1125" y1="745.4" x2="986.2" y2="745.4"/>
		<line class="st3" x1="935.9" y1="796.3" x2="1014.8" y2="796.3"/>
		<polyline class="st3" points="1036.9,796.2 1124.9,796.2 1125.1,796.2 		"/>
		<line class="st3" x1="985" y1="845.3" x2="1065.6" y2="845.3"/>
		<line class="st3" x1="1125" y1="845.3" x2="1086.1" y2="845.3"/>
		<line class="st3" x1="384.4" y1="646.2" x2="463.9" y2="646.2"/>
		<line class="st3" x1="334.3" y1="696.4" x2="413.7" y2="696.4"/>
		<line class="st3" x1="284.7" y1="745.9" x2="364.2" y2="745.9"/>
		<line class="st3" x1="233.9" y1="796.7" x2="313.4" y2="796.7"/>
		<line class="st3" x1="184" y1="846.6" x2="263.5" y2="846.6"/>
		<polyline class="st3" points="636.4,396.5 1122.3,396.5 1123,396.5 		"/>
		<line class="st3" x1="587" y1="546" x2="666.1" y2="546"/>
		<line class="st3" x1="486.5" y1="646" x2="566" y2="646"/>
		<line class="st3" x1="587" y1="645.7" x2="666.1" y2="645.7"/>
		<line class="st3" x1="636.9" y1="595.9" x2="715.9" y2="595.9"/>
		<line class="st3" x1="686.9" y1="645.9" x2="765.9" y2="645.9"/>
		<line class="st3" x1="434.9" y1="696.6" x2="514.3" y2="696.6"/>
		<line class="st3" x1="536.9" y1="696.5" x2="616.4" y2="696.5"/>
		<line class="st3" x1="637.5" y1="696.1" x2="716.5" y2="696.1"/>
		<line class="st3" x1="737.3" y1="696.3" x2="816.3" y2="696.3"/>
		<line class="st3" x1="384.2" y1="746.3" x2="463.7" y2="746.3"/>
		<line class="st3" x1="484.8" y1="746.6" x2="564.3" y2="746.6"/>
		<line class="st3" x1="586.9" y1="746.4" x2="666.3" y2="746.4"/>
		<line class="st3" x1="687.4" y1="746.1" x2="766.4" y2="746.1"/>
		<line class="st3" x1="787.3" y1="746.2" x2="866.3" y2="746.2"/>
		<line class="st3" x1="335.3" y1="796.5" x2="414.7" y2="796.5"/>
		<line class="st3" x1="434.8" y1="796.9" x2="514.3" y2="796.9"/>
		<line class="st3" x1="535.4" y1="797.2" x2="614.9" y2="797.2"/>
		<line class="st3" x1="637.4" y1="797" x2="716.9" y2="797"/>
		<line class="st3" x1="738" y1="796.6" x2="817" y2="796.6"/>
		<line class="st3" x1="837.9" y1="796.8" x2="916.9" y2="796.8"/>
		<line class="st3" x1="284" y1="846.8" x2="363.5" y2="846.8"/>
		<line class="st3" x1="385.4" y1="846.6" x2="464.8" y2="846.6"/>
		<line class="st3" x1="484.9" y1="847" x2="564.4" y2="847"/>
		<line class="st3" x1="585.5" y1="847.3" x2="665" y2="847.3"/>
		<line class="st3" x1="687.6" y1="847.1" x2="767" y2="847.1"/>
		<line class="st3" x1="788.1" y1="846.7" x2="867.1" y2="846.7"/>
		<line class="st3" x1="888" y1="846.9" x2="967" y2="846.9"/>
		<polyline class="st3" points="77.8,346.8 126.5,346.8 176.3,346.8 227.2,346.8 275.6,346.8 326.6,346.8 376.5,346.8 426.2,346.8 
			476.2,346.8 526.1,346.8 575.9,346.8 675.6,346.8 725.5,346.8 774.8,346.8 824.2,346.8 825.1,346.8 844,346.8 874.8,346.8 
			924.6,346.8 974.7,346.8 1023.9,346.8 1073.7,346.8 1123.1,346.8 1125.2,346.8 1125.9,346.8 		"/>
		<line class="st3" x1="76.8" y1="846.2" x2="165.5" y2="846.2"/>
		<line class="st3" x1="76.8" y1="796.2" x2="215.6" y2="796.2"/>
		<line class="st3" x1="76.8" y1="746.2" x2="266.1" y2="746.2"/>
		<line class="st3" x1="77.1" y1="696.5" x2="315.6" y2="696.3"/>
		<line class="st3" x1="77.8" y1="646.2" x2="366.1" y2="646.2"/>
		<line class="st3" x1="77.1" y1="596.7" x2="416" y2="596.4"/>
		<line class="st3" x1="77.8" y1="546.4" x2="466" y2="546.4"/>
		<line class="st3" x1="77" y1="497.9" x2="515.8" y2="496.6"/>
		<line class="st3" x1="76.8" y1="446.4" x2="566" y2="446.4"/>
		<line class="st3" x1="77.8" y1="397.2" x2="616" y2="396.4"/>
	</g>
	<g id="Marketing2" class="st0">
		<polyline class="st3" points="1125.2,706.9 1125.2,715.1 1125.2,723.3 1125.2,731.4 1125.2,739.5 1125.2,748 1125.2,755.9 
			1125.2,764.3 1125.2,772.3 1125.2,780.7 1125.2,787.4 		"/>
		<polyline class="st3" points="1074.8,656.5 1074.8,664.6 1074.8,672.9 1074.8,681 1074.8,689.1 1074.8,697.6 1074.8,705.5 
			1074.8,713.9 1074.8,721.9 1074.8,730.2 1074.8,737 		"/>
		<polyline class="st3" points="1125,603.5 1125,614.2 1125,624.9 1125,631.5 1125,635.4 1125,646.5 1125,656.8 1125,667.8 
			1125,678.3 1125,687.2 		"/>
		<polyline class="st3" points="1075.1,553.6 1075.1,564.4 1075.1,575 1075.1,581.7 1075.1,585.6 1075.1,596.7 1075.1,607 
			1075.1,617.9 1075.1,628.4 1075.1,637.4 		"/>
		<polyline class="st3" points="1125.6,504.3 1125.6,515 1125.6,525.7 1125.6,532.3 1125.6,536.2 1125.6,547.3 1125.6,557.6 
			1125.6,568.6 1125.6,579.1 1125.6,588 		"/>
		<polyline class="st3" points="1124.7,346.8 1124.7,347.7 1124.7,389.2 		"/>
		<polyline class="st3" points="1125.4,405.3 1125.4,416 1125.4,426.7 1125.4,433.3 1125.4,437.2 1125.4,448.3 1125.4,458.7 
			1125.4,469.6 1125.4,480.1 1125.4,489 		"/>
		<polyline class="st3" points="1074.7,346.8 1074.7,395.8 1074.7,437.4 		"/>
		<polyline class="st3" points="1075.1,453.8 1075.1,464.5 1075.1,475.2 1075.1,481.8 1075.1,485.8 1075.1,496.8 1075.1,507.2 
			1075.1,518.1 1075.1,528.6 1075.1,537.5 		"/>
		<line class="st3" x1="1025.4" y1="388" x2="1025.4" y2="346.8"/>
		<polyline class="st3" points="1025.7,404.4 1025.7,415.1 1025.7,425.8 1025.7,432.5 1025.7,436.4 1025.7,447.5 1025.7,457.8 
			1025.7,468.7 1025.7,479.2 1025.7,488.1 		"/>
		<polyline class="st3" points="1025.2,503.7 1025.2,514.4 1025.2,525.1 1025.2,531.7 1025.2,535.6 1025.2,546.7 1025.2,557 
			1025.2,568 1025.2,578.5 1025.2,587.4 		"/>
		<polyline class="st3" points="975.1,453.6 975.1,464.4 975.1,475 975.1,481.7 975.1,485.6 975.1,496.7 975.1,507 975.1,517.9 
			975.1,528.4 975.1,537.4 		"/>
		<polyline class="st3" points="975.1,346.8 975.1,395.4 975.1,436.9 		"/>
		<polyline class="st3" points="925.2,403.7 925.2,414.4 925.2,425.1 925.2,431.7 925.2,435.6 925.2,446.7 925.2,457 925.2,468 
			925.2,478.5 925.2,487.4 		"/>
		<line class="st3" x1="925.2" y1="387" x2="925.2" y2="346.8"/>
		<polyline class="st3" points="1024.8,606.5 1024.8,614.6 1024.8,622.9 1024.8,631 1024.8,639.1 1024.8,647.6 1024.8,655.5 
			1024.8,663.9 1024.8,671.9 1024.8,680.2 1024.8,687 		"/>
		<polyline class="st3" points="975.1,556.8 975.1,565 975.1,573.2 975.1,581.4 975.1,589.4 975.1,597.9 975.1,605.8 975.1,614.2 
			975.1,622.2 975.1,630.6 975.1,637.3 		"/>
		<polyline class="st3" points="924.7,506.4 924.7,514.6 924.7,522.8 924.7,531 924.7,539 924.7,547.5 924.7,555.4 924.7,563.8 
			924.7,571.8 924.7,580.2 924.7,586.9 		"/>
		<polyline class="st3" points="874.7,456.4 874.7,464.6 874.7,472.8 874.7,481 874.7,489 874.7,497.5 874.7,505.4 874.7,513.8 
			874.7,521.8 874.7,530.2 874.7,536.9 		"/>
		<polyline class="st3" points="874.5,346.8 874.5,395.1 874.5,436.7 		"/>
		<polyline class="st3" points="824.9,346.8 824.9,396.5 824.9,446.5 824.9,486.1 		"/>
		<polyline class="st3" points="775.5,346.8 775.5,396.5 775.5,436.7 		"/>
		<line class="st3" x1="725.4" y1="346.8" x2="725.4" y2="386.6"/>
		<line class="st3" x1="1125.2" y1="897.8" x2="1125.2" y2="807.4"/>
		<line class="st3" x1="1075.2" y1="898.8" x2="1075.2" y2="756.9"/>
		<line class="st3" x1="1025.2" y1="898.8" x2="1025.2" y2="707.4"/>
		<line class="st3" x1="975.2" y1="899.8" x2="975.2" y2="656.9"/>
		<line class="st3" x1="925.4" y1="896.8" x2="925.4" y2="607.1"/>
		<line class="st3" x1="875.4" y1="896.8" x2="875.4" y2="557.1"/>
		<line class="st3" x1="825.6" y1="896.8" x2="825.6" y2="507.3"/>
		<line class="st3" x1="775.4" y1="896.8" x2="775.4" y2="457.1"/>
		<line class="st3" x1="725.4" y1="899.8" x2="725.4" y2="407.1"/>
		<line class="st3" x1="675.4" y1="898.8" x2="675.4" y2="357.1"/>
		<polyline class="st3" points="76.8,837.4 76.8,830.6 76.8,822.3 76.8,814.3 76.8,805.9 76.8,798 76.8,789.5 76.8,781.4 
			76.8,773.3 76.8,765 76.8,756.9 		"/>
		<polyline class="st3" points="77.1,737.2 77.1,728.3 77.1,717.7 77.1,706.8 77.1,696.5 77.1,685.4 77.1,681.5 77.1,674.8 
			77.1,664.2 77.1,653.4 		"/>
		<polyline class="st3" points="126.8,787.4 126.8,780.7 126.8,772.3 126.8,764.3 126.8,755.9 126.8,748 126.8,739.5 126.8,731.4 
			126.8,723.3 126.8,715.1 126.8,706.9 		"/>
		<polyline class="st3" points="177.2,737 177.2,730.2 177.2,721.9 177.2,713.9 177.2,705.5 177.2,697.6 177.2,689.1 177.2,681 
			177.2,672.9 177.2,664.6 177.2,656.5 		"/>
		<polyline class="st3" points="127,687.2 127,678.3 127,667.8 127,656.8 127,646.5 127,635.4 127,631.5 127,624.9 127,614.2 
			127,603.5 		"/>
		<polyline class="st3" points="176.9,637.4 176.9,628.4 176.9,617.9 176.9,607 176.9,596.7 176.9,585.6 176.9,581.7 176.9,575 
			176.9,564.4 176.9,553.6 		"/>
		<polyline class="st3" points="77.1,637.4 77.1,628.4 77.1,617.9 77.1,607 77.1,596.7 77.1,585.6 77.1,581.7 77.1,575 77.1,564.4 
			77.1,553.6 		"/>
		<polyline class="st3" points="77.8,438.8 77.8,397.2 77.8,348.2 77.8,346.8 		"/>
		<polyline class="st3" points="126.4,588 126.4,579.1 126.4,568.6 126.4,557.6 126.4,547.3 126.4,536.2 126.4,532.3 126.4,525.7 
			126.4,515 126.4,504.3 		"/>
		<polyline class="st3" points="77,538.6 77,529.7 77,519.1 77,508.2 77,497.9 77,486.8 77,482.9 77,476.3 77,465.6 77,454.9 		"/>
		<polyline class="st3" points="127.3,389.2 127.3,347.7 127.3,346.8 		"/>
		<polyline class="st3" points="126.6,489 126.6,480.1 126.6,469.6 126.6,458.7 126.6,448.3 126.6,437.2 126.6,433.3 126.6,426.7 
			126.6,416 126.6,405.3 		"/>
		<polyline class="st3" points="177.3,437.4 177.3,395.8 177.3,346.8 		"/>
		<polyline class="st3" points="176.9,537.5 176.9,528.6 176.9,518.1 176.9,507.2 176.9,496.8 176.9,485.8 176.9,481.8 176.9,475.2 
			176.9,464.5 176.9,453.8 		"/>
		<line class="st3" x1="226.7" y1="346.8" x2="226.7" y2="388"/>
		<polyline class="st3" points="226.3,488.1 226.3,479.2 226.3,468.7 226.3,457.8 226.3,447.5 226.3,436.4 226.3,432.5 226.3,425.8 
			226.3,415.1 226.3,404.4 		"/>
		<polyline class="st3" points="226.8,587.4 226.8,578.5 226.8,568 226.8,557 226.8,546.7 226.8,535.6 226.8,531.7 226.8,525.1 
			226.8,514.4 226.8,503.7 		"/>
		<polyline class="st3" points="276.9,537.4 276.9,528.4 276.9,517.9 276.9,507 276.9,496.7 276.9,485.6 276.9,481.7 276.9,475 
			276.9,464.4 276.9,453.6 		"/>
		<polyline class="st3" points="276.9,436.9 276.9,395.4 276.9,346.8 		"/>
		<polyline class="st3" points="326.8,487.4 326.8,478.5 326.8,468 326.8,457 326.8,446.7 326.8,435.6 326.8,431.7 326.8,425.1 
			326.8,414.4 326.8,403.7 		"/>
		<line class="st3" x1="326.8" y1="346.8" x2="326.8" y2="387"/>
		<polyline class="st3" points="227.2,687 227.2,680.2 227.2,671.9 227.2,663.9 227.2,655.5 227.2,647.6 227.2,639.1 227.2,631 
			227.2,622.9 227.2,614.6 227.2,606.5 		"/>
		<polyline class="st3" points="276.9,637.3 276.9,630.6 276.9,622.2 276.9,614.2 276.9,605.8 276.9,597.9 276.9,589.4 276.9,581.4 
			276.9,573.2 276.9,565 276.9,556.8 		"/>
		<polyline class="st3" points="327.3,586.9 327.3,580.2 327.3,571.8 327.3,563.8 327.3,555.4 327.3,547.5 327.3,539 327.3,531 
			327.3,522.8 327.3,514.6 327.3,506.4 		"/>
		<polyline class="st3" points="377.3,536.9 377.3,530.2 377.3,521.8 377.3,513.8 377.3,505.4 377.3,497.5 377.3,489 377.3,481 
			377.3,472.8 377.3,464.6 377.3,456.4 		"/>
		<polyline class="st3" points="377.5,436.7 377.5,395.1 377.5,346.8 		"/>
		<polyline class="st3" points="427.1,486.1 427.1,446.5 427.1,396.5 427.1,346.8 		"/>
		<polyline class="st3" points="476.5,436.7 476.5,396.5 476.5,346.8 		"/>
		<line class="st3" x1="526.6" y1="386.6" x2="526.6" y2="346.8"/>
		<line class="st3" x1="76.8" y1="896.8" x2="76.8" y2="857.5"/>
		<line class="st3" x1="126.8" y1="897.8" x2="126.8" y2="807.4"/>
		<line class="st3" x1="176.8" y1="898.8" x2="176.8" y2="756.9"/>
		<line class="st3" x1="226.8" y1="898.8" x2="226.8" y2="707.4"/>
		<line class="st3" x1="276.8" y1="899.8" x2="276.8" y2="656.9"/>
		<line class="st3" x1="326.7" y1="896.8" x2="326.7" y2="607.1"/>
		<line class="st3" x1="376.7" y1="896.8" x2="376.7" y2="557.1"/>
		<line class="st3" x1="426.5" y1="896.8" x2="426.5" y2="507.3"/>
		<line class="st3" x1="476.7" y1="896.8" x2="476.7" y2="457.1"/>
		<line class="st3" x1="526.7" y1="899.8" x2="526.7" y2="407.1"/>
		<line class="st3" x1="576.7" y1="898.8" x2="576.7" y2="357.1"/>
		<line class="st3" x1="625.4" y1="896.8" x2="625.4" y2="346.8"/>
	</g>
	<g id="Technical1" class="st0">
		<polyline class="st4" points="1125.2,896.3 1125,896.3 76.8,896.8 		"/>
		<line class="st4" x1="486.5" y1="546.4" x2="566" y2="546.4"/>
		<line class="st4" x1="434.3" y1="596.3" x2="513.8" y2="596.3"/>
		<line class="st4" x1="536.9" y1="495.9" x2="616" y2="495.9"/>
		<line class="st4" x1="586.3" y1="446.6" x2="666.1" y2="446.6"/>
		<line class="st4" x1="536.9" y1="596.4" x2="616" y2="596.4"/>
		<line class="st4" x1="1123" y1="447.1" x2="685.3" y2="447.1"/>
		<line class="st4" x1="636.1" y1="496.4" x2="716.5" y2="496.4"/>
		<polyline class="st4" points="737.3,496.4 1125.1,496.4 1125.2,496.4 		"/>
		<line class="st4" x1="685.3" y1="545.6" x2="765.8" y2="545.6"/>
		<line class="st4" x1="1125.9" y1="545.6" x2="787.3" y2="545.6"/>
		<line class="st4" x1="737.1" y1="597.4" x2="815" y2="597.4"/>
		<line class="st4" x1="1124.5" y1="597.3" x2="837.6" y2="597.3"/>
		<line class="st4" x1="785.2" y1="645.5" x2="866.3" y2="645.5"/>
		<line class="st4" x1="1125" y1="645.5" x2="886.3" y2="645.5"/>
		<line class="st4" x1="836.1" y1="696.4" x2="916.9" y2="696.4"/>
		<line class="st4" x1="1125.5" y1="696.3" x2="937.6" y2="696.3"/>
		<line class="st4" x1="885.1" y1="745.4" x2="967" y2="745.4"/>
		<line class="st4" x1="1125" y1="745.4" x2="986.2" y2="745.4"/>
		<line class="st4" x1="935.9" y1="796.3" x2="1014.8" y2="796.3"/>
		<polyline class="st4" points="1036.9,796.2 1124.9,796.2 1125.1,796.2 		"/>
		<line class="st4" x1="985" y1="845.3" x2="1065.6" y2="845.3"/>
		<line class="st4" x1="1125" y1="845.3" x2="1086.1" y2="845.3"/>
		<line class="st4" x1="384.4" y1="646.2" x2="463.9" y2="646.2"/>
		<line class="st4" x1="334.3" y1="696.4" x2="413.7" y2="696.4"/>
		<line class="st4" x1="284.7" y1="745.9" x2="364.2" y2="745.9"/>
		<line class="st4" x1="233.9" y1="796.7" x2="313.4" y2="796.7"/>
		<line class="st4" x1="184" y1="846.6" x2="263.5" y2="846.6"/>
		<polyline class="st4" points="636.4,396.5 1122.3,396.5 1123,396.5 		"/>
		<line class="st4" x1="587" y1="546" x2="666.1" y2="546"/>
		<line class="st4" x1="486.5" y1="646" x2="566" y2="646"/>
		<line class="st4" x1="587" y1="645.7" x2="666.1" y2="645.7"/>
		<line class="st4" x1="636.9" y1="595.9" x2="715.9" y2="595.9"/>
		<line class="st4" x1="686.9" y1="645.9" x2="765.9" y2="645.9"/>
		<line class="st4" x1="434.9" y1="696.6" x2="514.3" y2="696.6"/>
		<line class="st4" x1="536.9" y1="696.5" x2="616.4" y2="696.5"/>
		<line class="st4" x1="637.5" y1="696.1" x2="716.5" y2="696.1"/>
		<line class="st4" x1="737.3" y1="696.3" x2="816.3" y2="696.3"/>
		<line class="st4" x1="384.2" y1="746.3" x2="463.7" y2="746.3"/>
		<line class="st4" x1="484.8" y1="746.6" x2="564.3" y2="746.6"/>
		<line class="st4" x1="586.9" y1="746.4" x2="666.3" y2="746.4"/>
		<line class="st4" x1="687.4" y1="746.1" x2="766.4" y2="746.1"/>
		<line class="st4" x1="787.3" y1="746.2" x2="866.3" y2="746.2"/>
		<line class="st4" x1="335.3" y1="796.5" x2="414.7" y2="796.5"/>
		<line class="st4" x1="434.8" y1="796.9" x2="514.3" y2="796.9"/>
		<line class="st4" x1="535.4" y1="797.2" x2="614.9" y2="797.2"/>
		<line class="st4" x1="637.4" y1="797" x2="716.9" y2="797"/>
		<line class="st4" x1="738" y1="796.6" x2="817" y2="796.6"/>
		<line class="st4" x1="837.9" y1="796.8" x2="916.9" y2="796.8"/>
		<line class="st4" x1="284" y1="846.8" x2="363.5" y2="846.8"/>
		<line class="st4" x1="385.4" y1="846.6" x2="464.8" y2="846.6"/>
		<line class="st4" x1="484.9" y1="847" x2="564.4" y2="847"/>
		<line class="st4" x1="585.5" y1="847.3" x2="665" y2="847.3"/>
		<line class="st4" x1="687.6" y1="847.1" x2="767" y2="847.1"/>
		<line class="st4" x1="788.1" y1="846.7" x2="867.1" y2="846.7"/>
		<line class="st4" x1="888" y1="846.9" x2="967" y2="846.9"/>
		<polyline class="st4" points="77.8,346.8 126.5,346.8 176.3,346.8 227.2,346.8 275.6,346.8 326.6,346.8 376.5,346.8 426.2,346.8 
			476.2,346.8 526.1,346.8 575.9,346.8 675.6,346.8 725.5,346.8 774.8,346.8 824.2,346.8 825.1,346.8 844,346.8 874.8,346.8 
			924.6,346.8 974.7,346.8 1023.9,346.8 1073.7,346.8 1123.1,346.8 1125.2,346.8 1125.9,346.8 		"/>
		<line class="st4" x1="76.8" y1="846.2" x2="165.5" y2="846.2"/>
		<line class="st4" x1="76.8" y1="796.2" x2="215.6" y2="796.2"/>
		<line class="st4" x1="76.8" y1="746.2" x2="266.1" y2="746.2"/>
		<line class="st4" x1="77.1" y1="696.5" x2="315.6" y2="696.3"/>
		<line class="st4" x1="77.8" y1="646.2" x2="366.1" y2="646.2"/>
		<line class="st4" x1="77.1" y1="596.7" x2="416" y2="596.4"/>
		<line class="st4" x1="77.8" y1="546.4" x2="466" y2="546.4"/>
		<line class="st4" x1="77" y1="497.9" x2="515.8" y2="496.6"/>
		<line class="st4" x1="76.8" y1="446.4" x2="566" y2="446.4"/>
		<line class="st4" x1="77.8" y1="397.2" x2="616" y2="396.4"/>
	</g>
	<g id="Technical2" class="st0">
		<polyline class="st4" points="1125.2,706.9 1125.2,715.1 1125.2,723.3 1125.2,731.4 1125.2,739.5 1125.2,748 1125.2,755.9 
			1125.2,764.3 1125.2,772.3 1125.2,780.7 1125.2,787.4 		"/>
		<polyline class="st4" points="1074.8,656.5 1074.8,664.6 1074.8,672.9 1074.8,681 1074.8,689.1 1074.8,697.6 1074.8,705.5 
			1074.8,713.9 1074.8,721.9 1074.8,730.2 1074.8,737 		"/>
		<polyline class="st4" points="1125,603.5 1125,614.2 1125,624.9 1125,631.5 1125,635.4 1125,646.5 1125,656.8 1125,667.8 
			1125,678.3 1125,687.2 		"/>
		<polyline class="st4" points="1075.1,553.6 1075.1,564.4 1075.1,575 1075.1,581.7 1075.1,585.6 1075.1,596.7 1075.1,607 
			1075.1,617.9 1075.1,628.4 1075.1,637.4 		"/>
		<polyline class="st4" points="1125.6,504.3 1125.6,515 1125.6,525.7 1125.6,532.3 1125.6,536.2 1125.6,547.3 1125.6,557.6 
			1125.6,568.6 1125.6,579.1 1125.6,588 		"/>
		<polyline class="st4" points="1124.7,346.8 1124.7,347.7 1124.7,389.2 		"/>
		<polyline class="st4" points="1125.4,405.3 1125.4,416 1125.4,426.7 1125.4,433.3 1125.4,437.2 1125.4,448.3 1125.4,458.7 
			1125.4,469.6 1125.4,480.1 1125.4,489 		"/>
		<polyline class="st4" points="1074.7,346.8 1074.7,395.8 1074.7,437.4 		"/>
		<polyline class="st4" points="1075.1,453.8 1075.1,464.5 1075.1,475.2 1075.1,481.8 1075.1,485.8 1075.1,496.8 1075.1,507.2 
			1075.1,518.1 1075.1,528.6 1075.1,537.5 		"/>
		<line class="st4" x1="1025.4" y1="388" x2="1025.4" y2="346.8"/>
		<polyline class="st4" points="1025.7,404.4 1025.7,415.1 1025.7,425.8 1025.7,432.5 1025.7,436.4 1025.7,447.5 1025.7,457.8 
			1025.7,468.7 1025.7,479.2 1025.7,488.1 		"/>
		<polyline class="st4" points="1025.2,503.7 1025.2,514.4 1025.2,525.1 1025.2,531.7 1025.2,535.6 1025.2,546.7 1025.2,557 
			1025.2,568 1025.2,578.5 1025.2,587.4 		"/>
		<polyline class="st4" points="975.1,453.6 975.1,464.4 975.1,475 975.1,481.7 975.1,485.6 975.1,496.7 975.1,507 975.1,517.9 
			975.1,528.4 975.1,537.4 		"/>
		<polyline class="st4" points="975.1,346.8 975.1,395.4 975.1,436.9 		"/>
		<polyline class="st4" points="925.2,403.7 925.2,414.4 925.2,425.1 925.2,431.7 925.2,435.6 925.2,446.7 925.2,457 925.2,468 
			925.2,478.5 925.2,487.4 		"/>
		<line class="st4" x1="925.2" y1="387" x2="925.2" y2="346.8"/>
		<polyline class="st4" points="1024.8,606.5 1024.8,614.6 1024.8,622.9 1024.8,631 1024.8,639.1 1024.8,647.6 1024.8,655.5 
			1024.8,663.9 1024.8,671.9 1024.8,680.2 1024.8,687 		"/>
		<polyline class="st4" points="975.1,556.8 975.1,565 975.1,573.2 975.1,581.4 975.1,589.4 975.1,597.9 975.1,605.8 975.1,614.2 
			975.1,622.2 975.1,630.6 975.1,637.3 		"/>
		<polyline class="st4" points="924.7,506.4 924.7,514.6 924.7,522.8 924.7,531 924.7,539 924.7,547.5 924.7,555.4 924.7,563.8 
			924.7,571.8 924.7,580.2 924.7,586.9 		"/>
		<polyline class="st4" points="874.7,456.4 874.7,464.6 874.7,472.8 874.7,481 874.7,489 874.7,497.5 874.7,505.4 874.7,513.8 
			874.7,521.8 874.7,530.2 874.7,536.9 		"/>
		<polyline class="st4" points="874.5,346.8 874.5,395.1 874.5,436.7 		"/>
		<polyline class="st4" points="824.9,346.8 824.9,396.5 824.9,446.5 824.9,486.1 		"/>
		<polyline class="st4" points="775.5,346.8 775.5,396.5 775.5,436.7 		"/>
		<line class="st4" x1="725.4" y1="346.8" x2="725.4" y2="386.6"/>
		<line class="st4" x1="1125.2" y1="897.8" x2="1125.2" y2="807.4"/>
		<line class="st4" x1="1075.2" y1="898.8" x2="1075.2" y2="756.9"/>
		<line class="st4" x1="1025.2" y1="898.8" x2="1025.2" y2="707.4"/>
		<line class="st4" x1="975.2" y1="899.8" x2="975.2" y2="656.9"/>
		<line class="st4" x1="925.4" y1="896.8" x2="925.4" y2="607.1"/>
		<line class="st4" x1="875.4" y1="896.8" x2="875.4" y2="557.1"/>
		<line class="st4" x1="825.6" y1="896.8" x2="825.6" y2="507.3"/>
		<line class="st4" x1="775.4" y1="896.8" x2="775.4" y2="457.1"/>
		<line class="st4" x1="725.4" y1="899.8" x2="725.4" y2="407.1"/>
		<line class="st4" x1="675.4" y1="898.8" x2="675.4" y2="357.1"/>
		<polyline class="st4" points="76.8,837.4 76.8,830.6 76.8,822.3 76.8,814.3 76.8,805.9 76.8,798 76.8,789.5 76.8,781.4 
			76.8,773.3 76.8,765 76.8,756.9 		"/>
		<polyline class="st4" points="77.1,737.2 77.1,728.3 77.1,717.7 77.1,706.8 77.1,696.5 77.1,685.4 77.1,681.5 77.1,674.8 
			77.1,664.2 77.1,653.4 		"/>
		<polyline class="st4" points="126.8,787.4 126.8,780.7 126.8,772.3 126.8,764.3 126.8,755.9 126.8,748 126.8,739.5 126.8,731.4 
			126.8,723.3 126.8,715.1 126.8,706.9 		"/>
		<polyline class="st4" points="177.2,737 177.2,730.2 177.2,721.9 177.2,713.9 177.2,705.5 177.2,697.6 177.2,689.1 177.2,681 
			177.2,672.9 177.2,664.6 177.2,656.5 		"/>
		<polyline class="st4" points="127,687.2 127,678.3 127,667.8 127,656.8 127,646.5 127,635.4 127,631.5 127,624.9 127,614.2 
			127,603.5 		"/>
		<polyline class="st4" points="176.9,637.4 176.9,628.4 176.9,617.9 176.9,607 176.9,596.7 176.9,585.6 176.9,581.7 176.9,575 
			176.9,564.4 176.9,553.6 		"/>
		<polyline class="st4" points="77.1,637.4 77.1,628.4 77.1,617.9 77.1,607 77.1,596.7 77.1,585.6 77.1,581.7 77.1,575 77.1,564.4 
			77.1,553.6 		"/>
		<polyline class="st4" points="77.8,438.8 77.8,397.2 77.8,348.2 77.8,346.8 		"/>
		<polyline class="st4" points="126.4,588 126.4,579.1 126.4,568.6 126.4,557.6 126.4,547.3 126.4,536.2 126.4,532.3 126.4,525.7 
			126.4,515 126.4,504.3 		"/>
		<polyline class="st4" points="77,538.6 77,529.7 77,519.1 77,508.2 77,497.9 77,486.8 77,482.9 77,476.3 77,465.6 77,454.9 		"/>
		<polyline class="st4" points="127.3,389.2 127.3,347.7 127.3,346.8 		"/>
		<polyline class="st4" points="126.6,489 126.6,480.1 126.6,469.6 126.6,458.7 126.6,448.3 126.6,437.2 126.6,433.3 126.6,426.7 
			126.6,416 126.6,405.3 		"/>
		<polyline class="st4" points="177.3,437.4 177.3,395.8 177.3,346.8 		"/>
		<polyline class="st4" points="176.9,537.5 176.9,528.6 176.9,518.1 176.9,507.2 176.9,496.8 176.9,485.8 176.9,481.8 176.9,475.2 
			176.9,464.5 176.9,453.8 		"/>
		<line class="st4" x1="226.7" y1="346.8" x2="226.7" y2="388"/>
		<polyline class="st4" points="226.3,488.1 226.3,479.2 226.3,468.7 226.3,457.8 226.3,447.5 226.3,436.4 226.3,432.5 226.3,425.8 
			226.3,415.1 226.3,404.4 		"/>
		<polyline class="st4" points="226.8,587.4 226.8,578.5 226.8,568 226.8,557 226.8,546.7 226.8,535.6 226.8,531.7 226.8,525.1 
			226.8,514.4 226.8,503.7 		"/>
		<polyline class="st4" points="276.9,537.4 276.9,528.4 276.9,517.9 276.9,507 276.9,496.7 276.9,485.6 276.9,481.7 276.9,475 
			276.9,464.4 276.9,453.6 		"/>
		<polyline class="st4" points="276.9,436.9 276.9,395.4 276.9,346.8 		"/>
		<polyline class="st4" points="326.8,487.4 326.8,478.5 326.8,468 326.8,457 326.8,446.7 326.8,435.6 326.8,431.7 326.8,425.1 
			326.8,414.4 326.8,403.7 		"/>
		<line class="st4" x1="326.8" y1="346.8" x2="326.8" y2="387"/>
		<polyline class="st4" points="227.2,687 227.2,680.2 227.2,671.9 227.2,663.9 227.2,655.5 227.2,647.6 227.2,639.1 227.2,631 
			227.2,622.9 227.2,614.6 227.2,606.5 		"/>
		<polyline class="st4" points="276.9,637.3 276.9,630.6 276.9,622.2 276.9,614.2 276.9,605.8 276.9,597.9 276.9,589.4 276.9,581.4 
			276.9,573.2 276.9,565 276.9,556.8 		"/>
		<polyline class="st4" points="327.3,586.9 327.3,580.2 327.3,571.8 327.3,563.8 327.3,555.4 327.3,547.5 327.3,539 327.3,531 
			327.3,522.8 327.3,514.6 327.3,506.4 		"/>
		<polyline class="st4" points="377.3,536.9 377.3,530.2 377.3,521.8 377.3,513.8 377.3,505.4 377.3,497.5 377.3,489 377.3,481 
			377.3,472.8 377.3,464.6 377.3,456.4 		"/>
		<polyline class="st4" points="377.5,436.7 377.5,395.1 377.5,346.8 		"/>
		<polyline class="st4" points="427.1,486.1 427.1,446.5 427.1,396.5 427.1,346.8 		"/>
		<polyline class="st4" points="476.5,436.7 476.5,396.5 476.5,346.8 		"/>
		<line class="st4" x1="526.6" y1="386.6" x2="526.6" y2="346.8"/>
		<line class="st4" x1="76.8" y1="896.8" x2="76.8" y2="857.5"/>
		<line class="st4" x1="126.8" y1="897.8" x2="126.8" y2="807.4"/>
		<line class="st4" x1="176.8" y1="898.8" x2="176.8" y2="756.9"/>
		<line class="st4" x1="226.8" y1="898.8" x2="226.8" y2="707.4"/>
		<line class="st4" x1="276.8" y1="899.8" x2="276.8" y2="656.9"/>
		<line class="st4" x1="326.7" y1="896.8" x2="326.7" y2="607.1"/>
		<line class="st4" x1="376.7" y1="896.8" x2="376.7" y2="557.1"/>
		<line class="st4" x1="426.5" y1="896.8" x2="426.5" y2="507.3"/>
		<line class="st4" x1="476.7" y1="896.8" x2="476.7" y2="457.1"/>
		<line class="st4" x1="526.7" y1="899.8" x2="526.7" y2="407.1"/>
		<line class="st4" x1="576.7" y1="898.8" x2="576.7" y2="357.1"/>
		<line class="st4" x1="625.4" y1="896.8" x2="625.4" y2="346.8"/>
	</g>
	<g id="Logistics1" class="st0">
		<polyline class="st5" points="1125.2,896.3 1125,896.3 76.8,896.8 		"/>
		<line class="st5" x1="486.5" y1="546.4" x2="566" y2="546.4"/>
		<line class="st5" x1="434.3" y1="596.3" x2="513.8" y2="596.3"/>
		<line class="st5" x1="536.9" y1="495.9" x2="616" y2="495.9"/>
		<line class="st5" x1="586.3" y1="446.6" x2="666.1" y2="446.6"/>
		<line class="st5" x1="536.9" y1="596.4" x2="616" y2="596.4"/>
		<line class="st5" x1="1123" y1="447.1" x2="685.3" y2="447.1"/>
		<line class="st5" x1="636.1" y1="496.4" x2="716.5" y2="496.4"/>
		<polyline class="st5" points="737.3,496.4 1125.1,496.4 1125.2,496.4 		"/>
		<line class="st5" x1="685.3" y1="545.6" x2="765.8" y2="545.6"/>
		<line class="st5" x1="1125.9" y1="545.6" x2="787.3" y2="545.6"/>
		<line class="st5" x1="737.1" y1="597.4" x2="815" y2="597.4"/>
		<line class="st5" x1="1124.5" y1="597.3" x2="837.6" y2="597.3"/>
		<line class="st5" x1="785.2" y1="645.5" x2="866.3" y2="645.5"/>
		<line class="st5" x1="1125" y1="645.5" x2="886.3" y2="645.5"/>
		<line class="st5" x1="836.1" y1="696.4" x2="916.9" y2="696.4"/>
		<line class="st5" x1="1125.5" y1="696.3" x2="937.6" y2="696.3"/>
		<line class="st5" x1="885.1" y1="745.4" x2="967" y2="745.4"/>
		<line class="st5" x1="1125" y1="745.4" x2="986.2" y2="745.4"/>
		<line class="st5" x1="935.9" y1="796.3" x2="1014.8" y2="796.3"/>
		<polyline class="st5" points="1036.9,796.2 1124.9,796.2 1125.1,796.2 		"/>
		<line class="st5" x1="985" y1="845.3" x2="1065.6" y2="845.3"/>
		<line class="st5" x1="1125" y1="845.3" x2="1086.1" y2="845.3"/>
		<line class="st5" x1="384.4" y1="646.2" x2="463.9" y2="646.2"/>
		<line class="st5" x1="334.3" y1="696.4" x2="413.7" y2="696.4"/>
		<line class="st5" x1="284.7" y1="745.9" x2="364.2" y2="745.9"/>
		<line class="st5" x1="233.9" y1="796.7" x2="313.4" y2="796.7"/>
		<line class="st5" x1="184" y1="846.6" x2="263.5" y2="846.6"/>
		<polyline class="st5" points="636.4,396.5 1122.3,396.5 1123,396.5 		"/>
		<line class="st5" x1="587" y1="546" x2="666.1" y2="546"/>
		<line class="st5" x1="486.5" y1="646" x2="566" y2="646"/>
		<line class="st5" x1="587" y1="645.7" x2="666.1" y2="645.7"/>
		<line class="st5" x1="636.9" y1="595.9" x2="715.9" y2="595.9"/>
		<line class="st5" x1="686.9" y1="645.9" x2="765.9" y2="645.9"/>
		<line class="st5" x1="434.9" y1="696.6" x2="514.3" y2="696.6"/>
		<line class="st5" x1="536.9" y1="696.5" x2="616.4" y2="696.5"/>
		<line class="st5" x1="637.5" y1="696.1" x2="716.5" y2="696.1"/>
		<line class="st5" x1="737.3" y1="696.3" x2="816.3" y2="696.3"/>
		<line class="st5" x1="384.2" y1="746.3" x2="463.7" y2="746.3"/>
		<line class="st5" x1="484.8" y1="746.6" x2="564.3" y2="746.6"/>
		<line class="st5" x1="586.9" y1="746.4" x2="666.3" y2="746.4"/>
		<line class="st5" x1="687.4" y1="746.1" x2="766.4" y2="746.1"/>
		<line class="st5" x1="787.3" y1="746.2" x2="866.3" y2="746.2"/>
		<line class="st5" x1="335.3" y1="796.5" x2="414.7" y2="796.5"/>
		<line class="st5" x1="434.8" y1="796.9" x2="514.3" y2="796.9"/>
		<line class="st5" x1="535.4" y1="797.2" x2="614.9" y2="797.2"/>
		<line class="st5" x1="637.4" y1="797" x2="716.9" y2="797"/>
		<line class="st5" x1="738" y1="796.6" x2="817" y2="796.6"/>
		<line class="st5" x1="837.9" y1="796.8" x2="916.9" y2="796.8"/>
		<line class="st5" x1="284" y1="846.8" x2="363.5" y2="846.8"/>
		<line class="st5" x1="385.4" y1="846.6" x2="464.8" y2="846.6"/>
		<line class="st5" x1="484.9" y1="847" x2="564.4" y2="847"/>
		<line class="st5" x1="585.5" y1="847.3" x2="665" y2="847.3"/>
		<line class="st5" x1="687.6" y1="847.1" x2="767" y2="847.1"/>
		<line class="st5" x1="788.1" y1="846.7" x2="867.1" y2="846.7"/>
		<line class="st5" x1="888" y1="846.9" x2="967" y2="846.9"/>
		<polyline class="st5" points="77.8,346.8 126.5,346.8 176.3,346.8 227.2,346.8 275.6,346.8 326.6,346.8 376.5,346.8 426.2,346.8 
			476.2,346.8 526.1,346.8 575.9,346.8 675.6,346.8 725.5,346.8 774.8,346.8 824.2,346.8 825.1,346.8 844,346.8 874.8,346.8 
			924.6,346.8 974.7,346.8 1023.9,346.8 1073.7,346.8 1123.1,346.8 1125.2,346.8 1125.9,346.8 		"/>
		<line class="st5" x1="76.8" y1="846.2" x2="165.5" y2="846.2"/>
		<line class="st5" x1="76.8" y1="796.2" x2="215.6" y2="796.2"/>
		<line class="st5" x1="76.8" y1="746.2" x2="266.1" y2="746.2"/>
		<line class="st5" x1="77.1" y1="696.5" x2="315.6" y2="696.3"/>
		<line class="st5" x1="77.8" y1="646.2" x2="366.1" y2="646.2"/>
		<line class="st5" x1="77.1" y1="596.7" x2="416" y2="596.4"/>
		<line class="st5" x1="77.8" y1="546.4" x2="466" y2="546.4"/>
		<line class="st5" x1="77" y1="497.9" x2="515.8" y2="496.6"/>
		<line class="st5" x1="76.8" y1="446.4" x2="566" y2="446.4"/>
		<line class="st5" x1="77.8" y1="397.2" x2="616" y2="396.4"/>
	</g>
	<g id="Logistics2" class="st0">
		<polyline class="st5" points="1125.2,706.9 1125.2,715.1 1125.2,723.3 1125.2,731.4 1125.2,739.5 1125.2,748 1125.2,755.9 
			1125.2,764.3 1125.2,772.3 1125.2,780.7 1125.2,787.4 		"/>
		<polyline class="st5" points="1074.8,656.5 1074.8,664.6 1074.8,672.9 1074.8,681 1074.8,689.1 1074.8,697.6 1074.8,705.5 
			1074.8,713.9 1074.8,721.9 1074.8,730.2 1074.8,737 		"/>
		<polyline class="st5" points="1125,603.5 1125,614.2 1125,624.9 1125,631.5 1125,635.4 1125,646.5 1125,656.8 1125,667.8 
			1125,678.3 1125,687.2 		"/>
		<polyline class="st5" points="1075.1,553.6 1075.1,564.4 1075.1,575 1075.1,581.7 1075.1,585.6 1075.1,596.7 1075.1,607 
			1075.1,617.9 1075.1,628.4 1075.1,637.4 		"/>
		<polyline class="st5" points="1125.6,504.3 1125.6,515 1125.6,525.7 1125.6,532.3 1125.6,536.2 1125.6,547.3 1125.6,557.6 
			1125.6,568.6 1125.6,579.1 1125.6,588 		"/>
		<polyline class="st5" points="1124.7,346.8 1124.7,347.7 1124.7,389.2 		"/>
		<polyline class="st5" points="1125.4,405.3 1125.4,416 1125.4,426.7 1125.4,433.3 1125.4,437.2 1125.4,448.3 1125.4,458.7 
			1125.4,469.6 1125.4,480.1 1125.4,489 		"/>
		<polyline class="st5" points="1074.7,346.8 1074.7,395.8 1074.7,437.4 		"/>
		<polyline class="st5" points="1075.1,453.8 1075.1,464.5 1075.1,475.2 1075.1,481.8 1075.1,485.8 1075.1,496.8 1075.1,507.2 
			1075.1,518.1 1075.1,528.6 1075.1,537.5 		"/>
		<line class="st5" x1="1025.4" y1="388" x2="1025.4" y2="346.8"/>
		<polyline class="st5" points="1025.7,404.4 1025.7,415.1 1025.7,425.8 1025.7,432.5 1025.7,436.4 1025.7,447.5 1025.7,457.8 
			1025.7,468.7 1025.7,479.2 1025.7,488.1 		"/>
		<polyline class="st5" points="1025.2,503.7 1025.2,514.4 1025.2,525.1 1025.2,531.7 1025.2,535.6 1025.2,546.7 1025.2,557 
			1025.2,568 1025.2,578.5 1025.2,587.4 		"/>
		<polyline class="st5" points="975.1,453.6 975.1,464.4 975.1,475 975.1,481.7 975.1,485.6 975.1,496.7 975.1,507 975.1,517.9 
			975.1,528.4 975.1,537.4 		"/>
		<polyline class="st5" points="975.1,346.8 975.1,395.4 975.1,436.9 		"/>
		<polyline class="st5" points="925.2,403.7 925.2,414.4 925.2,425.1 925.2,431.7 925.2,435.6 925.2,446.7 925.2,457 925.2,468 
			925.2,478.5 925.2,487.4 		"/>
		<line class="st5" x1="925.2" y1="387" x2="925.2" y2="346.8"/>
		<polyline class="st5" points="1024.8,606.5 1024.8,614.6 1024.8,622.9 1024.8,631 1024.8,639.1 1024.8,647.6 1024.8,655.5 
			1024.8,663.9 1024.8,671.9 1024.8,680.2 1024.8,687 		"/>
		<polyline class="st5" points="975.1,556.8 975.1,565 975.1,573.2 975.1,581.4 975.1,589.4 975.1,597.9 975.1,605.8 975.1,614.2 
			975.1,622.2 975.1,630.6 975.1,637.3 		"/>
		<polyline class="st5" points="924.7,506.4 924.7,514.6 924.7,522.8 924.7,531 924.7,539 924.7,547.5 924.7,555.4 924.7,563.8 
			924.7,571.8 924.7,580.2 924.7,586.9 		"/>
		<polyline class="st5" points="874.7,456.4 874.7,464.6 874.7,472.8 874.7,481 874.7,489 874.7,497.5 874.7,505.4 874.7,513.8 
			874.7,521.8 874.7,530.2 874.7,536.9 		"/>
		<polyline class="st5" points="874.5,346.8 874.5,395.1 874.5,436.7 		"/>
		<polyline class="st5" points="824.9,346.8 824.9,396.5 824.9,446.5 824.9,486.1 		"/>
		<polyline class="st5" points="775.5,346.8 775.5,396.5 775.5,436.7 		"/>
		<line class="st5" x1="725.4" y1="346.8" x2="725.4" y2="386.6"/>
		<line class="st5" x1="1125.2" y1="897.8" x2="1125.2" y2="807.4"/>
		<line class="st5" x1="1075.2" y1="898.8" x2="1075.2" y2="756.9"/>
		<line class="st5" x1="1025.2" y1="898.8" x2="1025.2" y2="707.4"/>
		<line class="st5" x1="975.2" y1="899.8" x2="975.2" y2="656.9"/>
		<line class="st5" x1="925.4" y1="896.8" x2="925.4" y2="607.1"/>
		<line class="st5" x1="875.4" y1="896.8" x2="875.4" y2="557.1"/>
		<line class="st5" x1="825.6" y1="896.8" x2="825.6" y2="507.3"/>
		<line class="st5" x1="775.4" y1="896.8" x2="775.4" y2="457.1"/>
		<line class="st5" x1="725.4" y1="899.8" x2="725.4" y2="407.1"/>
		<line class="st5" x1="675.4" y1="898.8" x2="675.4" y2="357.1"/>
		<polyline class="st5" points="76.8,837.4 76.8,830.6 76.8,822.3 76.8,814.3 76.8,805.9 76.8,798 76.8,789.5 76.8,781.4 
			76.8,773.3 76.8,765 76.8,756.9 		"/>
		<polyline class="st5" points="77.1,737.2 77.1,728.3 77.1,717.7 77.1,706.8 77.1,696.5 77.1,685.4 77.1,681.5 77.1,674.8 
			77.1,664.2 77.1,653.4 		"/>
		<polyline class="st5" points="126.8,787.4 126.8,780.7 126.8,772.3 126.8,764.3 126.8,755.9 126.8,748 126.8,739.5 126.8,731.4 
			126.8,723.3 126.8,715.1 126.8,706.9 		"/>
		<polyline class="st5" points="177.2,737 177.2,730.2 177.2,721.9 177.2,713.9 177.2,705.5 177.2,697.6 177.2,689.1 177.2,681 
			177.2,672.9 177.2,664.6 177.2,656.5 		"/>
		<polyline class="st5" points="127,687.2 127,678.3 127,667.8 127,656.8 127,646.5 127,635.4 127,631.5 127,624.9 127,614.2 
			127,603.5 		"/>
		<polyline class="st5" points="176.9,637.4 176.9,628.4 176.9,617.9 176.9,607 176.9,596.7 176.9,585.6 176.9,581.7 176.9,575 
			176.9,564.4 176.9,553.6 		"/>
		<polyline class="st5" points="77.1,637.4 77.1,628.4 77.1,617.9 77.1,607 77.1,596.7 77.1,585.6 77.1,581.7 77.1,575 77.1,564.4 
			77.1,553.6 		"/>
		<polyline class="st5" points="77.8,438.8 77.8,397.2 77.8,348.2 77.8,346.8 		"/>
		<polyline class="st5" points="126.4,588 126.4,579.1 126.4,568.6 126.4,557.6 126.4,547.3 126.4,536.2 126.4,532.3 126.4,525.7 
			126.4,515 126.4,504.3 		"/>
		<polyline class="st5" points="77,538.6 77,529.7 77,519.1 77,508.2 77,497.9 77,486.8 77,482.9 77,476.3 77,465.6 77,454.9 		"/>
		<polyline class="st5" points="127.3,389.2 127.3,347.7 127.3,346.8 		"/>
		<polyline class="st5" points="126.6,489 126.6,480.1 126.6,469.6 126.6,458.7 126.6,448.3 126.6,437.2 126.6,433.3 126.6,426.7 
			126.6,416 126.6,405.3 		"/>
		<polyline class="st5" points="177.3,437.4 177.3,395.8 177.3,346.8 		"/>
		<polyline class="st5" points="176.9,537.5 176.9,528.6 176.9,518.1 176.9,507.2 176.9,496.8 176.9,485.8 176.9,481.8 176.9,475.2 
			176.9,464.5 176.9,453.8 		"/>
		<line class="st5" x1="226.7" y1="346.8" x2="226.7" y2="388"/>
		<polyline class="st5" points="226.3,488.1 226.3,479.2 226.3,468.7 226.3,457.8 226.3,447.5 226.3,436.4 226.3,432.5 226.3,425.8 
			226.3,415.1 226.3,404.4 		"/>
		<polyline class="st5" points="226.8,587.4 226.8,578.5 226.8,568 226.8,557 226.8,546.7 226.8,535.6 226.8,531.7 226.8,525.1 
			226.8,514.4 226.8,503.7 		"/>
		<polyline class="st5" points="276.9,537.4 276.9,528.4 276.9,517.9 276.9,507 276.9,496.7 276.9,485.6 276.9,481.7 276.9,475 
			276.9,464.4 276.9,453.6 		"/>
		<polyline class="st5" points="276.9,436.9 276.9,395.4 276.9,346.8 		"/>
		<polyline class="st5" points="326.8,487.4 326.8,478.5 326.8,468 326.8,457 326.8,446.7 326.8,435.6 326.8,431.7 326.8,425.1 
			326.8,414.4 326.8,403.7 		"/>
		<line class="st5" x1="326.8" y1="346.8" x2="326.8" y2="387"/>
		<polyline class="st5" points="227.2,687 227.2,680.2 227.2,671.9 227.2,663.9 227.2,655.5 227.2,647.6 227.2,639.1 227.2,631 
			227.2,622.9 227.2,614.6 227.2,606.5 		"/>
		<polyline class="st5" points="276.9,637.3 276.9,630.6 276.9,622.2 276.9,614.2 276.9,605.8 276.9,597.9 276.9,589.4 276.9,581.4 
			276.9,573.2 276.9,565 276.9,556.8 		"/>
		<polyline class="st5" points="327.3,586.9 327.3,580.2 327.3,571.8 327.3,563.8 327.3,555.4 327.3,547.5 327.3,539 327.3,531 
			327.3,522.8 327.3,514.6 327.3,506.4 		"/>
		<polyline class="st5" points="377.3,536.9 377.3,530.2 377.3,521.8 377.3,513.8 377.3,505.4 377.3,497.5 377.3,489 377.3,481 
			377.3,472.8 377.3,464.6 377.3,456.4 		"/>
		<polyline class="st5" points="377.5,436.7 377.5,395.1 377.5,346.8 		"/>
		<polyline class="st5" points="427.1,486.1 427.1,446.5 427.1,396.5 427.1,346.8 		"/>
		<polyline class="st5" points="476.5,436.7 476.5,396.5 476.5,346.8 		"/>
		<line class="st5" x1="526.6" y1="386.6" x2="526.6" y2="346.8"/>
		<line class="st5" x1="76.8" y1="896.8" x2="76.8" y2="857.5"/>
		<line class="st5" x1="126.8" y1="897.8" x2="126.8" y2="807.4"/>
		<line class="st5" x1="176.8" y1="898.8" x2="176.8" y2="756.9"/>
		<line class="st5" x1="226.8" y1="898.8" x2="226.8" y2="707.4"/>
		<line class="st5" x1="276.8" y1="899.8" x2="276.8" y2="656.9"/>
		<line class="st5" x1="326.7" y1="896.8" x2="326.7" y2="607.1"/>
		<line class="st5" x1="376.7" y1="896.8" x2="376.7" y2="557.1"/>
		<line class="st5" x1="426.5" y1="896.8" x2="426.5" y2="507.3"/>
		<line class="st5" x1="476.7" y1="896.8" x2="476.7" y2="457.1"/>
		<line class="st5" x1="526.7" y1="899.8" x2="526.7" y2="407.1"/>
		<line class="st5" x1="576.7" y1="898.8" x2="576.7" y2="357.1"/>
		<line class="st5" x1="625.4" y1="896.8" x2="625.4" y2="346.8"/>
	</g>
	<g id="PR1">
		<polyline class="st6" points="1068.7,905.9 1068.5,905.9 102,906.5 		"/>
		<line class="st6" x1="479.8" y1="498.4" x2="553.1" y2="498.4"/>
		<line class="st6" x1="431.7" y1="556.6" x2="505" y2="556.6"/>
		<line class="st6" x1="526.3" y1="439.6" x2="599.2" y2="439.6"/>
		<line class="st6" x1="571.8" y1="382.2" x2="645.4" y2="382.2"/>
		<line class="st6" x1="526.3" y1="556.7" x2="599.2" y2="556.7"/>
		<line class="st6" x1="1066.6" y1="382.8" x2="663.1" y2="382.8"/>
		<line class="st6" x1="617.7" y1="440.2" x2="691.8" y2="440.2"/>
		<polyline class="st6" points="711,440.2 1068.6,440.2 1068.7,440.2 		"/>
		<line class="st6" x1="663.1" y1="497.5" x2="737.3" y2="497.5"/>
		<line class="st6" x1="1069.3" y1="497.5" x2="757.1" y2="497.5"/>
		<line class="st6" x1="710.8" y1="557.8" x2="782.7" y2="557.8"/>
		<line class="st6" x1="1068" y1="557.7" x2="803.5" y2="557.7"/>
		<line class="st6" x1="755.2" y1="613.9" x2="830" y2="613.9"/>
		<line class="st6" x1="1068.5" y1="613.9" x2="848.4" y2="613.9"/>
		<line class="st6" x1="802.1" y1="673.1" x2="876.6" y2="673.1"/>
		<line class="st6" x1="1068.9" y1="673" x2="895.7" y2="673"/>
		<line class="st6" x1="847.3" y1="730.2" x2="922.8" y2="730.2"/>
		<line class="st6" x1="1068.5" y1="730.2" x2="940.5" y2="730.2"/>
		<line class="st6" x1="894.1" y1="789.5" x2="966.9" y2="789.5"/>
		<polyline class="st6" points="987.2,789.4 1068.4,789.4 1068.6,789.4 		"/>
		<line class="st6" x1="939.4" y1="846.5" x2="1013.7" y2="846.5"/>
		<line class="st6" x1="1068.5" y1="846.5" x2="1032.6" y2="846.5"/>
		<line class="st6" x1="385.7" y1="614.7" x2="458.9" y2="614.7"/>
		<line class="st6" x1="339.5" y1="673.1" x2="412.7" y2="673.1"/>
		<line class="st6" x1="293.7" y1="730.8" x2="367" y2="730.8"/>
		<line class="st6" x1="246.9" y1="789.9" x2="320.2" y2="789.9"/>
		<line class="st6" x1="200.9" y1="848" x2="274.2" y2="848"/>
		<polyline class="st6" points="618,323.9 1066,323.9 1066.6,323.9 		"/>
		<line class="st6" x1="572.4" y1="498" x2="645.4" y2="498"/>
		<line class="st6" x1="479.8" y1="614.4" x2="553.1" y2="614.4"/>
		<line class="st6" x1="572.4" y1="614.1" x2="645.4" y2="614.1"/>
		<line class="st6" x1="618.5" y1="556.1" x2="691.3" y2="556.1"/>
		<line class="st6" x1="664.6" y1="614.3" x2="737.4" y2="614.3"/>
		<line class="st6" x1="432.2" y1="673.4" x2="505.4" y2="673.4"/>
		<line class="st6" x1="526.3" y1="673.2" x2="599.6" y2="673.2"/>
		<line class="st6" x1="619" y1="672.8" x2="691.8" y2="672.8"/>
		<line class="st6" x1="711" y1="673" x2="783.9" y2="673"/>
		<line class="st6" x1="385.5" y1="731.2" x2="458.8" y2="731.2"/>
		<line class="st6" x1="478.2" y1="731.6" x2="551.5" y2="731.6"/>
		<line class="st6" x1="572.4" y1="731.4" x2="645.6" y2="731.4"/>
		<line class="st6" x1="665" y1="731" x2="737.8" y2="731"/>
		<line class="st6" x1="757.1" y1="731.1" x2="830" y2="731.1"/>
		<line class="st6" x1="340.4" y1="789.7" x2="413.6" y2="789.7"/>
		<line class="st6" x1="432.1" y1="790.2" x2="505.4" y2="790.2"/>
		<line class="st6" x1="524.9" y1="790.5" x2="598.2" y2="790.5"/>
		<line class="st6" x1="618.9" y1="790.3" x2="692.2" y2="790.3"/>
		<line class="st6" x1="711.7" y1="789.8" x2="784.5" y2="789.8"/>
		<line class="st6" x1="803.8" y1="790.1" x2="876.6" y2="790.1"/>
		<line class="st6" x1="293.1" y1="848.3" x2="366.4" y2="848.3"/>
		<line class="st6" x1="386.6" y1="848" x2="459.8" y2="848"/>
		<line class="st6" x1="478.3" y1="848.5" x2="551.6" y2="848.5"/>
		<line class="st6" x1="571.1" y1="848.9" x2="644.4" y2="848.9"/>
		<line class="st6" x1="665.2" y1="848.6" x2="738.4" y2="848.6"/>
		<line class="st6" x1="757.9" y1="848.2" x2="830.7" y2="848.2"/>
		<line class="st6" x1="850" y1="848.4" x2="922.8" y2="848.4"/>
		<polyline class="st6" points="103,266 147.9,266 193.8,266 240.7,266 285.3,266 332.4,266 378.4,266 424.2,266 470.3,266 
			516.3,266 562.2,266 654.1,266 700.1,266 745.6,266 791.1,266 792,266 809.4,266 837.8,266 883.7,266 929.9,266 975.3,266 
			1021.2,266 1066.7,266 1068.7,266 1069.3,266 		"/>
		<line class="st6" x1="102" y1="847.6" x2="183.8" y2="847.6"/>
		<line class="st6" x1="102" y1="789.4" x2="230" y2="789.4"/>
		<line class="st6" x1="102" y1="731.1" x2="276.6" y2="731.1"/>
		<line class="st6" x1="102.3" y1="673.2" x2="322.2" y2="673"/>
		<line class="st6" x1="103" y1="614.7" x2="368.8" y2="614.7"/>
		<line class="st6" x1="102.3" y1="557" x2="414.8" y2="556.7"/>
		<line class="st6" x1="103" y1="498.4" x2="460.9" y2="498.4"/>
		<line class="st6" x1="102.2" y1="442" x2="506.8" y2="440.5"/>
		<line class="st6" x1="102" y1="382" x2="553.1" y2="382"/>
		<line class="st6" x1="103" y1="324.7" x2="599.2" y2="323.8"/>
	</g>
	<g id="PR2">
		<polyline class="st6" points="1068.7,685.4 1068.7,694.9 1068.7,704.5 1068.7,713.9 1068.7,723.3 1068.7,733.2 1068.7,742.4 
			1068.7,752.2 1068.7,761.5 1068.7,771.3 1068.7,779.1 		"/>
		<polyline class="st6" points="1022.2,626.7 1022.2,636.1 1022.2,645.8 1022.2,655.2 1022.2,664.6 1022.2,674.5 1022.2,683.7 
			1022.2,693.5 1022.2,702.8 1022.2,712.5 1022.2,720.4 		"/>
		<polyline class="st6" points="1068.5,564.9 1068.5,577.4 1068.5,589.9 1068.5,597.5 1068.5,602.1 1068.5,615 1068.5,627 
			1068.5,639.8 1068.5,652.1 1068.5,662.4 		"/>
		<polyline class="st6" points="1022.5,506.8 1022.5,519.4 1022.5,531.8 1022.5,539.6 1022.5,544.1 1022.5,557 1022.5,569 
			1022.5,581.7 1022.5,593.9 1022.5,604.4 		"/>
		<polyline class="st6" points="1069,449.4 1069,461.9 1069,474.3 1069,482 1069,486.6 1069,499.5 1069,511.5 1069,524.3 
			1069,536.5 1069,546.9 		"/>
		<polyline class="st6" points="1068.2,266 1068.2,267 1068.2,315.4 		"/>
		<polyline class="st6" points="1068.8,334.1 1068.8,346.6 1068.8,359 1068.8,366.7 1068.8,371.3 1068.8,384.2 1068.8,396.3 
			1068.8,409 1068.8,421.2 1068.8,431.6 		"/>
		<polyline class="st6" points="1022.1,266 1022.1,323.1 1022.1,371.5 		"/>
		<polyline class="st6" points="1022.5,390.6 1022.5,403.1 1022.5,415.5 1022.5,423.2 1022.5,427.9 1022.5,440.7 1022.5,452.8 
			1022.5,465.5 1022.5,477.7 1022.5,488.1 		"/>
		<line class="st6" x1="976.6" y1="314" x2="976.6" y2="266"/>
		<polyline class="st6" points="976.9,333.1 976.9,345.5 976.9,358 976.9,365.8 976.9,370.3 976.9,383.3 976.9,395.3 976.9,408 
			976.9,420.2 976.9,430.6 		"/>
		<polyline class="st6" points="976.5,448.7 976.5,461.2 976.5,473.6 976.5,481.3 976.5,485.9 976.5,498.8 976.5,510.8 976.5,523.6 
			976.5,535.8 976.5,546.2 		"/>
		<polyline class="st6" points="930.3,390.4 930.3,403 930.3,415.3 930.3,423.1 930.3,427.6 930.3,440.6 930.3,452.6 930.3,465.3 
			930.3,477.5 930.3,488 		"/>
		<polyline class="st6" points="930.3,266 930.3,322.6 930.3,370.9 		"/>
		<polyline class="st6" points="884.3,332.3 884.3,344.7 884.3,357.2 884.3,364.9 884.3,369.4 884.3,382.3 884.3,394.3 884.3,407.1 
			884.3,419.4 884.3,429.7 		"/>
		<line class="st6" x1="884.3" y1="312.8" x2="884.3" y2="266"/>
		<polyline class="st6" points="976.1,568.4 976.1,577.9 976.1,587.5 976.1,597 976.1,606.4 976.1,616.3 976.1,625.5 976.1,635.3 
			976.1,644.6 976.1,654.3 976.1,662.2 		"/>
		<polyline class="st6" points="930.3,510.6 930.3,520.1 930.3,529.7 930.3,539.2 930.3,548.5 930.3,558.4 930.3,567.6 930.3,577.4 
			930.3,586.7 930.3,596.5 930.3,604.3 		"/>
		<polyline class="st6" points="883.8,451.9 883.8,461.4 883.8,471 883.8,480.5 883.8,489.8 883.8,499.7 883.8,508.9 883.8,518.7 
			883.8,528 883.8,537.8 883.8,545.6 		"/>
		<polyline class="st6" points="837.7,393.6 837.7,403.2 837.7,412.7 837.7,422.3 837.7,431.6 837.7,441.5 837.7,450.7 837.7,460.5 
			837.7,469.8 837.7,479.6 837.7,487.4 		"/>
		<polyline class="st6" points="837.5,266 837.5,322.2 837.5,370.7 		"/>
		<polyline class="st6" points="791.8,266 791.8,323.9 791.8,382.1 791.8,428.2 		"/>
		<polyline class="st6" points="746.2,266 746.2,323.9 746.2,370.7 		"/>
		<line class="st6" x1="700" y1="266" x2="700" y2="312.3"/>
		<line class="st6" x1="1068.7" y1="907.7" x2="1068.7" y2="802.4"/>
		<line class="st6" x1="1022.6" y1="908.8" x2="1022.6" y2="743.6"/>
		<line class="st6" x1="976.5" y1="908.8" x2="976.5" y2="685.9"/>
		<line class="st6" x1="930.4" y1="910" x2="930.4" y2="627.1"/>
		<line class="st6" x1="884.4" y1="906.5" x2="884.4" y2="569.1"/>
		<line class="st6" x1="838.3" y1="906.5" x2="838.3" y2="510.9"/>
		<line class="st6" x1="792.4" y1="906.5" x2="792.4" y2="452.9"/>
		<line class="st6" x1="746.1" y1="906.5" x2="746.1" y2="394.5"/>
		<line class="st6" x1="700" y1="910" x2="700" y2="336.2"/>
		<line class="st6" x1="653.9" y1="908.8" x2="653.9" y2="278"/>
		<polyline class="st6" points="102,837.3 102,829.4 102,819.7 102,810.4 102,800.6 102,791.4 102,781.5 102,772.1 102,762.7 
			102,753 102,743.6 		"/>
		<polyline class="st6" points="102.3,720.6 102.3,710.3 102.3,697.9 102.3,685.2 102.3,673.2 102.3,660.3 102.3,655.8 102.3,648 
			102.3,635.6 102.3,623.1 		"/>
		<polyline class="st6" points="148.1,779.1 148.1,771.3 148.1,761.5 148.1,752.2 148.1,742.4 148.1,733.2 148.1,723.3 148.1,713.9 
			148.1,704.5 148.1,694.9 148.1,685.4 		"/>
		<polyline class="st6" points="194.6,720.4 194.6,712.5 194.6,702.8 194.6,693.5 194.6,683.7 194.6,674.5 194.6,664.6 194.6,655.2 
			194.6,645.8 194.6,636.1 194.6,626.7 		"/>
		<polyline class="st6" points="148.3,662.4 148.3,652.1 148.3,639.8 148.3,627 148.3,615 148.3,602.1 148.3,597.5 148.3,589.9 
			148.3,577.4 148.3,564.9 		"/>
		<polyline class="st6" points="194.3,604.4 194.3,593.9 194.3,581.7 194.3,569 194.3,557 194.3,544.1 194.3,539.6 194.3,531.8 
			194.3,519.4 194.3,506.8 		"/>
		<polyline class="st6" points="102.3,604.4 102.3,593.9 102.3,581.7 102.3,569 102.3,557 102.3,544.1 102.3,539.6 102.3,531.8 
			102.3,519.4 102.3,506.8 		"/>
		<polyline class="st6" points="103,373.1 103,324.7 103,267.6 103,266 		"/>
		<polyline class="st6" points="147.8,546.9 147.8,536.5 147.8,524.3 147.8,511.5 147.8,499.5 147.8,486.6 147.8,482 147.8,474.3 
			147.8,461.9 147.8,449.4 		"/>
		<polyline class="st6" points="102.2,489.4 102.2,479 102.2,466.7 102.2,454 102.2,442 102.2,429 102.2,424.5 102.2,416.8 
			102.2,404.3 102.2,391.9 		"/>
		<polyline class="st6" points="148.6,315.4 148.6,267 148.6,266 		"/>
		<polyline class="st6" points="148,431.6 148,421.2 148,409 148,396.3 148,384.2 148,371.3 148,366.7 148,359 148,346.6 148,334.1 
					"/>
		<polyline class="st6" points="194.7,371.5 194.7,323.1 194.7,266 		"/>
		<polyline class="st6" points="194.3,488.1 194.3,477.7 194.3,465.5 194.3,452.8 194.3,440.7 194.3,427.9 194.3,423.2 194.3,415.5 
			194.3,403.1 194.3,390.6 		"/>
		<line class="st6" x1="240.3" y1="266" x2="240.3" y2="314"/>
		<polyline class="st6" points="239.9,430.6 239.9,420.2 239.9,408 239.9,395.3 239.9,383.3 239.9,370.3 239.9,365.8 239.9,358 
			239.9,345.5 239.9,333.1 		"/>
		<polyline class="st6" points="240.3,546.2 240.3,535.8 240.3,523.6 240.3,510.8 240.3,498.8 240.3,485.9 240.3,481.3 240.3,473.6 
			240.3,461.2 240.3,448.7 		"/>
		<polyline class="st6" points="286.5,488 286.5,477.5 286.5,465.3 286.5,452.6 286.5,440.6 286.5,427.6 286.5,423.1 286.5,415.3 
			286.5,403 286.5,390.4 		"/>
		<polyline class="st6" points="286.5,370.9 286.5,322.6 286.5,266 		"/>
		<polyline class="st6" points="332.5,429.7 332.5,419.4 332.5,407.1 332.5,394.3 332.5,382.3 332.5,369.4 332.5,364.9 332.5,357.2 
			332.5,344.7 332.5,332.3 		"/>
		<line class="st6" x1="332.5" y1="266" x2="332.5" y2="312.8"/>
		<polyline class="st6" points="240.7,662.2 240.7,654.3 240.7,644.6 240.7,635.3 240.7,625.5 240.7,616.3 240.7,606.4 240.7,597 
			240.7,587.5 240.7,577.9 240.7,568.4 		"/>
		<polyline class="st6" points="286.5,604.3 286.5,596.5 286.5,586.7 286.5,577.4 286.5,567.6 286.5,558.4 286.5,548.5 286.5,539.2 
			286.5,529.7 286.5,520.1 286.5,510.6 		"/>
		<polyline class="st6" points="333,545.6 333,537.8 333,528 333,518.7 333,508.9 333,499.7 333,489.8 333,480.5 333,471 333,461.4 
			333,451.9 		"/>
		<polyline class="st6" points="379.1,487.4 379.1,479.6 379.1,469.8 379.1,460.5 379.1,450.7 379.1,441.5 379.1,431.6 379.1,422.3 
			379.1,412.7 379.1,403.2 379.1,393.6 		"/>
		<polyline class="st6" points="379.3,370.7 379.3,322.2 379.3,266 		"/>
		<polyline class="st6" points="425,428.2 425,382.1 425,323.9 425,266 		"/>
		<polyline class="st6" points="470.6,370.7 470.6,323.9 470.6,266 		"/>
		<line class="st6" x1="516.8" y1="312.3" x2="516.8" y2="266"/>
		<line class="st6" x1="102" y1="906.5" x2="102" y2="860.7"/>
		<line class="st6" x1="148.1" y1="907.7" x2="148.1" y2="802.4"/>
		<line class="st6" x1="194.2" y1="908.8" x2="194.2" y2="743.6"/>
		<line class="st6" x1="240.3" y1="908.8" x2="240.3" y2="685.9"/>
		<line class="st6" x1="286.4" y1="910" x2="286.4" y2="627.1"/>
		<line class="st6" x1="332.5" y1="906.5" x2="332.5" y2="569.1"/>
		<line class="st6" x1="378.6" y1="906.5" x2="378.6" y2="510.9"/>
		<line class="st6" x1="424.5" y1="906.5" x2="424.5" y2="452.9"/>
		<line class="st6" x1="470.8" y1="906.5" x2="470.8" y2="394.5"/>
		<line class="st6" x1="516.8" y1="910" x2="516.8" y2="336.2"/>
		<line class="st6" x1="562.9" y1="908.8" x2="562.9" y2="278"/>
		<line class="st6" x1="607.8" y1="906.5" x2="607.8" y2="266"/>
	</g>
	<g id="Editorial1" class="st0">
		<polyline class="st7" points="1125.2,896.3 1125,896.3 76.8,896.8 		"/>
		<line class="st7" x1="486.5" y1="546.4" x2="566" y2="546.4"/>
		<line class="st7" x1="434.3" y1="596.3" x2="513.8" y2="596.3"/>
		<line class="st7" x1="536.9" y1="495.9" x2="616" y2="495.9"/>
		<line class="st7" x1="586.3" y1="446.6" x2="666.1" y2="446.6"/>
		<line class="st7" x1="536.9" y1="596.4" x2="616" y2="596.4"/>
		<line class="st7" x1="1123" y1="447.1" x2="685.3" y2="447.1"/>
		<line class="st7" x1="636.1" y1="496.4" x2="716.5" y2="496.4"/>
		<polyline class="st7" points="737.3,496.4 1125.1,496.4 1125.2,496.4 		"/>
		<line class="st7" x1="685.3" y1="545.6" x2="765.8" y2="545.6"/>
		<line class="st7" x1="1125.9" y1="545.6" x2="787.3" y2="545.6"/>
		<line class="st7" x1="737.1" y1="597.4" x2="815" y2="597.4"/>
		<line class="st7" x1="1124.5" y1="597.3" x2="837.6" y2="597.3"/>
		<line class="st7" x1="785.2" y1="645.5" x2="866.3" y2="645.5"/>
		<line class="st7" x1="1125" y1="645.5" x2="886.3" y2="645.5"/>
		<line class="st7" x1="836.1" y1="696.4" x2="916.9" y2="696.4"/>
		<line class="st7" x1="1125.5" y1="696.3" x2="937.6" y2="696.3"/>
		<line class="st7" x1="885.1" y1="745.4" x2="967" y2="745.4"/>
		<line class="st7" x1="1125" y1="745.4" x2="986.2" y2="745.4"/>
		<line class="st7" x1="935.9" y1="796.3" x2="1014.8" y2="796.3"/>
		<polyline class="st7" points="1036.9,796.2 1124.9,796.2 1125.1,796.2 		"/>
		<line class="st7" x1="985" y1="845.3" x2="1065.6" y2="845.3"/>
		<line class="st7" x1="1125" y1="845.3" x2="1086.1" y2="845.3"/>
		<line class="st7" x1="384.4" y1="646.2" x2="463.9" y2="646.2"/>
		<line class="st7" x1="334.3" y1="696.4" x2="413.7" y2="696.4"/>
		<line class="st7" x1="284.7" y1="745.9" x2="364.2" y2="745.9"/>
		<line class="st7" x1="233.9" y1="796.7" x2="313.4" y2="796.7"/>
		<line class="st7" x1="184" y1="846.6" x2="263.5" y2="846.6"/>
		<polyline class="st7" points="636.4,396.5 1122.3,396.5 1123,396.5 		"/>
		<line class="st7" x1="587" y1="546" x2="666.1" y2="546"/>
		<line class="st7" x1="486.5" y1="646" x2="566" y2="646"/>
		<line class="st7" x1="587" y1="645.7" x2="666.1" y2="645.7"/>
		<line class="st7" x1="636.9" y1="595.9" x2="715.9" y2="595.9"/>
		<line class="st7" x1="686.9" y1="645.9" x2="765.9" y2="645.9"/>
		<line class="st7" x1="434.9" y1="696.6" x2="514.3" y2="696.6"/>
		<line class="st7" x1="536.9" y1="696.5" x2="616.4" y2="696.5"/>
		<line class="st7" x1="637.5" y1="696.1" x2="716.5" y2="696.1"/>
		<line class="st7" x1="737.3" y1="696.3" x2="816.3" y2="696.3"/>
		<line class="st7" x1="384.2" y1="746.3" x2="463.7" y2="746.3"/>
		<line class="st7" x1="484.8" y1="746.6" x2="564.3" y2="746.6"/>
		<line class="st7" x1="586.9" y1="746.4" x2="666.3" y2="746.4"/>
		<line class="st7" x1="687.4" y1="746.1" x2="766.4" y2="746.1"/>
		<line class="st7" x1="787.3" y1="746.2" x2="866.3" y2="746.2"/>
		<line class="st7" x1="335.3" y1="796.5" x2="414.7" y2="796.5"/>
		<line class="st7" x1="434.8" y1="796.9" x2="514.3" y2="796.9"/>
		<line class="st7" x1="535.4" y1="797.2" x2="614.9" y2="797.2"/>
		<line class="st7" x1="637.4" y1="797" x2="716.9" y2="797"/>
		<line class="st7" x1="738" y1="796.6" x2="817" y2="796.6"/>
		<line class="st7" x1="837.9" y1="796.8" x2="916.9" y2="796.8"/>
		<line class="st7" x1="284" y1="846.8" x2="363.5" y2="846.8"/>
		<line class="st7" x1="385.4" y1="846.6" x2="464.8" y2="846.6"/>
		<line class="st7" x1="484.9" y1="847" x2="564.4" y2="847"/>
		<line class="st7" x1="585.5" y1="847.3" x2="665" y2="847.3"/>
		<line class="st7" x1="687.6" y1="847.1" x2="767" y2="847.1"/>
		<line class="st7" x1="788.1" y1="846.7" x2="867.1" y2="846.7"/>
		<line class="st7" x1="888" y1="846.9" x2="967" y2="846.9"/>
		<polyline class="st7" points="77.8,346.8 126.5,346.8 176.3,346.8 227.2,346.8 275.6,346.8 326.6,346.8 376.5,346.8 426.2,346.8 
			476.2,346.8 526.1,346.8 575.9,346.8 675.6,346.8 725.5,346.8 774.8,346.8 824.2,346.8 825.1,346.8 844,346.8 874.8,346.8 
			924.6,346.8 974.7,346.8 1023.9,346.8 1073.7,346.8 1123.1,346.8 1125.2,346.8 1125.9,346.8 		"/>
		<line class="st7" x1="76.8" y1="846.2" x2="165.5" y2="846.2"/>
		<line class="st7" x1="76.8" y1="796.2" x2="215.6" y2="796.2"/>
		<line class="st7" x1="76.8" y1="746.2" x2="266.1" y2="746.2"/>
		<line class="st7" x1="77.1" y1="696.5" x2="315.6" y2="696.3"/>
		<line class="st7" x1="77.8" y1="646.2" x2="366.1" y2="646.2"/>
		<line class="st7" x1="77.1" y1="596.7" x2="416" y2="596.4"/>
		<line class="st7" x1="77.8" y1="546.4" x2="466" y2="546.4"/>
		<line class="st7" x1="77" y1="497.9" x2="515.8" y2="496.6"/>
		<line class="st7" x1="76.8" y1="446.4" x2="566" y2="446.4"/>
		<line class="st7" x1="77.8" y1="397.2" x2="616" y2="396.4"/>
	</g>
	<g id="Editoral2" class="st0">
		<polyline class="st7" points="1125.2,706.9 1125.2,715.1 1125.2,723.3 1125.2,731.4 1125.2,739.5 1125.2,748 1125.2,755.9 
			1125.2,764.3 1125.2,772.3 1125.2,780.7 1125.2,787.4 		"/>
		<polyline class="st7" points="1074.8,656.5 1074.8,664.6 1074.8,672.9 1074.8,681 1074.8,689.1 1074.8,697.6 1074.8,705.5 
			1074.8,713.9 1074.8,721.9 1074.8,730.2 1074.8,737 		"/>
		<polyline class="st7" points="1125,603.5 1125,614.2 1125,624.9 1125,631.5 1125,635.4 1125,646.5 1125,656.8 1125,667.8 
			1125,678.3 1125,687.2 		"/>
		<polyline class="st7" points="1075.1,553.6 1075.1,564.4 1075.1,575 1075.1,581.7 1075.1,585.6 1075.1,596.7 1075.1,607 
			1075.1,617.9 1075.1,628.4 1075.1,637.4 		"/>
		<polyline class="st7" points="1125.6,504.3 1125.6,515 1125.6,525.7 1125.6,532.3 1125.6,536.2 1125.6,547.3 1125.6,557.6 
			1125.6,568.6 1125.6,579.1 1125.6,588 		"/>
		<polyline class="st7" points="1124.7,346.8 1124.7,347.7 1124.7,389.2 		"/>
		<polyline class="st7" points="1125.4,405.3 1125.4,416 1125.4,426.7 1125.4,433.3 1125.4,437.2 1125.4,448.3 1125.4,458.7 
			1125.4,469.6 1125.4,480.1 1125.4,489 		"/>
		<polyline class="st7" points="1074.7,346.8 1074.7,395.8 1074.7,437.4 		"/>
		<polyline class="st7" points="1075.1,453.8 1075.1,464.5 1075.1,475.2 1075.1,481.8 1075.1,485.8 1075.1,496.8 1075.1,507.2 
			1075.1,518.1 1075.1,528.6 1075.1,537.5 		"/>
		<line class="st7" x1="1025.4" y1="388" x2="1025.4" y2="346.8"/>
		<polyline class="st7" points="1025.7,404.4 1025.7,415.1 1025.7,425.8 1025.7,432.5 1025.7,436.4 1025.7,447.5 1025.7,457.8 
			1025.7,468.7 1025.7,479.2 1025.7,488.1 		"/>
		<polyline class="st7" points="1025.2,503.7 1025.2,514.4 1025.2,525.1 1025.2,531.7 1025.2,535.6 1025.2,546.7 1025.2,557 
			1025.2,568 1025.2,578.5 1025.2,587.4 		"/>
		<polyline class="st7" points="975.1,453.6 975.1,464.4 975.1,475 975.1,481.7 975.1,485.6 975.1,496.7 975.1,507 975.1,517.9 
			975.1,528.4 975.1,537.4 		"/>
		<polyline class="st7" points="975.1,346.8 975.1,395.4 975.1,436.9 		"/>
		<polyline class="st7" points="925.2,403.7 925.2,414.4 925.2,425.1 925.2,431.7 925.2,435.6 925.2,446.7 925.2,457 925.2,468 
			925.2,478.5 925.2,487.4 		"/>
		<line class="st7" x1="925.2" y1="387" x2="925.2" y2="346.8"/>
		<polyline class="st7" points="1024.8,606.5 1024.8,614.6 1024.8,622.9 1024.8,631 1024.8,639.1 1024.8,647.6 1024.8,655.5 
			1024.8,663.9 1024.8,671.9 1024.8,680.2 1024.8,687 		"/>
		<polyline class="st7" points="975.1,556.8 975.1,565 975.1,573.2 975.1,581.4 975.1,589.4 975.1,597.9 975.1,605.8 975.1,614.2 
			975.1,622.2 975.1,630.6 975.1,637.3 		"/>
		<polyline class="st7" points="924.7,506.4 924.7,514.6 924.7,522.8 924.7,531 924.7,539 924.7,547.5 924.7,555.4 924.7,563.8 
			924.7,571.8 924.7,580.2 924.7,586.9 		"/>
		<polyline class="st7" points="874.7,456.4 874.7,464.6 874.7,472.8 874.7,481 874.7,489 874.7,497.5 874.7,505.4 874.7,513.8 
			874.7,521.8 874.7,530.2 874.7,536.9 		"/>
		<polyline class="st7" points="874.5,346.8 874.5,395.1 874.5,436.7 		"/>
		<polyline class="st7" points="824.9,346.8 824.9,396.5 824.9,446.5 824.9,486.1 		"/>
		<polyline class="st7" points="775.5,346.8 775.5,396.5 775.5,436.7 		"/>
		<line class="st7" x1="725.4" y1="346.8" x2="725.4" y2="386.6"/>
		<line class="st7" x1="1125.2" y1="897.8" x2="1125.2" y2="807.4"/>
		<line class="st7" x1="1075.2" y1="898.8" x2="1075.2" y2="756.9"/>
		<line class="st7" x1="1025.2" y1="898.8" x2="1025.2" y2="707.4"/>
		<line class="st7" x1="975.2" y1="899.8" x2="975.2" y2="656.9"/>
		<line class="st7" x1="925.4" y1="896.8" x2="925.4" y2="607.1"/>
		<line class="st7" x1="875.4" y1="896.8" x2="875.4" y2="557.1"/>
		<line class="st7" x1="825.6" y1="896.8" x2="825.6" y2="507.3"/>
		<line class="st7" x1="775.4" y1="896.8" x2="775.4" y2="457.1"/>
		<line class="st7" x1="725.4" y1="899.8" x2="725.4" y2="407.1"/>
		<line class="st7" x1="675.4" y1="898.8" x2="675.4" y2="357.1"/>
		<polyline class="st7" points="76.8,837.4 76.8,830.6 76.8,822.3 76.8,814.3 76.8,805.9 76.8,798 76.8,789.5 76.8,781.4 
			76.8,773.3 76.8,765 76.8,756.9 		"/>
		<polyline class="st7" points="77.1,737.2 77.1,728.3 77.1,717.7 77.1,706.8 77.1,696.5 77.1,685.4 77.1,681.5 77.1,674.8 
			77.1,664.2 77.1,653.4 		"/>
		<polyline class="st7" points="126.8,787.4 126.8,780.7 126.8,772.3 126.8,764.3 126.8,755.9 126.8,748 126.8,739.5 126.8,731.4 
			126.8,723.3 126.8,715.1 126.8,706.9 		"/>
		<polyline class="st7" points="177.2,737 177.2,730.2 177.2,721.9 177.2,713.9 177.2,705.5 177.2,697.6 177.2,689.1 177.2,681 
			177.2,672.9 177.2,664.6 177.2,656.5 		"/>
		<polyline class="st7" points="127,687.2 127,678.3 127,667.8 127,656.8 127,646.5 127,635.4 127,631.5 127,624.9 127,614.2 
			127,603.5 		"/>
		<polyline class="st7" points="176.9,637.4 176.9,628.4 176.9,617.9 176.9,607 176.9,596.7 176.9,585.6 176.9,581.7 176.9,575 
			176.9,564.4 176.9,553.6 		"/>
		<polyline class="st7" points="77.1,637.4 77.1,628.4 77.1,617.9 77.1,607 77.1,596.7 77.1,585.6 77.1,581.7 77.1,575 77.1,564.4 
			77.1,553.6 		"/>
		<polyline class="st7" points="77.8,438.8 77.8,397.2 77.8,348.2 77.8,346.8 		"/>
		<polyline class="st7" points="126.4,588 126.4,579.1 126.4,568.6 126.4,557.6 126.4,547.3 126.4,536.2 126.4,532.3 126.4,525.7 
			126.4,515 126.4,504.3 		"/>
		<polyline class="st7" points="77,538.6 77,529.7 77,519.1 77,508.2 77,497.9 77,486.8 77,482.9 77,476.3 77,465.6 77,454.9 		"/>
		<polyline class="st7" points="127.3,389.2 127.3,347.7 127.3,346.8 		"/>
		<polyline class="st7" points="126.6,489 126.6,480.1 126.6,469.6 126.6,458.7 126.6,448.3 126.6,437.2 126.6,433.3 126.6,426.7 
			126.6,416 126.6,405.3 		"/>
		<polyline class="st7" points="177.3,437.4 177.3,395.8 177.3,346.8 		"/>
		<polyline class="st7" points="176.9,537.5 176.9,528.6 176.9,518.1 176.9,507.2 176.9,496.8 176.9,485.8 176.9,481.8 176.9,475.2 
			176.9,464.5 176.9,453.8 		"/>
		<line class="st7" x1="226.7" y1="346.8" x2="226.7" y2="388"/>
		<polyline class="st7" points="226.3,488.1 226.3,479.2 226.3,468.7 226.3,457.8 226.3,447.5 226.3,436.4 226.3,432.5 226.3,425.8 
			226.3,415.1 226.3,404.4 		"/>
		<polyline class="st7" points="226.8,587.4 226.8,578.5 226.8,568 226.8,557 226.8,546.7 226.8,535.6 226.8,531.7 226.8,525.1 
			226.8,514.4 226.8,503.7 		"/>
		<polyline class="st7" points="276.9,537.4 276.9,528.4 276.9,517.9 276.9,507 276.9,496.7 276.9,485.6 276.9,481.7 276.9,475 
			276.9,464.4 276.9,453.6 		"/>
		<polyline class="st7" points="276.9,436.9 276.9,395.4 276.9,346.8 		"/>
		<polyline class="st7" points="326.8,487.4 326.8,478.5 326.8,468 326.8,457 326.8,446.7 326.8,435.6 326.8,431.7 326.8,425.1 
			326.8,414.4 326.8,403.7 		"/>
		<line class="st7" x1="326.8" y1="346.8" x2="326.8" y2="387"/>
		<polyline class="st7" points="227.2,687 227.2,680.2 227.2,671.9 227.2,663.9 227.2,655.5 227.2,647.6 227.2,639.1 227.2,631 
			227.2,622.9 227.2,614.6 227.2,606.5 		"/>
		<polyline class="st7" points="276.9,637.3 276.9,630.6 276.9,622.2 276.9,614.2 276.9,605.8 276.9,597.9 276.9,589.4 276.9,581.4 
			276.9,573.2 276.9,565 276.9,556.8 		"/>
		<polyline class="st7" points="327.3,586.9 327.3,580.2 327.3,571.8 327.3,563.8 327.3,555.4 327.3,547.5 327.3,539 327.3,531 
			327.3,522.8 327.3,514.6 327.3,506.4 		"/>
		<polyline class="st7" points="377.3,536.9 377.3,530.2 377.3,521.8 377.3,513.8 377.3,505.4 377.3,497.5 377.3,489 377.3,481 
			377.3,472.8 377.3,464.6 377.3,456.4 		"/>
		<polyline class="st7" points="377.5,436.7 377.5,395.1 377.5,346.8 		"/>
		<polyline class="st7" points="427.1,486.1 427.1,446.5 427.1,396.5 427.1,346.8 		"/>
		<polyline class="st7" points="476.5,436.7 476.5,396.5 476.5,346.8 		"/>
		<line class="st7" x1="526.6" y1="386.6" x2="526.6" y2="346.8"/>
		<line class="st7" x1="76.8" y1="896.8" x2="76.8" y2="857.5"/>
		<line class="st7" x1="126.8" y1="897.8" x2="126.8" y2="807.4"/>
		<line class="st7" x1="176.8" y1="898.8" x2="176.8" y2="756.9"/>
		<line class="st7" x1="226.8" y1="898.8" x2="226.8" y2="707.4"/>
		<line class="st7" x1="276.8" y1="899.8" x2="276.8" y2="656.9"/>
		<line class="st7" x1="326.7" y1="896.8" x2="326.7" y2="607.1"/>
		<line class="st7" x1="376.7" y1="896.8" x2="376.7" y2="557.1"/>
		<line class="st7" x1="426.5" y1="896.8" x2="426.5" y2="507.3"/>
		<line class="st7" x1="476.7" y1="896.8" x2="476.7" y2="457.1"/>
		<line class="st7" x1="526.7" y1="899.8" x2="526.7" y2="407.1"/>
		<line class="st7" x1="576.7" y1="898.8" x2="576.7" y2="357.1"/>
		<line class="st7" x1="625.4" y1="896.8" x2="625.4" y2="346.8"/>
	</g>
</g>
<g id="Layer_2_1_">
</g>
</svg>
