<?xml version="1.0" encoding="utf-8"?>
<!-- Generator: Adobe Illustrator 22.0.1, SVG Export Plug-In . SVG Version: 6.00 Build 0)  -->
<svg version="1.1" id="Layer_1" xmlns="http://www.w3.org/2000/svg" xmlns:xlink="http://www.w3.org/1999/xlink" x="0px" y="0px"
	 viewBox="0 0 175 67" style="enable-background:new 0 0 175 67;" xml:space="preserve">
<style type="text/css">
	.st0{fill:#F2622B;stroke:#F2622B;stroke-linecap:round;stroke-miterlimit:10;}
	.st1{enable-background:new    ;}
	.st2{fill:#FE6123;}
</style>
<g id="Layer_2_1_">
	<path class="st0" d="M19.7,4.5C10,4.5,2.4,11.1,2.8,23.6c0,0.8,0.1,1.5,0.3,2.3c0,0.7,0.1,1.5,0.3,2.1c0,0,0.2,0.6,0.3,1.1
		c0.4,1.3,0.7,1.9,1.3,3.3c0.2,0.6,0.5,1.1,0.6,1.5c0.2,0.6,0.3,0.7,0.6,1.3c1.3,2.5,2.2,5.2,3.3,7.7c0.7,1.8,1.3,3.6,2.1,5.4
		c0.3,0.7,0.6,1.3,0.8,2.1c0.2,0.5,0.2,1.1,0.7,1.8c0.2,0.5,0.3,0.6,0.5,1.1c0.3,0.5,0.3,0.7,0.6,1.1c0.4,0.9,0.5,1,1.3,2.1
		c0.5,0.2,0.9,0.1,1.1,0.1c0.3-0.2,0.5-0.3,0.6-0.6c0.5-1.3,0.2-2.7,0.6-4c0.1-0.5,0.2-1.1,0.3-1.5c0.2-0.7,0.4-1.4,0.6-2.1
		c0.7-2.2,1.8-3.4,3.1-4.8c0.3-0.3,0.6-0.6,0.9-0.9c0.3-0.3,0.6-0.6,0.9-0.8c0.5-0.5,1.1-0.9,1.6-1.3C29.4,37,36,31,36.5,24.1
		C36.9,11.1,29.3,5,19.7,4.5z M18.9,30.4c-4.9,0.3-7.2-3.9-7.2-9.5c0-7.1,1.4-8.5,7.3-8.5c4.7,0,8.8,3,8.8,8.5
		C27.7,26.6,23.6,30.4,18.9,30.4z"/>
</g>
<g id="Layer_3">
	<g class="st1">
		<path class="st2" d="M35.9,40.5v1.2c0.7-1.3,2.6-2.7,5-2.7c4.8,0,7.8,2.9,7.8,9.1s-2.9,9.1-7.8,9.1c-2.5,0-4.3-1.4-5-2.7v8.6
			c0,0.6-0.6,1.2-1.2,1.2s-1.2-0.6-1.2-1.2V40.5c0-0.7,0.6-1.2,1.2-1.2S35.9,39.8,35.9,40.5z M40.9,55.1c3.4,0,5.3-2.2,5.3-6.9
			c0-4.7-2-6.9-5.4-6.9c-2.7,0-5,2-5,6.9C35.8,53,38,55.1,40.9,55.1z"/>
		<path class="st2" d="M54.8,42.2c0.7-1.7,2.6-3,5.2-3c0.6,0,1.2,0.5,1.2,1.2s-0.5,1.2-1.2,1.2c-3.4,0-5.2,2.4-5.2,5.9v8.5
			c0,0.7-0.5,1.2-1.2,1.2s-1.2-0.5-1.2-1.2V40.5c0-0.7,0.5-1.2,1.2-1.2s1.2,0.5,1.2,1.2V42.2z"/>
		<path class="st2" d="M63.6,34.3c0-1.1,0.5-1.5,1.4-1.5s1.4,0.4,1.4,1.5c0,0.9-0.5,1.4-1.4,1.4S63.6,35.2,63.6,34.3z M66.2,55.9
			c0,0.7-0.5,1.2-1.2,1.2s-1.2-0.5-1.2-1.2V40.5c0-0.7,0.5-1.2,1.2-1.2s1.2,0.5,1.2,1.2V55.9z"/>
		<path class="st2" d="M77.6,39.1c3.3,0,5.1,1.8,5.7,2.6c0.2,0.3,0.3,0.5,0.3,0.7c0,0.6-0.5,1.1-1.1,1.1c-0.4,0-0.6-0.2-0.9-0.5
			c-0.6-0.6-1.6-1.8-4-1.8c-3.4,0-5.2,2.2-5.2,6.9c0,4.7,1.8,6.9,5.2,6.9c2.2,0,3.5-1,4.3-1.6c0.3-0.2,0.4-0.3,0.7-0.3
			c0.6,0,1.1,0.5,1.1,1.1c0,0.3-0.1,0.6-0.5,0.9c-0.8,0.7-2.6,2-5.6,2c-4.8,0-7.6-2.9-7.6-9.1S72.8,39.1,77.6,39.1z"/>
		<path class="st2" d="M93.9,39.1c5.9,0,7.1,4.8,7.1,7.4c0,1.1,0,2.4-1.5,2.4H88.7c0,3.8,2.1,6.2,5.6,6.2c2.2,0,3.4-0.8,4.5-1.6
			c0.2-0.2,0.4-0.2,0.7-0.2c0.6,0,1.1,0.5,1.1,1.1c0,0.4-0.2,0.6-0.4,0.9c-0.6,0.6-2.5,2.1-5.8,2.1c-4.9,0-8-2.8-8-9.1
			C86.3,42.3,89.1,39.1,93.9,39.1z M93.9,41.3c-3.2,0-5,2.1-5.2,5.5h10C98.7,44,97.8,41.3,93.9,41.3z"/>
		<path class="st2" d="M119.6,48.2c0,6.2-2.8,9.1-7.6,9.1c-4.2,0-7.3-2.5-7.3-7.5V31c0-0.7,0.5-1.2,1.2-1.2c0.7,0,1.2,0.5,1.2,1.2
			v10.5c0.9-1.2,2.7-2.5,5-2.5C116.9,39.1,119.6,41.9,119.6,48.2z M107.1,49.8c0,3.6,2,5.3,4.9,5.3c3.4,0,5.2-2.2,5.2-6.9
			c0-4.7-1.9-6.9-5.2-6.9c-3.5,0-4.9,3.3-4.9,3.3V49.8z"/>
		<path class="st2" d="M125.2,43.3c-0.4,0.4-0.6,0.5-1,0.5c-0.6,0-1.1-0.5-1.1-1.1c0-0.3,0.1-0.5,0.2-0.6c1-1.7,3-3,6.2-3
			c4.3,0,6.7,2.6,6.7,6.4v10.4c0,0.6-0.5,1.2-1.2,1.2s-1.2-0.5-1.2-1.2v-1.4c-0.9,1.8-3.1,2.7-5.3,2.7c-3.9,0-6.4-1.9-6.4-5.4
			c0-3.3,2.5-5.3,6.5-5.3h5.2v-1c0-2.6-1.7-4.2-4.4-4.2C127.5,41.3,126.3,41.9,125.2,43.3z M133.9,50.2v-1.6h-5.2
			c-2.4,0-4.1,1-4.1,3.2c0,2,1.3,3.2,4.2,3.2C131.4,55.1,133.9,53.5,133.9,50.2z"/>
		<path class="st2" d="M155.5,48.2c0,6.2-2.8,9.1-7.6,9.1c-4.2,0-7.3-2.5-7.3-7.5V31c0-0.7,0.5-1.2,1.2-1.2c0.7,0,1.2,0.5,1.2,1.2
			v10.5c0.9-1.2,2.7-2.5,5-2.5C152.9,39.1,155.5,41.9,155.5,48.2z M143,49.8c0,3.6,2,5.3,4.9,5.3c3.4,0,5.2-2.2,5.2-6.9
			c0-4.7-1.9-6.9-5.2-6.9c-3.5,0-4.9,3.3-4.9,3.3V49.8z"/>
		<path class="st2" d="M161.1,43.3c-0.4,0.4-0.6,0.5-1,0.5c-0.6,0-1.1-0.5-1.1-1.1c0-0.3,0.1-0.5,0.2-0.6c1-1.7,3-3,6.2-3
			c4.3,0,6.7,2.6,6.7,6.4v10.4c0,0.6-0.5,1.2-1.2,1.2s-1.2-0.5-1.2-1.2v-1.4c-0.9,1.8-3.1,2.7-5.3,2.7c-3.9,0-6.4-1.9-6.4-5.4
			c0-3.3,2.5-5.3,6.5-5.3h5.2v-1c0-2.6-1.7-4.2-4.4-4.2C163.5,41.3,162.3,41.9,161.1,43.3z M169.8,50.2v-1.6h-5.2
			c-2.4,0-4.1,1-4.1,3.2c0,2,1.3,3.2,4.2,3.2C167.3,55.1,169.8,53.5,169.8,50.2z"/>
	</g>
</g>
</svg>
