<?xml version="1.0" encoding="UTF-8" ?>
<!DOCTYPE svg PUBLIC "-//W3C//DTD SVG 1.1//EN" "http://www.w3.org/Graphics/SVG/1.1/DTD/svg11.dtd">
<svg width="200pt" height="76pt" viewBox="0 0 200 76" version="1.1" xmlns="http://www.w3.org/2000/svg">
<path fill="#ffffff" d=" M 0.00 0.00 L 19.81 0.00 C 9.13 0.55 0.47 9.96 0.00 20.49 L 0.00 0.00 Z" />
<path fill="#ff5f19" d=" M 19.81 0.00 L 23.24 0.00 C 29.41 0.71 35.31 3.96 38.75 9.20 C 44.75 17.87 43.31 30.52 36.03 38.01 C 31.93 42.65 26.15 45.41 22.10 50.08 C 18.60 54.13 18.81 59.73 17.43 64.61 C 15.59 66.07 14.30 63.81 13.71 62.32 C 10.18 54.09 6.90 45.74 3.49 37.46 C 1.68 33.13 0.47 28.56 0.00 23.90 L 0.00 20.49 C 0.47 9.96 9.13 0.55 19.81 0.00 Z" />
<path fill="#ffffff" d=" M 23.24 0.00 L 200.00 0.00 L 200.00 49.76 C 198.83 41.84 187.15 41.59 183.73 47.98 C 184.22 48.27 185.20 48.84 185.69 49.12 C 188.07 47.01 191.33 45.17 194.55 46.68 C 196.88 47.49 196.96 50.27 197.58 52.26 C 193.83 52.46 189.84 51.77 186.29 53.27 C 182.12 55.13 181.99 61.86 186.01 63.96 C 189.64 65.91 194.11 65.07 197.21 62.50 C 197.36 63.11 197.65 64.33 197.79 64.94 C 198.34 64.79 199.45 64.47 200.00 64.32 L 200.00 76.00 L 41.23 76.00 C 41.86 71.50 41.61 66.94 41.47 62.42 C 43.69 63.97 46.22 65.56 49.07 64.99 C 52.91 64.82 56.11 61.67 56.68 57.92 C 57.48 53.45 57.23 47.68 53.08 44.87 C 49.51 42.52 44.93 43.40 41.66 45.85 C 41.50 45.23 41.17 43.98 41.00 43.35 C 38.27 43.95 38.77 46.90 38.69 49.01 C 38.80 58.01 38.64 67.00 38.80 76.00 L 0.00 76.00 L 0.00 23.90 C 0.47 28.56 1.68 33.13 3.49 37.46 C 6.90 45.74 10.18 54.09 13.71 62.32 C 14.30 63.81 15.59 66.07 17.43 64.61 C 18.81 59.73 18.60 54.13 22.10 50.08 C 26.15 45.41 31.93 42.65 36.03 38.01 C 43.31 30.52 44.75 17.87 38.75 9.20 C 35.31 3.96 29.41 0.71 23.24 0.00 Z" />
<path fill="#ffffff" d=" M 15.36 11.50 C 21.64 8.97 30.25 12.72 30.83 19.94 C 32.45 27.98 22.69 35.22 15.50 31.51 C 12.60 28.86 12.03 24.62 11.54 20.92 C 11.21 17.48 11.19 12.54 15.36 11.50 Z" />
<path fill="#ff5f19" d=" M 120.84 32.88 C 121.45 32.90 122.67 32.93 123.28 32.95 C 123.71 37.29 123.44 41.66 123.42 46.02 C 127.19 42.58 134.06 42.43 136.93 47.06 C 139.04 50.88 139.00 55.67 137.70 59.75 C 135.51 66.48 124.55 66.92 121.53 60.68 C 120.23 57.64 120.70 54.23 120.61 51.01 C 120.78 44.97 120.32 38.90 120.84 32.88 Z" />
<path fill="#ff5f19" d=" M 162.18 33.02 L 163.13 32.43 C 163.50 32.62 164.25 33.00 164.62 33.19 C 164.99 37.47 164.73 41.77 164.73 46.05 C 168.26 42.76 174.52 42.42 177.72 46.34 C 180.44 50.24 180.36 55.58 178.92 59.95 C 176.45 66.91 164.56 66.79 162.42 59.66 C 161.51 55.84 162.04 51.86 161.92 47.97 C 162.07 42.99 161.57 37.98 162.18 33.02 Z" />
<path fill="#ff5f19" d=" M 74.26 39.78 C 73.09 37.81 74.99 36.71 76.78 37.15 C 77.22 38.64 75.95 41.62 74.26 39.78 Z" />
<path fill="#ff5f19" d=" M 38.69 49.01 C 38.77 46.90 38.27 43.95 41.00 43.35 C 41.17 43.98 41.50 45.23 41.66 45.85 C 44.93 43.40 49.51 42.52 53.08 44.87 C 57.23 47.68 57.48 53.45 56.68 57.92 C 56.11 61.67 52.91 64.82 49.07 64.99 C 46.22 65.56 43.69 63.97 41.47 62.42 C 41.61 66.94 41.86 71.50 41.23 76.00 L 38.80 76.00 C 38.64 67.00 38.80 58.01 38.69 49.01 Z" />
<path fill="#ff5f19" d=" M 60.22 50.02 C 60.39 47.64 59.50 44.64 61.86 43.05 C 62.25 43.95 63.04 45.73 63.43 46.62 C 64.80 44.02 70.25 41.56 70.98 45.69 C 68.32 46.39 64.81 46.73 63.77 49.78 C 62.28 54.53 63.75 59.62 62.83 64.45 C 62.31 64.69 61.28 65.18 60.76 65.42 C 59.74 60.35 60.45 55.15 60.22 50.02 Z" />
<path fill="#ff5f19" d=" M 74.14 43.93 C 75.75 42.67 77.24 44.29 76.78 45.98 C 76.73 51.92 77.03 57.90 76.63 63.83 C 76.68 66.13 73.28 64.93 74.00 63.04 C 73.93 56.67 73.72 50.28 74.14 43.93 Z" />
<path fill="#ff5f19" d=" M 83.90 44.87 C 88.08 42.24 93.83 43.44 96.93 47.20 C 95.40 50.12 93.47 47.42 91.62 46.49 C 88.93 45.47 85.27 46.20 83.96 49.00 C 82.54 52.19 82.59 56.03 83.82 59.27 C 85.24 62.58 89.77 63.29 92.65 61.50 C 94.08 60.88 96.60 59.05 96.67 61.94 C 93.55 65.22 88.18 66.02 84.23 63.84 C 81.17 62.10 80.10 58.36 80.03 55.06 C 79.86 51.39 80.59 47.03 83.90 44.87 Z" />
<path fill="#ff5f19" d=" M 100.87 48.13 C 103.47 42.19 113.38 41.76 116.35 47.56 C 117.61 49.82 117.39 52.46 117.16 54.93 C 112.23 55.22 107.29 55.04 102.35 55.12 C 102.89 57.40 103.27 60.12 105.54 61.38 C 108.67 63.39 112.54 62.15 115.33 60.15 C 115.81 60.38 116.78 60.83 117.26 61.06 C 113.64 66.93 102.86 66.37 100.50 59.62 C 99.29 55.94 99.26 51.71 100.87 48.13 Z" />
<path fill="#ff5f19" d=" M 146.29 44.37 C 150.08 42.68 155.68 43.18 157.81 47.19 C 159.25 50.24 158.54 53.73 158.73 56.99 C 158.53 59.59 159.25 62.42 158.06 64.84 C 156.58 64.83 155.77 63.99 155.63 62.31 C 152.92 65.58 147.88 65.75 144.38 63.74 C 140.60 61.43 141.00 54.85 145.19 53.18 C 148.67 51.79 152.53 52.46 156.18 52.29 C 156.18 49.27 154.36 45.93 150.92 46.18 C 147.78 45.35 146.04 49.32 143.16 48.80 C 142.47 46.67 144.68 45.23 146.29 44.37 Z" />
<path fill="#ff5f19" d=" M 183.73 47.98 C 187.15 41.59 198.83 41.84 200.00 49.76 L 200.00 64.32 C 199.45 64.47 198.34 64.79 197.79 64.94 C 197.65 64.33 197.36 63.11 197.21 62.50 C 194.11 65.07 189.64 65.91 186.01 63.96 C 181.99 61.86 182.12 55.13 186.29 53.27 C 189.84 51.77 193.83 52.46 197.58 52.26 C 196.96 50.27 196.88 47.49 194.55 46.68 C 191.33 45.17 188.07 47.01 185.69 49.12 C 185.20 48.84 184.22 48.27 183.73 47.98 Z" />
<path fill="#ffffff" d=" M 45.34 46.50 C 48.06 45.45 51.68 46.28 53.05 49.04 C 54.55 52.18 54.46 56.04 53.20 59.24 C 51.30 63.75 43.70 63.48 42.25 58.74 C 40.93 54.71 40.90 48.59 45.34 46.50 Z" />
<path fill="#ffffff" d=" M 105.15 47.13 C 107.20 45.81 110.01 45.72 112.15 46.87 C 114.15 48.03 114.30 50.53 114.81 52.54 C 110.64 52.60 106.48 52.61 102.32 52.53 C 103.04 50.65 103.33 48.32 105.15 47.13 Z" />
<path fill="#ffffff" d=" M 127.36 46.41 C 130.05 45.46 133.58 46.42 134.77 49.20 C 136.08 52.47 136.09 56.37 134.63 59.59 C 132.45 64.06 124.20 63.18 123.70 57.94 C 123.25 53.88 122.40 48.00 127.36 46.41 Z" />
<path fill="#ffffff" d=" M 168.36 46.53 C 171.27 45.29 175.24 46.51 176.28 49.69 C 177.28 52.72 177.29 56.18 176.15 59.17 C 174.27 64.01 165.62 63.40 165.00 58.02 C 164.62 54.04 163.61 48.31 168.36 46.53 Z" />
<path fill="#ffffff" d=" M 147.16 55.20 C 150.09 54.53 153.13 54.87 156.11 54.83 C 155.80 56.55 156.03 58.50 154.95 60.00 C 153.06 62.62 149.13 63.07 146.37 61.69 C 143.78 60.32 144.29 55.89 147.16 55.20 Z" />
<path fill="#ffffff" d=" M 186.24 57.20 C 188.42 53.38 193.79 55.26 197.38 54.83 C 197.18 57.24 197.10 60.23 194.63 61.49 C 191.47 63.78 184.45 62.12 186.24 57.20 Z" />
</svg>
