<svg xmlns="http://www.w3.org/2000/svg" xmlns:xlink="http://www.w3.org/1999/xlink" id="svg" x="0" y="0" enable-background="new 0 0 400 300" version="1.1" viewBox="0 0 400 300" xml:space="preserve"><style type="text/css">.st0{fill:#19478a}.st1{fill:#ed1c24}.st2{fill:#7a93ba}.st3{fill:#f36e71}</style><g id="svgg"><path id="path1" d="M289.4,84.8c-0.7,0.1-1.3,0.2-1.5,0.4c-0.4,0.3-3.5,0.8-7.5,1.2c-1.9,0.2-4.2,0.7-5.4,1.1 c-1.1,0.4-3,0.9-4.1,1.1c-1.1,0.2-2.5,0.6-3,0.9c-0.6,0.3-2,0.7-3.2,1c-1.1,0.2-2.6,0.7-3.1,1c-0.6,0.3-2,0.8-3.1,1.1 c-1.1,0.3-2.3,0.7-2.5,0.9c-0.2,0.2-1,0.6-1.7,0.8c-0.7,0.2-2.1,0.7-3.1,1.2c-1,0.5-2.4,1-3.2,1.2c-0.8,0.2-1.5,0.5-1.6,0.8 c-0.1,0.2-1,0.7-2.1,1c-1.1,0.3-2.4,0.9-3.1,1.4c-0.6,0.4-1.5,0.8-1.8,0.8s-1.1,0.3-1.5,0.7c-1,0.8-2.3,1.4-3,1.4 c-0.3,0-0.9,0.3-1.4,0.7c-0.5,0.4-1.4,0.9-2,1c-0.6,0.2-1.5,0.6-2,1.1c-0.5,0.4-1.2,0.8-1.6,0.9c-0.8,0.2-0.9,0.3-2.6,1.3 c-0.5,0.3-1.2,0.7-1.6,0.8c-0.4,0.1-1.1,0.5-1.5,0.9c-0.4,0.4-1.4,0.9-2.2,1.2c-0.8,0.3-1.4,0.6-1.4,0.8c0,0.1-0.9,0.7-2,1.2 c-1.1,0.5-1.9,1-1.9,1.2c0,0.1-0.6,0.5-1.4,0.8c-0.7,0.3-1.4,0.6-1.4,0.8c0,0.2-0.7,0.6-1.5,1c-0.8,0.4-1.9,1-2.4,1.5 c-0.5,0.4-1.1,0.8-1.4,0.8c-0.2,0-0.8,0.3-1.3,0.8c-0.5,0.4-1.4,1-2,1.2c-0.6,0.3-1.2,0.6-1.3,0.9c-0.1,0.2-0.5,0.6-1,0.7 c-1.1,0.4-1.9,1-2.3,1.5c-0.1,0.2-0.8,0.7-1.6,1c-0.7,0.3-1.3,0.7-1.3,0.9s-0.6,0.6-1.4,1c-0.8,0.4-1.6,1-1.9,1.2 c-0.2,0.3-0.8,0.7-1.3,0.9c-0.5,0.2-1.1,0.7-1.4,1c-0.3,0.3-1,0.7-1.5,1c-0.7,0.4-0.9,0.7-0.9,1.4c0,0.5-0.2,1-0.4,1 s-0.1,0.1,0.2,0c0.3-0.1,4.1-0.2,8.3-0.2c8.4-0.1,9.9-0.4,11.9-2.1c0.5-0.4,1.4-1,2.1-1.3c0.7-0.3,1.3-0.6,1.3-0.8 c0-0.1,0.6-0.5,1.4-0.8c0.8-0.3,1.6-0.8,1.9-1.1c0.3-0.3,1.2-0.8,1.9-1.1s1.4-0.7,1.4-0.8c0-0.2,0.9-0.7,2-1.1c1.1-0.5,2-1,2-1.1 c0-0.1,0.7-0.5,1.5-0.8c0.8-0.3,1.7-0.8,2-1.1c0.3-0.3,0.8-0.6,1.3-0.7c0.4-0.1,1.5-0.7,2.3-1.2c0.8-0.6,1.7-1,2-1 c0.3,0,1.2-0.5,2.1-1c0.9-0.6,1.9-1.1,2.1-1.1s0.8-0.3,1.2-0.6c0.4-0.3,1.5-0.9,2.4-1.2c0.9-0.4,1.7-0.7,1.8-0.9 c0.2-0.3,1.8-1.1,2.8-1.3c0.5-0.1,1.2-0.5,1.6-0.8c0.4-0.3,1.4-0.8,2.3-1.1s1.8-0.7,2-0.9c0.2-0.2,1.3-0.7,2.4-1.1 c1.1-0.4,2.3-0.9,2.6-1.2c0.4-0.3,1.4-0.7,2.3-0.9c0.9-0.2,1.9-0.6,2.3-0.9c0.4-0.3,1.5-0.8,2.6-1c1-0.3,2.3-0.7,2.8-1 c0.5-0.3,1.7-0.7,2.6-0.9c0.9-0.2,2.3-0.7,3.1-1.1c0.8-0.4,2.4-0.8,3.6-1c1.2-0.2,2.6-0.6,3.2-0.9c0.6-0.3,2-0.7,3.2-0.9 c4.5-0.7,5.4-0.9,7-1.4c3.8-1.1,19-0.9,21.4,0.3c0.5,0.2,1.4,0.5,2,0.6c1.9,0.3,3.2,0.8,4,1.5c0.5,0.4,1.1,0.7,1.4,0.7 c0.3,0,1.2,0.5,2,1.2c0.8,0.6,1.7,1.2,2,1.4c0.3,0.1,0.6,0.5,0.7,0.8c0.1,0.3,0.3,0.6,0.5,0.6c0.8,0,4.7,5.3,5.5,7.5 c0.3,0.8,0.7,1.4,1,1.4c1.1,0.2,0.4-5.9-0.9-7.6c-0.4-0.5-0.7-1.1-0.7-1.4c0-0.7-0.6-2-1.6-3.3c-0.5-0.6-0.8-1.3-0.8-1.5 c0-0.2-0.5-0.8-1-1.5c-0.6-0.7-1.1-1.4-1.1-1.6c0-0.2-0.3-0.5-0.7-0.7c-0.4-0.2-0.9-0.7-1.2-1.2c-0.3-0.5-0.6-0.9-0.8-0.9 c-0.2,0-0.8-0.4-1.4-1c-0.6-0.5-1.6-1.2-2.2-1.6c-0.6-0.3-1.2-0.8-1.4-1c-0.2-0.2-0.8-0.5-1.2-0.6c-0.4-0.1-1.6-0.6-2.5-1 c-1.1-0.6-2.6-1-4.5-1.3c-3.5-0.5-4.5-0.8-5-1.2C300,84.8,291.7,84.6,289.4,84.8 M328.6,114.1c0,0.7,0.1,1.7,0.2,2.2l0.2,0.9 l0.2-1.1c0.2-1.3,0-3.2-0.4-3.2C328.7,112.8,328.6,113.4,328.6,114.1 M78.8,196.3c-0.3,2.6,0,5.8,0.6,7.6c0.2,0.7,0.6,2.5,0.9,4.1 c0.3,1.6,0.7,3.2,1,3.6c0.3,0.4,0.8,1.3,1.2,2c0.6,1.2,3.1,4,3.5,4c0.1,0,0.9,0.5,1.7,1.1c0.8,0.6,1.7,1.1,2,1.1 c0.8,0,4,0.8,4.8,1.2c0.9,0.5,8.3,0.2,10.8-0.4c1.2-0.3,3.2-0.6,4.6-0.8c1.5-0.2,2.9-0.5,3.5-0.8c0.5-0.3,1.9-0.8,3-1.1 c1.1-0.3,2.3-0.7,2.7-0.9c0.3-0.2,1.5-0.7,2.6-1c1.1-0.3,2.1-0.8,2.2-0.9c0.2-0.4,2.2-1.2,2.9-1.2c0.3,0,0.9-0.3,1.4-0.7 c0.5-0.4,1.6-1,2.4-1.2c0.9-0.3,1.6-0.6,1.6-0.7c0-0.1,0.7-0.5,1.6-0.9c0.9-0.4,2-1,2.4-1.4c0.5-0.4,1.4-0.9,2-1.1 c0.7-0.2,1.3-0.6,1.5-0.9c0.1-0.3,0.9-0.7,1.6-1c0.8-0.3,1.4-0.6,1.4-0.8s0.7-0.6,1.6-1.1c0.9-0.5,1.7-1,1.7-1.1 c0-0.1,0.6-0.5,1.3-0.9c0.7-0.4,1.7-1,2.3-1.5c0.5-0.5,1.2-0.9,1.4-0.9c0.2,0,0.7-0.3,1-0.7c0.3-0.4,0.9-0.8,1.2-0.9 c0.4-0.1,0.9-0.6,1.2-1c0.3-0.4,0.8-1,1.1-1.3c0.6-0.5,0.1-0.5-8.9-0.5c-6.7,0-9.6,0.1-9.7,0.3c-0.1,0.2-0.8,0.6-1.5,0.9 c-0.7,0.3-1.8,1-2.4,1.5c-0.6,0.5-1.4,0.9-1.6,0.9c-0.3,0-0.8,0.3-1.2,0.7c-0.4,0.4-1.2,0.9-1.8,1.1c-0.6,0.2-1.4,0.7-1.9,1 c-0.4,0.4-1.2,0.8-1.9,1c-0.6,0.2-1.4,0.6-1.8,0.9c-0.4,0.3-1.4,0.8-2.2,1.1c-0.8,0.3-1.8,0.7-2.1,1c-0.3,0.3-1.4,0.8-2.4,1.1 c-1,0.3-2.2,0.8-2.6,1.1c-0.4,0.3-1.6,0.7-2.6,0.9s-2,0.5-2.4,0.7c-3.7,2.4-17.7,2.3-20.3-0.1c-0.4-0.3-0.9-0.6-1.1-0.6 c-1,0-5-4.9-5.4-6.7c-0.2-0.7-0.6-1.5-0.9-1.8c-0.5-0.6-0.9-1.9-1.4-4.7L79,194L78.8,196.3 M251.5,195.3c0.5,0.1,1.2,0.1,1.7,0 c0.5-0.1,0.1-0.1-0.8-0.1C251.5,195.1,251.1,195.2,251.5,195.3 M304.5,195.6c-0.2,0.3-0.7,0.7-1.1,0.9c-0.4,0.2-0.7,0.6-0.7,0.9 c0,1.2-0.6,2.7-1.2,2.9c-0.7,0.2-1.2,1.6-1.2,3.1c0,1.2,0.3,1.3,1.4,0.4c0.4-0.3,0.9-0.6,1.2-0.6c0.3,0,0.3-0.2,0.1-0.8 c-0.2-0.5-0.2-1.1,0-1.6c0.2-0.4,0.4-1.1,0.5-1.6c0.7-3.2,4,0,3.4,3.2c-0.1,0.5,0,0.8,0.2,0.8c0.2,0,1.1,0.5,2,1.2 c0.9,0.7,1.8,1.2,1.9,1.1c0.6-0.2,0.5-0.8-0.1-1.1c-0.5-0.2-0.8-0.7-1.1-1.9c-0.2-0.9-0.7-1.9-1.1-2.2c-0.4-0.3-0.9-1.2-1.1-2 C307.1,196.5,305.1,194.7,304.5,195.6 M178.6,196.1c-0.2,0.4-0.4,2.2-0.4,4.1v3.3l1,1c1,1,2,1.3,3.3,0.7c0.5-0.2,0.4-0.3-0.6-0.5 c-2.1-0.4-2.1-0.3-2.2-4.8C179.6,195.8,179.2,194.7,178.6,196.1 M240.7,196.4c-0.6,2.2-0.3,9,0.4,9c0.8,0,1.1-8,0.3-9.4l-0.4-0.8 L240.7,196.4 M284.8,196.1c-0.4,1.1-0.4,9.1,0,9.3c0.2,0.1,1.2,0.1,2.3,0l2-0.2l-1.3-0.3c-1.7-0.4-2.2-1.5-1.4-3 c0.4-0.8,0.5-1.1,0.2-1.6c-0.2-0.3-0.3-1.4-0.3-2.4C286.3,195.6,285.3,194.6,284.8,196.1 M162.8,196.6c-0.4,2.1,0,8.8,0.4,8.8 c0.4,0,0.5-0.5,0.5-2.1c0.1-3.6,0.5-4.1,2.4-3.4c0.8,0.3,1.1,0.3,1.3-0.1c0.4-0.6,0.4-0.6-0.6-1.6c-0.5-0.5-1-1.2-1.3-1.6 C164.8,195.4,163,195.4,162.8,196.6 M172.6,196.2c-0.2,0.3-0.3,1.5-0.3,2.7c0,1.6-0.1,2.2-0.5,2.6c-0.7,0.6-0.7,0.6-1.6-0.1 c-0.6-0.5-1.8-0.8-1.8-0.5c0,0.6,0.8,2.2,1.3,2.5c0.3,0.2,0.8,0.8,1,1.3c0.4,0.8,0.6,0.9,1.6,0.9h1.2l0.1-3.5 C173.6,195.9,173.4,194.6,172.6,196.2 M196.5,196.2c-0.1,0.3,0,1.1,0.1,1.7c0.1,0.6,0.3,2.5,0.3,4.2c0,3.2,0.1,3.5,0.8,3.2 c0.3-0.1,0.4-0.9,0.4-3.4c0-2.6,0.1-3.4,0.6-4.1c0.5-0.8,0.5-1,0.1-1.6C198.2,195.4,196.7,195.4,196.5,196.2 M206.6,196.6 c-0.5,2.5,0,8.8,0.6,8.8c0.5,0,0.6-0.3,0.8-1.8c0.2-1.8,0.5-2.3,1.8-2.3c0.7,0,0.7-0.1-0.2-0.5c-1.2-0.5-1.3-0.8-1.4-3.2 C208.1,195.4,207,194.6,206.6,196.6 M222.4,196.5c-0.4,0.9-0.3,8.6,0,8.9c0.9,0.9,1.1-0.2,1.1-4.3 C223.5,195.8,223.2,194.5,222.4,196.5 M230.9,197.9c0.1,1.3,0.2,3.4,0.2,4.8c0,2.4,0,2.5,0.7,2.5c1.1,0,1.4-1.9,0.7-4.7 c-0.3-1.2-0.3-1.4,0.1-1.6c1.5-0.8,0.9-3.3-0.7-3.3h-1.2L230.9,197.9 M263.7,196.2l-0.8,0.5v4.3c0,3.6,0.1,4.3,0.4,4.3 c0.3,0,0.5-0.5,0.5-2.5l0.1-2.5l1.7-0.3c2.7-0.4,2.8-0.9,0.3-3.6C265,195.5,264.8,195.5,263.7,196.2 M272.7,195.7 c0,0-0.1,1.3-0.3,2.7c-0.2,2.1-0.4,2.8-0.9,3.3l-0.6,0.6l-1-1.1c-0.8-0.9-1.1-1-1.4-0.7c-0.4,0.5,0.1,2,0.7,2c0.2,0,0.6,0.6,1,1.3 c0.8,1.4,2.4,2.3,3,1.6c0.3-0.4,0.5-8.4,0.2-9.3C273.3,195.7,272.8,195.4,272.7,195.7 M315.9,196.2l-1.1,0.5l0,4.3 c0,4.1,0,4.3,0.6,4.3c0.4,0,0.6-0.2,0.6-1c0-0.8,0.3-1.2,1.2-2.1l1.2-1.1l-0.6-0.6c-0.7-0.7-0.7-0.7-0.6-3.1c0-0.9,0-1.7,0-1.7 C317.1,195.7,316.5,195.9,315.9,196.2 M292.8,196.5c-0.1,0.1-0.2,0.9-0.2,1.7s-0.1,1.8-0.3,2.1c-0.3,0.7,0.1,1.3,0.9,1.3 c0.5,0,0.6-0.2,0.6-1.6c0-0.9,0.2-1.9,0.5-2.2C294.7,197.2,293.3,195.9,292.8,196.5 M324.1,196.7c-0.4,0.5-0.2,2.6,0.4,2.9 c0.7,0.4,1.4-0.3,1.4-1.5C325.9,196.4,324.9,195.7,324.1,196.7 M186.9,200.3c-0.1,4.1-0.5,4.7-2.6,4.7l-1.1,0l0.9,0.2 c2.3,0.6,3.1,0.4,3.6-0.8c0.3-0.6,0.6-1.2,0.8-1.3c0.2-0.1,0.4-1.5,0.5-3.2l0.1-3l-1.1-0.1l-1.1-0.1L186.9,200.3 M215.2,196.8 c-0.8,0.5,0.4,2.7,1.5,2.7c0.5,0,0.9-1.8,0.6-2.6C217.2,196.5,215.8,196.4,215.2,196.8 M247.8,196.8c-1.7,0.5-2,7.3-0.3,7.3 c0.6,0,1.1-0.9,0.7-1.3c-0.8-0.8-0.4-4.5,0.6-5.1C250.2,196.9,249.5,196.3,247.8,196.8 M256.2,196.7c-0.2,0.2,0.9,2.4,1.3,2.7 c0.5,0.3,0.3,2.2-0.1,2.2c-0.3,0-0.5,0.5-0.7,1.4c-0.2,0.9-0.4,1.4-0.7,1.5c-2.4,0.3-2.8,0.5-2.3,0.8c1,0.6,3.1,0,3.8-1 c0.3-0.5,0.9-1.2,1.2-1.4c0.8-0.6,0.9-4.2,0.2-4.2c-0.2,0-0.6-0.5-0.9-1.1C257.5,196.6,256.7,196.2,256.2,196.7 M211.8,200.7 c-0.8,0.2-0.6,0.5,0.7,1.3c0.7,0.4,1.5,1.2,1.9,1.7c1.2,1.7,2.4,2.4,3,1.8c0.4-0.4-0.2-1-0.9-1c-0.5,0-0.7-0.2-0.7-0.6 C215.8,201.3,214.1,200,211.8,200.7 M320.1,200.8c-0.5,0.4-0.5,0.4,0.5,0.8c0.7,0.2,1.4,0.8,1.8,1.4c0.4,0.6,0.9,1,1.2,1 c0.3,0,0.5,0.3,0.6,0.7c0.1,0.8,1.7,1.2,1.7,0.5c0-0.6-0.6-1.1-1.3-1.1c-0.3,0-0.5-0.2-0.5-0.5C324.1,201,321.8,199.6,320.1,200.8 M294.1,202c-0.2,0.2-0.4,0.8-0.4,1.3c0,1-1.2,1.6-3.2,1.6c-1.3,0-0.8,0.2,1.1,0.4c1.4,0.2,1.8,0.1,2.4-0.4 c0.4-0.3,0.8-0.6,0.9-0.6c0.5,0,0.8-1.3,0.5-2C295.1,201.6,294.7,201.5,294.1,202 M248.6,204.6c-0.3,0.9,0.3,1.1,2.4,0.8l2.1-0.2 l-1.8-0.2c-1-0.1-1.8-0.4-1.9-0.5C249.3,203.9,248.8,204,248.6,204.6 M298.7,205c-0.2,0.4,0.6,0.7,1,0.5c0.2-0.1,0.3-0.3,0.3-0.5 C300.1,204.6,299,204.6,298.7,205" class="st0"/><path id="path2" d="M144,133c-4.8,2.1-4.3,6.5,0.8,6.5c3.9,0,6.3-2.7,5-5.4C149,132.6,146.1,132.1,144,133 M262.8,132.8c-0.3,0.1-0.5,0.3-0.5,0.4s-0.3,0.3-0.6,0.5c-1.5,0.5-2.3,2.9-1.5,4.6l0.6,1.3l2.9-0.1c3.1-0.1,3.3-0.2,4.9-2.8 C270.3,134,266.9,131.8,262.8,132.8 M102.8,134.5c-0.1,0.2-0.3,1.4-0.5,2.8c-0.1,1.3-0.5,3.1-0.8,3.8c-0.3,0.7-0.7,2.6-0.9,4.1 c-0.2,1.5-0.6,3.5-0.9,4.4c-0.3,0.9-0.8,3.1-1.1,5c-0.3,1.9-0.8,4-1.1,4.7c-0.3,0.7-0.7,2.4-0.9,3.9c-0.4,3.7-0.6,4.5-1.2,6 c-0.3,0.7-0.7,2.4-0.8,3.8c-0.2,1.4-0.6,3.3-0.9,4.2c-2.3,6.4-1.8,7.6,3.3,7.5c4.7-0.1,4.6-0.1,5-2.9c0.1-1,0.5-2.4,0.8-3.2 c0.3-0.7,0.7-2.5,0.9-3.9c0.4-3.5,0.6-4.5,1-5.4c0.2-0.4,0.6-1.7,0.8-2.9c0.8-4.3,2.7-4.7,3.4-0.7c0.1,0.6,0.4,1.6,0.7,2.1 c0.3,0.5,0.7,2.4,1,4.1s0.8,3.9,1.1,4.7c0.3,0.8,0.6,2.1,0.7,2.9c0.1,0.8,0.3,2,0.3,2.8c0.2,2,0.9,2.2,6.1,2.3c3.3,0,4.3,0,4.5-0.4 c0.5-0.7,0.3-2.2-0.5-3.8c-0.4-0.9-0.9-2.5-1.2-3.8c-0.3-1.2-0.8-2.7-1.1-3.4c-0.3-0.6-0.8-2.3-1-3.6c-0.2-1.3-0.6-2.6-0.8-2.9 c-2.1-2.5-1.4-6.7,1.2-7.5c0.7-0.2,1.3-0.5,1.3-0.7c0-0.2,0.5-0.5,1.1-0.8c1.5-0.6,4.7-4,5.3-5.8c0.3-0.8,0.8-1.9,1.2-2.5 c0.6-0.9,0.6-1.5,0.6-5.6v-4.6l-0.8-0.8c-0.5-0.4-0.8-1-0.8-1.2c0-0.4-1.4-1.5-3.2-2.5C122.9,134.2,103.3,133.6,102.8,134.5 M221.8,134.6c-0.7,0.4-1,0.7-1,1.3c0,1.6-0.9,6.5-1.5,8.2c-0.3,0.9-0.6,2.1-0.6,2.6c0,1.4-0.9,5.8-1.4,6.7 c-0.2,0.5-0.6,1.9-0.7,3.2c-0.5,3.9-0.9,5.8-1.3,6.5c-0.2,0.3-0.6,2-0.8,3.6c-0.2,1.6-0.7,3.8-1.1,4.8c-0.4,1-0.7,2.2-0.7,2.7 c0,1.6-0.9,6.2-1.3,6.9c-0.5,0.8-0.8,2-0.6,2.8l0.2,0.7h9.4c10.2,0,15.4-0.6,15.4-1.8c0-0.1,0.5-0.5,1.1-0.8c0.6-0.3,1.5-1.1,2-1.7 c0.5-0.6,1.2-1.4,1.6-1.9c0.4-0.4,0.9-1.3,1.1-2c0.2-0.7,0.7-1.6,0.9-2c1.7-2.5,1.6-10.6-0.1-12.2c-0.4-0.4-0.7-0.8-0.7-0.9 s-0.6-0.6-1.4-0.9c-2.4-1.2-1.9-3.4,1-4.5c0.9-0.3,1.9-1,2.2-1.4c0.3-0.4,0.8-0.7,1-0.7c0.2,0,0.6-0.4,0.8-1 c0.2-0.5,0.7-1.4,1.1-1.9c0.4-0.5,0.8-1.7,1-2.6c0.2-0.9,0.5-2.3,0.7-3.3c0.8-3-0.4-8.4-1.8-8.4c-0.2,0-0.7-0.3-1-0.7 c-1.1-1.4-2-1.5-12.7-1.6C223.9,134.1,222.7,134.2,221.8,134.6 M166.2,137c-4.7,0.8-5.5,1.3-5.8,3.8c-0.3,2.4-0.9,3.1-3.4,3.6 c-3.2,0.7-3.6,3.6-0.5,3.6c2,0,2.5,3.4,1,6.4c-0.4,0.7-0.7,2.3-0.9,3.9c-0.3,3.2-0.8,5.6-1.3,6.1c-0.2,0.2-0.6,2-0.9,4.1 c-0.3,2-0.8,4.1-1.1,4.6c-1.2,2.3-1.3,10.1-0.2,10.9c0.3,0.2,0.8,0.6,1.2,0.9c1.1,0.9,7.1,0.7,8.7-0.3c0.7-0.4,1.4-0.8,1.7-0.9 c1.5-0.6,0.9-2.9-0.8-2.9c-1.6,0-2.3-0.6-2.6-2c-0.3-1.5,0.4-6.8,1.2-8.3c0.3-0.7,0.8-2.9,1.1-4.9s0.8-4.3,1.1-5 c0.3-0.7,0.7-2.2,0.8-3.2c0.7-6.4,2.2-9.3,4.7-9.4c2.4-0.1,2.8-0.3,3.1-1.5c0.3-1.6,0.1-1.8-1.8-2c-1.9-0.2-2.6-0.7-2.4-1.9 c0.1-0.3,0.2-1.8,0.2-3.2C169.4,136.3,169.6,136.4,166.2,137 M285.5,136.9c-5.3,0.9-6.2,1.5-6.6,4c-0.4,2.6-1,3.4-2.8,3.4 c-1.3,0-2.3,0.6-2.7,1.5c-0.4,1.1-0.2,1.8,0.6,1.8c0.3,0,1.1,0.2,1.7,0.5l1.1,0.5l-0.2,3.3c-0.2,3.6-0.6,5.8-1.2,6.5 c-0.2,0.2-0.5,1.9-0.8,3.6c-0.2,1.7-0.7,3.9-1.1,4.8c-0.4,0.9-0.8,2.6-0.9,3.9c-0.2,2.7-0.7,4.7-1.3,5.9c-0.3,0.6-0.5,1.7-0.5,3.5 l0,2.6l1.4,1.3l1.4,1.3h3.3c4.9,0,7-1,7-3.3v-1.3l-1.5-0.2c-2.8-0.4-3.3-3.3-1.4-8.4c0.2-0.7,0.5-2,0.6-3c0.3-2.6,0.8-4.7,1.2-5.3 c0.2-0.2,0.5-2,0.8-3.9c0.2-2,0.7-4.2,1.1-5.3c0.4-1,0.8-2.4,0.9-3.2c0.3-2.9,1.4-3.8,4.6-3.8c1.2,0,1.3,0,1.6-1.2 c0.4-1.6,0-2.1-1.6-2.1c-2.4,0-3-2.1-1.9-6.9C288.3,136.9,287.1,136.6,285.5,136.9 M116.7,138.3c3.3,1.7,4.8,8.5,2.5,11.9 c-0.2,0.3-0.6,1.3-0.8,2c-0.2,0.8-0.6,1.7-1,2c-0.4,0.3-0.8,0.9-1,1.4c-0.2,0.5-0.6,0.9-1,1c-0.3,0.1-0.8,0.5-1,0.8 c-1.4,2.1-7.1,1.7-7.1-0.5c0-1.5,0.8-5.6,1.3-6.5c0.3-0.6,0.6-1.5,0.6-2.1c0.1-0.6,0.3-2.3,0.5-3.7c0.3-2.7,1.7-6.3,2.4-6.6 C113.2,137.6,115.7,137.8,116.7,138.3 M236.5,138.7c0.4,0.3,1,0.7,1.3,0.8c1.9,0.6,1.6,10.1-0.4,12.6c-0.5,0.6-0.9,1.2-0.9,1.4 c0,0.2-0.7,0.9-1.5,1.7c-3.2,3-9.7,2.2-8.4-1c0.5-1.2,0.8-2.9,1.2-5.9c0.2-1.4,0.6-3,0.9-3.7c0.3-0.7,0.6-1.5,0.6-1.9 c0-1.1,0.7-3.5,1.1-4C231.3,137.6,235.2,137.6,236.5,138.7 M192.9,143.3c-0.7,0.2-2.4,0.7-3.6,1s-2.4,0.8-2.6,1 c-0.2,0.2-0.7,0.6-1.2,0.9c-1.9,1-6.7,6.3-7.3,8.1c-0.2,0.6-0.6,1.4-0.9,1.6c-0.3,0.3-0.7,1.2-0.9,2c-0.2,0.8-0.6,1.9-0.9,2.4 c-0.5,0.8-1.2,4.6-1.7,9.1c-0.4,3.4,0.5,9,1.7,10.2c0.4,0.4,0.7,0.9,0.7,1.1c0,0.4,2.8,2.8,3.2,2.8c0.2,0,1.1,0.4,2,0.8 c2.4,1.1,10.7,1.2,13,0.2c0.8-0.3,2.1-0.8,3-1c1.2-0.3,1.9-0.6,2.6-1.5c2.3-2.6,0.7-5-1.9-2.7c-0.6,0.5-1.4,1-1.9,1.1 c-0.5,0.1-1.2,0.3-1.7,0.5c-3.7,1.3-4.6,1.4-6.7,0.2c-0.6-0.3-1.3-0.6-1.5-0.6c-0.7,0-2.6-2.1-2.9-3.2c-0.1-0.5-0.4-1.2-0.7-1.6 c-1.2-1.9-0.2-10.8,1.3-12c0.4-0.3,3.1-0.4,11-0.4c5.8,0,10.7-0.1,10.9-0.2c1.6-1,1.9-10.5,0.4-13.4c-0.5-0.9-0.9-1.9-0.9-2.1 c0-0.8-2.5-3-3.9-3.4c-0.7-0.2-1.7-0.6-2-0.8C198.6,142.9,194.6,142.8,192.9,143.3 M312,143.1c-0.5,0.1-1.2,0.3-1.5,0.5 c-0.3,0.2-1.6,0.6-2.7,0.9c-1.2,0.3-2.3,0.7-2.6,1c-0.3,0.3-0.9,0.8-1.4,1c-0.5,0.3-1.2,0.8-1.4,1.2c-0.3,0.4-0.7,0.8-1,0.9 c-0.3,0.1-0.7,0.5-0.9,1c-0.2,0.4-0.6,0.9-0.9,1s-0.7,0.5-0.8,0.9s-0.6,1.2-1,1.7c-0.5,0.5-1,1.4-1.2,1.9s-0.6,1.4-1.1,2 c-0.4,0.6-0.9,1.9-1.1,3c-0.2,1-0.6,2.4-0.9,3.1c-1.7,3.5-1.6,13.4,0.1,15.6c0.4,0.5,0.8,1.3,0.9,1.8c0.1,0.5,0.5,1,0.9,1.1 c0.4,0.1,0.9,0.6,1.2,1c0.3,0.4,0.9,0.9,1.3,1c0.4,0.1,1.5,0.5,2.4,1c1.8,0.9,11.1,1.2,12,0.4c0.4-0.3,2.7-1.1,4.2-1.4 c2.2-0.5,4.1-4.2,2.6-5.1c-0.4-0.2-2.2,0.7-2.5,1.2c-0.1,0.2-1,0.6-1.9,0.9c-0.9,0.3-2.2,0.7-2.8,1c-1.4,0.6-4.1,0.6-5.3,0 c-0.5-0.3-1.4-0.7-2-1c-0.6-0.2-1.2-0.7-1.3-1c-0.1-0.3-0.5-0.8-0.9-1.2c-1.2-1.2-1.6-5.5-1-10.8c0.5-4.3-0.4-4.1,12.6-4.1H325 l0.3-0.8c0.9-2.4,0.6-12.9-0.5-14c-0.2-0.2-0.6-0.8-0.8-1.3C322.4,144.4,316.8,142.3,312,143.1 M139.8,144.6 c-0.6,0.2-0.8,0.4-1,1.8c-0.6,4.4-0.9,5.8-1.3,7c-0.3,0.7-0.7,3-1.1,5c-0.3,2.1-0.8,4.2-1.1,4.7c-0.3,0.5-0.7,2.6-1,4.7 c-0.3,2.1-0.8,4.2-1,4.7c-0.3,0.5-0.6,2.1-0.8,3.6c-0.4,3-0.7,4.5-1.4,5.7c-1.2,2.4-0.6,2.8,4.1,2.8h3.8l0.3-1 c0.2-0.5,0.4-1.6,0.5-2.4c0.1-0.8,0.5-2,0.8-2.8c0.3-0.7,0.7-2.6,0.9-4.2c0.3-3.1,0.8-5,1.2-5.3c0.1-0.1,0.4-1.3,0.6-2.8 c0.4-3.1,1.2-6.3,1.5-6.5c0.1-0.1,0.3-0.6,0.3-1.1c0-1.6,0.9-6.3,1.5-7.9c0.8-1.9,1.2-5.3,0.8-5.8 C147.2,144.3,141.2,144.2,139.8,144.6 M258.4,144.8c-0.2,0.2-0.4,0.9-0.5,1.6c-0.1,0.6-0.4,1.5-0.6,1.9c-0.2,0.4-0.6,2.2-0.8,3.9 c-0.2,1.8-0.7,3.9-1.1,4.9c-0.4,0.9-0.7,2-0.7,2.4c0,1.3-1,6.3-1.3,7.1c-0.4,0.8-0.6,1.8-1.1,5.2c-0.2,1.3-0.6,2.9-0.9,3.6 c-0.7,1.5-1.6,7.9-1.2,8.6c0.9,1.7,8.1,0.6,8.1-1.3c0-0.2,0.2-0.8,0.4-1.2c0.2-0.4,0.6-2.2,0.8-3.9c0.2-1.7,0.7-3.9,1.1-4.8 c0.4-0.9,0.8-2.6,0.9-3.8c0.2-2.3,0.8-4.8,1.5-6.8c0.2-0.7,0.5-2,0.6-3c0.3-2.4,0.8-4.6,1.2-5.6c0.2-0.4,0.5-2.1,0.7-3.8 c0.2-1.7,0.6-3.4,0.9-4l0.5-1l-0.9-0.3C264.7,144.2,258.8,144.2,258.4,144.8 M196.1,147.4c2.8,1.6,3.9,8.9,1.7,11.4l-0.9,1 l-4.7,0.1c-5.5,0.1-6,0-6.5-1.2c-0.6-1.5,0.3-5.7,1.3-5.7c0.1,0,0.2-0.2,0.2-0.4c0-1.1,3-5,3.9-5c0.3,0,0.8-0.2,1.2-0.4 C193.4,146.6,194.7,146.6,196.1,147.4 M314.5,147.2c1.5,0.6,2,1,2.3,2.3c0.1,0.5,0.4,1.1,0.5,1.3c1,1.2,0,7.3-1.4,8.5 c-0.7,0.6-8.9,0.8-10.7,0.3c-1.4-0.4-1.7-2.3-0.7-4.2c0.5-0.9,1-2.1,1.1-2.6c0.7-2.8,4.3-5.8,7.2-6.1 C313,146.8,313.7,147,314.5,147.2 M231.3,161.6c0.6,0.2,1.2,0.6,1.4,0.9c0.2,0.3,0.7,0.9,1.1,1.2c1.4,1.2,1,8.4-0.6,10.9 c-0.2,0.2-0.5,0.9-0.7,1.5c-1.4,3.6-8.5,6.3-10.6,3.9c-0.7-0.8-0.2-5.6,0.7-7.6c0.4-0.8,0.7-2.5,0.9-4.4 C224.3,161.6,226.4,159.8,231.3,161.6" class="st1"/><path id="path3" d="M285.5,84c-1.3,0.1-3,0.4-3.8,0.7s-2.5,0.6-3.8,0.8c-3.5,0.4-4.5,0.6-5.8,1.2 c-0.6,0.3-2.2,0.8-3.5,1c-1.3,0.2-2.7,0.6-3.1,0.9s-1.6,0.7-2.6,0.9c-2.3,0.6-3.5,1-3.5,1.3c0,0.1-1,0.5-2.2,0.7 c-1.2,0.3-2.7,0.8-3.4,1.2c-0.7,0.4-1.5,0.7-1.8,0.7c-0.3,0-1.4,0.4-2.4,0.9c-1,0.5-2.5,1.2-3.5,1.5c-0.9,0.3-1.7,0.7-1.7,0.9 c0,0.1-0.8,0.5-1.7,0.8c-0.9,0.3-2.1,0.8-2.6,1.2c-0.5,0.4-1.1,0.7-1.5,0.7c-0.6,0-2.4,0.8-2.7,1.2c-0.1,0.1-0.9,0.5-1.8,0.8 c-0.9,0.3-1.9,0.8-2.2,1.1c-0.3,0.3-1.2,0.7-1.9,0.9c-0.7,0.2-1.7,0.8-2.1,1.2c-0.4,0.4-1,0.7-1.2,0.7c-0.6,0-2.6,1-3.1,1.6 c-0.2,0.2-0.8,0.5-1.3,0.6c-0.5,0.1-1.3,0.5-1.7,0.9c-0.4,0.4-1.3,0.8-1.9,1.1c-0.6,0.2-1.2,0.6-1.4,0.8c-0.2,0.2-0.8,0.6-1.5,0.9 c-0.6,0.3-1.8,0.9-2.6,1.4c-1.8,1.2-3.1,2-4.5,2.7c-0.6,0.3-1.3,0.8-1.7,1.1c-0.3,0.3-1.2,0.8-2,1.2c-0.8,0.4-1.4,0.8-1.4,1 c0,0.2-0.6,0.5-1.3,0.8c-0.7,0.3-1.5,0.8-1.7,1c-0.2,0.3-1,0.8-1.6,1.1c-0.7,0.4-1.4,0.9-1.6,1.2c-0.2,0.3-0.6,0.6-0.9,0.6 c-0.3,0-0.8,0.3-1.3,0.7c-0.4,0.4-1.4,1.1-2.1,1.5c-0.8,0.5-1.5,1-1.6,1.3c-0.1,0.2-0.4,0.4-0.6,0.4c-0.2,0-1,0.5-1.7,1.1 c-0.7,0.6-1.4,1.1-1.6,1.1s-0.7,0.3-1.1,0.8c-0.4,0.4-1.1,1.2-1.6,1.6c-2,2-1.1,2.2,9.2,2.2c4.8,0,9.2-0.1,9.8,0 c0.7,0,1.3-0.2,1.7-0.6c0.4-0.3,1.2-0.8,1.9-1.1c0.7-0.3,1.2-0.6,1.2-0.7s0.7-0.6,1.6-1c0.9-0.4,1.8-1,2-1.2c0.2-0.2,1-0.7,1.7-1 c0.8-0.3,1.7-0.9,2-1.2c0.3-0.3,0.8-0.6,1-0.6c0.3,0,0.9-0.3,1.5-0.7c1.2-0.8,3.7-2.2,6.2-3.5c1-0.5,1.9-1,2-1.2 c0.1-0.1,0.8-0.5,1.5-0.8c0.7-0.3,1.6-0.8,2-1.1c0.3-0.3,1.1-0.7,1.8-0.9c0.7-0.2,1.6-0.6,2-1c0.5-0.4,1.4-0.9,2.2-1.1 c0.7-0.2,1.6-0.7,2-1.1c0.4-0.4,0.9-0.7,1.2-0.7c0.7,0,2.1-0.6,3-1.4c0.4-0.4,1.3-0.7,2-0.8c0.6-0.1,1.5-0.5,1.8-0.8 c0.4-0.3,1.5-0.9,2.5-1.2c1-0.3,2.1-0.8,2.4-1.1s1.2-0.6,2.1-0.9c0.9-0.3,2-0.7,2.4-1c0.4-0.3,1.4-0.7,2.2-0.9 c0.8-0.2,2.2-0.7,3.1-1.2c1-0.5,2.2-1,2.8-1.1c1.3-0.2,2.8-0.8,3-1.1c0.1-0.1,1.3-0.5,2.7-0.8c1.4-0.3,2.9-0.8,3.3-1 c0.4-0.3,1.3-0.6,2.1-0.7c1.7-0.2,4.9-1.1,5.3-1.4c0.5-0.4,3.4-0.9,6.8-1.2c1.7-0.2,4-0.5,4.9-0.8c2.4-0.6,10.3-0.5,12.9,0.2 c1,0.3,2.8,0.6,4.1,0.8c1.4,0.2,2.7,0.6,3.3,1.1c0.6,0.4,1.6,0.9,2.3,1c0.7,0.2,1.3,0.5,1.5,0.7s0.7,0.7,1.4,1 c1,0.5,2.4,1.7,3.7,3.1c1.1,1.1,2.8,3.4,2.8,3.6c0,0.1,0.3,0.6,0.7,1.1c0.4,0.5,0.9,1.5,1.1,2.2c0.2,0.7,0.7,1.8,1.1,2.3 c0.4,0.5,0.8,1.8,1,2.9c0.5,2.9,1.2,5.2,1.5,4.9c1.5-1.6,1.6-10.1,0.2-13.5c-0.2-0.5-0.6-1.8-0.9-3c-0.3-1.2-0.8-2.4-1.1-2.8 c-0.3-0.4-0.7-1.2-0.9-1.9c-0.2-0.6-0.5-1.4-0.8-1.7c-0.3-0.3-0.8-1-1.1-1.6c-0.3-0.6-0.9-1.3-1.3-1.7c-0.4-0.4-0.7-0.8-0.7-0.9 c0-0.1-0.8-1-1.7-1.9c-0.9-0.9-2.1-2-2.5-2.4c-0.4-0.4-0.9-0.7-1-0.7c-0.1,0-0.9-0.5-1.6-1.1c-0.8-0.6-1.7-1.1-2.2-1.2 c-0.4-0.1-1.2-0.5-1.7-0.9c-0.5-0.4-1.8-0.9-2.7-1c-0.9-0.2-2.4-0.6-3.3-0.9C303.1,83.8,292.6,83.4,285.5,84 M300.4,85.1 c0.5,0.4,1.6,0.7,5,1.2c1.9,0.3,3.4,0.7,4.5,1.3c0.9,0.5,2,0.9,2.5,1c0.4,0.1,1,0.4,1.2,0.6c0.2,0.2,0.9,0.7,1.4,1 c0.6,0.3,1.6,1,2.2,1.6c0.6,0.5,1.3,1,1.4,1c0.2,0,0.5,0.4,0.8,0.9c0.3,0.5,0.8,1,1.2,1.2c0.4,0.2,0.7,0.5,0.7,0.7 c0,0.2,0.5,1,1.1,1.6c0.6,0.7,1,1.4,1,1.5c0,0.2,0.4,0.8,0.8,1.5c1,1.4,1.6,2.6,1.6,3.3c0,0.3,0.3,0.9,0.7,1.4 c1.3,1.7,2,7.8,0.9,7.6c-0.3-0.1-0.7-0.7-1-1.4c-0.8-2.2-4.7-7.5-5.5-7.5c-0.2,0-0.4-0.3-0.5-0.6c-0.1-0.3-0.4-0.7-0.7-0.8 c-0.3-0.1-1.2-0.7-2-1.4c-0.8-0.6-1.7-1.2-2-1.2c-0.3,0-0.9-0.3-1.4-0.7c-0.9-0.7-2.1-1.2-4-1.5c-0.6-0.1-1.5-0.4-2-0.6 c-2.4-1.2-17.6-1.4-21.4-0.3c-1.6,0.5-2.6,0.7-7,1.4c-1.2,0.2-2.6,0.6-3.2,0.9c-0.6,0.3-2,0.7-3.2,0.9c-1.2,0.2-2.8,0.6-3.6,1 c-0.8,0.4-2.2,0.9-3.1,1.1c-0.9,0.2-2.1,0.6-2.6,0.9c-0.5,0.3-1.8,0.8-2.8,1c-1,0.3-2.2,0.7-2.6,1c-0.4,0.3-1.4,0.7-2.3,0.9 c-0.9,0.2-1.9,0.6-2.3,0.9c-0.4,0.3-1.6,0.8-2.6,1.2c-1.1,0.4-2.2,0.8-2.4,1.1c-0.2,0.2-1.2,0.6-2,0.9s-1.9,0.8-2.3,1.1 c-0.4,0.3-1.1,0.7-1.6,0.8c-1,0.2-2.6,1-2.8,1.3c-0.1,0.1-0.9,0.5-1.8,0.9c-0.9,0.4-2,0.9-2.4,1.2c-0.4,0.3-1,0.6-1.2,0.6 s-1.2,0.5-2.1,1.1c-0.9,0.6-1.8,1-2.1,1c-0.3,0-1.2,0.5-2,1c-0.8,0.6-1.9,1.1-2.3,1.2c-0.4,0.1-1,0.4-1.3,0.7 c-0.3,0.3-1.2,0.8-2,1.1c-0.8,0.3-1.5,0.6-1.5,0.8c0,0.1-0.9,0.6-2,1.1c-1.1,0.5-2,1-2,1.1c0,0.1-0.6,0.5-1.4,0.8s-1.6,0.8-1.9,1.1 c-0.3,0.3-1.2,0.8-1.9,1.1c-0.8,0.3-1.4,0.7-1.4,0.8c0,0.1-0.6,0.5-1.3,0.8c-0.7,0.3-1.7,0.9-2.1,1.3c-2,1.7-3.5,2-11.9,2.1 c-4.2,0.1-7.9,0.2-8.3,0.2c-0.3,0.1-0.4,0.1-0.2,0s0.4-0.5,0.4-1c0-0.7,0.2-1,0.9-1.4c0.5-0.3,1.2-0.7,1.5-1c0.3-0.3,0.9-0.7,1.4-1 c0.5-0.2,1-0.7,1.3-0.9c0.2-0.3,1.1-0.8,1.9-1.2c0.8-0.4,1.4-0.9,1.4-1s0.6-0.6,1.3-0.9c0.7-0.3,1.4-0.7,1.6-1 c0.3-0.5,1.2-1,2.3-1.5c0.4-0.2,0.9-0.5,1-0.7c0.1-0.2,0.7-0.6,1.3-0.9c0.6-0.3,1.5-0.8,2-1.2c0.5-0.4,1.1-0.8,1.3-0.8 c0.2,0,0.8-0.4,1.4-0.8c0.5-0.4,1.6-1.1,2.4-1.5c0.8-0.4,1.5-0.8,1.5-1c0-0.1,0.6-0.5,1.4-0.8c0.7-0.3,1.4-0.6,1.4-0.8 c0-0.1,0.9-0.7,1.9-1.2c1.1-0.5,2-1,2-1.2c0-0.1,0.6-0.5,1.4-0.8c0.8-0.3,1.8-0.8,2.2-1.2c0.4-0.4,1.1-0.8,1.5-0.9 c0.4-0.1,1.2-0.5,1.6-0.8c1.6-1.1,1.8-1.2,2.6-1.3c0.4-0.1,1.1-0.5,1.6-0.9c0.5-0.4,1.4-0.9,2-1.1c0.6-0.2,1.5-0.6,2-1 c0.5-0.4,1.1-0.7,1.4-0.7c0.7,0,2-0.6,3-1.4c0.5-0.4,1.2-0.7,1.5-0.7s1.2-0.3,1.8-0.8c0.6-0.4,2-1,3.1-1.4c1.1-0.3,2-0.8,2.1-1 c0.1-0.2,0.8-0.6,1.6-0.8c0.8-0.2,2.2-0.7,3.2-1.2c1-0.5,2.4-1,3.1-1.2c0.7-0.2,1.5-0.5,1.7-0.8c0.2-0.2,1.4-0.7,2.5-0.9 c1.1-0.3,2.5-0.8,3.1-1.1c0.6-0.3,2-0.8,3.1-1c1.1-0.2,2.6-0.7,3.2-1c0.6-0.3,2-0.7,3-0.9c1.1-0.2,2.9-0.7,4.1-1.1 c1.2-0.4,3.5-0.9,5.4-1.1c4-0.4,7.1-0.9,7.5-1.2C288.7,84.6,299.7,84.5,300.4,85.1 M329.3,113.9c0.1,0.6,0.1,1.6,0,2.2l-0.2,1.1 l-0.2-0.9c-0.3-1.3-0.3-3.5,0-3.5C329,112.8,329.2,113.3,329.3,113.9 M78.8,187.5c-0.7,2.7-0.8,4-1,8.7c-0.2,5.9,0.1,10.4,0.9,12 c0.3,0.6,0.7,1.8,1,2.8c0.3,1,0.8,2.2,1.2,2.6c0.4,0.5,0.7,1,0.7,1.2c0,0.2,0.7,1,1.6,1.9c3.2,3.1,4.2,3.8,5.1,3.8 c0.4,0,1.3,0.4,2.1,0.8l1.5,0.8l7.4,0c6.3,0,7.5-0.1,8.4-0.5c1.1-0.6,2.9-1,5.2-1.3c0.8-0.1,2-0.5,2.7-0.9c0.7-0.4,2-0.9,2.9-1.1 c0.9-0.2,2.2-0.7,2.8-1.1c0.7-0.4,1.6-0.8,2.1-0.9c0.5-0.1,1.6-0.6,2.3-1.1c0.8-0.5,1.6-0.9,1.8-0.9c0.5,0,2.3-0.9,2.5-1.2 c0.1-0.1,0.9-0.5,1.8-0.9c0.9-0.4,1.9-0.9,2.2-1.2c0.3-0.3,0.9-0.6,1.4-0.7c0.4-0.1,1.3-0.6,1.9-1.1c0.6-0.5,1.3-0.9,1.5-0.9 c0.2,0,1.2-0.5,2.1-1.2c1-0.7,1.9-1.2,2.1-1.2c0.2,0,0.6-0.3,0.9-0.6c0.3-0.3,1.1-0.9,1.8-1.2c0.7-0.3,1.5-0.8,1.8-1.2 c0.3-0.4,0.8-0.6,1-0.6c0.2,0,0.9-0.5,1.6-1.1c0.6-0.6,1.3-1.1,1.5-1.1c0.2,0,0.7-0.4,1.2-0.9c0.5-0.5,1.3-1,1.8-1.2 c0.5-0.2,1.4-1.1,2.2-1.9l1.3-1.5l-0.7-0.6c-0.7-0.5-1.3-0.6-11-0.6h-10.3l-1.5,1c-2.2,1.4-3.3,2.1-5,3c-0.8,0.4-1.6,1-1.7,1.1 c-0.1,0.2-0.8,0.5-1.4,0.7c-0.7,0.2-1.6,0.7-1.9,1.1c-0.4,0.3-1.3,0.8-2.1,1.1c-0.8,0.3-1.6,0.7-1.8,0.9c-0.2,0.2-1.3,0.8-2.4,1.2 c-1.1,0.4-2.1,0.9-2.2,1c-0.1,0.1-0.9,0.5-1.9,0.8c-0.9,0.3-2.1,0.8-2.7,1.1c-0.5,0.3-2,0.8-3.3,1c-1.3,0.2-2.7,0.6-3.2,0.9 c-2.7,1.4-14.6,1.5-14.6,0.2c0-0.3-2-1.2-2.5-1.2c-0.4,0-3.5-2.8-3.5-3.1c0-0.1-0.4-0.8-0.9-1.5c-0.5-0.7-1.1-2.2-1.5-3.6 c-0.3-1.3-0.7-2.5-0.9-2.7c-0.2-0.3-0.5-1.6-1.4-7.2c-0.1-0.5-0.3-1.3-0.5-1.8l-0.4-0.9L78.8,187.5 M162.3,194.4 c-1.1,0.9-1.1,11.2,0,12c1.4,1,3.8-0.5,3.4-2.2c-0.3-1.7,1-2.5,1.9-1.1c2,3.2,4.8,4.6,6.4,3.2c1-0.9,0.9-10.7-0.1-11.7 c-1.5-1.5-2.8-0.5-3.5,2.5c-0.5,2.3-1.2,2.7-1.8,1.3c-0.2-0.5-0.9-1.4-1.5-2.1c-0.6-0.7-1.3-1.4-1.4-1.6 C165.3,193.9,163.1,193.8,162.3,194.4 M177.8,194.6c-1.6,1.6-1.3,9,0.4,11.1c1.1,1.4,5.6,1.9,8.4,1c2.7-0.8,3.6-2.2,3.7-6.1 c0.1-6.2,0-6.5-2.2-6.5c-2.1,0-2.4,0.7-2.4,5.3c0,4-0.1,4.3-1.8,4.3c-2.6,0-2.8-0.4-3-5.7C180.7,194,179.6,192.8,177.8,194.6 M192.1,194.4c-1,1,0.1,3,1.5,3c1.7,0,2,0.6,2,4.5c0,4.1,0.3,4.9,1.9,4.9c2.1,0,2.6-0.8,2.6-4.5c0-3.7,0.3-4.6,1.9-4.9 c2.1-0.4,3-1.9,1.8-2.9C202.9,193.6,192.9,193.6,192.1,194.4 M206.5,194c-1.2,0.5-2,10.5-0.9,11.8c1.5,1.8,4.3,0.5,4.1-1.9 c-0.2-1.9,1.2-1.9,3,0c0.8,0.9,1.5,1.7,1.5,1.8c0,0.2,0.7,0.5,1.5,0.8c2.6,0.9,3.9-0.9,2.1-2.9c-1.3-1.6-1.7-2.6-1-2.9 c2.6-1.4,1.8-5.4-1.4-6.6C214.8,193.8,207.2,193.8,206.5,194 M222.1,194.1c-1.5,0.3-1.9,1.3-1.9,5.7c0,2.2-0.1,4.3-0.3,4.8 c-0.2,0.6-0.2,0.8,0.4,1.2c3.7,2.4,4.4,1.6,4.4-5.4v-5.2l-0.8-0.6c-0.4-0.3-0.9-0.6-1-0.6C222.9,193.9,222.5,194,222.1,194.1 M226.3,194.2c-1.9,0.9-0.6,3.3,1.8,3.3c1.3,0,1.7,1.1,1.7,5.2c0,3.6,0.3,4.2,2.2,4.2c1.9,0,2.3-0.8,2.3-4.5c0-3.4,0.3-4.8,1.3-4.8 c2,0,3.4-1.7,2.5-2.9C237.6,193.9,227.5,193.6,226.3,194.2 M240.7,194.1c-1.1,0.3-1.2,1-1.2,6.3c0,5.1,0,5.2,0.7,6 c1.4,1.4,3.6,0,3.8-2.5c0.2-2.1,0.9-2.5,1.4-0.8c1.5,5.3,11.7,5.6,14.6,0.4c1.2-2.1,0.3-6.1-1.5-7.4c-0.6-0.4-1.3-1-1.7-1.3 c-1.5-1.3-7.2-1.1-8.6,0.2c-0.5,0.4-1,0.8-1.2,0.8c-0.6,0-1.1,0.9-1.6,2.7L245,200l-0.5-1.3c-0.3-0.7-0.6-1.9-0.8-2.6 c-0.2-0.7-0.5-1.3-0.6-1.4C242.5,194.2,241.1,193.9,240.7,194.1 M263.5,194.1c-1.5,0.2-1.7,0.8-1.8,6.4c-0.1,5.5,0.1,6.3,1.9,6.3 c1.7,0,2.5-0.8,2.5-2.6c0-2,1.7-3,1.8-1c0.1,1.7,4.7,4.3,6,3.3c0.9-0.7,1.3-10.7,0.5-11.8c-1.5-1.9-3.2-0.4-3.2,2.9v2.3l-0.7-0.5 c-0.4-0.3-0.9-0.6-1.2-0.7c-0.3-0.1-0.6-0.5-0.8-1c-0.4-1-3.3-4-3.7-3.9C264.7,193.9,264.1,194,263.5,194.1 M284.2,194.4 c-0.7,0.6-0.7,0.7-0.8,5.5c-0.1,7.4-0.2,7.4,6.1,7.1c6.8-0.3,8.2-1.5,6.9-5.5c-0.4-1.2-0.5-2.1-0.3-3.2c0.2-1.4,0.1-1.7-0.5-2.3 c-0.4-0.4-1-0.9-1.4-1.3C293.1,193.7,285.3,193.5,284.2,194.4 M304,194.1c-0.8,0.3-2.1,1.7-2.1,2.2c0,0.3-0.5,1.2-1,2.1 c-0.6,0.9-1.1,1.9-1.1,2.2c0,0.7-0.5,1.7-1.4,2.4c-1.6,1.4-0.7,4.5,1.2,3.9c1.3-0.4,2.2-1,2.7-1.8c0.8-1.2,4.4-1.1,5.5,0.1 c1,1.1,3.3,2,3.9,1.5c1.2-1,1.1-2.8-0.2-4c-0.3-0.3-0.8-1.2-1.1-2.1s-0.7-1.8-1-2.1c-0.3-0.3-0.8-1.1-1-1.8 C307.4,194.5,305.7,193.4,304,194.1 M315.3,194c-1.2,0.2-1.4,1.1-1.6,6.5c-0.1,5.7,0,6.2,2,6.2c1.5,0,2.4-0.8,2.6-2.6 c0.3-2.2,1.1-2.2,3.3,0.1c2.6,2.8,4.3,3.3,5.7,1.6l0.7-0.8l-0.8-0.7c-0.4-0.4-1.1-1.3-1.5-1.9l-0.7-1.3l1-1 C330,196.4,323.6,192.6,315.3,194 M79.8,198.1c0.2,0.7,0.6,1.6,0.9,1.9s0.7,1.2,0.9,1.8c0.5,1.8,4.4,6.7,5.4,6.7 c0.3,0,0.8,0.3,1.1,0.6c2.6,2.4,16.5,2.5,20.3,0.1c0.3-0.2,1.4-0.5,2.4-0.7s2.1-0.6,2.6-0.9c0.4-0.3,1.6-0.8,2.6-1.1 c1-0.3,2.1-0.8,2.4-1.1c0.3-0.3,1.3-0.8,2.1-1c0.8-0.3,1.8-0.8,2.2-1.1c0.4-0.3,1.2-0.7,1.8-0.9c0.6-0.2,1.4-0.7,1.9-1 c0.4-0.4,1.3-0.8,1.9-1c0.6-0.2,1.4-0.7,1.8-1.1c0.4-0.4,0.9-0.7,1.2-0.7c0.3,0,1-0.4,1.6-0.9c0.6-0.5,1.7-1.2,2.4-1.5 c0.7-0.3,1.4-0.7,1.5-0.9c0.1-0.2,3-0.3,9.7-0.3c9,0,9.5,0,8.9,0.5c-0.3,0.3-0.8,0.9-1.1,1.3c-0.3,0.4-0.8,0.9-1.2,1 c-0.4,0.1-0.9,0.5-1.2,0.9c-0.3,0.4-0.7,0.7-1,0.7c-0.2,0-0.9,0.4-1.4,0.9c-0.5,0.5-1.6,1.2-2.3,1.5c-0.7,0.4-1.3,0.7-1.3,0.9 c0,0.1-0.7,0.6-1.7,1.1c-0.9,0.5-1.6,1-1.6,1.1s-0.6,0.5-1.4,0.8c-0.8,0.3-1.5,0.7-1.6,1c-0.1,0.3-0.8,0.7-1.5,0.9 c-0.7,0.2-1.6,0.7-2,1.1c-0.5,0.4-1.5,1-2.4,1.4c-0.9,0.4-1.6,0.8-1.6,0.9c0,0.1-0.7,0.5-1.6,0.7c-0.9,0.3-2,0.8-2.4,1.2 c-0.5,0.4-1.1,0.7-1.4,0.7c-0.7,0-2.6,0.8-2.9,1.2c-0.1,0.2-1.1,0.6-2.2,0.9c-1.1,0.3-2.3,0.8-2.6,1c-0.3,0.2-1.5,0.6-2.7,0.9 c-1.1,0.3-2.5,0.8-3,1.1c-0.6,0.4-2,0.7-3.5,0.8c-1.4,0.1-3.4,0.5-4.6,0.8c-2.5,0.6-9.9,0.9-10.8,0.4c-0.8-0.4-4-1.2-4.8-1.2 c-0.3,0-1.2-0.5-2-1.1c-0.8-0.6-1.5-1.1-1.7-1.1c-0.4,0-2.9-2.8-3.5-4c-0.3-0.7-0.9-1.5-1.2-2c-0.3-0.4-0.8-2-1-3.6 c-0.3-1.6-0.7-3.4-0.9-4.1c-0.6-1.8-0.8-5-0.6-7.6L79,194l0.2,1.4C79.4,196.1,79.7,197.3,79.8,198.1 M253.2,195.3 c-0.5,0.1-1.2,0.1-1.7,0c-0.5-0.1-0.1-0.1,0.8-0.1C253.3,195.1,253.6,195.2,253.2,195.3 M307.6,198.4c0.2,0.7,0.7,1.6,1.1,2 c0.4,0.3,0.9,1.3,1.1,2.2c0.3,1.2,0.6,1.7,1.1,1.9c0.7,0.2,0.7,0.9,0.1,1.1c-0.2,0.1-1-0.4-1.9-1.1c-0.9-0.7-1.8-1.2-2-1.2 c-0.2,0-0.3-0.3-0.2-0.8c0.6-3.3-2.7-6.4-3.4-3.2c-0.1,0.5-0.3,1.2-0.5,1.6c-0.2,0.5-0.2,1,0,1.6c0.2,0.6,0.2,0.8-0.1,0.8 c-0.2,0-0.7,0.3-1.2,0.6c-1.1,0.8-1.4,0.8-1.4-0.4c0-1.4,0.6-2.8,1.2-3.1c0.5-0.2,1.2-1.8,1.2-2.9c0-0.3,0.3-0.7,0.7-0.9 c0.4-0.2,0.9-0.6,1.1-0.9C305.1,194.7,307.1,196.5,307.6,198.4 M179.7,200c0.2,4.5,0.1,4.4,2.2,4.8c1,0.2,1.1,0.3,0.6,0.5 c-1.3,0.5-2.3,0.3-3.3-0.7l-1-1v-3.3C178.2,193.9,179.5,193.7,179.7,200 M241.8,201.1c-0.1,4.1-0.1,4.3-0.7,4.3 c-0.7,0-1.1-6.8-0.4-9l0.3-1.2l0.4,0.8C241.8,196.6,241.9,197.9,241.8,201.1 M286.3,197.8c0,1,0.1,2.1,0.3,2.4 c0.3,0.5,0.2,0.8-0.2,1.6c-0.8,1.5-0.3,2.6,1.4,3l1.3,0.3l-2,0.2c-2.7,0.3-2.6,0.4-2.6-4.3c0-4.7,0.3-5.9,1.2-5.4 C286.2,195.9,286.3,196.3,286.3,197.8 M165.6,196.6c0.2,0.4,0.8,1.1,1.3,1.6c0.9,1,0.9,1,0.6,1.6c-0.2,0.3-0.5,0.3-1.3,0.1 c-2-0.6-2.3-0.2-2.4,3.4c-0.1,1.6-0.2,2.1-0.5,2.1c-0.5,0-0.8-6.7-0.4-8.8C163,195.4,164.8,195.4,165.6,196.6 M173.6,197.4 c0,0.6,0,2.7,0,4.7l-0.1,3.5h-1.2c-1,0-1.3-0.1-1.6-0.9c-0.3-0.5-0.7-1.1-1-1.3c-0.4-0.3-1.3-2-1.3-2.5c0-0.3,1.2,0,1.8,0.5 c0.8,0.7,0.9,0.7,1.6,0.1c0.4-0.4,0.5-0.9,0.5-2.6c0-2.2,0.4-3.5,1-3C173.4,196.1,173.5,196.7,173.6,197.4 M198.8,196.3 c0.4,0.6,0.4,0.7-0.1,1.6c-0.5,0.8-0.6,1.5-0.6,4.1c0,2.5-0.1,3.2-0.4,3.4c-0.7,0.3-0.8-0.1-0.8-3.2c0-1.7-0.1-3.5-0.3-4.2 C196.1,195.8,197.6,194.6,198.8,196.3 M208.1,197.7c0,2.4,0.2,2.7,1.4,3.2c0.9,0.4,0.9,0.4,0.2,0.5c-1.2,0-1.6,0.5-1.8,2.3 c-0.2,1.5-0.3,1.8-0.8,1.8c-0.6,0-1.1-6.3-0.6-8.8C207,194.6,208.1,195.4,208.1,197.7 M223.4,196.3c0.4,1.6,0.2,8.9-0.3,9.1 c-0.8,0.3-0.9-0.1-1-4.2C222,196.8,222.7,194,223.4,196.3 M233.3,196.3c0.3,0.8-0.1,2.3-0.7,2.7c-0.4,0.2-0.4,0.5-0.1,1.6 c0.7,2.8,0.4,4.7-0.7,4.7c-0.7,0-0.7-0.1-0.7-2.5c0-1.4-0.1-3.5-0.2-4.8l-0.2-2.3h1.2C232.9,195.6,233.2,195.8,233.3,196.3 M265.9,196.5c2.4,2.6,2.4,3.1-0.3,3.6l-1.7,0.3l-0.1,2.5c-0.1,1.9-0.2,2.5-0.5,2.5c-0.4,0-0.4-0.7-0.4-4.3v-4.3l0.8-0.5 C264.8,195.5,265,195.5,265.9,196.5 M273.5,196.2c0.3,0.8,0.2,8.8-0.2,9.3c-0.6,0.7-2.2-0.1-3-1.6c-0.4-0.7-0.8-1.3-1-1.3 c-0.6,0-1.1-1.5-0.7-2c0.3-0.3,0.5-0.2,1.4,0.7l1,1.1l0.6-0.6c0.5-0.5,0.7-1.2,0.9-3.3C272.8,195.3,273,194.8,273.5,196.2 M317.2,197.4c-0.1,2.4-0.1,2.4,0.6,3.1l0.6,0.6l-1.2,1.1c-0.9,0.9-1.2,1.3-1.2,2.1c0,0.8-0.1,1-0.6,1c-0.5,0-0.6-0.3-0.6-4.3 l0-4.3l1.1-0.5c0.6-0.3,1.1-0.5,1.2-0.5C317.2,195.7,317.2,196.4,317.2,197.4 M294.2,197.8c-0.3,0.4-0.5,1.3-0.5,2.2 c0,1.3-0.1,1.6-0.6,1.6c-0.8,0-1.2-0.6-0.9-1.3c0.1-0.3,0.3-1.3,0.3-2.1c0-1.9,0.2-2,1.3-1.5C294.6,197.1,294.7,197.2,294.2,197.8 M325.5,196.6c0.6,0.6,0.5,2.6-0.2,2.9c-0.8,0.4-1.2,0.1-1.4-1.2C323.6,196.7,324.6,195.7,325.5,196.6 M189,199.9 c-0.1,1.7-0.3,3.1-0.5,3.2c-0.2,0.1-0.5,0.7-0.8,1.3c-0.5,1.2-1.4,1.4-3.6,0.8l-0.9-0.2l1.1,0c2.1-0.1,2.5-0.7,2.6-4.7l0.1-3.6 l1.1,0.1l1.1,0.1L189,199.9 M217.3,196.9c0.3,0.8-0.1,2.6-0.6,2.6c-1.1,0-2.3-2.2-1.5-2.7C215.8,196.4,217.2,196.5,217.3,196.9 M249.5,196.9c0.1,0.2-0.2,0.5-0.7,0.8c-1,0.6-1.4,4.3-0.6,5.1c0.4,0.4-0.1,1.3-0.7,1.3c-1.7,0-1.4-6.8,0.3-7.3 C248.7,196.5,249.3,196.5,249.5,196.9 M257.9,197.6c0.2,0.6,0.6,1.1,0.9,1.1c0.8,0,0.6,3.6-0.2,4.2c-0.3,0.2-0.9,0.9-1.2,1.4 c-0.7,1.1-2.7,1.6-3.8,1c-0.5-0.3-0.1-0.4,2.3-0.8c0.3,0,0.5-0.6,0.7-1.5c0.2-0.9,0.4-1.4,0.7-1.4c0.5,0,0.6-2,0.1-2.2 c-0.4-0.3-1.5-2.5-1.3-2.7C256.7,196.2,257.5,196.6,257.9,197.6 M254.2,197.8c1.7,0.9,2,1.8,1.5,3.7c-0.5,1.9-0.6,2-2.8,2.1 l-1.9,0.1l-1.1-1.4c-1.7-2-0.7-4.1,2.2-5c0.4-0.1,0.8-0.3,0.8-0.3C252.9,197.2,253.5,197.5,254.2,197.8 M213.2,198.2 c0.3,0.8,0.2,1-0.9,1.1c-1.6,0.2-1.9,0-1.5-0.8C211.1,197.6,212.9,197.4,213.2,198.2 M321.4,198.3c0.4,0.8,0.4,0.8-0.9,1.1 c-1.5,0.2-1.8,0.1-1.6-0.9C319.1,197.5,320.9,197.4,321.4,198.3 M305.2,201.2c-0.2,0.2-0.3-0.2-0.2-1.1l0-1.3l0.2,1.1 C305.3,200.5,305.3,201,305.2,201.2 M214.5,200.7c0.5,0.3,1.3,2.3,1.3,3.1c0,0.4,0.2,0.6,0.7,0.6c0.7,0,1.2,0.6,0.9,1 c-0.6,0.6-1.8-0.1-3-1.8c-0.3-0.5-1.2-1.2-1.9-1.7c-0.7-0.4-1.2-0.8-1.2-1C211.2,200.5,213.8,200.3,214.5,200.7 M323.7,201.8 c0.2,0.7,0.4,1.4,0.4,1.7c0,0.3,0.2,0.5,0.5,0.5c0.6,0,1.3,0.6,1.3,1.1c0,0.7-1.6,0.3-1.7-0.5c-0.1-0.4-0.3-0.7-0.6-0.7 c-0.3,0-0.8-0.5-1.2-1c-0.4-0.6-1.1-1.2-1.8-1.4c-1.5-0.5-0.6-1.3,1.3-1.1C323.2,200.6,323.3,200.7,323.7,201.8 M295.4,202.3 c0.3,0.7,0,2-0.5,2c-0.1,0-0.5,0.3-0.9,0.6c-0.6,0.5-1,0.6-2.4,0.4c-1.9-0.2-2.4-0.4-1.1-0.4c2,0,3.2-0.6,3.2-1.6 C293.8,201.7,294.9,201.1,295.4,202.3 M291.5,202.7c0.8,0.6,0.1,1-1.7,1c-0.7,0-1.6-0.1-1.8-0.3c-0.7-0.5,0.4-1.2,1.8-1.2 C290.5,202.3,291.2,202.5,291.5,202.7 M249.4,204.4c0.1,0.2,0.9,0.4,1.9,0.5l1.8,0.2l-2.1,0.2c-2.2,0.2-2.8,0-2.4-0.8 C248.8,204,249.3,203.9,249.4,204.4 M300.1,204.9c0,0.2-0.1,0.4-0.3,0.5c-0.4,0.3-1.3-0.1-1-0.5C299,204.6,300.1,204.6,300.1,204.9" class="st2"/><path id="path4" d="M143.7,131.8c-4.3,1-5.9,7.2-2.2,8.5c4.4,1.5,7.9,0.3,9.9-3.5l0.8-1.6l-0.8-1.4 C150.3,131.8,147.3,130.9,143.7,131.8 M262.5,131.8c-0.8,0.2-1.7,0.6-2,0.8c-4.3,3.8-2.9,8.1,2.7,8.1c5.3,0,8.3-3.4,6.7-7.3 C269.2,131.7,266,131,262.5,131.8 M222.7,132.5c-0.1,0-0.6,0.1-1,0.2c-1.2,0.3-1.7,1.3-2.2,4.1c-0.2,1.4-0.7,3.3-1,4.2 c-0.3,0.9-0.6,2.2-0.6,2.8c0,1.6-0.6,5-1.1,5.7c-0.2,0.3-0.5,1.7-0.7,3c-0.2,1.3-0.6,3.4-0.9,4.7c-0.3,1.2-0.9,4-1.3,6.2 c-0.4,2.1-1,4.7-1.3,5.7c-0.3,1-0.8,3.2-1,4.8c-0.2,1.7-0.5,3.3-0.7,3.6c-0.9,1.4-1.6,7.2-0.9,8.1c0.7,1,22,0.7,23.8-0.2 c0.7-0.4,1.5-0.8,2-0.9c0.4-0.1,1-0.4,1.4-0.8c0.3-0.3,1.2-0.9,1.9-1.4c0.7-0.4,1.3-0.9,1.3-1c0-0.1,0.4-0.7,0.9-1.3 s1.2-1.5,1.4-2.1c0.3-0.6,0.7-1.4,1-1.9c0.3-0.4,0.8-1.9,1.1-3.3c0.3-1.4,0.7-2.8,0.9-3.2c0.5-0.9,0.4-3.7,0-4.6 c-0.2-0.4-0.6-1.4-0.8-2.2c-0.4-1.4-2.2-3.5-3-3.5c-0.9,0,0.1-2.3,1.2-2.7c1.7-0.6,5-4.5,5.7-6.6c0.2-0.6,0.7-1.9,1.1-3 c1-2.4,0.9-7.6,0-8.7c-0.3-0.3-0.8-1-1-1.5c-1.9-3.4-4.3-4.1-16.2-4.3C227.2,132.6,222.9,132.5,222.7,132.5 M102.2,133.2 c-0.8,0.8-2.5,7.6-2.6,9.8c0,0.5-0.3,1.8-0.7,3s-0.9,3.4-1.1,5c-0.2,1.6-0.7,3.8-1.1,4.9c-0.4,1.1-0.7,2.4-0.7,2.9 c0,0.8-0.7,4.1-1.6,7.7c-0.2,1-0.6,2.9-0.8,4.1c-0.2,1.3-0.6,3-0.9,3.8c-0.3,0.8-0.8,3-1.1,4.8c-0.3,1.9-0.6,3.6-0.8,3.7 c-0.6,0.6-0.3,2.5,0.5,2.9c2.4,1.3,11.2,0.3,11.2-1.3c0-0.3,0.3-1.3,0.6-2.1c0.3-0.9,0.8-2.9,1.1-4.6c0.2-1.6,0.6-3.5,0.9-4.2 c0.2-0.7,0.6-2.4,0.9-3.9c0.3-1.5,0.6-3,0.7-3.4l0.2-0.8l0.4,0.9c0.2,0.5,0.5,1.6,0.6,2.4c0.2,0.8,0.5,1.9,0.8,2.4 c0.3,0.5,0.7,2.5,1,4.4c0.3,1.9,0.8,3.9,1,4.5s0.6,2,0.8,3.1c0.5,3,0.5,3,6.5,3.1c7.5,0.1,7.9-0.1,6.8-3.3c-0.4-1.2-0.7-2.5-0.7-3 c0-0.5-0.3-1.6-0.7-2.3c-0.4-0.8-0.9-2.2-1.1-3.3c-0.2-1-0.6-2.4-0.9-3c-0.3-0.6-0.8-2.1-1-3.3c-0.2-1.2-0.8-2.8-1.2-3.6 c-1-1.9-0.6-3.2,1.2-3.9c3.2-1.2,6.8-4.3,8-6.9c0.3-0.7,0.8-1.5,1-1.7c0.2-0.2,0.5-0.7,0.5-1.1c2.1-10.5,0.4-15.4-6.1-17.4 C120.9,132.5,103,132.3,102.2,133.2 M148.7,132.8c0.9,0.4,1.6,2.2,1.2,3.5c-1.2,4.2-9.2,4.7-9.2,0.5 C140.7,134.1,145.6,131.7,148.7,132.8 M268.2,133.7c1.4,1.5,1.2,2.2-0.9,4.8c-0.7,0.9-0.8,0.9-3.6,1l-2.9,0.1l-0.6-1.3 c-0.8-1.8,0-4.2,1.5-4.6c0.3-0.1,0.6-0.3,0.6-0.5C262.3,132.1,267.1,132.5,268.2,133.7 M122,134.4c1,0.1,2.2,0.4,2.6,0.7 c1.8,1,3.2,2.1,3.2,2.5c0,0.2,0.4,0.8,0.8,1.2l0.8,0.8v4.6c0,4.1-0.1,4.7-0.6,5.6c-0.3,0.6-0.9,1.7-1.2,2.5 c-0.7,1.8-3.8,5.1-5.3,5.8c-0.6,0.3-1.1,0.6-1.1,0.8c0,0.2-0.6,0.5-1.3,0.7c-2.7,0.8-3.4,5-1.2,7.5c0.2,0.3,0.6,1.6,0.8,2.9 c0.2,1.3,0.7,2.9,1,3.6c0.3,0.6,0.8,2.2,1.1,3.4c0.3,1.2,0.8,2.9,1.2,3.8c0.7,1.6,0.9,3,0.5,3.8c-0.2,0.3-1.2,0.4-4.5,0.4 c-5.3-0.1-5.9-0.3-6.1-2.3c-0.1-0.7-0.2-2-0.3-2.8c-0.1-0.8-0.4-2.1-0.7-2.9c-0.3-0.8-0.8-2.9-1.1-4.7s-0.8-3.6-1-4.1 c-0.3-0.5-0.6-1.5-0.7-2.1c-0.7-4-2.6-3.6-3.4,0.7c-0.2,1.1-0.6,2.4-0.8,2.9c-0.5,0.9-0.7,1.9-1,5.4c-0.2,1.4-0.6,3.2-0.9,3.9 c-0.3,0.7-0.7,2.2-0.8,3.2c-0.3,2.8-0.3,2.8-5,2.9c-5.1,0.1-5.6-1.1-3.3-7.5c0.3-0.9,0.7-2.8,0.9-4.2c0.2-1.4,0.5-3.1,0.8-3.8 c0.6-1.4,0.8-2.3,1.2-6c0.2-1.5,0.6-3.2,0.9-3.9c0.3-0.7,0.8-2.8,1.1-4.7c0.3-1.9,0.8-4.2,1.1-5c0.3-0.9,0.7-2.8,0.9-4.4 c0.2-1.5,0.6-3.4,0.9-4.1c0.3-0.7,0.7-2.4,0.8-3.8c0.1-1.3,0.3-2.6,0.5-2.8C103,134.1,119.2,134,122,134.4 M244,134.7 c0.6,0.2,1.3,0.7,1.6,1.1c0.3,0.4,0.7,0.7,1,0.7c1.4,0,2.6,5.4,1.8,8.4c-0.2,0.9-0.6,2.4-0.7,3.3c-0.2,0.9-0.6,2-1,2.6 c-0.4,0.5-0.9,1.4-1.1,1.9c-0.2,0.5-0.6,1-0.8,1c-0.2,0-0.7,0.3-1,0.7c-0.3,0.4-1.3,1-2.2,1.4c-2.9,1.1-3.4,3.3-1,4.5 c0.7,0.4,1.4,0.8,1.4,0.9s0.3,0.6,0.7,0.9c1.7,1.6,1.8,9.7,0.1,12.2c-0.3,0.4-0.7,1.3-0.9,2c-0.2,0.7-0.8,1.6-1.1,2 c-0.4,0.4-1.1,1.3-1.6,1.9c-0.5,0.6-1.4,1.3-2,1.7c-0.6,0.3-1.1,0.7-1.1,0.8c0,1.2-5.2,1.8-15.4,1.8H211l-0.2-0.7 c-0.2-0.8,0-1.9,0.6-2.8c0.4-0.7,1.3-5.3,1.3-6.9c0-0.5,0.3-1.8,0.7-2.7c0.4-1,0.9-3.1,1.1-4.8c0.2-1.7,0.6-3.3,0.8-3.6 c0.4-0.7,0.8-2.6,1.3-6.5c0.2-1.3,0.5-2.7,0.7-3.2c0.5-0.9,1.4-5.3,1.4-6.7c0-0.5,0.3-1.6,0.6-2.6c0.6-1.7,1.5-6.5,1.5-8.2 c0-1.7,0.8-1.8,12-1.7C240.3,134.3,243.2,134.4,244,134.7 M163.5,135.9c-3,0.4-3.3,0.6-4.2,3.8c-0.4,1.6-1.8,3-3.4,3.2 c-3.1,0.5-3.6,4.7-0.7,6.6c1.8,1.2,1.8,1,1.2,2.4c-0.2,0.6-0.6,2.1-0.7,3.4c-0.2,1.3-0.5,3-0.8,4c-0.3,0.9-0.7,2.9-0.9,4.5 c-0.3,1.6-0.7,3.7-1.1,4.7c-0.5,1.5-1.6,7.2-2.2,11.7c-0.1,0.6,0,1.4,0.1,1.8c0.2,0.4,0.4,1,0.5,1.4c0.5,2.4,3.1,3.4,8.1,3.2 c4.8-0.2,6.3-1.1,7.1-3.7c0.7-2.7,0.2-3.8-2.2-3.8c-1.9,0-2.4-2.9-1-5.7c0.3-0.5,0.7-2.3,0.9-4c0.2-1.7,0.7-3.9,1-5s0.7-3,0.9-4.3 c0.2-1.3,0.6-3.2,0.9-4.2c0.3-1,0.7-2.5,0.9-3.3c0.5-2.9,0.7-3.1,2.7-3.3c2.3-0.2,2.9-0.6,3.4-1.9c1-2.5,0.1-4.6-2-4.6 c-1.8,0-2.3-2.6-1.1-5.4C171.8,135.8,169,135.3,163.5,135.9 M282.2,135.9c-3,0.3-4.4,1.6-4.4,3.9c0,1.8-0.5,2.7-1.6,2.7 c-4.4,0-6.5,6-2.3,6.8c1.7,0.3,1.9,1.3,1,4.1c-0.4,1.2-1,3.7-1.2,5.4c-0.3,1.7-0.8,4.1-1.2,5.2c-0.4,1.1-0.7,2.5-0.7,3.2 c0,1.5-0.7,5-1.3,6.6c-0.6,1.7-1.1,6.4-0.9,8.4c0.5,3.9,4.6,5.4,11.5,4.3c4.3-0.7,6.7-7.2,2.7-7.2c-1.8,0-2.5-1.1-2.1-3.2 c0.1-0.7,0.4-2.4,0.6-3.8c0.2-1.5,0.6-3.3,0.9-4.2c0.3-0.9,0.8-3.3,1.2-5.3c0.3-2.1,0.8-4.3,1.1-4.9c0.3-0.6,0.6-2.2,0.8-3.5 c0.5-4.2,0.7-4.3,4.2-5.1c1.3-0.3,2.4-1.2,2.4-2c0-0.2,0.2-0.7,0.5-1.2c0.9-1.5-0.3-2.6-3.7-3.5c-0.9-0.2-1-1.1-0.4-2.4 C291.3,136,289.7,135.1,282.2,135.9 M169.3,139.2c0,1.4-0.1,2.8-0.2,3.2c-0.3,1.1,0.5,1.7,2.4,1.9c1.9,0.2,2.1,0.4,1.8,2 c-0.2,1.2-0.7,1.4-3.1,1.5c-2.6,0.1-4.1,3-4.7,9.4c-0.1,1-0.5,2.5-0.8,3.2c-0.3,0.7-0.8,3-1.1,5s-0.7,4.2-1.1,4.9 c-0.7,1.5-1.4,6.8-1.2,8.3c0.3,1.5,1,2,2.6,2c1.7,0,2.3,2.4,0.8,2.9c-0.3,0.1-1,0.5-1.7,0.9c-1.6,1-7.6,1.2-8.7,0.3 c-0.3-0.3-0.9-0.7-1.2-0.9c-1.1-0.8-1-8.6,0.2-10.9c0.3-0.5,0.7-2.6,1.1-4.6c0.3-2,0.7-3.9,0.9-4.1c0.4-0.5,0.9-3,1.3-6.1 c0.2-1.7,0.5-3.2,0.9-3.9c1.5-3,1-6.4-1-6.4c-3.1,0-2.7-2.9,0.5-3.6c2.5-0.6,3.1-1.2,3.4-3.6c0.3-2.4,1.1-2.9,5.8-3.8 C169.6,136.4,169.4,136.3,169.3,139.2 M288.1,137.4c-1.1,4.8-0.5,6.9,1.9,6.9c1.7,0,2.1,0.5,1.6,2.1c-0.3,1.2-0.4,1.2-1.6,1.2 c-3.1,0-4.2,0.9-4.6,3.8c-0.1,0.8-0.5,2.2-0.9,3.2c-0.4,1-0.8,3.3-1.1,5.3c-0.2,1.9-0.5,3.7-0.8,3.9c-0.4,0.5-0.9,2.7-1.2,5.3 c-0.1,1-0.4,2.3-0.6,3c-1.9,5.1-1.4,8,1.4,8.4l1.5,0.2v1.3c0,2.3-2.1,3.3-7,3.3h-3.3l-1.4-1.3l-1.4-1.3l0-2.6 c0-1.8,0.2-2.9,0.5-3.5c0.6-1.2,1.1-3.1,1.3-5.9c0.1-1.2,0.5-3,0.9-3.9c0.4-0.9,0.8-3.1,1.1-4.8c0.2-1.7,0.6-3.4,0.8-3.6 c0.6-0.7,1-3,1.2-6.5l0.2-3.3l-1.1-0.5c-0.6-0.2-1.4-0.5-1.7-0.5c-0.8,0-1.1-0.7-0.6-1.8c0.4-1,1.4-1.5,2.7-1.5 c1.8,0,2.5-0.8,2.8-3.4c0.3-1.9,1.4-3,3.5-3.5C286.9,136.6,288.3,136.6,288.1,137.4 M112.3,137.9c-0.8,0.3-2.1,3.9-2.4,6.6 c-0.2,1.5-0.4,3.1-0.5,3.7c-0.1,0.6-0.4,1.5-0.6,2.1c-0.5,1-1.3,5-1.3,6.5c0,2.2,5.7,2.6,7.1,0.5c0.2-0.4,0.7-0.7,1-0.8 c0.3-0.1,0.8-0.5,1-1c0.2-0.5,0.7-1.1,1-1.4c0.4-0.3,0.8-1.2,1-2c0.2-0.8,0.5-1.7,0.8-2C122.8,144.7,117.8,135.7,112.3,137.9 M231.6,137.9c-1.3,0.2-2.4,2.3-2.4,4.6c0,0.4-0.3,1.2-0.6,1.9c-0.3,0.7-0.7,2.3-0.9,3.7c-0.4,3.1-0.7,4.7-1.2,5.9 c-1.3,3.2,5.3,4,8.4,1c0.8-0.8,1.5-1.6,1.5-1.7c0-0.2,0.4-0.8,0.9-1.4c2-2.5,2.3-12,0.4-12.6c-0.3-0.1-0.9-0.4-1.3-0.8 C235.7,138,233.2,137.7,231.6,137.9 M115.2,139.2c0,0.1,0.5,0.5,1.2,0.7c1.2,0.5,1.5,0.9,2.1,3.7c0.5,2.1-0.8,7.7-2.1,9.6 c-0.6,0.9-1.1,1.7-1.2,1.8c-0.4,0.8-3.9,2.5-5.1,2.4c-1.5-0.1-1.6-0.8-0.6-4.1c0.3-1.1,0.9-3.4,1.2-5.1c0.7-3.8,1.7-7.9,2.1-8.7 C113.2,138.9,115.2,138.7,115.2,139.2 M236.1,140.1c2.1,1,2.5,7,0.7,9.6c-0.3,0.4-0.7,1.4-1,2.2c-0.3,0.8-0.7,1.4-0.8,1.4 c-0.2,0-0.7,0.4-1.1,0.9c-1.3,1.4-4.6,2.1-5.4,1.2c-0.4-0.6,0.1-5.2,0.8-7c0.3-0.8,0.8-2.9,1.1-4.6c0.3-1.7,0.6-3.2,0.6-3.3 C231.9,139.5,234.4,139.3,236.1,140.1 M191.9,141.9c-0.7,0.1-1.9,0.6-2.9,1c-0.9,0.4-2,0.9-2.4,1c-0.4,0.1-1.1,0.6-1.6,0.9 c-0.5,0.4-0.9,0.7-1.1,0.7c-0.7,0-5.5,5.3-6.3,7c-0.3,0.5-0.7,1.2-1,1.6c-0.3,0.3-0.7,1.1-0.9,1.8c-0.2,0.6-0.8,1.9-1.2,2.8 c-0.5,0.9-0.9,2.1-0.9,2.6c0,1.2-0.5,3-1.1,4.4c-0.8,1.8-0.7,10,0.2,11.6c0.4,0.7,0.8,1.7,1,2.3c0.4,1.4,2.7,4,4.5,5 c0.8,0.4,1.6,1,1.8,1.2c1.8,1.5,14,1.3,17.1-0.3c0.7-0.4,1.9-0.9,2.5-1.1c1.9-0.6,2.6-1.9,2.6-4.9c0-3.2-0.9-4.2-2.2-2.7 c-0.3,0.3-0.8,0.7-1.2,0.8c-0.3,0.1-1.4,0.7-2.4,1.3l-1.8,1.1H191h-3.7l-1.2-1.2c-1.7-1.7-1.8-2.1-1.8-7.2c0-4.4,0.3-6,1-6.5 c0.2-0.1,4.8-0.2,10.3-0.2c10.5,0,12-0.2,12.5-1.3c1.2-3,0.8-12.9-0.6-15.2c-0.5-0.8-0.9-1.5-0.9-1.7c0-0.5-2.2-2.4-3.6-3.2 c-0.7-0.4-1.7-0.9-2.1-1.1C199.9,141.8,193.8,141.5,191.9,141.9 M311.2,141.8c-1.6,0.3-3.3,0.8-3.3,1c0,0.1-0.8,0.5-1.7,0.8 c-0.9,0.3-2,0.9-2.3,1.2c-0.3,0.4-0.8,0.7-1,0.7c-0.9,0-5.7,5.5-7,8.1c-0.4,0.7-0.9,1.5-1.1,1.7c-0.6,0.6-0.9,1.3-1.1,2.6 c-0.1,0.7-0.5,1.6-0.8,2.2c-0.3,0.5-0.8,2.2-1,3.8c-0.3,1.5-0.6,3.4-0.8,4.2c-0.8,3.5,0.2,10,1.9,12.1c0.5,0.6,0.9,1.2,0.9,1.4 c0,0.4,2.1,2.3,3.2,2.8c0.5,0.3,1.2,0.7,1.5,1c2,1.7,13.8,1.6,17.4-0.1c0.8-0.4,1.9-0.8,2.3-0.9c1.9-0.4,2.7-2,2.7-5.4 c0-1.6-0.1-2-0.7-2.4c-0.9-0.6-1-0.6-1.6,0.1c-0.6,0.6-2.6,1.8-4.3,2.6c-1.4,0.6-6.4,0.9-7.9,0.4c-2.5-0.8-3.9-4.5-3.6-9.5 c0.4-5.8-0.2-5.6,12.3-5.6c8.3,0,10.3-0.1,10.8-0.4c1.2-0.9,2.4-8.6,1.7-11.3c-0.2-0.7-0.5-2.1-0.7-3c-0.5-2-0.9-3.2-1.3-3.3 c-0.1-0.1-0.6-0.6-1.1-1.2C322.1,142.7,316,140.9,311.2,141.8 M139.6,143c-0.9,0.2-1.9,1.5-1.9,2.5c0,1.2-0.6,3.9-1.1,4.6 c-0.2,0.3-0.5,2-0.7,3.8c-0.2,1.7-0.6,3.9-0.9,4.8c-0.3,0.9-0.9,3.2-1.2,5.1c-0.3,1.9-0.8,4.1-1.1,5c-0.3,0.8-0.6,2.4-0.8,3.5 c-0.3,2.6-0.8,5.1-1.2,5.9c-1.2,2-1.3,7.3-0.1,7.8c1.7,0.7,9.3,0.1,9.7-0.8c1-1.8,1.8-4.9,2.2-8.4c0.2-1.4,0.6-3.3,0.9-4.2 c0.3-0.9,0.7-2.8,0.9-4.2s0.7-3.6,1.1-4.8c0.4-1.2,0.9-3.6,1.1-5.3c0.2-1.7,0.5-3.3,0.7-3.6c0.4-0.6,0.8-2.3,1.4-6 c0.2-1.2,0.5-2.4,0.7-2.8c0.5-0.9-0.1-2.3-1.2-2.7C147.3,142.8,141,142.8,139.6,143 M199.6,143.5c0.4,0.2,1.3,0.6,2,0.8 c1.4,0.4,3.9,2.6,3.9,3.4c0,0.2,0.4,1.2,0.9,2.1c1.5,2.9,1.3,12.4-0.4,13.4c-0.2,0.1-5.1,0.2-10.9,0.2c-7.9,0-10.6,0.1-11,0.4 c-1.6,1.2-2.5,10-1.3,12c0.2,0.4,0.5,1.1,0.7,1.6c0.2,1,2.2,3.2,2.9,3.2c0.3,0,1,0.3,1.5,0.6c2.1,1.1,3,1.1,6.7-0.2 c0.5-0.2,1.3-0.4,1.7-0.5c0.4-0.1,1.3-0.6,1.9-1.1c2.6-2.2,4.2,0.1,1.9,2.7c-0.8,0.9-1.4,1.2-2.6,1.5c-0.9,0.2-2.2,0.7-3,1 c-2.3,1.1-10.6,1-13-0.2c-1-0.5-1.9-0.8-2-0.8c-0.4,0-3.2-2.4-3.2-2.8c0-0.2-0.3-0.7-0.7-1.1c-1.1-1.3-2.1-6.8-1.7-10.2 c0.5-4.6,1.2-8.3,1.7-9.1c0.3-0.5,0.7-1.6,0.9-2.4c0.2-0.8,0.6-1.7,0.9-2c0.3-0.3,0.7-1,0.9-1.6c0.6-1.8,5.4-7.1,7.3-8.1 c0.5-0.3,1.1-0.7,1.2-0.9c0.2-0.2,1.3-0.7,2.6-1s2.9-0.8,3.6-1C194.6,142.8,198.6,142.9,199.6,143.5 M258.2,143.1 c-1.5,0.6-1.9,1.5-2.4,5.3c-0.3,2-0.8,4.6-1.2,5.8c-0.4,1.2-0.7,2.6-0.7,3.2c0,1.2-0.7,4.4-1.1,5.2c-0.4,0.7-0.6,2-1,5.2 c-0.2,1.3-0.5,3-0.8,3.7s-0.8,2.9-1.1,4.9c-0.3,2-0.8,4.3-1.1,5.1c-1.5,4-0.9,4.7,4.1,4.8c6.2,0.2,6.8-0.2,7.3-4.1 c0.4-2.8,0.5-3.4,1.4-6.4c0.4-1.3,0.9-3.8,1.1-5.4c0.2-1.7,0.5-3.3,0.8-3.6c0.2-0.3,0.5-1.5,0.7-2.7c0.6-3.7,1-5.4,1.3-6.2 c0.2-0.4,0.6-2.4,0.9-4.5c0.3-2.1,0.8-4.4,1.1-5.1c0.9-2.2,1-3.6,0.3-4.6l-0.7-0.8l-4.1,0C260.7,142.9,258.5,143,258.2,143.1 M316.7,143.1c3.5,0.8,6.3,2.4,7.3,4.3c0.3,0.5,0.6,1.1,0.8,1.3c1,1,1.4,11.6,0.5,14l-0.3,0.8h-10.8c-13,0-12.1-0.3-12.6,4.1 c-0.6,5.2-0.2,9.6,1,10.8c0.4,0.3,0.7,0.9,0.9,1.2c0.1,0.3,0.7,0.7,1.3,1c0.6,0.2,1.5,0.7,2,1c1.1,0.6,3.8,0.6,5.3,0 c0.6-0.3,1.8-0.7,2.8-1c0.9-0.3,1.8-0.7,1.9-0.9c0.3-0.6,2.1-1.5,2.5-1.2c1.4,0.9-0.5,4.6-2.6,5.1c-1.6,0.4-3.8,1.1-4.2,1.4 c-1,0.8-10.2,0.4-12-0.4c-0.9-0.4-2-0.9-2.4-1c-0.4-0.1-1-0.5-1.3-1c-0.3-0.4-0.8-0.9-1.2-1c-0.4-0.2-0.8-0.6-0.9-1.1 c-0.1-0.5-0.5-1.3-0.9-1.8c-1.7-2.2-1.8-12.1-0.1-15.6c0.3-0.7,0.7-2.1,0.9-3.1c0.2-1,0.7-2.3,1.1-3c0.4-0.6,0.9-1.5,1.1-2 s0.7-1.3,1.2-1.9c0.5-0.5,0.9-1.3,1-1.7s0.4-0.8,0.8-0.9s0.7-0.5,0.9-1c0.2-0.4,0.6-0.9,0.9-1c0.3-0.1,0.8-0.5,1-0.9 c0.3-0.4,0.9-0.9,1.4-1.2c0.5-0.3,1.2-0.7,1.4-1c0.3-0.3,1.4-0.8,2.6-1c1.1-0.3,2.4-0.7,2.7-0.9 C311.5,142.9,314.7,142.7,316.7,143.1 M147.6,144.7c0.4,0.5-0.1,3.9-0.8,5.8c-0.6,1.6-1.5,6.2-1.5,7.9c0,0.5-0.1,1-0.3,1.1 c-0.4,0.2-1.1,3.4-1.5,6.5c-0.2,1.4-0.5,2.7-0.6,2.8c-0.4,0.3-0.9,2.2-1.2,5.3c-0.2,1.6-0.6,3.5-0.9,4.2c-0.3,0.7-0.7,2-0.8,2.8 c-0.1,0.8-0.3,1.9-0.5,2.4l-0.3,1h-3.8c-4.6,0-5.3-0.5-4.1-2.8c0.6-1.2,1-2.7,1.4-5.7c0.2-1.5,0.5-3.1,0.8-3.6 c0.3-0.5,0.7-2.6,1-4.7c0.3-2.1,0.8-4.2,1-4.7c0.3-0.5,0.7-2.6,1.1-4.7c0.3-2.1,0.8-4.3,1.1-5c0.4-1.2,0.7-2.5,1.3-7 c0.3-2,0.4-2,5.1-2.1C146.3,144.3,147.4,144.4,147.6,144.7 M266.1,144.7l0.9,0.3l-0.5,1c-0.3,0.6-0.7,2.2-0.9,4 c-0.2,1.7-0.5,3.3-0.7,3.8c-0.5,0.9-1,3.2-1.2,5.6c-0.1,1-0.4,2.3-0.6,3c-0.7,2-1.3,4.6-1.5,6.8c-0.1,1.2-0.5,2.9-0.9,3.8 c-0.4,0.9-0.8,3.1-1.1,4.8c-0.2,1.7-0.6,3.5-0.8,3.9c-0.2,0.4-0.4,1-0.4,1.2c0,1.8-7.2,2.9-8.1,1.3c-0.4-0.7,0.5-7.1,1.2-8.6 c0.3-0.7,0.7-2.3,0.9-3.6c0.4-3.4,0.6-4.4,1.1-5.2c0.4-0.8,1.3-5.8,1.3-7.1c0-0.4,0.3-1.5,0.7-2.4c0.4-1,0.9-3,1.1-4.9 c0.2-1.7,0.5-3.5,0.8-3.9c0.2-0.4,0.5-1.3,0.6-1.9c0.3-1.9,0.5-2,4.1-2C263.7,144.3,265.6,144.5,266.1,144.7 M192.3,147.2 c-0.4,0.2-1,0.4-1.2,0.4c-0.9,0-3.9,3.9-3.9,5c0,0.2-0.1,0.4-0.2,0.4c-1,0-1.9,4.2-1.3,5.7c0.5,1.2,0.9,1.3,6.5,1.2l4.7-0.1l0.9-1 c1.2-1.4,1.4-8,0.2-9.7C196.6,147.1,194,146.2,192.3,147.2 M311.4,147.1c-0.6,0.1-1.4,0.4-1.7,0.6c-0.9,0.5-3.8,4.3-4.1,5.3 c-0.1,0.5-0.6,1.6-1.1,2.6c-1,2-0.7,3.8,0.7,4.2c1.8,0.5,10.1,0.3,10.7-0.3c1.4-1.2,2.3-7.3,1.4-8.5c-0.2-0.2-0.4-0.8-0.5-1.3 c-0.3-1.3-0.7-1.8-2.3-2.3C313,146.7,313,146.7,311.4,147.1 M196.3,149.5c1.2,1.5,1.5,2.8,1.3,5.7c-0.3,2.8-0.7,3-6.3,2.9 c-5-0.1-5.2-0.3-3.9-2.7c0.4-0.9,1-2,1.1-2.5C189.9,148.9,194.3,147,196.3,149.5 M314,148.6c1.6,0.4,2,1.6,2,5.5 c0,4.2,0.1,4.1-4.9,4.1c-2.7,0-4.3-0.1-4.8-0.4c-0.4-0.2-0.7-0.4-0.8-0.4c-0.2-0.1,1.3-4.2,1.7-4.8c0.3-0.3,0.7-1,1-1.5 C309.8,148.8,311.7,147.9,314,148.6 M225.6,161.7c-1,0.8-1.6,2.6-2,6.3c-0.2,1.9-0.6,3.7-0.9,4.4c-1,2-1.4,6.8-0.7,7.6 c2.1,2.3,9.3-0.3,10.6-3.9c0.2-0.6,0.5-1.2,0.7-1.5c1.6-2.5,1.9-9.7,0.6-10.9c-0.4-0.4-0.9-0.9-1.1-1.2 C231.9,161.1,227,160.6,225.6,161.7 M231.3,163c0.1,0.2,0.5,0.8,1,1.3c3.9,4.4-1.6,15.4-7.5,15.1l-2-0.1l-0.1-1 c-0.1-0.5,0.2-1.6,0.5-2.4c0.3-0.8,0.8-2.7,1.1-4.3c0.6-3.4,2-8.8,2.4-9.1C227.1,162.2,231.2,162.6,231.3,163" class="st3"/></g></svg>