<svg xmlns="http://www.w3.org/2000/svg" width="373.333" height="213.333" preserveAspectRatio="xMidYMid meet" version="1.0" viewBox="0 0 280 160"><metadata>Created by potrace 1.15, written by Peter Selinger 2001-2017</metadata><g fill="#000" stroke="none"><path d="M0 800 l0 -800 1400 0 1400 0 0 800 0 800 -1400 0 -1400 0 0 -800z m518 238 c3 -16 -8 -18 -131 -18 -151 0 -155 -2 -164 -68 -4 -32 -1 -44 16 -61 18 -18 33 -21 106 -21 58 0 96 -5 115 -15 36 -19 39 -28 5 -15 -16 6 -25 6 -25 0 0 -6 -25 -7 -62 -4 -47 4 -59 3 -48 -5 15 -11 14 -11 -80 4 -19 3 -30 0 -30 -7 0 -7 -6 -4 -14 7 -36 52 -27 165 17 205 20 19 32 20 157 18 119 -3 135 -5 138 -20z" transform="translate(0.000000,160.000000) scale(0.100000,-0.100000)"/></g></svg>